<?xml version="1.0" encoding="UTF-8"?>
<svg width="836px" height="183px" viewBox="0 0 836 183" version="1.1" xmlns="http://www.w3.org/2000/svg" xmlns:xlink="http://www.w3.org/1999/xlink">
    <!-- Generator: Sketch 55.2 (78181) - https://sketchapp.com -->
    <title>Hero BG</title>
    <desc>Created with Sketch.</desc>
    <defs>
        <path d="M835.966797,240 L0.0332030455,240 C31.4939229,136.337709 206.644599,57 418,57 C629.355401,57 804.506077,136.337709 835.966797,240 Z" id="path-1"></path>
    </defs>
    <g id="Page-1" stroke="none" stroke-width="1" fill="none" fill-rule="evenodd">
        <g id="Circlewise-Homepage" transform="translate(-315.000000, -393.000000)">
            <g id="Hero" transform="translate(165.000000, 144.000000)">
                <g id="Hero-BG" transform="translate(150.000000, 192.000000)">
                    <mask id="mask-2" fill="white">
                        <use xlink:href="#path-1"></use>
                    </mask>
                    <use id="Combined-Shape" fill="#E4F2F8" xlink:href="#path-1"></use>
                    <path d="M186.008681,240.370774 C186.01911,240.261226 186.037462,240.167757 186.055479,240.095339 C188.897859,229.03995 255.065377,179.434408 262.596718,173.814041 C263.312147,173.280388 264.356287,173.384253 264.936364,174.047738 C265.34838,174.525689 264.420692,174.019695 264.980025,173.753257 C262.888281,167.1756 260.532589,134.581792 260.070076,91.4767496 C259.578218,44.5908587 261.7096,10.3388208 265.393708,6.24316724 C266.714972,4.77781552 276.773937,0 350.976886,0 C432.625206,0 540.1973,5.77021357 547.073659,9.43046371 C549.166464,12.6258066 551.616106,43.6681967 551.9633,88.9152898 C552.281328,131.049579 550.51046,162.74915 547.505687,169.901922 C548.104134,169.483908 548.959196,169.484586 549.561104,169.945057 C562.380819,179.722724 626.266698,229.087406 624.98086,240.653168 C624.927174,241.128356 624.783749,241.566777 624.559635,241.957315 C624.530166,241.837152 624.509113,241.754636 624.498443,241.713219 C624.285425,240.894369 623.39462,240.381033 622.494133,240.581749 C621.603329,240.776248 621.041735,241.600427 621.254753,242.421054 C621.379747,242.902118 608.303254,244.269166 602.449086,244.714286 C546.009808,249.005628 264.447223,248.77532 208.976501,244.714286 C203.34426,244.301947 189.330834,240.992871 189.330834,240.527573 C189.330834,239.684744 188.585269,239 187.665417,239 C186.803335,239 186.094337,239.601435 186.008681,240.370774 Z M624.559635,241.957315 C624.218718,242.551391 623.691087,243.034662 623.008596,243.367992 C615.989657,246.769582 491.930395,248.683927 406.069243,248.957021 C398.334875,248.982092 389.314669,249 379.434014,249 C309.109273,249 195.037014,248.096551 187.012607,242.311431 C186.178503,241.712744 185.999057,241.030285 186.000004,240.549558 Z" id="Combined-Shape" fill-opacity="0.1" fill="#46A7CD" mask="url(#mask-2)"></path>
                    <path d="M171.009282,240.370696 C171.020425,240.261181 171.040027,240.167739 171.059271,240.095339 C174.095891,229.03995 244.785107,179.434408 252.831118,173.814041 C253.595437,173.280388 254.71093,173.384253 255.330649,174.047738 C255.758053,174.511826 254.836026,174.048219 255.329233,173.777016 C253.092201,167.254432 250.569665,134.63393 250.074876,91.4767496 C249.549329,44.5908587 251.826696,10.3388208 255.76314,6.24316724 C257.174902,4.77781552 267.922837,0 347.20818,0 C434.44885,0 549.388896,5.77021357 556.736238,9.43046371 C558.972386,12.6258066 561.589812,43.6681967 561.960786,88.9152898 C562.300778,131.072014 560.406421,162.782905 557.192728,169.913327 C557.832803,169.483933 558.75699,169.480435 559.405827,169.945057 C573.101604,179.722724 641.353261,229.087406 639.979552,240.653168 C639.918433,241.159539 639.748448,241.624161 639.481294,242.033579 C639.43935,241.871658 639.409732,241.762886 639.396064,241.713219 C639.168522,240.894369 638.216981,240.381033 637.255097,240.581749 C636.303556,240.776248 635.703671,241.600427 635.931214,242.421054 C636.06473,242.902118 622.096657,244.269166 615.843342,244.714286 C555.555931,249.005628 254.795898,248.77532 195.543081,244.714286 C189.526824,244.301947 174.557936,240.992871 174.557936,240.527573 C174.557936,239.684744 173.761538,239 172.778968,239 C171.858139,239 171.10082,239.601394 171.009282,240.370696 Z M639.481294,242.033579 C639.116384,242.592809 638.570185,243.049043 637.872509,243.367992 C630.373916,246.769582 497.8368,248.683927 406.108144,248.957021 C397.845231,248.982092 388.20861,249 377.652739,249 C302.522208,249 180.654578,248.096551 172.081806,242.311431 C171.190701,241.712744 170.998993,241.030285 171.000004,240.549558 Z" id="Combined-Shape" fill-opacity="0.1" fill="#46A7CD" mask="url(#mask-2)"></path>
                    <path d="M199.00816,241.370851 C199.01797,241.26127 199.03524,241.167774 199.052193,241.095339 C201.726232,230.03995 263.974945,180.434408 271.060238,174.814041 C271.522513,174.447513 272.130667,174.381723 272.643056,174.591433 C270.684961,167.656624 268.498119,135.239061 268.065996,92.4767496 C267.602774,45.5908587 269.610069,11.3388208 273.079691,7.24316724 C274.324032,5.77781552 283.797372,1 353.680287,1 C430.575108,1 531.884444,6.77021357 538.360466,10.4304637 C540.33143,13.6258066 542.638456,44.6681967 542.965436,89.9152898 C543.27028,132.799478 541.537191,164.874212 538.615148,171.260427 C538.713772,171.239373 538.785922,171.205102 538.827932,171.155474 C539.373654,170.497362 540.36505,170.405137 541.029012,170.945057 C553.089472,180.722724 613.191678,230.087406 611.981993,241.653168 C611.934831,242.096896 611.814053,242.508565 611.626592,242.879122 C611.608277,242.800753 611.594859,242.744935 611.587171,242.713219 C611.386741,241.894369 610.548575,241.381033 609.701298,241.581749 C608.863132,241.776248 608.334723,242.600427 608.535154,243.421054 C608.652762,243.902118 596.348971,245.269166 590.840731,245.714286 C537.736501,250.005628 272.811706,249.77532 220.618799,245.714286 C215.319372,245.301947 202.134012,241.992871 202.134012,241.527573 C202.134012,240.684744 201.432503,240 200.567006,240 C199.755838,240 199.088718,240.601475 199.00816,241.370851 Z M611.626592,242.879122 C611.307921,243.509041 610.796553,244.020155 610.126538,244.367992 C603.523299,247.769582 486.811511,249.683927 406.035529,249.957021 C398.759233,249.982092 390.273253,250 380.977785,250 C314.818063,250 207.501792,249.096551 199.952635,243.311431 C199.167931,242.712744 198.999113,242.030285 199.000003,241.549558 Z" id="Combined-Shape" fill-opacity="0.1" fill="#46A7CD" mask="url(#mask-2)"></path>
                </g>
            </g>
        </g>
    </g>
</svg>