<?xml version="1.0" encoding="UTF-8" standalone="no"?>
<!DOCTYPE svg PUBLIC "-//W3C//DTD SVG 20010904//EN"
              "http://www.w3.org/TR/2001/REC-SVG-20010904/DTD/svg10.dtd">

<svg xmlns="http://www.w3.org/2000/svg"
     width="0.6in" height="0.455556in"
     viewBox="0 0 54 41">
  <path id="Selection"
        fill="none" stroke="black" stroke-width="1"
        d="M 8.28,11.00
           C 9.35,8.53 11.45,2.43 13.50,1.02
             15.57,-0.41 21.38,0.00 24.00,0.00
             24.00,0.00 18.80,24.00 18.80,24.00
             18.80,24.00 16.00,41.00 16.00,41.00
             16.00,41.00 0.00,41.00 0.00,41.00
             0.11,29.20 3.72,21.57 8.28,11.00 Z
           M 36.34,12.00
           C 37.26,9.35 39.48,2.54 41.65,0.99
             43.62,-0.42 49.47,0.00 52.00,0.00
             52.00,0.00 47.44,27.00 47.44,27.00
             47.44,27.00 46.00,41.00 46.00,41.00
             46.00,41.00 29.00,41.00 29.00,41.00
             29.09,30.94 33.08,21.40 36.34,12.00 Z" />
</svg>
