<svg xmlns="http://www.w3.org/2000/svg" width="542" height="452" viewBox="0 0 542 452">
    <g fill="none" fill-rule="evenodd" transform="translate(2)">
        <path fill="#FFB900" d="M106.5 399a2.5 2.5 0 1 1 0-5 2.5 2.5 0 0 1 0 5zm13 0a2.5 2.5 0 1 1 0-5 2.5 2.5 0 0 1 0 5zm-68-41a2.5 2.5 0 1 1 0-5 2.5 2.5 0 0 1 0 5zm13 0a2.5 2.5 0 1 1 0-5 2.5 2.5 0 0 1 0 5zm14 0a2.5 2.5 0 1 1 0-5 2.5 2.5 0 0 1 0 5zm14 0a2.5 2.5 0 1 1 0-5 2.5 2.5 0 0 1 0 5zm14 0a2.5 2.5 0 1 1 0-5 2.5 2.5 0 0 1 0 5zm13 0a2.5 2.5 0 1 1 0-5 2.5 2.5 0 0 1 0 5zm-68 14a2.5 2.5 0 1 1 0-5 2.5 2.5 0 0 1 0 5zm13 0a2.5 2.5 0 1 1 0-5 2.5 2.5 0 0 1 0 5zm14 0a2.5 2.5 0 1 1 0-5 2.5 2.5 0 0 1 0 5zm14 0a2.5 2.5 0 1 1 0-5 2.5 2.5 0 0 1 0 5zm14 0a2.5 2.5 0 1 1 0-5 2.5 2.5 0 0 1 0 5zm13 0a2.5 2.5 0 1 1 0-5 2.5 2.5 0 0 1 0 5zm-68 14a2.5 2.5 0 1 1 0-5 2.5 2.5 0 0 1 0 5zm13 0a2.5 2.5 0 1 1 0-5 2.5 2.5 0 0 1 0 5zm14 0a2.5 2.5 0 1 1 0-5 2.5 2.5 0 0 1 0 5zm14 0a2.5 2.5 0 1 1 0-5 2.5 2.5 0 0 1 0 5zm14 0a2.5 2.5 0 1 1 0-5 2.5 2.5 0 0 1 0 5zm13 0a2.5 2.5 0 1 1 0-5 2.5 2.5 0 0 1 0 5zm-68 13a2.5 2.5 0 1 1 0-5 2.5 2.5 0 0 1 0 5zm13 0a2.5 2.5 0 1 1 0-5 2.5 2.5 0 0 1 0 5zm14 0a2.5 2.5 0 1 1 0-5 2.5 2.5 0 0 1 0 5zm14 0a2.5 2.5 0 1 1 0-5 2.5 2.5 0 0 1 0 5zm-41-54a2.5 2.5 0 1 1 0-5 2.5 2.5 0 0 1 0 5zm13 0a2.5 2.5 0 1 1 0-5 2.5 2.5 0 0 1 0 5zm14 0a2.5 2.5 0 1 1 0-5 2.5 2.5 0 0 1 0 5zm14 0a2.5 2.5 0 1 1 0-5 2.5 2.5 0 0 1 0 5zm14 0a2.5 2.5 0 1 1 0-5 2.5 2.5 0 0 1 0 5zm13 0a2.5 2.5 0 1 1 0-5 2.5 2.5 0 0 1 0 5z"/>
        <circle cx="407.5" cy="319.5" r="132.5" fill="#F8E0EC"/>
        <circle cx="500" cy="195" r="13" fill="#46A7CD"/>
        <circle cx="91" cy="195" r="91" stroke="#E4F2F8" stroke-width="4"/>
        <circle cx="196.5" cy="14.5" r="14.5" fill="#D02E7D"/>
    </g>
</svg>
