<?xml version="1.0" encoding="UTF-8"?>
<svg width="100px" height="100px" viewBox="0 0 100 100" version="1.1" xmlns="http://www.w3.org/2000/svg" xmlns:xlink="http://www.w3.org/1999/xlink">
    <!-- Generator: Sketch 55.2 (78181) - https://sketchapp.com -->
    <title>API</title>
    <desc>Created with Sketch.</desc>
    <g id="Page-1" stroke="none" stroke-width="1" fill="none" fill-rule="evenodd">
        <g id="Circlewise-Advertiser" transform="translate(-1098.000000, -3368.000000)">
            <g id="API" transform="translate(1098.000000, 3368.000000)">
                <path d="M38.458278,-1.55376046e-15 L61.541722,1.55376046e-15 C74.9145031,-9.02779573e-16 79.7637967,1.39238417 84.6526856,4.00699056 C89.5415744,6.62159695 93.3784031,10.4584256 95.9930094,15.3473144 C98.6076158,20.2362033 100,25.0854969 100,38.458278 L100,61.541722 C100,74.9145031 98.6076158,79.7637967 95.9930094,84.6526856 C93.3784031,89.5415744 89.5415744,93.3784031 84.6526856,95.9930094 C79.7637967,98.6076158 74.9145031,100 61.541722,100 L38.458278,100 C25.0854969,100 20.2362033,98.6076158 15.3473144,95.9930094 C10.4584256,93.3784031 6.62159695,89.5415744 4.00699056,84.6526856 C1.39238417,79.7637967 6.01853049e-16,74.9145031 -1.03584031e-15,61.541722 L1.03584031e-15,38.458278 C-6.01853049e-16,25.0854969 1.39238417,20.2362033 4.00699056,15.3473144 C6.62159695,10.4584256 10.4584256,6.62159695 15.3473144,4.00699056 C20.2362033,1.39238417 25.0854969,9.02779573e-16 38.458278,-1.55376046e-15 Z" id="Rectangle" fill="#F67D50"></path>
                <path d="M81.9565217,81.9565217 L51.5217391,81.9565217 C51.0652174,73.7391304 52.5869565,69.7826087 50,69.7826087 C46.0434783,69.7826087 46.0434783,63.6956522 50,63.6956522 C52.5869565,63.6956522 51.0652174,59.8913043 51.5217391,51.5217391 L60.8043478,51.5217391 C61.4130435,54.1086957 63.8478261,56.0869565 66.7391304,56.0869565 C69.6304348,56.0869565 71.9130435,54.1086957 72.673913,51.5217391 L81.9565217,51.5217391 L81.9565217,81.9565217 Z M81.9565217,48.4782609 C73.7391304,48.9347826 69.7826087,47.4130435 69.7826087,50 C69.7826087,53.9565217 63.6956522,53.9565217 63.6956522,50 C63.6956522,49.0869565 63.0869565,48.4782609 62.173913,48.4782609 L51.5217391,48.4782609 L51.5217391,39.1956522 C57.6086957,37.673913 57.6086957,29 51.5217391,27.4782609 L51.5217391,18.0434783 L81.9565217,18.0434783 L81.9565217,48.4782609 Z M18.0434783,51.5217391 C26.2608696,51.0652174 30.2173913,52.5869565 30.2173913,50 C30.2173913,48.326087 31.5869565,46.9565217 33.2608696,46.9565217 C35.0869565,46.9565217 36.3043478,48.326087 36.3043478,50 C36.3043478,50.9130435 36.9130435,51.5217391 37.826087,51.5217391 L48.4782609,51.5217391 L48.4782609,60.8043478 C42.3913043,62.326087 42.3913043,71 48.4782609,72.5217391 L48.4782609,81.9565217 L18.0434783,81.9565217 L18.0434783,51.5217391 Z" id="Path-6" fill-opacity="0.2" fill="#000000" fill-rule="nonzero"></path>
                <path d="M18.0434783,18.0434783 L48.4782609,18.0434783 C48.9347826,26.2608696 47.4130435,30.2173913 50,30.2173913 C53.9565217,30.2173913 53.9565217,36.3043478 50,36.3043478 C47.4130435,36.3043478 48.9347826,40.1086957 48.4782609,48.4782609 L39.1956522,48.4782609 C37.673913,42.3913043 29,42.3913043 27.4782609,48.4782609 L18.0434783,48.4782609 L18.0434783,18.0434783 Z" id="Path" fill="#FFFFFF" fill-rule="nonzero"></path>
            </g>
        </g>
    </g>
</svg>