<?xml version="1.0" encoding="UTF-8"?>
<svg width="815px" height="898px" viewBox="0 0 815 898" version="1.1" xmlns="http://www.w3.org/2000/svg" xmlns:xlink="http://www.w3.org/1999/xlink">
    <!-- Generator: Sketch 43.2 (39069) - http://www.bohemiancoding.com/sketch -->
    <title>bg_remote</title>
    <desc>Created with Sketch.</desc>
    <defs></defs>
    <g id="New-website" stroke="none" stroke-width="1" fill="none" fill-rule="evenodd">
        <g id="Careers" transform="translate(-581.000000, -2522.000000)">
            <g id="Group-2" transform="translate(0.000000, 2651.000000)">
                <g id="bg_remote" transform="translate(580.000000, -129.000000)">
                    <path d="M369.529542,562.717166 L375.993326,556.322566 L377.037848,541.627253 L369.078033,530.780712 C369.078033,530.780712 367.240793,535.67915 362.344598,519.059451 C357.448402,502.439752 362.344598,515.385623 357.448402,502.439752 C352.552207,489.49388 353.251663,491.243323 353.251663,491.243323 L348.705196,476.548009 L346.124201,464.651804 L344.592391,454.50504 L344.592391,442.958722 L337.597826,442.258946 L337.597826,466.051357 L321.992951,473.573958 L307.894239,489.498546 L293.44813,497.200756 L277.36063,497.200756 C277.36063,497.200756 270.016337,496.146425 264.770413,486.34955 C259.524489,476.552675 259.874217,486.172273 259.524489,476.375398 C259.174761,466.578522 253.928837,471.038433 259.174761,466.489884 C264.420685,461.941335 264.420685,461.897016 264.420685,461.897016 L262.322315,456.275475 L256.854897,453.816926 L253.22938,442.263611 C253.22938,442.263611 254.08738,423.717193 253.038196,422.317639 C251.989011,420.918085 249,409.019547 249,409.019547 L249,396.773453 L252.513603,390.82535 L250.771957,380.328698 L253.224717,370.531822 L260.221614,362.484389 L263.369168,354.087067 C263.369168,354.087067 262.669712,347.089299 268.615092,348.138964 L274.560473,349.18863 L286.453565,341.840973 L293.098402,328.895102 L305.338891,322.247222 L316.879924,315.599343 L323.175033,307.901798 L329.470141,313.8499 L336.814435,318.048561 L344.858185,313.150124 L351.85275,300.554141 L341.71063,306.852132 L334.716065,309.65124 L328.770685,303.703137 L336.464707,291.457042 C336.464707,291.457042 344.508457,278.511171 345.557641,277.111618 C346.606826,275.712064 353.251663,271.863292 353.251663,271.863292 L357.448402,261.716528 L363.568647,249.820322 L369.688891,236.174674 L370.03862,218.330366 L378.781826,208.53349 L382.279109,196.637284 L387.874761,187.190297 L395.219054,176.665654 L402.21362,166.89677 L405.361174,148.352684 L415.853022,137.335865 L425.645413,119.321277 L415.853022,119.321277 C415.853022,119.321277 410.25737,111.619067 397.667152,124.215049 C385.076935,136.811032 385.076935,136.633755 385.076935,136.633755 L371.787261,140.743778 L378.08237,128.103476 L395.568783,111.985283 L410.956826,107.777292 L410.25737,90.9756508 L419.350304,86.0748806 L429.842152,79.0747798 L434.038891,98.6685306 L443.131826,105.666299 L450.825848,92.3705393 L451.525304,83.2734407 L440.334,79.0747798 L446.629109,69.9776813 L463.066337,67.178574 C463.066337,67.178574 460.618239,71.3772349 466.913348,54.5825914 C473.208457,37.7879479 470.235766,43.5657718 470.235766,43.5657718 L490.345141,35.3480594 L495.591065,35.3480594 L496.141304,51.7834841 L496.141304,60.8805827 L507.93181,46.1852696 L519.946141,47.5848233 L517.211266,34.6389522 L534.902853,24.4921884 L545.935614,20.9933044 L559.232283,5.5982145 L569.728793,0 L576.72569,6.99776813 L569.031668,30.1883717 L573.927864,39.8872783 L583.020799,18.3738065 L590.017696,0.359218764 L598.411174,0.359218764 L593.514978,23.4471884 L605.405739,13.3027572 L611.001391,0.359218764 L623.591609,0.359218764 L622.192696,19.2485275 L632.684543,4.72582608 L643.176391,5.51190869 L661.362261,16.7503243 L666.258457,30.1673784 L655.067152,39.7053364 L638.979652,35.3480594 L631.985087,35.3480594 L647.37313,47.5894884 L668.356826,54.9348124 L664.859543,66.303853 L650.870413,71.2909291 L637.580739,88.1275592 L629.886717,103.545975 L633.384,124.54861 L643.176391,136.451813 L652.968783,149.050129 L646.673674,165.144995 L641.252886,178.59004 L638.71619,184.477496 L644.792136,193.357664 L650.453071,211.617173 L655.384239,230.368859 L650.154636,232.745768 L648.762717,246.706315 L650.149973,260.685523 L654.684783,266.614966 L654.684783,277.461506 L661.679348,287.60827 L661.679348,296.35548 L654.875967,302.653471 L661.527799,314.199789 L670.464522,318.048561 L678,331.694209 L678,341.491085 L672.304092,355.486621 C672.304092,355.486621 657.389348,372.981041 656.340163,374.380595 C655.290978,375.780148 641.889391,396.073676 641.889391,396.073676 L631.691315,403.344357 L618.373663,423.836155 L606.804652,422.557896 L594.564163,422.557896 L571.13237,433.108198 L549.099489,443.194314 L541.055739,441.500854 L537.908185,433.833633 L527.766065,426.84986 L520.421772,424.057751 L513.077478,414.263208 L516.924489,401.669558 L518.323402,381.725919 L515.525576,365.983273 C515.525576,365.983273 515.525576,365.983273 510.279652,353.737179 C505.033728,341.491085 512.028293,341.845638 512.028293,341.845638 L514.476391,329.254321 L518.67313,329.254321 L523.919054,322.426832 L534.935495,308.778851 L549.099489,295.744342 L562.738891,275.406495 L567.968495,267.685624 L577.744565,260.316974 L577.744565,254.018983 L576.012245,245.271773 C576.012245,245.271773 576.194103,244.693291 571.997364,235.946081 C567.800625,227.19887 562.738891,226.620388 562.738891,226.620388 L550.84813,226.620388 L533.011989,229.473145 C533.011989,229.473145 533.011989,229.237553 523.919054,238.68454 C514.82612,248.131527 519.722315,252.474809 519.722315,252.474809 L517.234582,263.043771 L516.924489,273.225524 C516.924489,273.225524 517.623946,282.691172 516.924489,284.090725 C516.225033,285.490279 512.028293,295.646373 510.979109,297.395815 C509.929924,299.145257 496.64025,303.698472 496.64025,303.698472 L481.951663,319.795671 L470.235766,331.341988 L463.166592,346.389522 L454.173913,361.084835 L454.173913,371.931376 L447.179348,377.879479 L447.179348,390.475461 L449.002598,410.419101 L450.699946,415.667427 C450.699946,415.667427 458.631783,419.166311 460.380424,419.866088 C462.129065,420.565864 470.291723,427.213744 470.291723,427.213744 L476.733717,436.660731 L480.217011,445.058053 L474.614364,447.85716 C474.614364,447.85716 474.609701,447.85716 470.238098,456.254482 C468.258636,460.058935 470.235766,462.552473 470.235766,462.552473 L465.864163,469.550241 L455.722043,476.198121 L451.975288,473.573958 L440.184783,480.74667 L440.184783,497.891202 L437.811293,519.059451 L434.087853,538.128369 L430.914652,556.56049 L422.14813,557.84808 L413.404924,557.84808 L402.880435,560.521227 L402.880435,578.890368 L392.649717,577.019632 L380.138772,579 L382.994886,570.537366 L377.641712,561.657198 L369.67976,563.043842 L372.575338,569.340796 L377,573.553679 L369.185162,572.851531 L369.185162,577.415488 L364.097603,579.828534 L364.171004,584.876972 L370.708218,589.529867 L362.879617,592.516333 L362.450684,602 L358.665981,602 L351.096575,598.957362 L348,590.297548 L355.998339,590.297548 L359.57431,585.611886 L351.883335,582.330518 L348.541327,577.064414 L348.541327,568.638649 L352.550819,563.417014 L355.184054,568.725247 L359.617891,567.409891 L361.601993,558.457515 L369.185162,556 L369.185162,561.968251 L369.529542,562.717166 Z M219,898 L20,898 L24.0458716,887.591216 L31.7419226,885.489122 L35.9397686,879.53319 L45.3849222,876.730398 L52.7311528,882.686331 L61.4766653,880.934586 L70.5719984,881.284935 L90.5117671,883.03668 L108.702433,880.584237 L121.295971,883.387029 L138.786996,887.240867 L147.882329,878.832492 L149.981252,867.971674 C149.981252,867.971674 153.129637,855.008762 153.129637,853.257017 C153.129637,851.505272 155.578381,841.345152 155.578381,841.345152 L150.331073,833.287125 C150.331073,833.287125 151.030714,828.38224 151.030714,827.331193 C151.030714,826.280146 149.281611,819.623515 149.281611,819.623515 L137.387714,801.755717 L131.790586,791.945946 L125.493817,790.194201 L117.098125,785.289316 L105.903869,780.734779 L99.2572796,781.435477 L94.7096131,776.180242 L100.306741,771.273021 L93.6601516,769.871625 L94.7096131,761.811263 L105.554049,760.054847 L113.2501,756.191665 L119.197048,760.026819 L128.292381,762.093878 L146.832868,761.671123 C146.832868,761.671123 145.783406,757.322125 144.034304,755.57038 C142.285201,753.818635 141.58556,745.821336 141.58556,745.821336 L140.885919,732.27918 L146.832868,732.27918 L149.981252,738.288833 L154.528919,741.846043 L163.624252,744.648835 L168.87156,740.444647 L175.86797,731.335573 L190.910251,727.481735 L194.058636,720.124406 L196.157559,702.957306 L204.903071,697.351723 L213.998404,694.89928 L225.542481,686.140556 L232.189071,679.483925 L235.687276,676.330784 L240.234942,665.469966 L245.132429,646.551122 L250.729557,650.755309 L250.029916,659.514034 L258.775429,656.711242 L256.326685,647.952517 L268.570403,637.442048 L281.513761,636.040652 L287.810531,629.033673 L296.206223,627.281928 L299.704428,634.639256 L305.651376,629.033673 L310.898684,622.026693 L312.997607,615.356049 L314.746709,608.363083 L310.898684,601.005755 L312.997607,591.546332 L309.149581,580.685514 L300.753889,577.182024 C300.753889,577.182024 299.354607,570.175045 299.354607,568.773649 C299.354607,567.372253 301.10371,548.453408 301.10371,548.453408 L306.351017,550.905851 L314.396889,542.147127 L311.948145,535.840845 L306.351017,542.847825 L300.753889,538.643637 L302.502992,534.089101 L309.849222,527.782819 L315.796171,529.884913 L327.340247,519.374444 L338.534503,510.615719 L339.234144,519.724793 L338.184683,528.483517 L335.036298,535.490496 L347.280016,547.752711 L345.181093,556.511435 L335.386119,556.861784 C335.386119,556.861784 330.138811,564.569461 328.739529,567.021904 C327.340247,569.474347 335.036298,571.226092 335.036298,571.226092 L345.880734,571.92679 L343.781811,576.831675 L345.880734,589.09389 L339.933785,592.597379 L333.986837,586.991796 L327.340247,578.933769 L322.792581,589.794588 L329.788991,599.25401 L335.735939,600.655406 L328.039888,603.107849 L333.287196,606.961687 L349.728759,605.91064 L349.029118,611.516224 L343.781811,619.57425 L353.226964,618.523204 L366.170323,612.216922 L378.763861,606.260989 L387.159553,606.961687 L385.760271,612.567271 L393.106502,615.356049 L395.205425,620.975646 L396.604707,625.530183 L404.300758,625.179834 L403.251296,621.325995 L418.993219,615.356049 L431.936578,607.312036 L445.929398,601.706453 L459.222577,596.451218 L466.918628,596.100869 L469.017551,603.808547 C469.017551,603.808547 468.66773,600.305057 475.31432,607.312036 C481.960909,614.319016 475.31432,607.312036 484.759473,606.961687 C494.204627,606.611338 498.052653,601.356104 498.052653,601.356104 L491.056243,600.655406 L490.706422,595.049822 L500.851217,593.998775 C500.851217,593.998775 509.246909,591.546332 510.996011,591.195983 C512.745114,590.845634 513.794575,587.342145 513.794575,587.342145 L512.745114,575.780629 L508.897088,563.868763 L508.547268,547.052013 L513.094934,539.694684 L515.193857,526.731772 L519.391703,517.27235 L530.93578,510.966068 C530.93578,510.966068 528.836857,512.367464 535.483446,516.571652 C542.130036,520.775839 533.384523,515.170256 540.380933,521.826886 C547.377343,528.483517 548.426805,529.884913 548.426805,529.884913 L559.271241,530.585611 L563.469087,516.221303 L567.317112,497.302458 L565.56801,492.049559 L556.122856,494.502002 L552.27483,487.499694 L548.426805,476.645883 L552.974471,464.400018 L560.320702,456.022006 L570.815317,455.382035 L581.659753,452 L593.203829,452 L610.345034,456.087405 L621.53929,456.67132 L625.037495,456.67132 L620.489828,463.848802 L616.641803,470.325587 L605.797367,472.427681 L606.147188,482.237452 L611.044675,488.543734 L615.592341,494.499666 C615.592341,494.499666 618.041085,502.207344 617.691264,503.258391 C617.341444,504.309438 612.094136,513.76886 612.094136,513.76886 L613.143598,516.922001 L617.691264,522.877933 C617.691264,522.877933 615.942162,530.235262 615.942162,531.987007 C615.942162,533.738752 619.787855,535.840845 622.586419,539.344335 C625.384983,542.847825 623.28606,556.161086 623.28606,556.161086 L627.134086,558.963878 L636.92906,561.065972 C646.724034,563.168065 634.827805,559.314227 640.075112,565.970857 C645.32242,572.627488 646.717038,570.525394 646.717038,570.525394 L651.955017,565.970857 L661.383845,569.824696 L667.997785,576.130978 C667.997785,576.130978 669.331767,584.189004 669.681588,586.291098 C670.031408,588.393192 666.400271,597.852614 666.400271,597.852614 L666.400271,605.209942 L675.803446,613.267969 L682.757878,622.377042 C682.757878,622.377042 688.704826,622.377042 691.853211,626.230881 C695.001596,630.08472 698.14998,633.938558 697.100519,636.040652 C696.051057,638.142746 691.15357,641.723313 691.15357,641.723313 C691.15357,641.723313 688.355006,643.74833 685.206621,642.346934 C682.058237,640.945538 676.810929,642.346934 676.810929,642.346934 L676.111288,651.456007 L680.658955,662.914754 L682.058237,672.827295 C682.058237,672.827295 689.754288,672.126597 692.203032,669.323805 C694.651775,666.521013 700.948544,665.469966 700.948544,665.469966 C700.948544,665.469966 708.294775,662.316825 712.1428,663.017523 C715.990826,663.718221 720.888313,671.425899 720.888313,671.425899 L722.637415,681.586019 L722.287595,690.347079 L729.284005,694.903951 C729.284005,694.903951 736.980056,694.21026 740.12844,697.013052 C743.276825,699.815844 740.478261,706.481817 740.478261,706.481817 C740.478261,706.481817 743.976466,714.5632 746.425209,716.665294 C748.873953,718.767388 760.068209,718.811765 760.068209,718.811765 L772.311927,716.798427 C772.311927,716.798427 777.559234,724.683614 781.40726,726.785708 C785.255285,728.887802 791.552054,729.94352 791.552054,729.94352 L799.597926,729.94352 L811.482494,734.66856 L814.971371,741.145345 L814.605225,750.254418 L815.272216,754.808955 C815.272216,754.808955 815.206917,754.808955 811.009071,759.71384 C806.811225,764.618726 813.324882,763.918028 813.324882,763.918028 L813.324882,770.22431 L809.609789,777.581638 L800.647387,778.983034 L791.901875,784.588618 L787.704029,789.843852 L788.40367,797.201181 L783.506183,799.303275 L776.859593,801.405368 L766.364978,805.259207 C766.364978,805.259207 756.220183,807.010952 753.77144,808.762697 C751.322696,810.514442 742.227363,814.71863 742.227363,814.71863 C742.227363,814.71863 732.432389,818.572468 731.382928,819.273166 C730.333466,819.973864 727.884723,823.827703 727.884723,823.827703 L733.13203,828.732589 L734.181492,835.03887 L739.77862,840.644454 L752.721978,837.491313 L759.368568,839.593407 C759.368568,839.593407 758.319107,841.695501 758.319107,845.549339 C758.319107,849.403178 750.972876,847.301084 750.972876,847.301084 C750.972876,847.301084 745.375748,844.498292 743.976466,845.899688 C742.577184,847.301084 740.478261,849.052829 740.478261,849.052829 L730.333466,851.855621 C730.333466,851.855621 723.684545,857.811553 721.935442,859.563298 C720.18634,861.315043 712.490289,862.015741 709.691725,857.811553 L712.140468,850.103876 L708.992083,841.695501 L699.894418,840.294105 L692.543523,837.841662 L701.28204,834.688521 L710.710868,829.082938 L710.710868,822.426307 L701.45695,821.37526 L692.552852,823.127005 L688.704826,820.324213 C688.704826,820.324213 684.50698,816.470374 683.807339,815.068979 C683.107698,813.667583 692.203032,814.71863 692.203032,814.71863 C692.203032,814.71863 688.355006,811.21514 686.955724,810.514442 C685.556442,809.813744 674.012365,810.514442 674.012365,810.514442 L667.365776,814.017932 C667.365776,814.017932 662.818109,821.024911 662.468289,822.426307 C662.118468,823.827703 656.17152,831.827338 656.17152,831.827338 L653.722776,839.243058 L647.076187,849.753527 L641.479059,853.257017 L634.132828,851.855621 C634.132828,851.855621 634.132828,850.454225 635.881931,860.614345 C637.631033,870.774466 635.881931,860.614345 634.482649,867.621325 C633.083367,874.628304 631.684085,875.403743 631.684085,875.403743 L629.235341,883.387029 L623.638213,885.489122 L619.790187,892.846451 L619.790187,898 L454,898 C454,898 439.982449,885.489122 436.134424,884.788425 C432.286398,884.087727 424.590347,879.53319 424.590347,879.53319 L416.194655,869.022721 L409.198245,859.212949 L407.449142,845.19899 C407.449142,845.19899 403.950937,844.848641 402.201835,848.352131 C400.452732,851.855621 402.201835,853.257017 402.201835,853.257017 L394.155963,851.855621 L389.608297,837.140964 C389.608297,837.140964 384.360989,831.185031 381.562425,831.885729 C378.763861,832.586427 373.866374,834.688521 373.866374,834.688521 L369.318708,840.994803 C369.318708,840.994803 370.71799,848.001782 371.767451,850.804574 C372.816913,853.607366 368.619067,862.716439 368.619067,862.716439 L373.516554,867.621325 L384.71081,878.131794 C384.71081,878.131794 389.958117,886.18982 391.357399,887.941565 C392.756681,889.69331 391.357399,898 391.357399,898 L339.933785,898 C339.933785,898 337.834862,879.180505 335.735939,874.27562 C333.637016,869.370734 321.743119,866.915956 316.145991,864.813862 C310.548863,862.711768 306.351017,862.709432 306.351017,862.709432 C306.351017,862.709432 303.202633,869.008707 302.153171,870.760452 C301.10371,872.512196 294.806941,875.298639 294.806941,875.298639 L285.361787,880.175496 L277.665736,888.175131 L264.722377,890.863476 L257.026326,886.778407 L245.83207,881.761409 L233.238532,881.761409 C233.238532,881.761409 222.743917,888.004628 220.994815,890.106722 C219.245712,892.208816 219,896.248255 219,898 Z M408.081274,582 L414,585.651048 L414,590 C414,590 410.403839,587.709552 408.178754,587.398913 C405.953669,587.088273 407.445535,583.242558 408.081274,582 Z M472.22807,503 L481,503 L476.789474,507.597851 L474.684211,512.888718 L472.22807,522.211051 L468.719298,526.353031 C468.719298,526.353031 468.368421,532.907905 468.719298,533.943975 C469.070175,534.980046 464.157895,536 464.157895,536 C464.157895,536 464.508772,533.554873 465.210526,532.518803 C465.912281,531.482732 462.754386,527.626247 462.754386,526.24482 C462.754386,524.863392 461,517.498081 461,517.498081 L465.210526,513.47122 L472.22807,503 Z M534.818182,467 L538.909091,470.073171 L543,474 L537.204545,476.560976 L534.818182,481 L531.409091,474.170732 L528,470.414634 L534.818182,467 Z M530.869955,483.459333 L538.2713,482.754667 L545,481 L542.316143,487.3 L536.609865,491.5 L530.91704,495 L527.603139,500.6 L524,502 L524,483.459333 L530.869955,483.459333 Z M490.489533,423 L497,427.439024 L493.658345,430 L496.52295,433.243902 L496.52295,437 L491.971385,432.560976 L485,431.195122 L485,426.414634 L490.489533,423 Z M76.5114848,724.364855 L84.5584721,716.850641 L92.9553283,708.989366 L96.1041494,700.489872 L101.352185,695.719533 L111.498386,695.719533 L121.994456,690.182867 C121.994456,690.182867 121.994456,689.88705 122.694194,684.99559 C123.393932,680.10413 122.694194,684.99559 117.09629,688.83888 C111.498386,692.68217 112.897862,686.39315 112.897862,686.39315 L104.850875,683.94742 L96.8038874,680.10413 L90.8561143,682.54986 L84.9083411,678.35718 L90.5062452,673.11633 L102.401792,663.6828 L106.60022,655.29744 L103.10153,649.35781 L97.5036255,651.45415 L94.3524719,650.05659 L98.5509,644.11696 L95.4020789,637.47855 L97.501293,635.03282 L103.096865,638.87611 L114.288008,637.12916 L120.578653,630.49075 L119.165182,623.15356 L124.382895,618.96088 L124.67212,610.57552 L116.153976,614.055444 L111.015567,601.84077 L114.031438,602.88894 L114.031438,591.00968 L106.992073,593.8048 L101.002316,598.34687 L95.7542804,594.50358 L90.8561143,594.85297 L87.0075551,589.26273 L91.9057213,584.37127 L94.0049354,576.3353 L86.6576861,575.28713 L80.3600439,579.305115 L77.9109609,571.09445 L85.9579481,562.70909 L85.2582101,554.32373 L79.6603059,562.01031 L72.6629257,569.69689 L67.7647596,565.8536 L75.8117468,558.8658 L80.0101749,550.82983 L85.2582101,541.04691 L78.2608299,544.19142 L76.1639483,550.13105 L68.116961,551.878 L68.821364,542.09508 L72.6792529,540.34813 L77.2462098,532.66155 L76.5814586,526.72192 L70.0039212,528.81826 L60,518.33656 C60,518.33656 60.2845601,518.33656 65.5325953,512.74632 C70.7806304,507.15608 72.0471563,510.64998 72.0471563,510.64998 L72.0471563,519.559425 L74.3796163,519.03534 L74.3796163,514.84266 L77.7196991,505.40913 L84.2086031,503.31279 C84.2086031,503.31279 82.459258,500.51767 81.059782,498.77072 C79.6603059,497.02377 85.2582101,484.44573 85.2582101,484.44573 L90.1563762,482 L100.302578,483.74695 L112.547993,482 L118.845635,485.4939 L112.897862,492.4817 L106.250351,500.86706 L107.649827,506.4573 L99.6028395,515.89083 L109.749041,512.045211 L121.994456,510.295931 C121.994456,510.295931 121.994456,510.293602 134.239872,508.546652 C146.485287,506.799702 138.788169,511.684174 138.788169,511.684174 C138.788169,511.684174 138.788169,511.670199 140.537514,519.531474 C142.286859,527.392749 136.51402,527.013078 136.51402,527.013078 L132.490526,535.691926 L127.59236,542.565592 L120.245111,548.975734 L127.59236,548.975734 L130.741181,555.963534 L125.143277,555.963534 L119.545373,557.239972 L111.148517,558.891422 L119.195504,563.05848 L124.09367,560.044409 C128.991836,557.030338 123.046396,560.96214 130.043776,560.26336 C137.041156,559.56458 130.046108,560.26336 134.944274,566.55238 C139.842441,572.8414 141.948652,574.23896 141.948652,574.23896 C141.948652,574.23896 145.459004,583.3231 145.459004,584.37127 C145.459004,585.41944 148.983352,596.25053 150.732697,597.2987 C152.482042,598.34687 158.481129,599.04565 158.481129,599.04565 L167.678019,617.56332 L167.678019,625.94868 L174.591431,631.88831 L175.559402,638.87611 L171.39596,644.81574 L173.915017,650.05659 L180.704809,644.81574 L195.683867,649.00842 L198,655.29744 L198,663.6828 L192.884915,669.478015 L190.568782,677.369571 L180.072712,683.020372 L181.122319,688.731733 L193.33508,688.731733 L193.33508,693.38095 L186.179092,699.907555 L174.824677,705.0366 L152.43306,705.0366 L144.036204,708.644634 L133.190265,709.806938 L124.443539,707.365867 L116.746421,707.365867 L111.498386,717.61464 L107.649827,716.682933 L92.2555903,716.682933 L88.7569002,726 L83.158996,726 L76.5114848,724.364855 Z M51.4247945,588.127277 L56.7965081,588.258919 L59.2224432,583.322335 L65.4582517,581.646247 L71.0032463,586.187904 L76.2016787,593.195503 L74.4688679,596.016408 L72.0406223,601.658218 L78.6206826,599.542539 L80,603.59759 L77.9067645,609.76832 L74.0645454,616.46797 L67.7663557,617.173196 C67.7663557,617.173196 67.6462141,617.173196 67.299652,622.10978 C66.9530898,627.046364 69.4876144,631.277721 69.4876144,631.277721 L71.4352938,638.682597 L71.4352938,647.145313 C71.4352938,657.371094 69.1248794,659.839386 69.1248794,659.839386 L69.1248794,667.596875 L59.6683532,667.288926 L48.8255783,669.096656 L39.1218378,675.885634 L28.0179861,680.295649 L23.5265405,687 L11.3645191,687 L11.3645191,678.880495 L6.35554061,682.115133 L3.77249729,679.355347 L11.0503027,668.193966 L1,668.193966 L2.73281081,663.492458 L11.3645191,663.492458 L11.3645191,655.608028 L15.712719,651.021706 L20.0609189,645.379896 C20.0609189,645.379896 23.8731027,639.738086 24.2196648,639.385473 C24.566227,639.03286 16.2487351,639.380771 16.2487351,639.380771 L8.62436756,635.849938 L5.5053081,629.846112 L14.8624865,622.770342 L7.58468108,620.964963 L5.5053081,613.811617 L11.743427,606.599503 L15.2090486,609.42511 L25.9524757,609.42511 L35.2957915,602.91117 L25.9270611,601.688778 L28.6741438,596.077528 L35.5568684,586.307793 L42.5712865,586.051561 C42.5712865,586.051561 43.8720498,584.530623 45.3160588,582.396138 C49.1282426,576.754328 44.9255988,582.880393 52.2034042,582.617109 C59.4812096,582.351474 51.4247945,588.127277 51.4247945,588.127277 Z M53.8786653,509 L52.4226491,512.795019 L54,518.769157 L50.9383215,527.318008 L48,530 L50.3114257,526.312261 L50.3114257,521.283525 L48.289181,516.254789 L48.289181,509 L53.8786653,509 Z M53,491.707333 L60.5588571,492.528667 L62.9748571,486 L69,486 L69,489.957333 L66.7142857,495.907333 L66.7142857,499.582333 L58.8605714,507 L55.2857143,507 L55.2857143,503.257333 L53,500.107333 L53,491.707333 Z M437,545.15493 L443.615865,520 L450,531.953052 L437,558 L437,545.15493 Z M118,462 L121,471.134328 L116,474 L114,466.656716 L118,462 Z M126,459 L129,463 L126,467 L126,459 Z M154,411 L154,426.958937 L147.037135,430.064236 L147.037135,438 L140,427.421281 L149.149204,423.745527 L144.152188,418.979468 C144.152188,418.979468 154,411.51755 154,411 Z" id="Fill-11" fill="#D7EDF6"></path>
                    <path d="M163.21875,676.78125 C163.718753,677.250002 164.312497,677.484375 165,677.484375 C165.687503,677.484375 166.273435,677.24219 166.757812,676.757812 C167.24219,676.273435 167.484375,675.687503 167.484375,675 C167.484375,674.312497 167.24219,673.726565 166.757812,673.242188 C166.273435,672.75781 165.687503,672.515625 165,672.515625 C164.312497,672.515625 163.726565,672.75781 163.242188,673.242188 C162.75781,673.726565 162.515625,674.312497 162.515625,675 C162.515625,675.687503 162.749998,676.281247 163.21875,676.78125 Z M160.03125,670.078125 C161.406257,668.703118 163.06249,668.015625 165,668.015625 C166.93751,668.015625 168.585931,668.695306 169.945312,670.054688 C171.304694,671.414069 171.984375,673.06249 171.984375,675 C171.984375,675.968755 171.74219,677.078119 171.257812,678.328125 C170.773435,679.578131 170.187503,680.749995 169.5,681.84375 C168.812497,682.937505 168.132816,683.960933 167.460938,684.914062 C166.789059,685.867192 166.218752,686.624997 165.75,687.1875 L165,687.984375 C164.812499,687.765624 164.562502,687.476564 164.25,687.117188 C163.937498,686.757811 163.375004,686.039068 162.5625,684.960938 C161.749996,683.882807 161.039066,682.835943 160.429688,681.820312 C159.820309,680.804682 159.265628,679.656256 158.765625,678.375 C158.265622,677.093744 158.015625,675.968755 158.015625,675 C158.015625,673.06249 158.687493,671.421882 160.03125,670.078125 Z" id="place" fill="#00B4FF"></path>
                    <path d="M338.21875,425.78125 C338.718753,426.250002 339.312497,426.484375 340,426.484375 C340.687503,426.484375 341.273435,426.24219 341.757812,425.757812 C342.24219,425.273435 342.484375,424.687503 342.484375,424 C342.484375,423.312497 342.24219,422.726565 341.757812,422.242188 C341.273435,421.75781 340.687503,421.515625 340,421.515625 C339.312497,421.515625 338.726565,421.75781 338.242188,422.242188 C337.75781,422.726565 337.515625,423.312497 337.515625,424 C337.515625,424.687503 337.749998,425.281248 338.21875,425.78125 Z M335.03125,419.078125 C336.406257,417.703118 338.06249,417.015625 340,417.015625 C341.93751,417.015625 343.585931,417.695306 344.945312,419.054688 C346.304694,420.414069 346.984375,422.06249 346.984375,424 C346.984375,424.968755 346.74219,426.078119 346.257812,427.328125 C345.773435,428.578131 345.187503,429.749995 344.5,430.84375 C343.812497,431.937505 343.132816,432.960933 342.460938,433.914062 C341.789059,434.867192 341.218752,435.624997 340.75,436.1875 L340,436.984375 C339.812499,436.765624 339.562502,436.476564 339.25,436.117188 C338.937498,435.757811 338.375004,435.039068 337.5625,433.960938 C336.749996,432.882807 336.039066,431.835943 335.429688,430.820312 C334.820309,429.804682 334.265628,428.656256 333.765625,427.375 C333.265622,426.093744 333.015625,424.968755 333.015625,424 C333.015625,422.06249 333.687493,420.421882 335.03125,419.078125 Z" id="place" fill="#00B4FF"></path>
                    <path d="M554.21875,525.78125 C554.718752,526.250002 555.312497,526.484375 556,526.484375 C556.687503,526.484375 557.273435,526.24219 557.757812,525.757812 C558.24219,525.273435 558.484375,524.687503 558.484375,524 C558.484375,523.312497 558.24219,522.726565 557.757812,522.242188 C557.273435,521.75781 556.687503,521.515625 556,521.515625 C555.312497,521.515625 554.726565,521.75781 554.242188,522.242188 C553.75781,522.726565 553.515625,523.312497 553.515625,524 C553.515625,524.687503 553.749998,525.281248 554.21875,525.78125 Z M551.03125,519.078125 C552.406257,517.703118 554.06249,517.015625 556,517.015625 C557.93751,517.015625 559.585931,517.695306 560.945312,519.054688 C562.304694,520.414069 562.984375,522.06249 562.984375,524 C562.984375,524.968755 562.74219,526.078119 562.257812,527.328125 C561.773435,528.578131 561.187503,529.749995 560.5,530.84375 C559.812497,531.937505 559.132816,532.960933 558.460938,533.914062 C557.789059,534.867192 557.218752,535.624997 556.75,536.1875 L556,536.984375 C555.812499,536.765624 555.562502,536.476564 555.25,536.117188 C554.937498,535.757811 554.375004,535.039068 553.5625,533.960938 C552.749996,532.882807 552.039066,531.835943 551.429688,530.820312 C550.820309,529.804682 550.265627,528.656256 549.765625,527.375 C549.265623,526.093744 549.015625,524.968755 549.015625,524 C549.015625,522.06249 549.687493,520.421882 551.03125,519.078125 Z" id="place" fill="#00B4FF"></path>
                    <path d="M326.21875,627.78125 C326.718753,628.250002 327.312497,628.484375 328,628.484375 C328.687503,628.484375 329.273435,628.24219 329.757812,627.757812 C330.24219,627.273435 330.484375,626.687503 330.484375,626 C330.484375,625.312497 330.24219,624.726565 329.757812,624.242188 C329.273435,623.75781 328.687503,623.515625 328,623.515625 C327.312497,623.515625 326.726565,623.75781 326.242188,624.242188 C325.75781,624.726565 325.515625,625.312497 325.515625,626 C325.515625,626.687503 325.749998,627.281248 326.21875,627.78125 Z M323.03125,621.078125 C324.406257,619.703118 326.06249,619.015625 328,619.015625 C329.93751,619.015625 331.585931,619.695306 332.945312,621.054688 C334.304694,622.414069 334.984375,624.06249 334.984375,626 C334.984375,626.968755 334.74219,628.078119 334.257812,629.328125 C333.773435,630.578131 333.187503,631.749995 332.5,632.84375 C331.812497,633.937505 331.132816,634.960933 330.460938,635.914062 C329.789059,636.867192 329.218752,637.624997 328.75,638.1875 L328,638.984375 C327.812499,638.765624 327.562502,638.476564 327.25,638.117188 C326.937498,637.757811 326.375004,637.039068 325.5625,635.960938 C324.749996,634.882807 324.039066,633.835943 323.429688,632.820312 C322.820309,631.804682 322.265628,630.656256 321.765625,629.375 C321.265622,628.093744 321.015625,626.968755 321.015625,626 C321.015625,624.06249 321.687493,622.421882 323.03125,621.078125 Z" id="place" fill="#00B4FF"></path>
                    <path d="M381.21875,659.78125 C381.718753,660.250002 382.312497,660.484375 383,660.484375 C383.687503,660.484375 384.273435,660.24219 384.757812,659.757812 C385.24219,659.273435 385.484375,658.687503 385.484375,658 C385.484375,657.312497 385.24219,656.726565 384.757812,656.242188 C384.273435,655.75781 383.687503,655.515625 383,655.515625 C382.312497,655.515625 381.726565,655.75781 381.242188,656.242188 C380.75781,656.726565 380.515625,657.312497 380.515625,658 C380.515625,658.687503 380.749998,659.281247 381.21875,659.78125 Z M378.03125,653.078125 C379.406257,651.703118 381.06249,651.015625 383,651.015625 C384.93751,651.015625 386.585931,651.695306 387.945312,653.054688 C389.304694,654.414069 389.984375,656.06249 389.984375,658 C389.984375,658.968755 389.74219,660.078119 389.257812,661.328125 C388.773435,662.578131 388.187503,663.749995 387.5,664.84375 C386.812497,665.937505 386.132816,666.960933 385.460938,667.914062 C384.789059,668.867192 384.218752,669.624997 383.75,670.1875 L383,670.984375 C382.812499,670.765624 382.562502,670.476564 382.25,670.117188 C381.937498,669.757811 381.375004,669.039068 380.5625,667.960938 C379.749996,666.882807 379.039066,665.835943 378.429688,664.820312 C377.820309,663.804682 377.265628,662.656256 376.765625,661.375 C376.265622,660.093744 376.015625,658.968755 376.015625,658 C376.015625,656.06249 376.687493,654.421882 378.03125,653.078125 Z" id="place" fill="#00B4FF"></path>
                    <path d="M437.21875,662.78125 C437.718753,663.250002 438.312497,663.484375 439,663.484375 C439.687503,663.484375 440.273435,663.24219 440.757812,662.757812 C441.24219,662.273435 441.484375,661.687503 441.484375,661 C441.484375,660.312497 441.24219,659.726565 440.757812,659.242188 C440.273435,658.75781 439.687503,658.515625 439,658.515625 C438.312497,658.515625 437.726565,658.75781 437.242188,659.242188 C436.75781,659.726565 436.515625,660.312497 436.515625,661 C436.515625,661.687503 436.749998,662.281247 437.21875,662.78125 Z M434.03125,656.078125 C435.406257,654.703118 437.06249,654.015625 439,654.015625 C440.93751,654.015625 442.585931,654.695306 443.945312,656.054688 C445.304694,657.414069 445.984375,659.06249 445.984375,661 C445.984375,661.968755 445.74219,663.078119 445.257812,664.328125 C444.773435,665.578131 444.187503,666.749995 443.5,667.84375 C442.812497,668.937505 442.132816,669.960933 441.460938,670.914062 C440.789059,671.867192 440.218752,672.624997 439.75,673.1875 L439,673.984375 C438.812499,673.765624 438.562502,673.476564 438.25,673.117188 C437.937498,672.757811 437.375004,672.039068 436.5625,670.960938 C435.749996,669.882807 435.039066,668.835943 434.429688,667.820312 C433.820309,666.804682 433.265628,665.656256 432.765625,664.375 C432.265622,663.093744 432.015625,661.968755 432.015625,661 C432.015625,659.06249 432.687493,657.421882 434.03125,656.078125 Z" id="place" fill="#00B4FF"></path>
                    <path d="M137.570312,661 L137.570312,649.578125 L138.898438,649.578125 L138.898438,659.796875 L143.9375,659.796875 L143.9375,661 L137.570312,661 Z M153.070312,656.710938 C153.070312,658.106778 152.718754,659.196611 152.015625,659.980469 C151.312496,660.764327 150.341152,661.15625 149.101562,661.15625 C148.335934,661.15625 147.656253,660.976564 147.0625,660.617188 C146.468747,660.257811 146.010418,659.742191 145.6875,659.070312 C145.364582,658.398434 145.203125,657.611984 145.203125,656.710938 C145.203125,655.315097 145.55208,654.227868 146.25,653.449219 C146.94792,652.670569 147.91666,652.28125 149.15625,652.28125 C150.354173,652.28125 151.305986,652.679684 152.011719,653.476562 C152.717451,654.273441 153.070312,655.351556 153.070312,656.710938 Z M146.546875,656.710938 C146.546875,657.804693 146.765623,658.638018 147.203125,659.210938 C147.640627,659.783857 148.28385,660.070312 149.132812,660.070312 C149.981775,660.070312 150.6263,659.785159 151.066406,659.214844 C151.506513,658.644528 151.726562,657.809901 151.726562,656.710938 C151.726562,655.62239 151.506513,654.795576 151.066406,654.230469 C150.6263,653.665362 149.976567,653.382812 149.117188,653.382812 C148.268225,653.382812 147.627606,653.661456 147.195312,654.21875 C146.763019,654.776044 146.546875,655.606765 146.546875,656.710938 Z M161.203125,661 L161.203125,655.460938 C161.203125,654.763017 161.044272,654.242189 160.726562,653.898438 C160.408853,653.554686 159.911462,653.382812 159.234375,653.382812 C158.338537,653.382812 157.682294,653.624998 157.265625,654.109375 C156.848956,654.593752 156.640625,655.393224 156.640625,656.507812 L156.640625,661 L155.34375,661 L155.34375,652.4375 L156.398438,652.4375 L156.609375,653.609375 L156.671875,653.609375 C156.937501,653.187498 157.309893,652.860678 157.789062,652.628906 C158.268232,652.397134 158.80208,652.28125 159.390625,652.28125 C160.42188,652.28125 161.197914,652.529945 161.71875,653.027344 C162.239586,653.524742 162.5,654.320307 162.5,655.414062 L162.5,661 L161.203125,661 Z M170.992188,659.851562 L170.921875,659.851562 C170.322914,660.721359 169.427089,661.15625 168.234375,661.15625 C167.114578,661.15625 166.243493,660.773441 165.621094,660.007812 C164.998695,659.242184 164.6875,658.153653 164.6875,656.742188 C164.6875,655.330722 164.999997,654.234379 165.625,653.453125 C166.250003,652.671871 167.119786,652.28125 168.234375,652.28125 C169.395839,652.28125 170.286455,652.703121 170.90625,653.546875 L171.007812,653.546875 L170.953125,652.929688 L170.921875,652.328125 L170.921875,648.84375 L172.21875,648.84375 L172.21875,661 L171.164062,661 L170.992188,659.851562 Z M168.398438,660.070312 C169.283859,660.070312 169.925779,659.829429 170.324219,659.347656 C170.722658,658.865883 170.921875,658.088547 170.921875,657.015625 L170.921875,656.742188 C170.921875,655.52864 170.720054,654.662763 170.316406,654.144531 C169.912758,653.626299 169.268234,653.367188 168.382812,653.367188 C167.622392,653.367188 167.040367,653.662757 166.636719,654.253906 C166.233071,654.845055 166.03125,655.679682 166.03125,656.757812 C166.03125,657.851568 166.231769,658.677081 166.632812,659.234375 C167.033856,659.791669 167.622392,660.070312 168.398438,660.070312 Z M182.359375,656.710938 C182.359375,658.106778 182.007816,659.196611 181.304688,659.980469 C180.601559,660.764327 179.630215,661.15625 178.390625,661.15625 C177.624996,661.15625 176.945315,660.976564 176.351562,660.617188 C175.75781,660.257811 175.299481,659.742191 174.976562,659.070312 C174.653644,658.398434 174.492188,657.611984 174.492188,656.710938 C174.492188,655.315097 174.841142,654.227868 175.539062,653.449219 C176.236983,652.670569 177.205723,652.28125 178.445312,652.28125 C179.643235,652.28125 180.595049,652.679684 181.300781,653.476562 C182.006514,654.273441 182.359375,655.351556 182.359375,656.710938 Z M175.835938,656.710938 C175.835938,657.804693 176.054685,658.638018 176.492188,659.210938 C176.92969,659.783857 177.572912,660.070312 178.421875,660.070312 C179.270838,660.070312 179.915362,659.785159 180.355469,659.214844 C180.795575,658.644528 181.015625,657.809901 181.015625,656.710938 C181.015625,655.62239 180.795575,654.795576 180.355469,654.230469 C179.915362,653.665362 179.265629,653.382812 178.40625,653.382812 C177.557287,653.382812 176.916669,653.661456 176.484375,654.21875 C176.052081,654.776044 175.835938,655.606765 175.835938,656.710938 Z M190.492188,661 L190.492188,655.460938 C190.492188,654.763017 190.333335,654.242189 190.015625,653.898438 C189.697915,653.554686 189.200524,653.382812 188.523438,653.382812 C187.6276,653.382812 186.971356,653.624998 186.554688,654.109375 C186.138019,654.593752 185.929688,655.393224 185.929688,656.507812 L185.929688,661 L184.632812,661 L184.632812,652.4375 L185.6875,652.4375 L185.898438,653.609375 L185.960938,653.609375 C186.226564,653.187498 186.598956,652.860678 187.078125,652.628906 C187.557294,652.397134 188.091143,652.28125 188.679688,652.28125 C189.710943,652.28125 190.486977,652.529945 191.007812,653.027344 C191.528648,653.524742 191.789062,654.320307 191.789062,655.414062 L191.789062,661 L190.492188,661 Z" id="London" fill="#00B4FF"></path>
                    <path d="M336.082031,455.273438 C336.082031,457.101572 335.619796,458.539057 334.695312,459.585938 C333.770829,460.632818 332.485685,461.15625 330.839844,461.15625 C329.157544,461.15625 327.85938,460.641932 326.945312,459.613281 C326.031245,458.58463 325.574219,457.132822 325.574219,455.257812 C325.574219,453.398428 326.032547,451.957036 326.949219,450.933594 C327.86589,449.910151 329.16796,449.398438 330.855469,449.398438 C332.496102,449.398438 333.777339,449.919266 334.699219,450.960938 C335.621098,452.002609 336.082031,453.440095 336.082031,455.273438 Z M326.980469,455.273438 C326.980469,456.82032 327.309893,457.993486 327.96875,458.792969 C328.627607,459.592452 329.584629,459.992188 330.839844,459.992188 C332.105475,459.992188 333.061195,459.593754 333.707031,458.796875 C334.352868,457.999996 334.675781,456.825529 334.675781,455.273438 C334.675781,453.736971 334.35417,452.571619 333.710938,451.777344 C333.067705,450.983069 332.115892,450.585938 330.855469,450.585938 C329.589837,450.585938 328.627607,450.985673 327.96875,451.785156 C327.309893,452.584639 326.980469,453.747388 326.980469,455.273438 Z M343.957031,458.664062 C343.957031,459.460941 343.660159,460.075519 343.066406,460.507812 C342.472653,460.940106 341.639328,461.15625 340.566406,461.15625 C339.430984,461.15625 338.545576,460.976564 337.910156,460.617188 L337.910156,459.414062 C338.321617,459.622397 338.763018,459.786458 339.234375,459.90625 C339.705732,460.026042 340.160154,460.085938 340.597656,460.085938 C341.274743,460.085938 341.795571,459.977866 342.160156,459.761719 C342.524741,459.545572 342.707031,459.216148 342.707031,458.773438 C342.707031,458.440103 342.562501,458.154949 342.273438,457.917969 C341.984374,457.680988 341.420577,457.401043 340.582031,457.078125 C339.785152,456.781249 339.218752,456.522137 338.882812,456.300781 C338.546873,456.079426 338.296876,455.828126 338.132812,455.546875 C337.968749,455.265624 337.886719,454.929689 337.886719,454.539062 C337.886719,453.841142 338.17057,453.290367 338.738281,452.886719 C339.305992,452.483071 340.08463,452.28125 341.074219,452.28125 C341.996098,452.28125 342.897131,452.468748 343.777344,452.84375 L343.316406,453.898438 C342.457027,453.544269 341.678389,453.367188 340.980469,453.367188 C340.365882,453.367188 339.902345,453.463541 339.589844,453.65625 C339.277342,453.848959 339.121094,454.114582 339.121094,454.453125 C339.121094,454.682293 339.179687,454.877603 339.296875,455.039062 C339.414063,455.200522 339.602863,455.354166 339.863281,455.5 C340.123699,455.645834 340.623694,455.856769 341.363281,456.132812 C342.378911,456.502606 343.065102,456.874998 343.421875,457.25 C343.778648,457.625002 343.957031,458.096351 343.957031,458.664062 Z M347.363281,461 L346.066406,461 L346.066406,448.84375 L347.363281,448.84375 L347.363281,461 Z M357.503906,456.710938 C357.503906,458.106778 357.152347,459.196611 356.449219,459.980469 C355.74609,460.764327 354.774746,461.15625 353.535156,461.15625 C352.769527,461.15625 352.089847,460.976564 351.496094,460.617188 C350.902341,460.257811 350.444012,459.742191 350.121094,459.070312 C349.798175,458.398434 349.636719,457.611984 349.636719,456.710938 C349.636719,455.315097 349.985674,454.227868 350.683594,453.449219 C351.381514,452.670569 352.350254,452.28125 353.589844,452.28125 C354.787766,452.28125 355.73958,452.679684 356.445312,453.476562 C357.151045,454.273441 357.503906,455.351556 357.503906,456.710938 Z M350.980469,456.710938 C350.980469,457.804693 351.199217,458.638018 351.636719,459.210938 C352.074221,459.783857 352.717444,460.070312 353.566406,460.070312 C354.415369,460.070312 355.059894,459.785159 355.5,459.214844 C355.940106,458.644528 356.160156,457.809901 356.160156,456.710938 C356.160156,455.62239 355.940106,454.795576 355.5,454.230469 C355.059894,453.665362 354.410161,453.382812 353.550781,453.382812 C352.701819,453.382812 352.0612,453.661456 351.628906,454.21875 C351.196612,454.776044 350.980469,455.606765 350.980469,456.710938 Z" id="Oslo" fill="#00B4FF"></path>
                    <path d="M304.488281,610 L303.160156,610 L303.160156,604.625 L297.144531,604.625 L297.144531,610 L295.816406,610 L295.816406,598.578125 L297.144531,598.578125 L297.144531,603.4375 L303.160156,603.4375 L303.160156,598.578125 L304.488281,598.578125 L304.488281,610 Z M312.691406,610 L312.433594,608.78125 L312.371094,608.78125 C311.944008,609.317711 311.518231,609.680989 311.09375,609.871094 C310.669269,610.061199 310.139326,610.15625 309.503906,610.15625 C308.654944,610.15625 307.989586,609.937502 307.507812,609.5 C307.026039,609.062498 306.785156,608.440108 306.785156,607.632812 C306.785156,605.903637 308.167955,604.997396 310.933594,604.914062 L312.386719,604.867188 L312.386719,604.335938 C312.386719,603.664059 312.242189,603.16797 311.953125,602.847656 C311.664061,602.527342 311.201826,602.367188 310.566406,602.367188 C309.852861,602.367188 309.045577,602.585935 308.144531,603.023438 L307.746094,602.03125 C308.167971,601.802082 308.630206,601.622396 309.132812,601.492188 C309.635419,601.361979 310.13932,601.296875 310.644531,601.296875 C311.66537,601.296875 312.421873,601.523435 312.914062,601.976562 C313.406252,602.42969 313.652344,603.156245 313.652344,604.15625 L313.652344,610 L312.691406,610 Z M309.761719,609.085938 C310.569014,609.085938 311.203123,608.864586 311.664062,608.421875 C312.125002,607.979164 312.355469,607.359379 312.355469,606.5625 L312.355469,605.789062 L311.058594,605.84375 C310.027339,605.880209 309.283856,606.040363 308.828125,606.324219 C308.372394,606.608074 308.144531,607.049476 308.144531,607.648438 C308.144531,608.11719 308.286457,608.473957 308.570312,608.71875 C308.854168,608.963543 309.2513,609.085938 309.761719,609.085938 Z M327.238281,610 L327.238281,604.429688 C327.238281,603.747392 327.092449,603.235679 326.800781,602.894531 C326.509113,602.553384 326.055993,602.382812 325.441406,602.382812 C324.634111,602.382812 324.037762,602.614581 323.652344,603.078125 C323.266925,603.541669 323.074219,604.255204 323.074219,605.21875 L323.074219,610 L321.777344,610 L321.777344,604.429688 C321.777344,603.747392 321.631512,603.235679 321.339844,602.894531 C321.048176,602.553384 320.592451,602.382812 319.972656,602.382812 C319.160152,602.382812 318.565106,602.6263 318.1875,603.113281 C317.809894,603.600263 317.621094,604.398432 317.621094,605.507812 L317.621094,610 L316.324219,610 L316.324219,601.4375 L317.378906,601.4375 L317.589844,602.609375 L317.652344,602.609375 C317.897137,602.192706 318.242185,601.867189 318.6875,601.632812 C319.132815,601.398436 319.631508,601.28125 320.183594,601.28125 C321.522142,601.28125 322.397133,601.76562 322.808594,602.734375 L322.871094,602.734375 C323.126303,602.286456 323.496091,601.932293 323.980469,601.671875 C324.464846,601.411457 325.016924,601.28125 325.636719,601.28125 C326.605474,601.28125 327.330727,601.529945 327.8125,602.027344 C328.294273,602.524742 328.535156,603.320307 328.535156,604.414062 L328.535156,610 L327.238281,610 Z M335.191406,601.296875 C336.316412,601.296875 337.190101,601.680986 337.8125,602.449219 C338.434899,603.217452 338.746094,604.30468 338.746094,605.710938 C338.746094,607.117195 338.432295,608.209632 337.804688,608.988281 C337.17708,609.766931 336.305995,610.15625 335.191406,610.15625 C334.634112,610.15625 334.125002,610.053386 333.664062,609.847656 C333.203123,609.641926 332.816408,609.325523 332.503906,608.898438 L332.410156,608.898438 L332.136719,610 L331.207031,610 L331.207031,597.84375 L332.503906,597.84375 L332.503906,600.796875 C332.503906,601.458337 332.483073,602.052081 332.441406,602.578125 L332.503906,602.578125 C333.108076,601.723954 334.0039,601.296875 335.191406,601.296875 Z M335.003906,602.382812 C334.118485,602.382812 333.480471,602.636716 333.089844,603.144531 C332.699217,603.652346 332.503906,604.507806 332.503906,605.710938 C332.503906,606.914069 332.704425,607.774737 333.105469,608.292969 C333.506512,608.811201 334.149735,609.070312 335.035156,609.070312 C335.832035,609.070312 336.425779,608.779951 336.816406,608.199219 C337.207033,607.618487 337.402344,606.78386 337.402344,605.695312 C337.402344,604.580724 337.207033,603.750003 336.816406,603.203125 C336.425779,602.656247 335.821619,602.382812 335.003906,602.382812 Z M342.230469,601.4375 L342.230469,606.992188 C342.230469,607.690108 342.389321,608.210936 342.707031,608.554688 C343.024741,608.898439 343.522132,609.070312 344.199219,609.070312 C345.095057,609.070312 345.749998,608.825523 346.164062,608.335938 C346.578127,607.846352 346.785156,607.046881 346.785156,605.9375 L346.785156,601.4375 L348.082031,601.4375 L348.082031,610 L347.011719,610 L346.824219,608.851562 L346.753906,608.851562 C346.48828,609.27344 346.119794,609.596353 345.648438,609.820312 C345.177081,610.044272 344.639326,610.15625 344.035156,610.15625 C342.993484,610.15625 342.213544,609.908857 341.695312,609.414062 C341.177081,608.919268 340.917969,608.12761 340.917969,607.039062 L340.917969,601.4375 L342.230469,601.4375 Z M354.738281,601.28125 C355.118491,601.28125 355.459634,601.3125 355.761719,601.375 L355.582031,602.578125 C355.227863,602.5 354.915366,602.460938 354.644531,602.460938 C353.951819,602.460938 353.359377,602.742185 352.867188,603.304688 C352.374998,603.86719 352.128906,604.567704 352.128906,605.40625 L352.128906,610 L350.832031,610 L350.832031,601.4375 L351.902344,601.4375 L352.050781,603.023438 L352.113281,603.023438 C352.430991,602.466143 352.8138,602.03646 353.261719,601.734375 C353.709638,601.43229 354.20182,601.28125 354.738281,601.28125 Z M364.371094,601.4375 L364.371094,602.257812 L362.785156,602.445312 C362.93099,602.627605 363.061197,602.865884 363.175781,603.160156 C363.290365,603.454429 363.347656,603.786456 363.347656,604.15625 C363.347656,604.994796 363.061201,605.66406 362.488281,606.164062 C361.915362,606.664065 361.128911,606.914062 360.128906,606.914062 C359.873697,606.914062 359.634116,606.893229 359.410156,606.851562 C358.85807,607.143231 358.582031,607.510414 358.582031,607.953125 C358.582031,608.187501 358.678384,608.360677 358.871094,608.472656 C359.063803,608.584636 359.394529,608.640625 359.863281,608.640625 L361.378906,608.640625 C362.305994,608.640625 363.018227,608.835936 363.515625,609.226562 C364.013023,609.617189 364.261719,610.184892 364.261719,610.929688 C364.261719,611.877609 363.881514,612.600258 363.121094,613.097656 C362.360673,613.595055 361.251309,613.84375 359.792969,613.84375 C358.673171,613.84375 357.809899,613.635419 357.203125,613.21875 C356.596351,612.802081 356.292969,612.213545 356.292969,611.453125 C356.292969,610.932289 356.459634,610.481773 356.792969,610.101562 C357.126304,609.721352 357.595049,609.463542 358.199219,609.328125 C357.980468,609.229166 357.796876,609.075522 357.648438,608.867188 C357.499999,608.658853 357.425781,608.416668 357.425781,608.140625 C357.425781,607.828123 357.509114,607.554689 357.675781,607.320312 C357.842449,607.085936 358.105467,606.859376 358.464844,606.640625 C358.022133,606.458332 357.66146,606.14844 357.382812,605.710938 C357.104165,605.273435 356.964844,604.77344 356.964844,604.210938 C356.964844,603.273433 357.246091,602.550784 357.808594,602.042969 C358.371097,601.535154 359.167964,601.28125 360.199219,601.28125 C360.647138,601.28125 361.050779,601.333333 361.410156,601.4375 L364.371094,601.4375 Z M357.542969,611.4375 C357.542969,611.901044 357.738279,612.252603 358.128906,612.492188 C358.519533,612.731772 359.079423,612.851562 359.808594,612.851562 C360.897141,612.851562 361.703122,612.688804 362.226562,612.363281 C362.750003,612.037759 363.011719,611.596357 363.011719,611.039062 C363.011719,610.575519 362.868491,610.253907 362.582031,610.074219 C362.295571,609.89453 361.756514,609.804688 360.964844,609.804688 L359.410156,609.804688 C358.821612,609.804688 358.363283,609.945311 358.035156,610.226562 C357.70703,610.507814 357.542969,610.911456 357.542969,611.4375 Z M358.246094,604.179688 C358.246094,604.778649 358.415363,605.231769 358.753906,605.539062 C359.09245,605.846356 359.563799,606 360.167969,606 C361.4336,606 362.066406,605.385423 362.066406,604.15625 C362.066406,602.869785 361.425788,602.226562 360.144531,602.226562 C359.535153,602.226562 359.066408,602.390623 358.738281,602.71875 C358.410155,603.046877 358.246094,603.533851 358.246094,604.179688 Z" id="Hamburg" fill="#00B4FF"></path>
                    <path d="M362.675781,682.578125 L365.902344,682.578125 C367.417976,682.578125 368.51432,682.804685 369.191406,683.257812 C369.868493,683.71094 370.207031,684.427078 370.207031,685.40625 C370.207031,686.083337 370.018231,686.641925 369.640625,687.082031 C369.263019,687.522138 368.712243,687.807291 367.988281,687.9375 L367.988281,688.015625 C369.722665,688.312501 370.589844,689.223951 370.589844,690.75 C370.589844,691.770838 370.244795,692.567705 369.554688,693.140625 C368.86458,693.713545 367.899746,694 366.660156,694 L362.675781,694 L362.675781,682.578125 Z M364.003906,687.46875 L366.191406,687.46875 C367.128911,687.46875 367.803383,687.321616 368.214844,687.027344 C368.626304,686.733071 368.832031,686.236983 368.832031,685.539062 C368.832031,684.898434 368.602867,684.436199 368.144531,684.152344 C367.686196,683.868488 366.957036,683.726562 365.957031,683.726562 L364.003906,683.726562 L364.003906,687.46875 Z M364.003906,688.59375 L364.003906,692.867188 L366.386719,692.867188 C367.308598,692.867188 368.002602,692.688804 368.46875,692.332031 C368.934898,691.975259 369.167969,691.41667 369.167969,690.65625 C369.167969,689.947913 368.92969,689.427085 368.453125,689.09375 C367.97656,688.760415 367.251307,688.59375 366.277344,688.59375 L364.003906,688.59375 Z M376.464844,694.15625 C375.199212,694.15625 374.200524,693.770837 373.46875,693 C372.736976,692.229163 372.371094,691.158861 372.371094,689.789062 C372.371094,688.408847 372.710934,687.312504 373.390625,686.5 C374.070316,685.687496 374.983067,685.28125 376.128906,685.28125 C377.201828,685.28125 378.050778,685.634111 378.675781,686.339844 C379.300784,687.045576 379.613281,687.976557 379.613281,689.132812 L379.613281,689.953125 L373.714844,689.953125 C373.740886,690.958338 373.994789,691.721352 374.476562,692.242188 C374.958336,692.763023 375.636714,693.023438 376.511719,693.023438 C377.433598,693.023438 378.345048,692.830731 379.246094,692.445312 L379.246094,693.601562 C378.787758,693.79948 378.354169,693.941406 377.945312,694.027344 C377.536456,694.113282 377.042972,694.15625 376.464844,694.15625 Z M376.113281,686.367188 C375.425778,686.367188 374.877606,686.591144 374.46875,687.039062 C374.059894,687.486981 373.819011,688.106767 373.746094,688.898438 L378.222656,688.898438 C378.222656,688.080725 378.040366,687.454429 377.675781,687.019531 C377.311196,686.584633 376.790368,686.367188 376.113281,686.367188 Z M385.730469,685.28125 C386.110679,685.28125 386.451821,685.3125 386.753906,685.375 L386.574219,686.578125 C386.22005,686.5 385.907553,686.460938 385.636719,686.460938 C384.944007,686.460938 384.351565,686.742185 383.859375,687.304688 C383.367185,687.86719 383.121094,688.567704 383.121094,689.40625 L383.121094,694 L381.824219,694 L381.824219,685.4375 L382.894531,685.4375 L383.042969,687.023438 L383.105469,687.023438 C383.423179,686.466143 383.805987,686.03646 384.253906,685.734375 C384.701825,685.43229 385.194008,685.28125 385.730469,685.28125 Z M389.652344,694 L388.355469,694 L388.355469,681.84375 L389.652344,681.84375 L389.652344,694 Z M393.699219,694 L392.402344,694 L392.402344,685.4375 L393.699219,685.4375 L393.699219,694 Z M392.292969,683.117188 C392.292969,682.820311 392.365885,682.602865 392.511719,682.464844 C392.657553,682.326822 392.839843,682.257812 393.058594,682.257812 C393.266928,682.257812 393.446614,682.328124 393.597656,682.46875 C393.748699,682.609376 393.824219,682.825519 393.824219,683.117188 C393.824219,683.408856 393.748699,683.626301 393.597656,683.769531 C393.446614,683.912761 393.266928,683.984375 393.058594,683.984375 C392.839843,683.984375 392.657553,683.912761 392.511719,683.769531 C392.365885,683.626301 392.292969,683.408856 392.292969,683.117188 Z M402.308594,694 L402.308594,688.460938 C402.308594,687.763017 402.149741,687.242189 401.832031,686.898438 C401.514321,686.554686 401.01693,686.382812 400.339844,686.382812 C399.444006,686.382812 398.787762,686.624998 398.371094,687.109375 C397.954425,687.593752 397.746094,688.393224 397.746094,689.507812 L397.746094,694 L396.449219,694 L396.449219,685.4375 L397.503906,685.4375 L397.714844,686.609375 L397.777344,686.609375 C398.04297,686.187498 398.415362,685.860678 398.894531,685.628906 C399.3737,685.397134 399.907549,685.28125 400.496094,685.28125 C401.527349,685.28125 402.303383,685.529945 402.824219,686.027344 C403.345055,686.524742 403.605469,687.320307 403.605469,688.414062 L403.605469,694 L402.308594,694 Z" id="Berlin" fill="#00B4FF"></path>
                    <path d="M422.152344,636.90625 C422.152344,638.062506 421.757816,638.95182 420.96875,639.574219 C420.179684,640.196618 419.050789,640.507812 417.582031,640.507812 L416.238281,640.507812 L416.238281,645 L414.910156,645 L414.910156,633.578125 L417.871094,633.578125 C420.725275,633.578125 422.152344,634.687489 422.152344,636.90625 Z M416.238281,639.367188 L417.433594,639.367188 C418.610683,639.367188 419.462237,639.177085 419.988281,638.796875 C420.514326,638.416665 420.777344,637.807296 420.777344,636.96875 C420.777344,636.213538 420.52995,635.651044 420.035156,635.28125 C419.540362,634.911456 418.769536,634.726562 417.722656,634.726562 L416.238281,634.726562 L416.238281,639.367188 Z M431.738281,640.710938 C431.738281,642.106778 431.386722,643.196611 430.683594,643.980469 C429.980465,644.764327 429.009121,645.15625 427.769531,645.15625 C427.003902,645.15625 426.324222,644.976564 425.730469,644.617188 C425.136716,644.257811 424.678387,643.742191 424.355469,643.070312 C424.03255,642.398434 423.871094,641.611984 423.871094,640.710938 C423.871094,639.315097 424.220049,638.227868 424.917969,637.449219 C425.615889,636.670569 426.584629,636.28125 427.824219,636.28125 C429.022141,636.28125 429.973955,636.679684 430.679688,637.476562 C431.38542,638.273441 431.738281,639.351556 431.738281,640.710938 Z M425.214844,640.710938 C425.214844,641.804693 425.433592,642.638018 425.871094,643.210938 C426.308596,643.783857 426.951819,644.070312 427.800781,644.070312 C428.649744,644.070312 429.294269,643.785159 429.734375,643.214844 C430.174481,642.644528 430.394531,641.809901 430.394531,640.710938 C430.394531,639.62239 430.174481,638.795576 429.734375,638.230469 C429.294269,637.665362 428.644536,637.382812 427.785156,637.382812 C426.936194,637.382812 426.295575,637.661456 425.863281,638.21875 C425.430987,638.776044 425.214844,639.606765 425.214844,640.710938 Z M439.488281,645 L433.277344,645 L433.277344,644.117188 L437.949219,637.445312 L433.566406,637.445312 L433.566406,636.4375 L439.371094,636.4375 L439.371094,637.445312 L434.761719,643.992188 L439.488281,643.992188 L439.488281,645 Z M447.355469,645 L447.355469,639.460938 C447.355469,638.763017 447.196616,638.242189 446.878906,637.898438 C446.561196,637.554686 446.063805,637.382812 445.386719,637.382812 C444.490881,637.382812 443.834637,637.624998 443.417969,638.109375 C443.0013,638.593752 442.792969,639.393224 442.792969,640.507812 L442.792969,645 L441.496094,645 L441.496094,636.4375 L442.550781,636.4375 L442.761719,637.609375 L442.824219,637.609375 C443.089845,637.187498 443.462237,636.860678 443.941406,636.628906 C444.420575,636.397134 444.954424,636.28125 445.542969,636.28125 C446.574224,636.28125 447.350258,636.529945 447.871094,637.027344 C448.39193,637.524742 448.652344,638.320307 448.652344,639.414062 L448.652344,645 L447.355469,645 Z M456.582031,645 L456.324219,643.78125 L456.261719,643.78125 C455.834633,644.317711 455.408856,644.680989 454.984375,644.871094 C454.559894,645.061199 454.029951,645.15625 453.394531,645.15625 C452.545569,645.15625 451.880211,644.937502 451.398438,644.5 C450.916664,644.062498 450.675781,643.440108 450.675781,642.632812 C450.675781,640.903637 452.05858,639.997396 454.824219,639.914062 L456.277344,639.867188 L456.277344,639.335938 C456.277344,638.664059 456.132814,638.16797 455.84375,637.847656 C455.554686,637.527342 455.092451,637.367188 454.457031,637.367188 C453.743486,637.367188 452.936202,637.585935 452.035156,638.023438 L451.636719,637.03125 C452.058596,636.802082 452.520831,636.622396 453.023438,636.492188 C453.526044,636.361979 454.029945,636.296875 454.535156,636.296875 C455.555995,636.296875 456.312498,636.523435 456.804688,636.976562 C457.296877,637.42969 457.542969,638.156245 457.542969,639.15625 L457.542969,645 L456.582031,645 Z M453.652344,644.085938 C454.459639,644.085938 455.093748,643.864586 455.554688,643.421875 C456.015627,642.979164 456.246094,642.359379 456.246094,641.5625 L456.246094,640.789062 L454.949219,640.84375 C453.917964,640.880209 453.174481,641.040363 452.71875,641.324219 C452.263019,641.608074 452.035156,642.049476 452.035156,642.648438 C452.035156,643.11719 452.177082,643.473957 452.460938,643.71875 C452.744793,643.963543 453.141925,644.085938 453.652344,644.085938 Z M466.074219,645 L466.074219,639.460938 C466.074219,638.763017 465.915366,638.242189 465.597656,637.898438 C465.279946,637.554686 464.782555,637.382812 464.105469,637.382812 C463.209631,637.382812 462.553388,637.624998 462.136719,638.109375 C461.72005,638.593752 461.511719,639.393224 461.511719,640.507812 L461.511719,645 L460.214844,645 L460.214844,636.4375 L461.269531,636.4375 L461.480469,637.609375 L461.542969,637.609375 C461.808595,637.187498 462.180987,636.860678 462.660156,636.628906 C463.139325,636.397134 463.673174,636.28125 464.261719,636.28125 C465.292974,636.28125 466.069008,636.529945 466.589844,637.027344 C467.11068,637.524742 467.371094,638.320307 467.371094,639.414062 L467.371094,645 L466.074219,645 Z" id="Poznan" fill="#00B4FF"></path>
                    <path d="M543.097656,503.25 L543.097656,508 L541.769531,508 L541.769531,496.578125 L544.902344,496.578125 C546.303392,496.578125 547.338538,496.846351 548.007812,497.382812 C548.677087,497.919274 549.011719,498.726557 549.011719,499.804688 C549.011719,501.315112 548.246101,502.335935 546.714844,502.867188 L549.816406,508 L548.246094,508 L545.480469,503.25 L543.097656,503.25 Z M543.097656,502.109375 L544.917969,502.109375 C545.855473,502.109375 546.542967,501.923179 546.980469,501.550781 C547.417971,501.178384 547.636719,500.619795 547.636719,499.875 C547.636719,499.119788 547.414065,498.575522 546.96875,498.242188 C546.523435,497.908853 545.808599,497.742188 544.824219,497.742188 L543.097656,497.742188 L543.097656,502.109375 Z M552.761719,508 L551.464844,508 L551.464844,499.4375 L552.761719,499.4375 L552.761719,508 Z M551.355469,497.117188 C551.355469,496.820311 551.428385,496.602865 551.574219,496.464844 C551.720053,496.326822 551.902343,496.257812 552.121094,496.257812 C552.329428,496.257812 552.509114,496.328124 552.660156,496.46875 C552.811199,496.609376 552.886719,496.825519 552.886719,497.117188 C552.886719,497.408856 552.811199,497.626301 552.660156,497.769531 C552.509114,497.912761 552.329428,497.984375 552.121094,497.984375 C551.902343,497.984375 551.720053,497.912761 551.574219,497.769531 C551.428385,497.626301 551.355469,497.408856 551.355469,497.117188 Z M562.519531,499.4375 L562.519531,500.257812 L560.933594,500.445312 C561.079428,500.627605 561.209635,500.865884 561.324219,501.160156 C561.438803,501.454429 561.496094,501.786456 561.496094,502.15625 C561.496094,502.994796 561.209638,503.66406 560.636719,504.164062 C560.063799,504.664065 559.277349,504.914062 558.277344,504.914062 C558.022134,504.914062 557.782553,504.893229 557.558594,504.851562 C557.006508,505.143231 556.730469,505.510414 556.730469,505.953125 C556.730469,506.187501 556.826822,506.360677 557.019531,506.472656 C557.212241,506.584636 557.542966,506.640625 558.011719,506.640625 L559.527344,506.640625 C560.454432,506.640625 561.166664,506.835936 561.664062,507.226562 C562.161461,507.617189 562.410156,508.184892 562.410156,508.929688 C562.410156,509.877609 562.029952,510.600258 561.269531,511.097656 C560.509111,511.595055 559.399747,511.84375 557.941406,511.84375 C556.821609,511.84375 555.958336,511.635419 555.351562,511.21875 C554.744789,510.802081 554.441406,510.213545 554.441406,509.453125 C554.441406,508.932289 554.608071,508.481773 554.941406,508.101562 C555.274741,507.721352 555.743487,507.463542 556.347656,507.328125 C556.128905,507.229166 555.945313,507.075522 555.796875,506.867188 C555.648437,506.658853 555.574219,506.416668 555.574219,506.140625 C555.574219,505.828123 555.657551,505.554689 555.824219,505.320312 C555.990886,505.085936 556.253904,504.859376 556.613281,504.640625 C556.170571,504.458332 555.809897,504.14844 555.53125,503.710938 C555.252603,503.273435 555.113281,502.77344 555.113281,502.210938 C555.113281,501.273433 555.394528,500.550784 555.957031,500.042969 C556.519534,499.535154 557.316401,499.28125 558.347656,499.28125 C558.795575,499.28125 559.199217,499.333333 559.558594,499.4375 L562.519531,499.4375 Z M555.691406,509.4375 C555.691406,509.901044 555.886717,510.252603 556.277344,510.492188 C556.667971,510.731772 557.227861,510.851562 557.957031,510.851562 C559.045578,510.851562 559.85156,510.688804 560.375,510.363281 C560.89844,510.037759 561.160156,509.596357 561.160156,509.039062 C561.160156,508.575519 561.016929,508.253907 560.730469,508.074219 C560.444009,507.89453 559.904952,507.804688 559.113281,507.804688 L557.558594,507.804688 C556.970049,507.804688 556.51172,507.945311 556.183594,508.226562 C555.855467,508.507814 555.691406,508.911456 555.691406,509.4375 Z M556.394531,502.179688 C556.394531,502.778649 556.5638,503.231769 556.902344,503.539062 C557.240887,503.846356 557.712237,504 558.316406,504 C559.582038,504 560.214844,503.385423 560.214844,502.15625 C560.214844,500.869785 559.574225,500.226562 558.292969,500.226562 C557.683591,500.226562 557.214845,500.390623 556.886719,500.71875 C556.558592,501.046877 556.394531,501.533851 556.394531,502.179688 Z M569.542969,508 L569.285156,506.78125 L569.222656,506.78125 C568.795571,507.317711 568.369794,507.680989 567.945312,507.871094 C567.520831,508.061199 566.990889,508.15625 566.355469,508.15625 C565.506506,508.15625 564.841148,507.937502 564.359375,507.5 C563.877602,507.062498 563.636719,506.440108 563.636719,505.632812 C563.636719,503.903637 565.019517,502.997396 567.785156,502.914062 L569.238281,502.867188 L569.238281,502.335938 C569.238281,501.664059 569.093751,501.16797 568.804688,500.847656 C568.515624,500.527342 568.053389,500.367188 567.417969,500.367188 C566.704424,500.367188 565.89714,500.585935 564.996094,501.023438 L564.597656,500.03125 C565.019533,499.802082 565.481768,499.622396 565.984375,499.492188 C566.486982,499.361979 566.990883,499.296875 567.496094,499.296875 C568.516932,499.296875 569.273435,499.523435 569.765625,499.976562 C570.257815,500.42969 570.503906,501.156245 570.503906,502.15625 L570.503906,508 L569.542969,508 Z M566.613281,507.085938 C567.420577,507.085938 568.054685,506.864586 568.515625,506.421875 C568.976565,505.979164 569.207031,505.359379 569.207031,504.5625 L569.207031,503.789062 L567.910156,503.84375 C566.878901,503.880209 566.135419,504.040363 565.679688,504.324219 C565.223956,504.608074 564.996094,505.049476 564.996094,505.648438 C564.996094,506.11719 565.138019,506.473957 565.421875,506.71875 C565.705731,506.963543 566.102862,507.085938 566.613281,507.085938 Z" id="Riga" fill="#00B4FF"></path>
                </g>
            </g>
        </g>
    </g>
</svg>