<?xml version="1.0" encoding="UTF-8"?>
<svg width="540px" height="452px" viewBox="0 0 540 452" version="1.1" xmlns="http://www.w3.org/2000/svg" xmlns:xlink="http://www.w3.org/1999/xlink">
    <!-- Generator: Sketch 55.2 (78181) - https://sketchapp.com -->
    <title>Background</title>
    <desc>Created with Sketch.</desc>
    <g id="Page-1" stroke="none" stroke-width="1" fill="none" fill-rule="evenodd">
        <g id="Circlewise-Advertiser" transform="translate(-165.000000, -1077.000000)">
            <g id="Branding" transform="translate(165.000000, 1077.000000)">
                <g id="Background">
                    <g>
                        <circle id="Oval" fill="#FFF5D9" cx="407.5" cy="132.5" r="132.5"></circle>
                        <circle id="Oval" stroke="#F8E0EC" stroke-width="4" cx="179" cy="273" r="177"></circle>
                        <path d="M476.5,438 C475.119288,438 474,436.880712 474,435.5 C474,434.119288 475.119288,433 476.5,433 C477.880712,433 479,434.119288 479,435.5 C479,436.880712 477.880712,438 476.5,438 Z M489.5,438 C488.119288,438 487,436.880712 487,435.5 C487,434.119288 488.119288,433 489.5,433 C490.880712,433 492,434.119288 492,435.5 C492,436.880712 490.880712,438 489.5,438 Z M421.5,397 C420.119288,397 419,395.880712 419,394.5 C419,393.119288 420.119288,392 421.5,392 C422.880712,392 424,393.119288 424,394.5 C424,395.880712 422.880712,397 421.5,397 Z M434.5,397 C433.119288,397 432,395.880712 432,394.5 C432,393.119288 433.119288,392 434.5,392 C435.880712,392 437,393.119288 437,394.5 C437,395.880712 435.880712,397 434.5,397 Z M448.5,397 C447.119288,397 446,395.880712 446,394.5 C446,393.119288 447.119288,392 448.5,392 C449.880712,392 451,393.119288 451,394.5 C451,395.880712 449.880712,397 448.5,397 Z M462.5,397 C461.119288,397 460,395.880712 460,394.5 C460,393.119288 461.119288,392 462.5,392 C463.880712,392 465,393.119288 465,394.5 C465,395.880712 463.880712,397 462.5,397 Z M476.5,397 C475.119288,397 474,395.880712 474,394.5 C474,393.119288 475.119288,392 476.5,392 C477.880712,392 479,393.119288 479,394.5 C479,395.880712 477.880712,397 476.5,397 Z M489.5,397 C488.119288,397 487,395.880712 487,394.5 C487,393.119288 488.119288,392 489.5,392 C490.880712,392 492,393.119288 492,394.5 C492,395.880712 490.880712,397 489.5,397 Z M421.5,411 C420.119288,411 419,409.880712 419,408.5 C419,407.119288 420.119288,406 421.5,406 C422.880712,406 424,407.119288 424,408.5 C424,409.880712 422.880712,411 421.5,411 Z M434.5,411 C433.119288,411 432,409.880712 432,408.5 C432,407.119288 433.119288,406 434.5,406 C435.880712,406 437,407.119288 437,408.5 C437,409.880712 435.880712,411 434.5,411 Z M448.5,411 C447.119288,411 446,409.880712 446,408.5 C446,407.119288 447.119288,406 448.5,406 C449.880712,406 451,407.119288 451,408.5 C451,409.880712 449.880712,411 448.5,411 Z M462.5,411 C461.119288,411 460,409.880712 460,408.5 C460,407.119288 461.119288,406 462.5,406 C463.880712,406 465,407.119288 465,408.5 C465,409.880712 463.880712,411 462.5,411 Z M476.5,411 C475.119288,411 474,409.880712 474,408.5 C474,407.119288 475.119288,406 476.5,406 C477.880712,406 479,407.119288 479,408.5 C479,409.880712 477.880712,411 476.5,411 Z M489.5,411 C488.119288,411 487,409.880712 487,408.5 C487,407.119288 488.119288,406 489.5,406 C490.880712,406 492,407.119288 492,408.5 C492,409.880712 490.880712,411 489.5,411 Z M421.5,425 C420.119288,425 419,423.880712 419,422.5 C419,421.119288 420.119288,420 421.5,420 C422.880712,420 424,421.119288 424,422.5 C424,423.880712 422.880712,425 421.5,425 Z M434.5,425 C433.119288,425 432,423.880712 432,422.5 C432,421.119288 433.119288,420 434.5,420 C435.880712,420 437,421.119288 437,422.5 C437,423.880712 435.880712,425 434.5,425 Z M448.5,425 C447.119288,425 446,423.880712 446,422.5 C446,421.119288 447.119288,420 448.5,420 C449.880712,420 451,421.119288 451,422.5 C451,423.880712 449.880712,425 448.5,425 Z M462.5,425 C461.119288,425 460,423.880712 460,422.5 C460,421.119288 461.119288,420 462.5,420 C463.880712,420 465,421.119288 465,422.5 C465,423.880712 463.880712,425 462.5,425 Z M476.5,425 C475.119288,425 474,423.880712 474,422.5 C474,421.119288 475.119288,420 476.5,420 C477.880712,420 479,421.119288 479,422.5 C479,423.880712 477.880712,425 476.5,425 Z M489.5,425 C488.119288,425 487,423.880712 487,422.5 C487,421.119288 488.119288,420 489.5,420 C490.880712,420 492,421.119288 492,422.5 C492,423.880712 490.880712,425 489.5,425 Z M421.5,438 C420.119288,438 419,436.880712 419,435.5 C419,434.119288 420.119288,433 421.5,433 C422.880712,433 424,434.119288 424,435.5 C424,436.880712 422.880712,438 421.5,438 Z M434.5,438 C433.119288,438 432,436.880712 432,435.5 C432,434.119288 433.119288,433 434.5,433 C435.880712,433 437,434.119288 437,435.5 C437,436.880712 435.880712,438 434.5,438 Z M448.5,438 C447.119288,438 446,436.880712 446,435.5 C446,434.119288 447.119288,433 448.5,433 C449.880712,433 451,434.119288 451,435.5 C451,436.880712 449.880712,438 448.5,438 Z M462.5,438 C461.119288,438 460,436.880712 460,435.5 C460,434.119288 461.119288,433 462.5,433 C463.880712,433 465,434.119288 465,435.5 C465,436.880712 463.880712,438 462.5,438 Z M421.5,384 C420.119288,384 419,382.880712 419,381.5 C419,380.119288 420.119288,379 421.5,379 C422.880712,379 424,380.119288 424,381.5 C424,382.880712 422.880712,384 421.5,384 Z M434.5,384 C433.119288,384 432,382.880712 432,381.5 C432,380.119288 433.119288,379 434.5,379 C435.880712,379 437,380.119288 437,381.5 C437,382.880712 435.880712,384 434.5,384 Z M448.5,384 C447.119288,384 446,382.880712 446,381.5 C446,380.119288 447.119288,379 448.5,379 C449.880712,379 451,380.119288 451,381.5 C451,382.880712 449.880712,384 448.5,384 Z M462.5,384 C461.119288,384 460,382.880712 460,381.5 C460,380.119288 461.119288,379 462.5,379 C463.880712,379 465,380.119288 465,381.5 C465,382.880712 463.880712,384 462.5,384 Z M476.5,384 C475.119288,384 474,382.880712 474,381.5 C474,380.119288 475.119288,379 476.5,379 C477.880712,379 479,380.119288 479,381.5 C479,382.880712 477.880712,384 476.5,384 Z M489.5,384 C488.119288,384 487,382.880712 487,381.5 C487,380.119288 488.119288,379 489.5,379 C490.880712,379 492,380.119288 492,381.5 C492,382.880712 490.880712,384 489.5,384 Z" id="Oval-2" fill="#46A7CD"></path>
                        <circle id="Oval" fill="#FFB900" cx="22.5" cy="150.5" r="10.5"></circle>
                    </g>
                </g>
            </g>
        </g>
    </g>
</svg>