<svg xmlns="http://www.w3.org/2000/svg" width="100" height="100" viewBox="0 0 100 100">
    <g fill="none" fill-rule="evenodd">
        <path fill="#46A7CD" d="M38.458 0h23.084c13.373 0 18.222 1.392 23.11 4.007 4.89 2.615 8.726 6.451 11.341 11.34 2.615 4.89 4.007 9.738 4.007 23.111v23.084c0 13.373-1.392 18.222-4.007 23.11-2.615 4.89-6.451 8.726-11.34 11.341-4.89 2.615-9.738 4.007-23.111 4.007H38.458c-13.373 0-18.222-1.392-23.11-4.007-4.89-2.615-8.726-6.451-11.341-11.34C1.392 79.763 0 74.915 0 61.542V38.458c0-13.373 1.392-18.222 4.007-23.11 2.615-4.89 6.451-8.726 11.34-11.341C20.237 1.392 25.085 0 38.458 0z"/>
        <path fill="#000" fill-opacity=".2" fill-rule="nonzero" d="M78.033 30.187h-5.82v-2.91c0-4.075-3.203-7.277-7.277-7.277h-43.66C17.203 20 14 23.202 14 27.277v8.731c0 4.075 3.202 7.277 7.277 7.277h1.455v7.276c0 2.474 1.892 4.366 4.366 4.366 2.474 0 4.366-1.892 4.366-4.366v-7.276h5.82v14.553c0 2.474 1.893 4.366 4.367 4.366s4.366-1.892 4.366-4.366V43.285h18.919c4.074 0 7.276-3.202 7.276-7.277v-2.91h5.821c1.601 0 2.91 1.31 2.91 2.91v11.934c0 1.018-.581 2.037-1.6 2.62L50.528 65.55c-4.22 2.183-2.91 6.84-3.056 8.295-.582.146-4.075-.582-4.512 2.62l-.873 8.586c-.29 2.62 1.747 4.948 4.366 4.948h5.094c2.62 0 4.657-2.328 4.366-4.948l-.873-8.586c-.437-3.347-4.075-2.474-4.512-2.62.291-1.892-.728-4.511 1.6-5.821l28.816-14.99C82.836 52.017 84 49.98 84 47.942V36.008c-.146-3.201-2.765-5.82-5.967-5.82z"/>
        <path fill="#FFF" fill-rule="nonzero" d="M22.732 43.285v7.276c0 2.474 1.892 4.366 4.366 4.366 2.474 0 4.366-1.892 4.366-4.366v-7.276h5.82v14.553c0 2.474 1.893 4.366 4.367 4.366s4.366-1.892 4.366-4.366V43.285H22.732z"/>
    </g>
</svg>
