<svg xmlns="http://www.w3.org/2000/svg" version="1.1" x="0" y="0" width="210" height="22" viewBox="0 0 210 22" enable-background="new 0 0 210 22" xml:space="preserve"><rect x="23.22" y="17.43" fill="#231F20" width="0" height="0"/><path fill="#F7B021" d="M23.22 4.6H19.68V1.03h3.54V4.6zM23.22 8.99H19.68v3.56h3.54V8.99zM23.22 17.43H19.68v3.57h3.54V17.43z"/><path fill="#41CFAC" d="M19.68 4.6H0V1.03h19.68V4.6zM19.68 8.99H0v3.56h19.68V8.99zM19.68 17.43H0v3.57h19.68V17.43z"/><path fill="#13222D" d="M56.36 1.03c0.21 0 0.39 0.08 0.54 0.23 0.15 0.15 0.23 0.33 0.23 0.54v11.69c0 1.18-0.17 2.24-0.51 3.19 -0.34 0.95-0.85 1.77-1.54 2.45 -0.68 0.68-1.54 1.21-2.57 1.58 -1.03 0.37-2.21 0.56-3.56 0.56 -1.37 0-2.56-0.18-3.58-0.56 -1.02-0.37-1.87-0.9-2.55-1.58 -0.68-0.68-1.19-1.5-1.53-2.45 -0.33-0.95-0.5-2.01-0.5-3.19V1.8c0-0.21 0.08-0.39 0.23-0.54 0.15-0.15 0.33-0.23 0.54-0.23h2.31c0.21 0 0.39 0.08 0.54 0.23 0.15 0.15 0.23 0.33 0.23 0.54v11.55c0 0.78 0.1 1.45 0.31 2 0.21 0.55 0.5 1 0.88 1.35 0.38 0.35 0.84 0.61 1.37 0.77 0.53 0.16 1.11 0.24 1.74 0.24 0.63 0 1.21-0.08 1.75-0.24 0.54-0.16 1-0.42 1.38-0.77 0.38-0.35 0.68-0.8 0.9-1.35 0.22-0.55 0.33-1.22 0.33-2V1.8c0-0.21 0.08-0.39 0.23-0.54 0.15-0.15 0.33-0.23 0.54-0.23H56.36zM76.02 17.43c0.21 0 0.39 0.08 0.54 0.23 0.15 0.15 0.23 0.33 0.23 0.54v2.03c0 0.21-0.08 0.39-0.23 0.54 -0.15 0.15-0.33 0.23-0.54 0.23h-12.49c-0.21 0-0.39-0.08-0.54-0.23 -0.15-0.15-0.23-0.33-0.23-0.54V1.8c0-0.21 0.08-0.39 0.23-0.54 0.15-0.15 0.33-0.23 0.54-0.23h2.31c0.21 0 0.39 0.08 0.54 0.23 0.15 0.15 0.23 0.33 0.23 0.54v15.63H76.02zM96.77 19.79c0.1 0.09 0.15 0.18 0.17 0.26 0.02 0.08 0.03 0.13 0.03 0.17 0 0.21-0.08 0.39-0.23 0.54 -0.15 0.15-0.33 0.23-0.54 0.23h-2.71c-0.38 0-0.68-0.1-0.91-0.3 -0.23-0.2-0.36-0.32-0.4-0.36l-6.7-7.55v7.44c0 0.21-0.08 0.39-0.23 0.54 -0.15 0.15-0.33 0.23-0.54 0.23h-2.31c-0.21 0-0.39-0.08-0.54-0.23 -0.15-0.15-0.23-0.33-0.23-0.54V1.8c0-0.21 0.08-0.39 0.23-0.54 0.15-0.15 0.33-0.23 0.54-0.23h2.31c0.21 0 0.39 0.08 0.54 0.23 0.15 0.15 0.23 0.33 0.23 0.54v6.7l6.22-6.84c0.17-0.19 0.35-0.34 0.54-0.46 0.19-0.11 0.44-0.17 0.74-0.17h2.62c0.21 0 0.39 0.08 0.54 0.23 0.15 0.15 0.23 0.33 0.23 0.54 0 0.15-0.06 0.29-0.17 0.43l-7.67 8.36L96.77 19.79zM114.54 17.43c0.21 0 0.39 0.08 0.54 0.23 0.15 0.15 0.23 0.33 0.23 0.54v2.03c0 0.21-0.08 0.39-0.23 0.54 -0.15 0.15-0.33 0.23-0.54 0.23h-12.52c-0.21 0-0.39-0.08-0.54-0.23 -0.15-0.15-0.23-0.33-0.23-0.54V1.8c0-0.21 0.08-0.39 0.23-0.54 0.15-0.15 0.33-0.23 0.54-0.23h12.29c0.21 0 0.39 0.08 0.54 0.23 0.15 0.15 0.23 0.33 0.23 0.54v2.03c0 0.21-0.07 0.39-0.23 0.54 -0.15 0.15-0.33 0.23-0.54 0.23h-9.21v4.53h8.58c0.21 0 0.39 0.08 0.54 0.23 0.16 0.15 0.23 0.33 0.23 0.54v2.02c0 0.21-0.07 0.39-0.23 0.54 -0.15 0.15-0.33 0.23-0.54 0.23h-8.58v4.74H114.54zM127.4 0.75c1.28 0 2.4 0.17 3.37 0.51 0.97 0.34 1.78 0.77 2.42 1.28 0.65 0.51 1.14 1.08 1.47 1.7 0.33 0.62 0.52 1.2 0.56 1.75 0.02 0.23-0.05 0.41-0.21 0.56 -0.16 0.14-0.35 0.22-0.56 0.22h-1.99c-0.32 0-0.57-0.06-0.73-0.19 -0.16-0.12-0.31-0.29-0.44-0.5 -0.28-0.47-0.72-0.89-1.3-1.24 -0.58-0.35-1.44-0.53-2.58-0.53 -0.49 0-0.97 0.05-1.41 0.16 -0.45 0.11-0.84 0.26-1.17 0.46 -0.33 0.2-0.59 0.44-0.78 0.73 -0.19 0.28-0.29 0.61-0.29 0.97 0 0.44 0.09 0.79 0.27 1.07 0.18 0.28 0.48 0.51 0.91 0.71 0.43 0.2 1 0.38 1.7 0.56 0.7 0.17 1.58 0.37 2.62 0.6 1.14 0.25 2.12 0.54 2.95 0.87 0.83 0.33 1.5 0.73 2.02 1.2 0.52 0.47 0.91 1 1.17 1.61 0.26 0.61 0.38 1.3 0.38 2.08 0 0.86-0.19 1.65-0.57 2.38 -0.38 0.73-0.92 1.36-1.62 1.88 -0.7 0.53-1.57 0.94-2.6 1.24 -1.02 0.3-2.18 0.46-3.45 0.46 -1.06 0-2.08-0.13-3.05-0.39 -0.97-0.25-1.83-0.63-2.58-1.11 -0.75-0.48-1.35-1.07-1.81-1.75 -0.46-0.68-0.71-1.44-0.77-2.28 -0.02-0.23 0.05-0.41 0.21-0.56 0.16-0.14 0.35-0.21 0.56-0.21h2c0.32 0 0.57 0.06 0.74 0.17 0.17 0.11 0.31 0.29 0.43 0.51 0.13 0.25 0.3 0.5 0.49 0.74 0.19 0.25 0.45 0.47 0.77 0.66 0.32 0.19 0.73 0.35 1.21 0.47 0.49 0.12 1.09 0.18 1.81 0.18 0.57 0 1.12-0.04 1.66-0.13 0.53-0.08 1-0.23 1.4-0.43s0.72-0.45 0.97-0.74c0.25-0.29 0.37-0.66 0.37-1.1 0-0.42-0.13-0.76-0.4-1.03 -0.27-0.27-0.67-0.49-1.21-0.68 -0.54-0.19-1.21-0.37-2.01-0.54 -0.8-0.17-1.72-0.39-2.77-0.65 -0.95-0.23-1.78-0.5-2.49-0.81 -0.71-0.31-1.3-0.7-1.77-1.15 -0.46-0.46-0.81-0.99-1.04-1.61 -0.23-0.62-0.34-1.35-0.34-2.21 0-0.86 0.19-1.64 0.57-2.37 0.38-0.72 0.9-1.34 1.57-1.85 0.67-0.51 1.46-0.92 2.38-1.21C125.34 0.89 126.33 0.75 127.4 0.75zM153.57 1.03c0.21 0 0.39 0.08 0.54 0.23 0.15 0.15 0.23 0.33 0.23 0.54v2.03c0 0.21-0.07 0.39-0.23 0.54 -0.15 0.15-0.33 0.23-0.54 0.23h-5.13v15.63c0 0.21-0.08 0.39-0.23 0.54 -0.15 0.15-0.33 0.23-0.54 0.23h-2.31c-0.21 0-0.39-0.08-0.55-0.23 -0.15-0.15-0.22-0.33-0.22-0.54V4.6h-5.13c-0.21 0-0.39-0.08-0.54-0.23 -0.15-0.15-0.23-0.33-0.23-0.54V1.8c0-0.21 0.08-0.39 0.23-0.54 0.15-0.15 0.33-0.23 0.54-0.23H153.57zM166.26 1.03c0.3 0 0.53 0.08 0.69 0.24 0.15 0.16 0.28 0.4 0.4 0.73l6.98 18.02c0.02 0.06 0.03 0.12 0.03 0.2 0 0.21-0.07 0.39-0.23 0.54 -0.15 0.15-0.33 0.23-0.54 0.23h-2.05c-0.38 0-0.65-0.08-0.8-0.24 -0.15-0.16-0.26-0.32-0.31-0.47l-1.23-3.16h-9.01l-1.23 3.17c-0.06 0.15-0.16 0.31-0.31 0.47 -0.15 0.16-0.42 0.24-0.8 0.24h-2.05c-0.21 0-0.39-0.08-0.54-0.23 -0.15-0.15-0.23-0.33-0.23-0.54 0-0.07 0.01-0.14 0.03-0.2L162.04 2c0.11-0.32 0.25-0.57 0.4-0.73 0.15-0.16 0.38-0.24 0.68-0.24H166.26zM167.83 13.55l-3.14-8.13 -3.14 8.13H167.83zM189.8 1.03c0.21 0 0.39 0.08 0.54 0.23 0.15 0.15 0.23 0.33 0.23 0.54v2.03c0 0.21-0.08 0.39-0.23 0.54 -0.15 0.15-0.33 0.23-0.54 0.23h-5.13v15.63c0 0.21-0.08 0.39-0.23 0.54 -0.15 0.15-0.33 0.23-0.54 0.23h-2.31c-0.21 0-0.39-0.08-0.54-0.23 -0.16-0.15-0.23-0.33-0.23-0.54V4.6h-5.13c-0.21 0-0.39-0.08-0.54-0.23 -0.15-0.15-0.23-0.33-0.23-0.54V1.8c0-0.21 0.08-0.39 0.23-0.54 0.15-0.15 0.33-0.23 0.54-0.23H189.8zM208.42 17.43c0.21 0 0.39 0.08 0.54 0.23 0.15 0.15 0.23 0.33 0.23 0.54v2.03c0 0.21-0.08 0.39-0.23 0.54 -0.15 0.15-0.33 0.23-0.54 0.23h-12.52c-0.21 0-0.39-0.08-0.54-0.23 -0.15-0.15-0.23-0.33-0.23-0.54V1.8c0-0.21 0.08-0.39 0.23-0.54 0.15-0.15 0.33-0.23 0.54-0.23h12.29c0.2 0 0.38 0.08 0.54 0.23 0.15 0.15 0.23 0.33 0.23 0.54v2.03c0 0.21-0.08 0.39-0.23 0.54 -0.15 0.15-0.33 0.23-0.54 0.23h-9.21v4.53h8.58c0.21 0 0.39 0.08 0.54 0.23 0.15 0.15 0.23 0.33 0.23 0.54v2.02c0 0.21-0.08 0.39-0.23 0.54 -0.15 0.15-0.34 0.23-0.54 0.23h-8.58v4.74H208.42zM34.92 12.22c-0.5-0.73-1.04-1.3-1.63-1.7 0.13-0.07 0.31-0.22 0.53-0.43 0.22-0.21 0.44-0.47 0.66-0.78C34.7 9 34.88 8.62 35.03 8.17c0.15-0.45 0.23-0.95 0.23-1.52 0-0.57-0.11-1.18-0.33-1.84 -0.22-0.65-0.57-1.26-1.07-1.82 -0.49-0.56-1.15-1.03-1.97-1.4 -0.82-0.37-1.83-0.56-3.05-0.56h-5.62v3.57h5.34c0.99 0 1.71 0.19 2.17 0.56 0.46 0.37 0.69 0.92 0.69 1.64 0 0.72-0.23 1.27-0.68 1.64 -0.45 0.37-1.18 0.56-2.17 0.56h-5.34v3.56h2.08 3.49c1.01 0 1.76 0.23 2.27 0.69 0.5 0.46 0.76 1.05 0.76 1.77 0 0.72-0.24 1.31-0.73 1.75 -0.48 0.45-1.25 0.67-2.3 0.67h-3.21 -2.36v3.57h6.28c1.01 0 1.9-0.18 2.67-0.53 0.77-0.35 1.41-0.81 1.93-1.38 0.51-0.57 0.9-1.21 1.17-1.92 0.27-0.71 0.4-1.43 0.4-2.15C35.66 13.88 35.42 12.95 34.92 12.22z"/></svg>