<svg xmlns="http://www.w3.org/2000/svg" width="540" height="448" viewBox="0 0 540 448">
    <g fill="none" fill-rule="evenodd">
        <circle cx="361" cy="179" r="177" stroke="#FFF5D9" stroke-width="4"/>
        <circle cx="132.5" cy="299.5" r="132.5" fill="#F8E0EC"/>
        <circle cx="313.5" cy="434.5" r="13.5" fill="#46A7CD"/>
        <circle cx="522.5" cy="253.5" r="8.5" fill="#D02E7D"/>
        <path fill="#000" d="M103.5 110a2.5 2.5 0 1 1 0-5 2.5 2.5 0 0 1 0 5zm13 0a2.5 2.5 0 1 1 0-5 2.5 2.5 0 0 1 0 5zm-68-41a2.5 2.5 0 1 1 0-5 2.5 2.5 0 0 1 0 5zm13 0a2.5 2.5 0 1 1 0-5 2.5 2.5 0 0 1 0 5zm14 0a2.5 2.5 0 1 1 0-5 2.5 2.5 0 0 1 0 5zm14 0a2.5 2.5 0 1 1 0-5 2.5 2.5 0 0 1 0 5zm14 0a2.5 2.5 0 1 1 0-5 2.5 2.5 0 0 1 0 5zm13 0a2.5 2.5 0 1 1 0-5 2.5 2.5 0 0 1 0 5zm-68 14a2.5 2.5 0 1 1 0-5 2.5 2.5 0 0 1 0 5zm13 0a2.5 2.5 0 1 1 0-5 2.5 2.5 0 0 1 0 5zm14 0a2.5 2.5 0 1 1 0-5 2.5 2.5 0 0 1 0 5zm14 0a2.5 2.5 0 1 1 0-5 2.5 2.5 0 0 1 0 5zm14 0a2.5 2.5 0 1 1 0-5 2.5 2.5 0 0 1 0 5zm13 0a2.5 2.5 0 1 1 0-5 2.5 2.5 0 0 1 0 5zm-68 14a2.5 2.5 0 1 1 0-5 2.5 2.5 0 0 1 0 5zm13 0a2.5 2.5 0 1 1 0-5 2.5 2.5 0 0 1 0 5zm14 0a2.5 2.5 0 1 1 0-5 2.5 2.5 0 0 1 0 5zm14 0a2.5 2.5 0 1 1 0-5 2.5 2.5 0 0 1 0 5zm14 0a2.5 2.5 0 1 1 0-5 2.5 2.5 0 0 1 0 5zm13 0a2.5 2.5 0 1 1 0-5 2.5 2.5 0 0 1 0 5zm-68 13a2.5 2.5 0 1 1 0-5 2.5 2.5 0 0 1 0 5zm13 0a2.5 2.5 0 1 1 0-5 2.5 2.5 0 0 1 0 5zm14 0a2.5 2.5 0 1 1 0-5 2.5 2.5 0 0 1 0 5zm14 0a2.5 2.5 0 1 1 0-5 2.5 2.5 0 0 1 0 5zm-41-54a2.5 2.5 0 1 1 0-5 2.5 2.5 0 0 1 0 5zm13 0a2.5 2.5 0 1 1 0-5 2.5 2.5 0 0 1 0 5zm14 0a2.5 2.5 0 1 1 0-5 2.5 2.5 0 0 1 0 5zm14 0a2.5 2.5 0 1 1 0-5 2.5 2.5 0 0 1 0 5zm14 0a2.5 2.5 0 1 1 0-5 2.5 2.5 0 0 1 0 5zm13 0a2.5 2.5 0 1 1 0-5 2.5 2.5 0 0 1 0 5z"/>
    </g>
</svg>
