<svg xmlns="http://www.w3.org/2000/svg" width="100" height="100" viewBox="0 0 100 100">
    <g fill="none" fill-rule="evenodd">
        <path fill="#46CDA1" d="M38.458 0h23.084c13.373 0 18.222 1.392 23.11 4.007 4.89 2.615 8.726 6.451 11.341 11.34 2.615 4.89 4.007 9.738 4.007 23.111v23.084c0 13.373-1.392 18.222-4.007 23.11-2.615 4.89-6.451 8.726-11.34 11.341-4.89 2.615-9.738 4.007-23.111 4.007H38.458c-13.373 0-18.222-1.392-23.11-4.007-4.89-2.615-8.726-6.451-11.341-11.34C1.392 79.763 0 74.915 0 61.542V38.458c0-13.373 1.392-18.222 4.007-23.11 2.615-4.89 6.451-8.726 11.34-11.341C20.237 1.392 25.085 0 38.458 0z"/>
        <path fill="#000" fill-opacity=".2" fill-rule="nonzero" d="M80.553 42.826h-12.91V21.304c0-2.439-1.865-4.304-4.304-4.304H20.304C17.864 17 16 18.865 16 21.304V50c0 2.44 1.865 4.304 4.304 4.304h5.738c7.89 6.887 8.033 7.605 9.324 7.03 1.434-.717.574-2.151.86-7.03h5.739v17.218c0 2.439 1.865 4.304 4.303 4.304h15.78C70.08 82.713 69.794 83 70.655 83c.86 0 1.434-.574 1.434-1.435v-5.739h8.607c2.44 0 4.304-1.865 4.304-4.304V47.13c-.143-2.439-2.008-4.304-4.447-4.304zm-45.904 8.609c-2.296 0-1.148 3.3-1.435 5.452-5.881-5.022-5.738-5.452-6.742-5.452-4.017-.287-7.603 1.004-7.603-1.435V21.304c0-.86.574-1.434 1.435-1.434h43.035c.86 0 1.434.573 1.434 1.434v22.957c-.287 3.587.861 7.174-1.434 7.174h-28.69zm45.904 21.522c-7.746.43-11.476-1.005-11.476 1.434v4.018c-9.037-7.748-1.721-4.879-22.952-5.452-.861 0-1.435-.574-1.435-1.435V54.304H63.34c2.439 0 4.303-1.865 4.303-4.304v-4.304h12.911c.86 0 1.435.574 1.435 1.434-.574 22.24 1.29 25.827-1.435 25.827z"/>
        <path fill="#FFF" fill-rule="nonzero" d="M28.45 29c-.87 0-1.45-.6-1.45-1.5s.58-1.5 1.45-1.5h26.1c.87 0 1.45.6 1.45 1.5s-.58 1.5-1.45 1.5h-26.1zM59 35.5c0 .9-.567 1.5-1.417 1.5H26.417c-.85 0-1.417-.6-1.417-1.5s.567-1.5 1.417-1.5h31.166c.85 0 1.417.6 1.417 1.5zm-3 9c0 .9-.58 1.5-1.45 1.5h-26.1c-.87 0-1.45-.6-1.45-1.5s.58-1.5 1.45-1.5h26.1c.87 0 1.45.6 1.45 1.5zM74.554 66c.867 0 1.446.58 1.446 1.45 0 2.758-3.616.872-24.59 1.452-1.88 0-1.88-2.902 0-2.902h23.144zm.036-6.905c1.88 0 1.88 2.81 0 2.81C53.76 61.343 50 63.169 50 60.5c0-2.67 3.616-.843 24.59-1.405z"/>
    </g>
</svg>
