<svg xmlns="http://www.w3.org/2000/svg" width="177" height="32" viewBox="0 0 177 32">
    <g fill="none" fill-rule="evenodd">
        <path fill="#000" fill-rule="nonzero" d="M61.497 24.95c-.614.458-1.357.806-2.227 1.045-.871.239-1.767.358-2.689.358-1.23 0-2.269-.197-3.119-.592a5.33 5.33 0 0 1-2.074-1.667c-.533-.716-.917-1.584-1.152-2.601-.236-1.018-.354-2.14-.354-3.365 0-2.638.584-4.669 1.752-6.091 1.167-1.423 2.868-2.135 5.1-2.135 1.127 0 2.034.094 2.72.28a9.156 9.156 0 0 1 1.859.717l-.953 3.303a7.983 7.983 0 0 0-1.398-.53 6.08 6.08 0 0 0-1.582-.187c-1.106 0-1.946.37-2.52 1.106-.573.738-.86 1.917-.86 3.537 0 .664.072 1.277.215 1.838.143.56.358 1.049.645 1.464.287.416.66.743 1.122.982.46.239.998.358 1.613.358.676 0 1.25-.088 1.72-.265.472-.176.892-.39 1.26-.639l.922 3.085zm2.797-14.611h3.994v15.578h-3.994V10.339zm-.584-4.393c0-.603.22-1.117.66-1.543.44-.425 1.05-.638 1.829-.638.778 0 1.408.213 1.89.638.48.426.722.94.722 1.543 0 .602-.241 1.106-.723 1.51-.48.406-1.11.608-1.89.608-.778 0-1.387-.202-1.828-.607a1.97 1.97 0 0 1-.66-1.511zM80.67 14.14c-.635-.229-1.208-.343-1.72-.343-.717 0-1.316.192-1.798.576a2.779 2.779 0 0 0-.968 1.48v10.064h-3.994V10.339h3.103l.461 2.056h.123c.348-.769.82-1.36 1.413-1.776.594-.415 1.291-.623 2.09-.623.533 0 1.137.114 1.813.343l-.523 3.8zm13.183 10.81c-.615.458-1.358.806-2.228 1.045-.87.239-1.767.358-2.689.358-1.229 0-2.269-.197-3.119-.592a5.33 5.33 0 0 1-2.074-1.667c-.532-.716-.916-1.584-1.152-2.601-.236-1.018-.353-2.14-.353-3.365 0-2.638.583-4.669 1.751-6.091 1.168-1.423 2.868-2.135 5.1-2.135 1.128 0 2.034.094 2.72.28a9.156 9.156 0 0 1 1.86.717l-.953 3.303a7.983 7.983 0 0 0-1.398-.53 6.08 6.08 0 0 0-1.583-.187c-1.106 0-1.946.37-2.52 1.106-.573.738-.86 1.917-.86 3.537 0 .664.072 1.277.215 1.838.144.56.359 1.049.645 1.464.287.416.661.743 1.122.982.46.239.999.358 1.613.358.676 0 1.25-.088 1.721-.265.471-.176.891-.39 1.26-.639l.922 3.085zm6.545-4.267c0 .726.092 1.256.276 1.588.185.333.482.499.891.499.246 0 .487-.02.722-.062.236-.042.528-.135.876-.28l.43 3.177c-.327.166-.83.333-1.505.499a8.721 8.721 0 0 1-2.09.249c-1.168 0-2.059-.275-2.673-.826-.615-.55-.922-1.459-.922-2.726V4.107h3.995v16.576zm17.207 3.894c-.614.499-1.45.92-2.504 1.262a10.824 10.824 0 0 1-3.365.514c-2.479 0-4.292-.732-5.439-2.197-1.147-1.464-1.72-3.473-1.72-6.028 0-2.742.645-4.798 1.935-6.17 1.291-1.37 3.104-2.056 5.44-2.056.778 0 1.536.104 2.273.312.738.208 1.393.55 1.967 1.028.573.478 1.034 1.122 1.382 1.932.349.81.523 1.817.523 3.022 0 .436-.026.904-.077 1.402a18.54 18.54 0 0 1-.23 1.558h-9.219c.062 1.308.394 2.295.999 2.96.604.664 1.582.997 2.934.997.84 0 1.593-.13 2.259-.39.666-.26 1.173-.524 1.52-.794l1.322 2.648zm-5.715-11.434c-1.045 0-1.818.316-2.32.95-.502.633-.804 1.48-.907 2.54h5.716c.082-1.122-.087-1.984-.507-2.587-.42-.602-1.08-.903-1.982-.903zm20.003-2.804l2.797 7.976.553 2.586h.123l.43-2.618 1.966-7.944h3.657l-4.732 15.734h-2.95l-3.103-8.724-.4-1.963h-.153l-.37 1.994-2.95 8.693h-3.041l-4.947-15.734h4.332l2.243 7.82.37 2.773h.153l.522-2.804 2.55-7.79h2.95zm11.4 0h3.995v15.578h-3.995V10.339zm-.583-4.393c0-.603.22-1.117.66-1.543.44-.425 1.05-.638 1.829-.638.778 0 1.408.213 1.89.638.48.426.721.94.721 1.543 0 .602-.24 1.106-.722 1.51-.481.406-1.111.608-1.89.608-.778 0-1.387-.202-1.828-.607a1.97 1.97 0 0 1-.66-1.511zm14.841 15.671c0-.415-.174-.748-.522-.997a6.264 6.264 0 0 0-1.29-.685 41.001 41.001 0 0 0-1.69-.639 6.32 6.32 0 0 1-1.69-.903 4.926 4.926 0 0 1-1.292-1.465c-.348-.592-.522-1.355-.522-2.29 0-1.537.45-2.71 1.352-3.52.901-.81 2.202-1.216 3.903-1.216 1.167 0 2.222.125 3.165.374.942.25 1.68.53 2.212.842l-.891 2.928a20.171 20.171 0 0 0-1.782-.592 7.803 7.803 0 0 0-2.182-.311c-1.188 0-1.782.467-1.782 1.402 0 .374.174.675.522.903.348.229.779.442 1.29.639.513.197 1.076.41 1.69.639a7.298 7.298 0 0 1 1.69.888 4.62 4.62 0 0 1 1.291 1.417c.349.582.523 1.33.523 2.243 0 1.58-.497 2.82-1.49 3.724-.994.903-2.484 1.355-4.472 1.355-1.085 0-2.104-.14-3.057-.42-.953-.281-1.726-.608-2.32-.982l1.106-3.022c.471.27 1.096.535 1.875.794.778.26 1.577.39 2.396.39.595 0 1.07-.115 1.43-.343.358-.229.537-.613.537-1.153zm18.898 2.96c-.615.499-1.45.92-2.505 1.262a10.824 10.824 0 0 1-3.364.514c-2.48 0-4.292-.732-5.44-2.197-1.146-1.464-1.72-3.473-1.72-6.028 0-2.742.645-4.798 1.936-6.17 1.29-1.37 3.103-2.056 5.439-2.056.778 0 1.536.104 2.273.312.738.208 1.393.55 1.967 1.028.574.478 1.035 1.122 1.383 1.932.348.81.522 1.817.522 3.022 0 .436-.025.904-.077 1.402a18.54 18.54 0 0 1-.23 1.558h-9.218c.061 1.308.394 2.295.998 2.96.605.664 1.583.997 2.935.997.84 0 1.592-.13 2.258-.39.666-.26 1.173-.524 1.521-.794l1.322 2.648zm-5.716-11.434c-1.045 0-1.818.316-2.32.95-.502.633-.804 1.48-.906 2.54h5.715c.082-1.122-.087-1.984-.507-2.587-.42-.602-1.08-.903-1.982-.903z"/>
        <path fill="#D02E7D" d="M21.647 1.068A16.004 16.004 0 0 0 11.46 16c0 6.806 4.228 12.62 10.187 14.932A15.806 15.806 0 0 1 15.917 32C7.127 32 0 24.837 0 16S7.126 0 15.917 0c2.02 0 3.952.378 5.73 1.068z"/>
        <path fill="#FFF" d="M21.647 30.932A16.004 16.004 0 0 0 31.834 16c0-6.806-4.228-12.62-10.187-14.932A15.806 15.806 0 0 1 27.377 0c8.79 0 15.917 7.163 15.917 16s-7.126 16-15.917 16c-2.02 0-3.952-.378-5.73-1.068z"/>
    </g>
</svg>
