<?xml version="1.0" encoding="UTF-8"?>
<svg width="177px" height="32px" viewBox="0 0 177 32" version="1.1" xmlns="http://www.w3.org/2000/svg" xmlns:xlink="http://www.w3.org/1999/xlink">
    <!-- Generator: Sketch 55.2 (78181) - https://sketchapp.com -->
    <title>Logo</title>
    <desc>Created with Sketch.</desc>
    <g id="Page-1" stroke="none" stroke-width="1" fill="none" fill-rule="evenodd">
        <g id="Circlewise-Homepage" transform="translate(-165.000000, -24.000000)">
            <g id="Header">
                <g id="Logo" transform="translate(165.000000, 24.000000)">
                    <path d="M61.4974038,24.9509128 C60.8828478,25.4078725 60.1402704,25.7557797 59.2696493,25.994645 C58.3990283,26.2335103 57.5028142,26.3529412 56.5809802,26.3529412 C55.3518681,26.3529412 54.3122597,26.1556206 53.4621239,25.7609736 C52.6119881,25.3663266 51.9206229,24.8107135 51.3880077,24.0941176 C50.8553925,23.3775218 50.4713007,22.5103499 50.2357209,21.4925761 C50.0001411,20.4748022 49.8823529,19.3531907 49.8823529,18.1277079 C49.8823529,15.4898043 50.4661724,13.4594797 51.6338289,12.0366734 C52.8014853,10.6138671 54.5017315,9.90247465 56.7346184,9.90247465 C57.8613044,9.90247465 58.767761,9.99594227 59.4540152,10.1828803 C60.1402695,10.3698184 60.7599375,10.6086801 61.3130379,10.8994726 L60.3604808,14.2020284 C59.8893212,13.9735486 59.4232899,13.796998 58.9623729,13.6723732 C58.5014558,13.5477479 57.9739698,13.4854361 57.379899,13.4854361 C56.2736981,13.4854361 55.4338175,13.854114 54.8602319,14.5914807 C54.2866463,15.3288475 53.9998577,16.5075781 53.9998577,18.1277079 C53.9998577,18.7923765 54.0715549,19.4051088 54.2149513,19.9659229 C54.3583477,20.5267371 54.5734391,21.0148458 54.8602319,21.4302637 C55.1470247,21.8456816 55.520874,22.1728183 55.981791,22.4116836 C56.442708,22.6505489 56.9804365,22.7699797 57.5949925,22.7699797 C58.2710042,22.7699797 58.8445835,22.6817047 59.3157408,22.5051521 C59.7869004,22.3285995 60.2068407,22.115701 60.5755744,21.8664503 L61.4974038,24.9509128 Z M64.2936197,10.3386613 L68.288214,10.3386613 L68.288214,25.9167546 L64.2936197,25.9167546 L64.2936197,10.3386613 Z M63.7097944,5.94563895 C63.7097944,5.34328299 63.930007,4.82921105 64.3704389,4.40340771 C64.8108707,3.97760436 65.4202963,3.76470588 66.1987339,3.76470588 C66.9771715,3.76470588 67.607082,3.97760436 68.0884842,4.40340771 C68.5698865,4.82921105 68.810584,5.34328299 68.810584,5.94563895 C68.810584,6.5479949 68.5698865,7.05168154 68.0884842,7.456714 C67.607082,7.86174645 66.9771715,8.06425963 66.1987339,8.06425963 C65.4202963,8.06425963 64.8108707,7.86174645 64.3704389,7.456714 C63.930007,7.05168154 63.7097944,6.5479949 63.7097944,5.94563895 Z M80.671456,14.139716 C80.0364148,13.9112362 79.4628378,13.796998 78.9507077,13.796998 C78.2337257,13.796998 77.6345426,13.9891259 77.1531403,14.3733874 C76.6717405,14.757649 76.349101,15.2509503 76.1852194,15.8533063 L76.1852194,25.9167546 L72.1906252,25.9167546 L72.1906252,10.3386613 L75.2941176,10.3386613 L75.7550324,12.3949696 L75.877943,12.3949696 C76.2261914,11.6264465 76.6973439,11.0344848 77.2914148,10.6190669 C77.8854856,10.203649 78.581972,9.9959432 79.3808948,9.9959432 C79.91351,9.9959432 80.5178144,10.1101814 81.193826,10.3386613 L80.671456,14.139716 Z M93.8536169,24.9509128 C93.2390609,25.4078725 92.4964835,25.7557797 91.6258624,25.994645 C90.7552414,26.2335103 89.8590273,26.3529412 88.9371933,26.3529412 C87.7080812,26.3529412 86.6684728,26.1556206 85.818337,25.7609736 C84.9682012,25.3663266 84.276836,24.8107135 83.7442208,24.0941176 C83.2116056,23.3775218 82.8275138,22.5103499 82.591934,21.4925761 C82.3563542,20.4748022 82.238566,19.3531907 82.238566,18.1277079 C82.238566,15.4898043 82.8223855,13.4594797 83.990042,12.0366734 C85.1576984,10.6138671 86.8579446,9.90247465 89.0908315,9.90247465 C90.2175175,9.90247465 91.1239741,9.99594227 91.8102283,10.1828803 C92.4964826,10.3698184 93.1161506,10.6086801 93.669251,10.8994726 L92.7166939,14.2020284 C92.2455343,13.9735486 91.779503,13.796998 91.318586,13.6723732 C90.8576689,13.5477479 90.3301829,13.4854361 89.7361121,13.4854361 C88.6299112,13.4854361 87.7900306,13.854114 87.216445,14.5914807 C86.6428594,15.3288475 86.3560708,16.5075781 86.3560708,18.1277079 C86.3560708,18.7923765 86.427768,19.4051088 86.5711644,19.9659229 C86.7145608,20.5267371 86.9296522,21.0148458 87.216445,21.4302637 C87.5032378,21.8456816 87.8770871,22.1728183 88.3380041,22.4116836 C88.7989211,22.6505489 89.3366496,22.7699797 89.9512056,22.7699797 C90.6272173,22.7699797 91.2007966,22.6817047 91.6719539,22.5051521 C92.1431135,22.3285995 92.5630539,22.115701 92.9317875,21.8664503 L93.8536169,24.9509128 Z M100.398606,20.6825152 C100.398606,21.4094965 100.490788,21.9391464 100.675155,22.2714807 C100.859522,22.603815 101.156552,22.7699797 101.566256,22.7699797 C101.812079,22.7699797 102.052776,22.7492091 102.288356,22.7076673 C102.523936,22.6661256 102.815846,22.5726579 103.164094,22.4272617 L103.594281,25.6051927 C103.266518,25.7713599 102.764638,25.9375245 102.088627,26.1036917 C101.412615,26.2698588 100.716128,26.3529412 99.9991465,26.3529412 C98.83149,26.3529412 97.9403971,26.0777309 97.3258411,25.5273022 C96.7112851,24.9768735 96.4040117,24.0681605 96.4040117,22.8011359 L96.4040117,4.10742394 L100.398606,4.10742394 L100.398606,20.6825152 Z M117.606089,24.5770385 C116.991533,25.07554 116.156773,25.4961443 115.101785,25.8388641 C114.046797,26.1815839 112.92525,26.3529412 111.737108,26.3529412 C109.258399,26.3529412 107.445485,25.6207781 106.298314,24.15643 C105.151143,22.6920819 104.577566,20.682528 104.577566,18.1277079 C104.577566,15.3859498 105.22284,13.329662 106.513408,11.958783 C107.803975,10.5879039 109.616889,9.90247465 111.952201,9.90247465 C112.730639,9.90247465 113.48858,10.0063276 114.226047,10.2140365 C114.963515,10.4217455 115.619031,10.7644601 116.192617,11.2421907 C116.766202,11.7199213 117.227113,12.3638093 117.575361,13.1738742 C117.923609,13.9839391 118.097731,14.9913124 118.097731,16.1960243 C118.097731,16.6322131 118.072125,17.0995513 118.020912,17.5980527 C117.969699,18.0965542 117.892881,18.6158188 117.790455,19.1558621 L108.57216,19.1558621 C108.633616,20.4644284 108.966495,21.4510312 109.570809,22.1156998 C110.175122,22.7803684 111.153276,23.1126978 112.505299,23.1126978 C113.345192,23.1126978 114.098012,22.9828816 114.763781,22.7232454 C115.42955,22.4636092 115.936551,22.1987843 116.2848,21.9287627 L117.606089,24.5770385 Z M111.890746,13.1427181 C110.846001,13.1427181 110.072696,13.4594694 109.570809,14.0929817 C109.068921,14.726494 108.766769,15.5728953 108.664343,16.632211 L114.379686,16.632211 C114.461626,15.5105826 114.292626,14.6486034 113.872679,14.0462475 C113.452733,13.4438915 112.792095,13.1427181 111.890746,13.1427181 Z M131.894445,10.3386613 L134.690661,18.314645 L135.243758,20.9006085 L135.366669,20.9006085 L135.796856,18.2834888 L137.763426,10.3386613 L141.420016,10.3386613 L136.687958,26.0725355 L133.738104,26.0725355 L130.634611,17.3488032 L130.235152,15.3859635 L130.081514,15.3859635 L129.712782,17.3799594 L126.762928,26.0725355 L123.720891,26.0725355 L118.773739,10.3386613 L123.106338,10.3386613 L125.349456,18.1588641 L125.718188,20.9317647 L125.871826,20.9317647 L126.394196,18.1277079 L128.944591,10.3386613 L131.894445,10.3386613 Z M143.294402,10.3386613 L147.288996,10.3386613 L147.288996,25.9167546 L143.294402,25.9167546 L143.294402,10.3386613 Z M142.710577,5.94563895 C142.710577,5.34328299 142.930789,4.82921105 143.371221,4.40340771 C143.811653,3.97760436 144.421079,3.76470588 145.199516,3.76470588 C145.977954,3.76470588 146.607864,3.97760436 147.089267,4.40340771 C147.570669,4.82921105 147.811366,5.34328299 147.811366,5.94563895 C147.811366,6.5479949 147.570669,7.05168154 147.089267,7.456714 C146.607864,7.86174645 145.977954,8.06425963 145.199516,8.06425963 C144.421079,8.06425963 143.811653,7.86174645 143.371221,7.456714 C142.930789,7.05168154 142.710577,6.5479949 142.710577,5.94563895 Z M157.552031,21.6172008 C157.552031,21.2017829 157.377909,20.8694536 157.029661,20.6202028 C156.681412,20.3709521 156.25123,20.1424757 155.7391,19.9347667 C155.226969,19.7270578 154.663635,19.5141593 154.049079,19.2960649 C153.434523,19.0779705 152.871188,18.7767971 152.359058,18.3925355 C151.846928,18.0082739 151.416745,17.5201652 151.068497,16.9281947 C150.720249,16.3362242 150.546127,15.5729053 150.546127,14.638215 C150.546127,13.1011688 150.996795,11.9276308 151.898144,11.1175659 C152.799492,10.307501 154.100283,9.90247465 155.800555,9.90247465 C156.968211,9.90247465 158.023183,10.0270981 158.965503,10.2763489 C159.907822,10.5255996 160.645278,10.8060025 161.177893,11.1175659 L160.286791,14.0462475 C159.815632,13.8593094 159.22157,13.6619889 158.504588,13.4542799 C157.787606,13.246571 157.060392,13.1427181 156.322925,13.1427181 C155.134783,13.1427181 154.540721,13.6100562 154.540721,14.5447465 C154.540721,14.9186226 154.714843,15.219796 155.063091,15.4482759 C155.41134,15.6767557 155.841522,15.8896542 156.353652,16.0869777 C156.865782,16.2843012 157.429117,16.4971997 158.043673,16.7256795 C158.658229,16.9541594 159.221564,17.2501402 159.733694,17.6136308 C160.245824,17.9771215 160.676007,18.4496523 161.024255,19.0312373 C161.372503,19.6128224 161.546625,20.3605634 161.546625,21.2744828 C161.546625,22.8530708 161.049866,24.0941131 160.056334,24.9976471 C159.062802,25.901181 157.572526,26.3529412 155.585461,26.3529412 C154.499746,26.3529412 153.480622,26.2127397 152.52806,25.9323327 C151.575498,25.6519256 150.802194,25.3247889 150.208123,24.9509128 L151.314318,21.9287627 C151.785478,22.1987843 152.410267,22.4636092 153.188705,22.7232454 C153.967142,22.9828816 154.766053,23.1126978 155.585461,23.1126978 C156.179532,23.1126978 156.655806,22.9984596 157.014297,22.7699797 C157.372788,22.5414999 157.552031,22.1572441 157.552031,21.6172008 Z M176.449534,24.5770385 C175.834978,25.07554 175.000219,25.4961443 173.945231,25.8388641 C172.890243,26.1815839 171.768695,26.3529412 170.580553,26.3529412 C168.101844,26.3529412 166.288931,25.6207781 165.14176,24.15643 C163.994588,22.6920819 163.421011,20.682528 163.421011,18.1277079 C163.421011,15.3859498 164.066286,13.329662 165.356853,11.958783 C166.647421,10.5879039 168.460334,9.90247465 170.795647,9.90247465 C171.574085,9.90247465 172.332026,10.0063276 173.069493,10.2140365 C173.80696,10.4217455 174.462477,10.7644601 175.036062,11.2421907 C175.609648,11.7199213 176.070558,12.3638093 176.418806,13.1738742 C176.767055,13.9839391 176.941176,14.9913124 176.941176,16.1960243 C176.941176,16.6322131 176.91557,17.0995513 176.864357,17.5980527 C176.813144,18.0965542 176.736326,18.6158188 176.6339,19.1558621 L167.415606,19.1558621 C167.477061,20.4644284 167.809941,21.4510312 168.414254,22.1156998 C169.018568,22.7803684 169.996721,23.1126978 171.348745,23.1126978 C172.188638,23.1126978 172.941458,22.9828816 173.607227,22.7232454 C174.272996,22.4636092 174.779997,22.1987843 175.128245,21.9287627 L176.449534,24.5770385 Z M170.734192,13.1427181 C169.689446,13.1427181 168.916142,13.4594694 168.414254,14.0929817 C167.912367,14.726494 167.610215,15.5728953 167.507789,16.632211 L173.223131,16.632211 C173.305072,15.5105826 173.136072,14.6486034 172.716125,14.0462475 C172.296178,13.4438915 171.63554,13.1427181 170.734192,13.1427181 Z" id="circlewise" fill="#000000" fill-rule="nonzero"></path>
                    <path d="M21.6470588,1.06814536 C15.6876743,3.38052146 11.4602076,9.19399608 11.4602076,16 C11.4602076,22.8060039 15.6876743,28.6194785 21.6470588,30.9318546 C19.8690933,31.6217455 17.9369679,32 15.916955,32 C7.1262635,32 0,24.836556 0,16 C0,7.163444 7.1262635,0 15.916955,0 C17.9369679,0 19.8690933,0.37825447 21.6470588,1.06814536 Z" id="Combined-Shape" fill="#D02E7D"></path>
                    <path d="M21.6470588,30.9318546 C27.6064433,28.6194785 31.83391,22.8060039 31.83391,16 C31.83391,9.19399608 27.6064433,3.38052146 21.6470588,1.06814536 C23.4250244,0.37825447 25.3571497,0 27.3771626,0 C36.1678541,0 43.2941176,7.163444 43.2941176,16 C43.2941176,24.836556 36.1678541,32 27.3771626,32 C25.3571497,32 23.4250244,31.6217455 21.6470588,30.9318546 Z" id="Combined-Shape" fill="#FFB900"></path>
                </g>
            </g>
        </g>
    </g>
</svg>