<?xml version="1.0" encoding="UTF-8"?>
<svg width="100px" height="100px" viewBox="0 0 100 100" version="1.1" xmlns="http://www.w3.org/2000/svg" xmlns:xlink="http://www.w3.org/1999/xlink">
    <!-- Generator: Sketch 55.2 (78181) - https://sketchapp.com -->
    <title>consumer_loans</title>
    <desc>Created with Sketch.</desc>
    <g id="consumer_loans" stroke="none" stroke-width="1" fill="none" fill-rule="evenodd">
        <rect id="Rectangle" fill-opacity="0" fill="#FFFFFF" x="0" y="0" width="100" height="100"></rect>
        <circle id="Oval" fill="#E4F2F8" cx="50" cy="50" r="40"></circle>
        <circle id="Oval" fill="#FFB900" cx="47" cy="16" r="7"></circle>
        <circle id="Oval" fill="#D02E7D" cx="13" cy="50" r="5"></circle>
        <circle id="Oval" fill="#46A7CD" cx="60" cy="68" r="4"></circle>
        <path d="M50,49.5 C50,55.275 45.40625,60 39.5,60 C33.725,60 29,55.275 29,49.5 C29,43.725 33.725,39 39.5,39 C45.275,39 50,43.725 50,49.5 Z M75.5016949,69.1485149 C76.5399516,69.5346535 77.3186441,70.3069307 77.7079903,71.3366337 C78.0973366,72.3663366 78.0973366,73.3960396 77.7079903,74.4257426 C77.3186441,75.4554455 76.5399516,76.2277228 75.5016949,76.6138614 L51.7515738,88.970297 C50.453753,89.6138614 49.0261501,90 47.5985472,90 C46.6900726,90 45.651816,89.7425743 44.7433414,89.4851485 L31.1162228,84.980198 L27.0929782,84.980198 L27.0929782,87.5544554 L13.8552058,87.5544554 L13.8552058,85.6237624 L11,65.9306931 L11,64 L26.9631961,64 L26.9631961,66.5742574 L32.5438257,66.5742574 C34.2309927,66.5742574 36.0479419,66.960396 37.6053269,67.7326733 L44.8731235,71.0792079 L54.6067797,71.0792079 C54.7365617,71.0792079 54.7365617,71.0792079 54.7365617,71.0792079 C56.8130751,71.0792079 58.5002421,72.7524752 58.5002421,74.8118812 C58.5002421,74.9405941 58.5002421,75.0693069 58.5002421,75.1980198 L72.3869249,69.1485149 C73.4251816,68.7623762 74.4634383,68.7623762 75.5016949,69.1485149 Z M92.7425922,19.9620388 L92.8712961,34.9995544 L92.3564806,36.9440607 C85.4064711,35.2588219 82.8323936,37.5922295 82.8323936,37.5922295 L82.7036897,37.7218633 C78.0703501,40.5738059 74.8527531,39.9256371 74.0805298,39.6663696 L68.9323747,39.6663696 C65.1999622,41.8701435 61.3388458,42.2590447 61.2101419,42.2590447 C57.4777294,42.5183122 57.2203217,44.4628186 57.2203217,44.5924523 L57.2203217,44.8517198 C56.4480984,46.9258599 55.4184674,48.2221975 54.2601325,48.7407325 C53.8740208,49 53.4879092,49 53.2305014,49 C52.8443898,49 52.586982,48.8703662 52.4582782,48.8703662 C51.4286471,48.6110987 50.52772,47.96293 50.1416083,46.9258599 C49.1119773,44.7220861 50.3990161,41.8701435 50.52772,41.4812422 C52.2008704,36.5551595 52.7156859,36.0366245 56.7055062,33.4439493 L57.2203217,33.0550481 C60.8240303,30.7216405 59.022176,26.8326278 58.8934721,26.7029941 C58.2499527,25.0177552 57.4777294,24.110319 56.5768023,23.8510514 C55.5471713,23.5917839 54.6462441,24.2399527 54.6462441,24.2399527 C50.52772,26.8326278 46.5378997,26.9622616 44.8647493,26.8326278 C44.2212299,28.1289654 42.4193756,30.8512742 40.1027058,31.7587105 C39.845298,33.1846818 38.6869631,36.5551595 36.4989972,37.9811308 C35.4693661,38.6292996 34.3110312,38.7589333 33.1526963,38.4996658 C32.8952886,38.4996658 31.8656575,38.2403983 31.350842,37.2033283 C30.7073226,36.0366245 30.9647304,34.3513856 31.9943614,32.4068793 C32.3804731,31.499443 35.8554778,22.4250801 40.7462252,19.5731375 C45.2508609,17.6286312 52.8443898,13.8692523 54.1314286,12.1840135 C54.3888363,11.7951122 55.4184674,10.4987746 57.7351372,10.4987746 C58.5073605,9.59133835 60.051807,8.5542683 62.6258846,9.20243708 L62.7545885,9.20243708 C62.8832923,9.33207084 80.7731315,16.7211949 93,18.0175325 L92.7425922,19.9620388 Z" id="Fill" fill="#FFFFFF" fill-rule="nonzero"></path>
        <path d="M81.4166509,36.295892 C82.0601703,35.7773569 85.2777673,33.3143156 92.8712961,34.9995544 L92.3564806,36.9440607 C85.4064711,35.2588219 82.8323936,37.5922295 82.8323936,37.5922295 L82.7036897,37.7218633 C78.0703501,40.5738059 74.8527531,39.9256371 74.0805298,39.6663696 L68.9323747,39.6663696 C65.1999622,41.8701435 61.3388458,42.2590447 61.2101419,42.2590447 C57.4777294,42.5183122 57.2203217,44.4628186 57.2203217,44.5924523 L57.2203217,44.8517198 C56.4480984,46.9258599 55.4184674,48.2221975 54.2601325,48.7407325 C53.8740208,49 53.4879092,49 53.2305014,49 C52.8443898,49 52.586982,48.8703662 52.4582782,48.8703662 C51.4286471,48.6110987 50.52772,47.96293 50.1416083,46.9258599 C49.1119773,44.7220861 50.3990161,41.8701435 50.52772,41.4812422 C52.2008704,36.5551595 52.7156859,36.0366245 56.7055062,33.4439493 L57.2203217,33.0550481 C60.8240303,30.7216405 59.022176,26.8326278 58.8934721,26.7029941 C58.2499527,25.0177552 57.4777294,24.110319 56.5768023,23.8510514 C55.5471713,23.5917839 54.6462441,24.2399527 54.6462441,24.2399527 C50.52772,26.8326278 46.5378997,26.9622616 44.8647493,26.8326278 C44.2212299,28.1289654 42.4193756,30.8512742 40.1027058,31.7587105 C39.845298,33.1846818 38.6869631,36.5551595 36.4989972,37.9811308 C35.4693661,38.6292996 34.3110312,38.7589333 33.1526963,38.4996658 C32.8952886,38.4996658 31.8656575,38.2403983 31.350842,37.2033283 C30.7073226,36.0366245 30.9647304,34.3513856 31.9943614,32.4068793 C32.3804731,31.499443 35.8554778,22.4250801 40.7462252,19.5731375 C45.2508609,17.6286312 52.8443898,13.8692523 54.1314286,12.1840135 C54.3888363,11.7951122 55.4184674,10.4987746 57.7351372,10.4987746 C58.5073605,9.59133835 60.051807,8.5542683 62.6258846,9.20243708 L62.7545885,9.20243708 C62.8832923,9.33207084 80.7731315,16.7211949 93,18.0175325 L92.7425922,19.9620388 C80.5157238,18.5360675 63.3981079,11.6654784 61.9823652,11.0173097 C59.6656954,10.4987746 59.022176,11.7951122 59.022176,11.9247459 L58.7647682,12.5729147 L58.2499527,12.5729147 C56.4480984,12.3136472 55.9332829,13.2210835 55.9332829,13.2210835 C53.8740208,15.9433924 42.9341911,20.7398413 41.6471523,21.2583763 C37.2712205,23.8510514 33.7962157,32.9254143 33.7962157,33.0550481 L33.7962157,33.1846818 C32.6378808,35.1291882 32.8952886,36.0366245 33.0239925,36.1662582 C33.1526963,36.5551595 33.4101041,36.5551595 33.4101041,36.5551595 L33.538808,36.5551595 C34.1823274,36.6847932 34.8258468,36.6847932 35.3406623,36.295892 C37.0138127,35.2588219 37.9147398,32.017978 38.1721476,30.8512742 L38.3008515,30.2031055 L38.9443709,30.0734717 C40.8749291,29.6845704 42.8054872,26.4437266 43.3203028,25.4066565 L43.4490066,24.7584877 L44.092526,24.8881215 C44.092526,24.8881215 48.7258657,25.5362903 53.2305014,22.6843476 C53.2305014,22.6843476 54.9036519,21.5176438 56.83421,22.0361789 C58.2499527,22.4250801 59.5369915,23.7214177 60.4379186,25.9251915 C61.3388458,27.7400641 62.1110691,32.1476118 58.1212488,34.7402869 L57.6064333,35.1291882 C53.8740208,37.5922295 53.7453169,37.5922295 52.2008704,42.2590447 C51.9434626,42.9072135 51.2999432,44.9813536 51.8147588,46.1480574 C51.9434626,46.5369586 52.3295743,46.9258599 52.9730937,47.0554937 C53.3592053,47.0554937 54.2601325,46.6665924 55.1610596,44.3331848 C55.2897635,43.5553823 56.0619868,40.8330734 60.8240303,40.4441721 C60.8240303,40.4441721 64.5564428,40.0552709 68.0314475,37.9811308 L68.2888553,37.851497 L74.3379376,37.851497 L74.4666414,37.9811308 C74.5953453,37.9811308 77.1694229,39.0182008 81.4166509,36.295892 Z M75.5016949,69.1485149 C76.5399516,69.5346535 77.3186441,70.3069307 77.7079903,71.3366337 C78.0973366,72.3663366 78.0973366,73.3960396 77.7079903,74.4257426 C77.3186441,75.4554455 76.5399516,76.2277228 75.5016949,76.6138614 L51.7515738,88.970297 C50.453753,89.6138614 49.0261501,90 47.5985472,90 C46.6900726,90 45.651816,89.7425743 44.7433414,89.4851485 L31.1162228,84.980198 L27.0929782,84.980198 L27.0929782,87.5544554 L13.8552058,87.5544554 L13.8552058,85.6237624 L25.146247,85.6237624 L25.146247,65.9306931 L11,65.9306931 L11,64 L26.9631961,64 L26.9631961,66.5742574 L32.5438257,66.5742574 C34.2309927,66.5742574 36.0479419,66.960396 37.6053269,67.7326733 L44.8731235,71.0792079 L54.6067797,71.0792079 C54.7365617,71.0792079 54.7365617,71.0792079 54.7365617,71.0792079 C56.8130751,71.0792079 58.5002421,72.7524752 58.5002421,74.8118812 C58.5002421,74.9405941 58.5002421,75.0693069 58.5002421,75.1980198 L72.3869249,69.1485149 C73.4251816,68.7623762 74.4634383,68.7623762 75.5016949,69.1485149 Z M75.8910412,73.6534653 C76.1506053,73.1386139 76.1506053,72.6237624 75.8910412,71.8514851 C75.631477,71.3366337 75.2421308,70.950495 74.7230024,70.6930693 C74.2038741,70.4356436 73.6847458,70.4356436 73.1656174,70.6930693 L56.5535109,78.029703 C56.0343826,78.4158416 55.5152542,78.5445545 54.8663438,78.5445545 L42.9263923,78.5445545 C42.537046,78.6732673 41.2392252,79.0594059 41.2392252,80.0891089 L39.2924939,80.0891089 C39.2924939,77.7722772 41.4987893,76.8712871 42.6668281,76.6138614 L42.7966102,76.6138614 L54.9961259,76.6138614 C56.0343826,76.6138614 56.8130751,75.8415842 56.8130751,74.8118812 C56.8130751,73.9108911 56.0343826,73.009901 54.9961259,73.009901 L44.7433414,73.009901 L36.9564165,69.4059406 C35.5288136,68.7623762 34.1012107,68.5049505 32.6736077,68.5049505 L27.0929782,68.5049505 L27.0929782,83.049505 L31.6353511,83.049505 L45.3922518,87.5544554 C47.209201,88.1980198 49.2857143,88.0693069 50.9728814,87.1683168 L74.7230024,74.8118812 C75.2421308,74.5544554 75.631477,74.1683168 75.8910412,73.6534653 Z M20,81 L22,81 L22,83 L20,83 L20,81 Z M17,81 L18,81 L18,83 L17,83 L17,81 Z M40.4074074,56 L38.462963,56 L38.462963,54.5555556 C37.9444444,54.4242424 37.4259259,54.2929293 37.037037,53.8989899 C36.3888889,53.3737374 36,52.5858586 36,51.6666667 L37.8148148,51.6666667 C37.8148148,52.0606061 38.0740741,52.3232323 38.2037037,52.4545455 C38.8518519,52.979798 39.8888889,52.979798 40.4074074,52.4545455 C40.537037,52.3232323 40.7962963,52.0606061 40.7962963,51.6666667 C40.7962963,51.2727273 40.537037,51.010101 40.4074074,50.8787879 C40.1481481,50.6161616 39.7592593,50.4848485 39.3703704,50.4848485 C38.462963,50.4848485 37.6851852,50.0909091 37.037037,49.5656566 C36.3888889,49.040404 36,48.2525253 36,47.3333333 C36,46.4141414 36.3888889,45.6262626 37.1666667,45.1010101 C37.5555556,44.8383838 38.0740741,44.5757576 38.5925926,44.4444444 L38.5925926,43 L40.537037,43 L40.537037,44.4444444 C41.0555556,44.5757576 41.5740741,44.7070707 41.962963,45.1010101 C42.6111111,45.6262626 43,46.4141414 43,47.3333333 L41.0555556,47.3333333 C41.0555556,46.9393939 40.7962963,46.6767677 40.6666667,46.5454545 C40.0185185,46.020202 38.9814815,46.020202 38.462963,46.5454545 C38.3333333,46.6767677 38.0740741,46.9393939 38.0740741,47.3333333 C38.0740741,47.7272727 38.3333333,47.989899 38.462963,48.1212121 C38.7222222,48.3838384 39.1111111,48.5151515 39.5,48.5151515 C40.4074074,48.5151515 41.1851852,48.9090909 41.8333333,49.4343434 C42.4814815,49.959596 42.8703704,50.7474747 42.8703704,51.6666667 C42.8703704,52.4545455 42.4814815,53.2424242 41.8333333,53.8989899 C41.4444444,54.1616162 40.9259259,54.4242424 40.4074074,54.5555556 L40.4074074,56 Z M50,49.5 C50,55.275 45.40625,60 39.5,60 C33.725,60 29,55.275 29,49.5 C29,43.725 33.725,39 39.5,39 C45.275,39 50,43.725 50,49.5 Z M31.1,49.5 C31.1,54.225 34.90625,58.03125 39.63125,58.03125 C44.35625,58.03125 48.1625,54.225 48.1625,49.5 C48.1625,44.775 44.35625,40.96875 39.63125,40.96875 C34.90625,40.96875 31.1,44.775 31.1,49.5 Z" id="Stroke" fill="#000000" fill-rule="nonzero"></path>
    </g>
</svg>