<?xml version="1.0" encoding="UTF-8"?>
<svg width="540px" height="452px" viewBox="0 0 540 452" version="1.1" xmlns="http://www.w3.org/2000/svg" xmlns:xlink="http://www.w3.org/1999/xlink">
    <!-- Generator: Sketch 55.2 (78181) - https://sketchapp.com -->
    <title>Background</title>
    <desc>Created with Sketch.</desc>
    <g id="Page-1" stroke="none" stroke-width="1" fill="none" fill-rule="evenodd">
        <g id="Circlewise-Advertiser" transform="translate(-735.000000, -1729.000000)">
            <g id="Group-6" transform="translate(165.000000, 1729.000000)">
                <g id="Background" transform="translate(570.000000, 0.000000)">
                    <circle id="Oval" stroke="#FFF5D9" stroke-width="4" cx="361" cy="179" r="177"></circle>
                    <circle id="Oval" fill="#E4F2F8" cx="132.5" cy="299.5" r="132.5"></circle>
                    <circle id="Oval" fill="#FFB900" cx="129.5" cy="63.5" r="13.5"></circle>
                    <circle id="Oval" fill="#D02E7D" cx="531.5" cy="308.5" r="8.5"></circle>
                    <path d="M439.5,452 C438.119288,452 437,450.880712 437,449.5 C437,448.119288 438.119288,447 439.5,447 C440.880712,447 442,448.119288 442,449.5 C442,450.880712 440.880712,452 439.5,452 Z M452.5,452 C451.119288,452 450,450.880712 450,449.5 C450,448.119288 451.119288,447 452.5,447 C453.880712,447 455,448.119288 455,449.5 C455,450.880712 453.880712,452 452.5,452 Z M384.5,411 C383.119288,411 382,409.880712 382,408.5 C382,407.119288 383.119288,406 384.5,406 C385.880712,406 387,407.119288 387,408.5 C387,409.880712 385.880712,411 384.5,411 Z M397.5,411 C396.119288,411 395,409.880712 395,408.5 C395,407.119288 396.119288,406 397.5,406 C398.880712,406 400,407.119288 400,408.5 C400,409.880712 398.880712,411 397.5,411 Z M411.5,411 C410.119288,411 409,409.880712 409,408.5 C409,407.119288 410.119288,406 411.5,406 C412.880712,406 414,407.119288 414,408.5 C414,409.880712 412.880712,411 411.5,411 Z M425.5,411 C424.119288,411 423,409.880712 423,408.5 C423,407.119288 424.119288,406 425.5,406 C426.880712,406 428,407.119288 428,408.5 C428,409.880712 426.880712,411 425.5,411 Z M439.5,411 C438.119288,411 437,409.880712 437,408.5 C437,407.119288 438.119288,406 439.5,406 C440.880712,406 442,407.119288 442,408.5 C442,409.880712 440.880712,411 439.5,411 Z M452.5,411 C451.119288,411 450,409.880712 450,408.5 C450,407.119288 451.119288,406 452.5,406 C453.880712,406 455,407.119288 455,408.5 C455,409.880712 453.880712,411 452.5,411 Z M384.5,425 C383.119288,425 382,423.880712 382,422.5 C382,421.119288 383.119288,420 384.5,420 C385.880712,420 387,421.119288 387,422.5 C387,423.880712 385.880712,425 384.5,425 Z M397.5,425 C396.119288,425 395,423.880712 395,422.5 C395,421.119288 396.119288,420 397.5,420 C398.880712,420 400,421.119288 400,422.5 C400,423.880712 398.880712,425 397.5,425 Z M411.5,425 C410.119288,425 409,423.880712 409,422.5 C409,421.119288 410.119288,420 411.5,420 C412.880712,420 414,421.119288 414,422.5 C414,423.880712 412.880712,425 411.5,425 Z M425.5,425 C424.119288,425 423,423.880712 423,422.5 C423,421.119288 424.119288,420 425.5,420 C426.880712,420 428,421.119288 428,422.5 C428,423.880712 426.880712,425 425.5,425 Z M439.5,425 C438.119288,425 437,423.880712 437,422.5 C437,421.119288 438.119288,420 439.5,420 C440.880712,420 442,421.119288 442,422.5 C442,423.880712 440.880712,425 439.5,425 Z M452.5,425 C451.119288,425 450,423.880712 450,422.5 C450,421.119288 451.119288,420 452.5,420 C453.880712,420 455,421.119288 455,422.5 C455,423.880712 453.880712,425 452.5,425 Z M384.5,439 C383.119288,439 382,437.880712 382,436.5 C382,435.119288 383.119288,434 384.5,434 C385.880712,434 387,435.119288 387,436.5 C387,437.880712 385.880712,439 384.5,439 Z M397.5,439 C396.119288,439 395,437.880712 395,436.5 C395,435.119288 396.119288,434 397.5,434 C398.880712,434 400,435.119288 400,436.5 C400,437.880712 398.880712,439 397.5,439 Z M411.5,439 C410.119288,439 409,437.880712 409,436.5 C409,435.119288 410.119288,434 411.5,434 C412.880712,434 414,435.119288 414,436.5 C414,437.880712 412.880712,439 411.5,439 Z M425.5,439 C424.119288,439 423,437.880712 423,436.5 C423,435.119288 424.119288,434 425.5,434 C426.880712,434 428,435.119288 428,436.5 C428,437.880712 426.880712,439 425.5,439 Z M439.5,439 C438.119288,439 437,437.880712 437,436.5 C437,435.119288 438.119288,434 439.5,434 C440.880712,434 442,435.119288 442,436.5 C442,437.880712 440.880712,439 439.5,439 Z M452.5,439 C451.119288,439 450,437.880712 450,436.5 C450,435.119288 451.119288,434 452.5,434 C453.880712,434 455,435.119288 455,436.5 C455,437.880712 453.880712,439 452.5,439 Z M384.5,452 C383.119288,452 382,450.880712 382,449.5 C382,448.119288 383.119288,447 384.5,447 C385.880712,447 387,448.119288 387,449.5 C387,450.880712 385.880712,452 384.5,452 Z M397.5,452 C396.119288,452 395,450.880712 395,449.5 C395,448.119288 396.119288,447 397.5,447 C398.880712,447 400,448.119288 400,449.5 C400,450.880712 398.880712,452 397.5,452 Z M411.5,452 C410.119288,452 409,450.880712 409,449.5 C409,448.119288 410.119288,447 411.5,447 C412.880712,447 414,448.119288 414,449.5 C414,450.880712 412.880712,452 411.5,452 Z M425.5,452 C424.119288,452 423,450.880712 423,449.5 C423,448.119288 424.119288,447 425.5,447 C426.880712,447 428,448.119288 428,449.5 C428,450.880712 426.880712,452 425.5,452 Z M384.5,398 C383.119288,398 382,396.880712 382,395.5 C382,394.119288 383.119288,393 384.5,393 C385.880712,393 387,394.119288 387,395.5 C387,396.880712 385.880712,398 384.5,398 Z M397.5,398 C396.119288,398 395,396.880712 395,395.5 C395,394.119288 396.119288,393 397.5,393 C398.880712,393 400,394.119288 400,395.5 C400,396.880712 398.880712,398 397.5,398 Z M411.5,398 C410.119288,398 409,396.880712 409,395.5 C409,394.119288 410.119288,393 411.5,393 C412.880712,393 414,394.119288 414,395.5 C414,396.880712 412.880712,398 411.5,398 Z M425.5,398 C424.119288,398 423,396.880712 423,395.5 C423,394.119288 424.119288,393 425.5,393 C426.880712,393 428,394.119288 428,395.5 C428,396.880712 426.880712,398 425.5,398 Z M439.5,398 C438.119288,398 437,396.880712 437,395.5 C437,394.119288 438.119288,393 439.5,393 C440.880712,393 442,394.119288 442,395.5 C442,396.880712 440.880712,398 439.5,398 Z M452.5,398 C451.119288,398 450,396.880712 450,395.5 C450,394.119288 451.119288,393 452.5,393 C453.880712,393 455,394.119288 455,395.5 C455,396.880712 453.880712,398 452.5,398 Z" id="Oval-2" fill="#D02E7D"></path>
                </g>
            </g>
        </g>
    </g>
</svg>