<?xml version="1.0" encoding="UTF-8"?>
<svg width="100px" height="100px" viewBox="0 0 100 100" version="1.1" xmlns="http://www.w3.org/2000/svg" xmlns:xlink="http://www.w3.org/1999/xlink">
    <!-- Generator: Sketch 55.2 (78181) - https://sketchapp.com -->
    <title>credit_cards</title>
    <desc>Created with Sketch.</desc>
    <g id="credit_cards" stroke="none" stroke-width="1" fill="none" fill-rule="evenodd">
        <rect id="Rectangle" fill-opacity="0" fill="#FFFFFF" x="0" y="0" width="100" height="100"></rect>
        <circle id="Oval" fill="#E4F2F8" cx="50" cy="50" r="40"></circle>
        <circle id="Oval" fill="#FFB900" cx="77" cy="82" r="7"></circle>
        <circle id="Oval" fill="#D02E7D" cx="67" cy="12" r="5"></circle>
        <circle id="Oval" fill="#46A7CD" cx="18" cy="30" r="4"></circle>
        <path d="M93.8950617,22 L38.9182099,22 C36.7191358,22 34.8132716,23.7538462 34.8132716,26.0923077 L34.8132716,46.1153846 L29.242284,46.1153846 L28.8024691,46.1153846 C25.8703704,46.2615385 23.2314815,47.7230769 21.6188272,50.0615385 C20.7391975,51.3769231 19.1265432,52.2538462 17.5138889,52.2538462 L16.0478395,52.2538462 C15.9012346,52.1076923 15.9012346,52.1076923 15.7546296,51.9615385 C15.0216049,51.2307692 14.1419753,50.9384615 13.1157407,50.9384615 C10.7700617,51.0846154 8.42438272,51.2307692 6.22530864,51.2307692 L6.22530864,53.4230769 L3,73.1538462 L3,75.3461538 C6.37191358,75.3461538 9.74382716,75.4923077 13.1157407,75.6384615 C13.2623457,75.6384615 13.2623457,75.6384615 13.4089506,75.6384615 C14.2885802,75.6384615 15.0216049,75.3461538 15.6080247,74.9076923 C16.1944444,74.9076923 17.9537037,75.0538462 18.9799383,75.6384615 C19.2731481,75.7846154 19.566358,75.9307692 19.8595679,76.0769231 C21.1790123,76.9538462 22.7916667,77.8307692 25.8703704,78.5615385 C27.3364198,78.8538462 30.7083333,79 34.0802469,79 C38.9182099,79 43.9027778,78.8538462 44.1959877,78.8538462 C46.5416667,78.8538462 48.3009259,76.9538462 48.3009259,74.7615385 C48.3009259,74.0307692 48.154321,73.3 47.7145062,72.7153846 C49.7669753,72.4230769 51.2330247,70.6692308 51.2330247,68.6230769 C51.2330247,67.4538462 50.7932099,66.4307692 50.0601852,65.7 C51.0864198,64.9692308 51.6728395,63.8 51.6728395,62.4846154 C51.6728395,61.7538462 51.5262346,61.1692308 51.0864198,60.5846154 L93.8950617,60.5846154 C96.0941358,60.5846154 98,58.8307692 98,56.4923077 L98,26.0923077 C98,23.9 96.0941358,22 93.8950617,22 Z" id="Fill" fill="#FFFFFF" fill-rule="nonzero"></path>
        <path d="M93.8950617,22 L38.9182099,22 C36.7191358,22 34.8132716,23.7538462 34.8132716,26.0923077 L34.8132716,46.1153846 L29.242284,46.1153846 L28.8024691,46.1153846 L28.8024691,46.1153846 C25.8703704,46.2615385 23.2314815,47.7230769 21.6188272,50.0615385 C20.7391975,51.3769231 19.1265432,52.2538462 17.5138889,52.2538462 L16.0478395,52.2538462 C15.9012346,52.1076923 15.9012346,52.1076923 15.7546296,51.9615385 C15.0216049,51.2307692 14.1419753,50.9384615 13.1157407,50.9384615 C10.7700617,51.0846154 8.42438272,51.2307692 6.22530864,51.2307692 L6.22530864,53.4230769 C8.57098765,53.4230769 10.9166667,53.2769231 13.2623457,53.1307692 C13.7021605,53.1307692 13.9953704,53.2769231 14.2885802,53.4230769 C14.4351852,53.5692308 14.5817901,53.7153846 14.5817901,54.0076923 L14.5817901,72.5692308 C14.5817901,72.7153846 14.4351852,73.0076923 14.2885802,73.1538462 C13.9953704,73.4461538 13.7021605,73.4461538 13.2623457,73.4461538 C9.8904321,73.1538462 6.37191358,73.1538462 3,73.1538462 L3,75.3461538 C6.37191358,75.3461538 9.74382716,75.4923077 13.1157407,75.6384615 C13.2623457,75.6384615 13.2623457,75.6384615 13.4089506,75.6384615 C14.2885802,75.6384615 15.0216049,75.3461538 15.6080247,74.9076923 L15.6080247,74.9076923 C16.1944444,74.9076923 17.9537037,75.0538462 18.9799383,75.6384615 C19.2731481,75.7846154 19.566358,75.9307692 19.8595679,76.0769231 C21.1790123,76.9538462 22.7916667,77.8307692 25.8703704,78.5615385 C27.3364198,78.8538462 30.7083333,79 34.0802469,79 C38.9182099,79 43.9027778,78.8538462 44.1959877,78.8538462 C46.5416667,78.8538462 48.3009259,76.9538462 48.3009259,74.7615385 C48.3009259,74.0307692 48.154321,73.3 47.7145062,72.7153846 C49.7669753,72.4230769 51.2330247,70.6692308 51.2330247,68.6230769 C51.2330247,67.4538462 50.7932099,66.4307692 50.0601852,65.7 C51.0864198,64.9692308 51.6728395,63.8 51.6728395,62.4846154 C51.6728395,61.7538462 51.5262346,61.1692308 51.0864198,60.5846154 L93.8950617,60.5846154 C96.0941358,60.5846154 98,58.8307692 98,56.4923077 L98,26.0923077 C98,23.9 96.0941358,22 93.8950617,22 Z M26.3101852,76.3692308 C23.5246914,75.7846154 22.2052469,74.9076923 20.8858025,74.1769231 C20.5925926,74.0307692 20.2993827,73.8846154 20.0061728,73.5923077 C18.9799383,73.0076923 17.6604938,72.7153846 16.6342593,72.7153846 C16.6342593,72.7153846 16.6342593,72.5692308 16.6342593,72.5692308 L16.6342593,54.3 L17.5138889,54.3 C19.8595679,54.3 22.058642,53.1307692 23.3780864,51.2307692 C24.6975309,49.3307692 26.8966049,48.1615385 29.242284,48.1615385 L45.0756173,48.1615385 L47.1280864,48.1615385 C46.6882716,50.5 44.4891975,52.4 42.2901235,52.4 L31.7345679,52.4 L31.7345679,53.4230769 C31.7345679,53.7153846 31.587963,61.4615385 23.9645062,62.9230769 L24.404321,65.1153846 C31.8811728,63.8 33.4938272,57.2230769 33.787037,54.5923077 L34.9598765,54.5923077 L34.9598765,56.3461538 C34.9598765,57.5153846 35.5462963,58.6846154 36.4259259,59.4153846 C35.6929012,60.1461538 35.2530864,61.1692308 35.2530864,62.3384615 C35.2530864,63.5076923 35.8395062,64.6769231 36.5725309,65.4076923 C35.6929012,66.1384615 35.2530864,67.3076923 35.2530864,68.4769231 C35.2530864,69.6461538 35.8395062,70.8153846 36.5725309,71.5461538 C35.6929012,72.2769231 35.2530864,73.4461538 35.2530864,74.6153846 C35.2530864,75.3461538 35.5462963,76.0769231 35.8395062,76.8076923 C31.7345679,76.8076923 27.6296296,76.8076923 26.3101852,76.3692308 Z M44.0493827,76.5153846 C44.0493827,76.5153846 44.0493827,76.5153846 44.0493827,76.5153846 L44.0493827,76.5153846 L39.2114198,76.6615385 C38.1851852,76.6615385 37.3055556,75.6384615 37.3055556,74.6153846 C37.3055556,73.5923077 38.1851852,72.7153846 39.2114198,72.7153846 L44.0493827,72.7153846 C45.0756173,72.7153846 45.9552469,73.5923077 45.9552469,74.6153846 C46.1018519,75.6384615 45.2222222,76.5153846 44.0493827,76.5153846 Z M47.1280864,70.5230769 L39.3580247,70.5230769 C38.3317901,70.5230769 37.4521605,69.6461538 37.4521605,68.6230769 C37.4521605,67.6 38.3317901,66.7230769 39.3580247,66.7230769 L47.1280864,66.7230769 C48.154321,66.7230769 49.0339506,67.6 49.0339506,68.6230769 C49.1805556,69.6461538 48.3009259,70.5230769 47.1280864,70.5230769 Z M49.4737654,62.4846154 C49.4737654,63.5076923 48.5941358,64.3846154 47.5679012,64.3846154 L39.3580247,64.3846154 C38.3317901,64.3846154 37.4521605,63.5076923 37.4521605,62.4846154 C37.4521605,61.4615385 38.3317901,60.5846154 39.3580247,60.5846154 L47.5679012,60.5846154 C48.5941358,60.4384615 49.4737654,61.3153846 49.4737654,62.4846154 Z M95.8009259,56.4923077 C95.8009259,57.5153846 94.9212963,58.3923077 93.8950617,58.3923077 L38.9182099,58.3923077 C37.8919753,58.3923077 37.0123457,57.5153846 37.0123457,56.4923077 L37.0123457,54.7384615 L42.1435185,54.7384615 C46.1018519,54.7384615 49.3271605,51.2307692 49.3271605,47.2846154 L49.3271605,46.1153846 L44.9290123,46.1153846 L36.8657407,46.1153846 L36.8657407,26.0923077 C36.8657407,25.0692308 37.7453704,24.1923077 38.7716049,24.1923077 L93.7484568,24.1923077 C94.7746914,24.1923077 95.654321,25.0692308 95.654321,26.0923077 L95.654321,56.4923077 L95.8009259,56.4923077 Z M10,68 L12,68 L12,70 L10,70 L10,68 Z M10,64 L12,64 L12,66 L10,66 L10,64 Z M52,50 L54,50 L54,52 L52,52 L52,50 Z M90,50 L92,50 L92,52 L90,52 L90,50 Z M78,50 L80,50 L80,52 L78,52 L78,50 Z M84,50 L86,50 L86,52 L84,52 L84,50 Z M59,50 L61,50 L61,52 L59,52 L59,50 Z M72,50 L74,50 L74,52 L72,52 L72,50 Z M65,50 L67,50 L67,52 L65,52 L65,50 Z M41,40 L41,29 L57,29 L57,40 L41,40 Z M43.1428571,31.2916667 L43.1428571,37.7083333 L54.8571429,37.7083333 L54.8571429,31.2916667 L43.1428571,31.2916667 Z M77,30 L92,30 L92,32 L77,32 L77,30 Z M72,36 L92,36 L92,38 L72,38 L72,36 Z" id="Stroke" fill="#000000" fill-rule="nonzero"></path>
    </g>
</svg>