<?xml version="1.0" encoding="UTF-8"?>
<svg width="100px" height="100px" viewBox="0 0 100 100" version="1.1" xmlns="http://www.w3.org/2000/svg" xmlns:xlink="http://www.w3.org/1999/xlink">
    <!-- Generator: Sketch 55.2 (78181) - https://sketchapp.com -->
    <title>crowdfunding</title>
    <desc>Created with Sketch.</desc>
    <g id="crowdfunding" stroke="none" stroke-width="1" fill="none" fill-rule="evenodd">
        <rect id="Rectangle" fill-opacity="0" fill="#FFFFFF" x="0" y="0" width="100" height="100"></rect>
        <circle id="Oval" fill="#E4F2F8" cx="50" cy="50" r="40"></circle>
        <circle id="Oval" fill="#D02E7D" cx="78" cy="47" r="5"></circle>
        <circle id="Oval" fill="#FFB900" cx="13" cy="36" r="7"></circle>
        <circle id="Oval" fill="#46A7CD" cx="32" cy="8" r="4"></circle>
        <path d="M82.0752688,84.7896996 C81.9477727,83.6309013 81.9477727,82.6008584 81.8202765,81.5708155 L91,81.5708155 L91,80.5407725 C90.7450077,77.0643777 90.4900154,74.1030043 90.1075269,71.527897 L90.1075269,71.3991416 C89.9800307,70.111588 89.5975422,68.9527897 88.8325653,67.6652361 L88.8325653,67.5364807 C88.1950845,66.3776824 87.3026114,65.4763948 86.0276498,64.832618 C85.6451613,64.5751073 85.2626728,64.4463519 84.7526882,64.3175966 L78.5053763,62 L75.9554531,66.8927039 C75.7004608,66.7639485 75.4454685,66.6351931 75.1904762,66.6351931 L68.3056836,64.1888412 L65.2457757,69.9828326 L57.9784946,67.4077253 L50.8387097,80.9270386 L48.1612903,80.9270386 L41.0215054,67.4077253 L33.7542243,69.9828326 L30.6943164,64.1888412 L23.8095238,66.6351931 C23.5545315,66.7639485 23.2995392,66.7639485 23.0445469,66.8927039 L20.4946237,62 L14.2473118,64.3175966 C13.8648233,64.4463519 13.3548387,64.7038627 12.9723502,64.832618 C11.8248848,65.4763948 10.9324117,66.3776824 10.2949309,67.5364807 L10.1674347,67.7939914 C9.40245776,69.0815451 9.01996928,70.3690987 8.89247312,71.527897 L8.89247312,71.6566524 C8.50998464,74.2317597 8.25499232,77.193133 8,80.6695279 L8,81.6995708 L17.1797235,81.6995708 C17.1797235,82.6008584 17.0522273,83.6309013 17.0522273,84.7896996 L17.0522273,85.8197425 L25.8494624,85.8197425 C25.7219662,87.2360515 25.59447,88.9098712 25.4669739,90.9699571 L25.4669739,92 L73.7880184,92 L73.7880184,90.9699571 C73.6605223,89.167382 73.5330261,87.4935622 73.40553,85.8197425 L82.202765,85.8197425 L82.0752688,84.7896996 Z M49.5,4 C39.2819767,4 31,12.0581395 31,22 C31,31.9418605 39.2819767,40 49.5,40 C59.7180233,40 68,31.9418605 68,22 C68,12.0581395 59.7180233,4 49.5,4 Z M27.7306122,62.375 C29.122449,62.375 30.5142857,62 31.7795918,61.375 C33.5510204,63.125 35.955102,64.25 38.6122449,64.25 C39.7510204,64.25 40.8897959,64 42.0285714,63.625 C44.0530612,65.625 46.8367347,67 50,67 C53.1632653,67 55.9469388,65.75 57.9714286,63.625 C59.1102041,64 60.2489796,64.25 61.3877551,64.25 C64.044898,64.25 66.4489796,63.125 68.2204082,61.375 C69.4857143,62 70.877551,62.375 72.2693878,62.375 C77.077551,62.375 81,58.5 81,53.75 C81,49 77.077551,45.125 72.2693878,45.125 C70.3714286,45.125 68.4734694,45.75 66.955102,46.875 C65.3102041,45.75 63.4122449,45 61.2612245,45 C59.2367347,45 57.3387755,45.625 55.6938776,46.75 C54.0489796,45.75 52.0244898,45.125 49.8734694,45.125 C47.722449,45.125 45.8244898,45.75 44.0530612,46.75 C42.4081633,45.625 40.5102041,45 38.4857143,45 C36.3346939,45 34.4367347,45.625 32.7918367,46.875 C31.2734694,45.75 29.3755102,45.125 27.477551,45.125 C22.922449,45.125 19,49 19,53.75 C19,58.5 22.922449,62.375 27.7306122,62.375 Z" id="Fill" fill="#FFFFFF" fill-rule="nonzero"></path>
        <path d="M82.0752688,84.7896996 C81.9477727,83.6309013 81.9477727,82.6008584 81.8202765,81.5708155 L91,81.5708155 L91,80.5407725 C90.7450077,77.0643777 90.4900154,74.1030043 90.1075269,71.527897 L90.1075269,71.3991416 C89.9800307,70.111588 89.5975422,68.9527897 88.8325653,67.6652361 L88.8325653,67.5364807 C88.1950845,66.3776824 87.3026114,65.4763948 86.0276498,64.832618 C85.6451613,64.5751073 85.2626728,64.4463519 84.7526882,64.3175966 L78.5053763,62 L75.9554531,66.8927039 C75.7004608,66.7639485 75.4454685,66.6351931 75.1904762,66.6351931 L68.3056836,64.1888412 L65.2457757,69.9828326 L57.9784946,67.4077253 L50.8387097,80.9270386 L48.1612903,80.9270386 L41.0215054,67.4077253 L33.7542243,69.9828326 L30.6943164,64.1888412 L23.8095238,66.6351931 C23.5545315,66.7639485 23.2995392,66.7639485 23.0445469,66.8927039 L20.4946237,62 L14.2473118,64.3175966 C13.8648233,64.4463519 13.3548387,64.7038627 12.9723502,64.832618 C11.8248848,65.4763948 10.9324117,66.3776824 10.2949309,67.5364807 L10.1674347,67.7939914 C9.40245776,69.0815451 9.01996928,70.3690987 8.89247312,71.527897 L8.89247312,71.6566524 C8.50998464,74.2317597 8.25499232,77.193133 8,80.6695279 L8,81.6995708 L17.1797235,81.6995708 C17.1797235,82.6008584 17.0522273,83.6309013 17.0522273,84.7896996 L17.0522273,85.8197425 L25.8494624,85.8197425 C25.7219662,87.2360515 25.59447,88.9098712 25.4669739,90.9699571 L25.4669739,92 L73.7880184,92 L73.7880184,90.9699571 C73.6605223,89.167382 73.5330261,87.4935622 73.40553,85.8197425 L82.202765,85.8197425 L82.0752688,84.7896996 Z M79.3978495,64.1888412 L84.1152074,65.8626609 C84.4976959,65.9914163 84.7526882,66.1201717 85.0076805,66.248927 C85.9001536,66.7639485 86.5376344,67.4077253 87.047619,68.1802575 L87.047619,68.3090129 C87.6850998,69.3390558 87.9400922,70.3690987 88.0675883,71.3991416 C88.0675883,71.3991416 88.0675883,71.527897 88.0675883,71.6566524 C88.3225806,73.8454936 88.577573,76.5493562 88.8325653,79.5107296 L81.5652842,79.5107296 C81.437788,77.7081545 81.1827957,76.0343348 81.0552995,74.6180258 L81.0552995,74.360515 C80.9278034,72.944206 80.4178187,71.527897 79.6528418,70.111588 L79.6528418,69.9828326 C79.1428571,69.0815451 78.3778802,68.3090129 77.6129032,67.6652361 L79.3978495,64.1888412 Z M10.1674347,79.639485 C10.422427,76.6781116 10.6774194,73.9742489 10.9324117,71.7854077 C10.9324117,71.6566524 10.9324117,71.527897 10.9324117,71.527897 C11.0599078,70.6266094 11.3149002,69.5965665 11.952381,68.4377682 L11.952381,68.3090129 C12.4623656,67.5364807 13.0998464,66.7639485 13.9923195,66.3776824 C14.2473118,66.248927 14.6298003,66.1201717 14.8847926,65.9914163 L19.6021505,64.3175966 L21.3870968,67.9227468 C20.6221198,68.5665236 19.8571429,69.3390558 19.3471582,70.2403433 L19.2196621,70.4978541 C18.4546851,71.9141631 17.9447005,73.3304721 17.8172043,74.6180258 L17.8172043,74.8755365 C17.562212,76.4206009 17.4347158,77.9656652 17.3072197,79.7682403 L10.1674347,79.7682403 L10.1674347,79.639485 Z M18.9646697,83.888412 C19.2196621,80.5407725 19.4746544,77.4506438 19.8571429,75.0042918 C19.8571429,74.8755365 19.8571429,74.7467811 19.8571429,74.7467811 C19.984639,73.5879828 20.3671275,72.4291845 21.1321045,71.1416309 C21.6420891,70.2403433 22.5345622,69.4678112 23.4270353,68.8240343 C23.8095238,68.695279 24.0645161,68.4377682 24.4470046,68.3090129 L29.8018433,66.3776824 L31.969278,70.4978541 C30.311828,71.3991416 29.0368664,72.5579399 28.1443932,74.1030043 C27.124424,76.0343348 26.4869432,77.8369099 26.4869432,79.639485 C26.359447,80.0257511 26.1044547,81.4420601 25.8494624,83.7596567 L18.9646697,83.7596567 L18.9646697,83.888412 Z M27.3794163,89.9399142 C27.6344086,83.5021459 28.3993856,80.1545064 28.3993856,80.0257511 L28.3993856,79.7682403 C28.3993856,78.223176 28.9093702,76.6781116 29.8018433,75.0042918 C30.6943164,73.4592275 32.0967742,72.3004292 33.8817204,71.6566524 L40.1290323,69.3390558 L47.0138249,82.3433476 L51.9861751,82.3433476 L58.8709677,69.3390558 L65.1182796,71.6566524 C65.6282642,71.7854077 66.0107527,72.0429185 66.3932412,72.1716738 C67.5407066,72.8154506 68.4331797,73.7167382 69.0706605,74.8755365 L69.0706605,75.0042918 C69.8356375,76.4206009 70.3456221,77.7081545 70.4731183,78.9957082 C70.4731183,78.9957082 70.4731183,79.1244635 70.4731183,79.3819742 C70.8556068,82.3433476 71.2380952,85.8197425 71.4930876,89.8111588 L27.3794163,89.8111588 L27.3794163,89.9399142 Z M73.1505376,83.888412 C73.0230415,82.2145923 72.7680492,80.6695279 72.640553,79.3819742 L72.640553,79.1244635 C72.5130568,77.5793991 72.0030722,75.9055794 70.9831029,74.360515 L70.9831029,74.2317597 C70.218126,72.8154506 68.9431644,71.6566524 67.5407066,70.7553648 C67.4132104,70.7553648 67.2857143,70.6266094 67.1582181,70.6266094 L69.3256528,66.5064378 L74.6804916,68.4377682 C75.06298,68.5665236 75.4454685,68.695279 75.7004608,68.9527897 C76.7204301,69.4678112 77.4854071,70.2403433 77.9953917,71.2703863 L77.9953917,71.3991416 C78.6328725,72.5579399 79.015361,73.7167382 79.1428571,74.8755365 C79.1428571,74.8755365 79.1428571,75.0042918 79.1428571,75.1330472 C79.5253456,77.5793991 79.7803379,80.6695279 80.0353303,84.0171674 L73.1505376,84.0171674 L73.1505376,83.888412 Z M27.7306122,62.375 C22.922449,62.375 19,58.5 19,53.75 C19,49 22.922449,45.125 27.477551,45.125 C29.3755102,45.125 31.2734694,45.75 32.7918367,46.875 C34.4367347,45.625 36.3346939,45 38.4857143,45 C40.5102041,45 42.4081633,45.625 44.0530612,46.75 C45.8244898,45.75 47.722449,45.125 49.8734694,45.125 C52.0244898,45.125 54.0489796,45.75 55.6938776,46.75 C57.3387755,45.625 59.2367347,45 61.2612245,45 C63.4122449,45 65.3102041,45.75 66.955102,46.875 C68.4734694,45.75 70.3714286,45.125 72.2693878,45.125 C77.077551,45.125 81,49 81,53.75 C81,58.5 77.077551,62.375 72.2693878,62.375 C70.877551,62.375 69.4857143,62 68.2204082,61.375 C66.4489796,63.125 64.044898,64.25 61.3877551,64.25 C60.2489796,64.25 59.1102041,64 57.9714286,63.625 C55.9469388,65.75 53.1632653,67 50,67 C46.8367347,67 44.0530612,65.625 42.0285714,63.625 C40.8897959,64 39.7510204,64.25 38.6122449,64.25 C35.955102,64.25 33.5510204,63.125 31.7795918,61.375 C30.5142857,62 29.122449,62.375 27.7306122,62.375 Z M79.1020408,53.75 C79.1020408,50 76.0653061,47 72.2693878,47 C70.877551,47 69.6122449,47.375 68.4734694,48.125 C69.9918367,49.875 71.0040816,52.125 71.0040816,54.625 C71.0040816,56.5 70.3714286,58.375 69.3591837,59.875 C70.244898,60.25 71.2571429,60.5 72.2693878,60.5 C76.0653061,60.5 79.1020408,57.5 79.1020408,53.75 Z M61.3877551,46.875 C59.8693878,46.875 58.6040816,47.25 57.4653061,48 C59.7428571,50 61.1346939,52.875 61.1346939,56.125 C61.1346939,58.375 60.3755102,60.375 59.2367347,62.125 C59.9959184,62.25 60.6285714,62.375 61.3877551,62.375 C65.6897959,62.375 69.2326531,58.875 69.2326531,54.625 C69.2326531,50.375 65.6897959,46.875 61.3877551,46.875 Z M59.1102041,56 C59.1102041,51 55.0612245,47 50,47 C44.9387755,47 40.8897959,51 40.8897959,56 C40.8897959,61 44.9387755,65 50,65 C55.0612245,65 59.1102041,61 59.1102041,56 Z M42.6612245,48 C41.3959184,47.25 40.0040816,46.875 38.7387755,46.75 C34.4367347,46.75 30.8938776,50.25 30.8938776,54.5 C30.8938776,58.75 34.4367347,62.25 38.7387755,62.25 C39.4979592,62.25 40.1306122,62.25 40.8897959,62 C39.6244898,60.25 38.9918367,58.25 38.9918367,56 C38.9918367,52.875 40.3836735,50 42.6612245,48 Z M27.7306122,47 C23.9346939,47 20.8979592,50 20.8979592,53.75 C20.8979592,57.5 23.9346939,60.5 27.7306122,60.5 C28.7428571,60.5 29.755102,60.25 30.6408163,59.875 C29.6285714,58.375 28.9959184,56.625 28.9959184,54.625 C28.9959184,52.125 29.8816327,49.875 31.5265306,48.125 C30.3877551,47.375 29.122449,47 27.7306122,47 Z M49.5,4 C59.7180233,4 68,12.0581395 68,22 C68,31.9418605 59.7180233,40 49.5,40 C39.2819767,40 31,31.9418605 31,22 C31,12.0581395 39.2819767,4 49.5,4 Z M49.5,38.5348837 C58.8575581,38.5348837 66.3866279,31.1046512 66.3866279,22.1046512 C66.3866279,13.1046512 58.8575581,5.6744186 49.5,5.6744186 C40.25,5.6744186 32.6133721,13.1046512 32.6133721,22.1046512 C32.6133721,31.1046512 40.1424419,38.5348837 49.5,38.5348837 Z M52.3039216,15.9207048 C50.9019608,14.7577093 48.3137255,14.7577093 46.8039216,16.0264317 C46.1568627,16.5550661 45.7254902,17.2951542 45.7254902,18.1409692 C45.7254902,18.8810573 46.1568627,19.6211454 46.8039216,20.2555066 C47.4509804,20.8898678 48.4215686,21.2070485 49.5,21.2070485 C50.9019608,21.2070485 52.3039216,21.7356828 53.2745098,22.5814978 C54.3529412,23.5330396 54.8921569,24.6960352 54.8921569,25.9647577 C54.8921569,27.2334802 54.3529412,28.5022026 53.2745098,29.3480176 C52.4117647,30.0881057 51.3333333,30.5110132 50.254902,30.6167401 L50.254902,34 L48.6372549,34 L48.6372549,30.6167401 C47.4509804,30.5110132 46.4803922,30.0881057 45.6176471,29.3480176 C44.5392157,28.3964758 44,27.2334802 44,25.9647577 L45.6176471,25.9647577 C45.6176471,26.7048458 46.0490196,27.4449339 46.6960784,28.0792952 C48.2058824,29.3480176 50.7941176,29.3480176 52.1960784,28.0792952 C52.8431373,27.5506608 53.2745098,26.8105727 53.2745098,25.9647577 C53.2745098,25.2246696 52.8431373,24.4845815 52.1960784,23.8502203 C51.5490196,23.215859 50.5784314,22.8986784 49.5,22.8986784 C48.0980392,22.8986784 46.6960784,22.3700441 45.7254902,21.5242291 C44.6470588,20.5726872 44.1078431,19.4096916 44.1078431,18.1409692 C44.1078431,16.8722467 44.6470588,15.6035242 45.7254902,14.7577093 C46.5882353,14.0176211 47.6666667,13.5947137 48.745098,13.4889868 L48.745098,10 L50.3627451,10 L50.3627451,13.3832599 C51.5490196,13.4889868 52.5196078,13.9118943 53.3823529,14.6519824 C54.4607843,15.6035242 55,16.7665198 55,18.0352423 L53.3823529,18.0352423 C53.3823529,17.2951542 52.9509804,16.5550661 52.3039216,15.9207048 Z" id="Stroke" fill="#000000" fill-rule="nonzero"></path>
    </g>
</svg>