<?xml version="1.0" encoding="UTF-8"?>
<svg width="100px" height="100px" viewBox="0 0 100 100" version="1.1" xmlns="http://www.w3.org/2000/svg" xmlns:xlink="http://www.w3.org/1999/xlink">
    <!-- Generator: Sketch 55.2 (78181) - https://sketchapp.com -->
    <title>digital_currencies</title>
    <desc>Created with Sketch.</desc>
    <g id="digital_currencies" stroke="none" stroke-width="1" fill="none" fill-rule="evenodd">
        <rect id="Rectangle" fill-opacity="0" fill="#FFFFFF" x="0" y="0" width="100" height="100"></rect>
        <circle id="Oval" fill="#E4F2F8" cx="50.5" cy="50.5" r="40.5"></circle>
        <circle id="Oval" fill="#FFB900" cx="27" cy="46" r="7"></circle>
        <circle id="Oval" fill="#D02E7D" cx="43" cy="78" r="5"></circle>
        <circle id="Oval" fill="#46A7CD" cx="57" cy="22" r="4"></circle>
        <path d="M87,46 C89.0803346,46.0067496 90.8185594,44.4177446 90.9980602,42.3451576 C91.177561,40.2725705 89.7384074,38.4083819 87.6878883,38.0573702 C85.6373692,37.7063585 83.6600973,38.9857169 83.14,41 L70.07,41 C69.0733613,38.7949314 67.7221253,36.7680775 66.07,35 L82,35 C82.5522847,35 83,34.5522847 83,34 L83,21.86 C84.9503067,21.356433 86.2219252,19.4812133 85.9681188,17.4829995 C85.7143124,15.4847857 84.0142681,13.9870167 82,13.9870167 C79.9857319,13.9870167 78.2856876,15.4847857 78.0318812,17.4829995 C77.7780748,19.4812133 79.0496933,21.356433 81,21.86 L81,33 L64,33 C55.8891644,26.3489162 44.2108356,26.3489162 36.1,33 L19,33 L19,21.86 C20.9503067,21.356433 22.2219252,19.4812133 21.9681188,17.4829995 C21.7143124,15.4847857 20.0142681,13.9870167 18,13.9870167 C15.9857319,13.9870167 14.2856876,15.4847857 14.0318812,17.4829995 C13.7780748,19.4812133 15.0496933,21.356433 17,21.86 L17,34 C17,34.5522847 17.4477153,35 18,35 L33.93,35 C32.2778747,36.7680775 30.9266387,38.7949314 29.93,41 L16.86,41 C16.356433,39.0496933 14.4812133,37.7780748 12.4829995,38.0318812 C10.4847857,38.2856876 8.98701665,39.9857319 8.98701665,42 C8.98701665,44.0142681 10.4847857,45.7143124 12.4829995,45.9681188 C14.4812133,46.2219252 16.356433,44.9503067 16.86,43 L29.15,43 C27.6167149,47.5407222 27.6167149,52.4592778 29.15,57 L18.86,57 C18.356433,55.0496933 16.4812133,53.7780748 14.4829995,54.0318812 C12.4847857,54.2856876 10.9870167,55.9857319 10.9870167,58 C10.9870167,60.0142681 12.4847857,61.7143124 14.4829995,61.9681188 C16.4812133,62.2219252 18.356433,60.9503067 18.86,59 L29.93,59 C30.7272991,60.7953165 31.7596709,62.4767039 33,64 L25.5,64 L18.3,71.24 C17.884298,71.0836482 17.4441265,71.0023857 17,71 C15.1159133,70.9934815 13.4827081,72.302636 13.0790438,74.1429839 C12.6753795,75.9833318 13.6107076,77.8558718 15.3245552,78.6385288 C17.0384027,79.4211859 19.0660682,78.9017463 20.1925214,77.391472 C21.3189745,75.8811977 21.2387832,73.7895921 20,72.37 L26.37,66 L34.92,66 C43.3916414,73.975281 56.6083586,73.975281 65.08,66 L73.63,66 L80,72.37 C78.7612168,73.7895921 78.6810255,75.8811977 79.8074786,77.391472 C80.9339318,78.9017463 82.9615973,79.4211859 84.6754448,78.6385288 C86.3892924,77.8558718 87.3246205,75.9833318 86.9209562,74.1429839 C86.5172919,72.302636 84.8840867,70.9934815 83,71 C82.5558735,71.0023857 82.115702,71.0836482 81.7,71.24 L74.46,64 L67,64 C68.2543713,62.4790275 69.3002606,60.7975335 70.11,59 L81.14,59 C81.643567,60.9503067 83.5187867,62.2219252 85.5170005,61.9681188 C87.5152143,61.7143124 89.0129833,60.0142681 89.0129833,58 C89.0129833,55.9857319 87.5152143,54.2856876 85.5170005,54.0318812 C83.5187867,53.7780748 81.643567,55.0496933 81.14,57 L70.85,57 C72.3832851,52.4592778 72.3832851,47.5407222 70.85,43 L83.14,43 C83.5947821,44.7614029 85.180843,45.9940928 87,46 Z" id="Fill" fill="#FFFFFF" fill-rule="nonzero"></path>
        <path d="M87,46 C89.0803346,46.0067496 90.8185594,44.4177446 90.9980602,42.3451576 C91.177561,40.2725705 89.7384074,38.4083819 87.6878883,38.0573702 C85.6373692,37.7063585 83.6600973,38.9857169 83.14,41 L70.07,41 C69.0733613,38.7949314 67.7221253,36.7680775 66.07,35 L82,35 C82.5522847,35 83,34.5522847 83,34 L83,21.86 C84.9503067,21.356433 86.2219252,19.4812133 85.9681188,17.4829995 C85.7143124,15.4847857 84.0142681,13.9870167 82,13.9870167 C79.9857319,13.9870167 78.2856876,15.4847857 78.0318812,17.4829995 C77.7780748,19.4812133 79.0496933,21.356433 81,21.86 L81,33 L64,33 C55.8891644,26.3489162 44.2108356,26.3489162 36.1,33 L19,33 L19,21.86 C20.9503067,21.356433 22.2219252,19.4812133 21.9681188,17.4829995 C21.7143124,15.4847857 20.0142681,13.9870167 18,13.9870167 C15.9857319,13.9870167 14.2856876,15.4847857 14.0318812,17.4829995 C13.7780748,19.4812133 15.0496933,21.356433 17,21.86 L17,34 C17,34.5522847 17.4477153,35 18,35 L33.93,35 C32.2778747,36.7680775 30.9266387,38.7949314 29.93,41 L16.86,41 C16.356433,39.0496933 14.4812133,37.7780748 12.4829995,38.0318812 C10.4847857,38.2856876 8.98701665,39.9857319 8.98701665,42 C8.98701665,44.0142681 10.4847857,45.7143124 12.4829995,45.9681188 C14.4812133,46.2219252 16.356433,44.9503067 16.86,43 L29.15,43 C27.6167149,47.5407222 27.6167149,52.4592778 29.15,57 L18.86,57 C18.356433,55.0496933 16.4812133,53.7780748 14.4829995,54.0318812 C12.4847857,54.2856876 10.9870167,55.9857319 10.9870167,58 C10.9870167,60.0142681 12.4847857,61.7143124 14.4829995,61.9681188 C16.4812133,62.2219252 18.356433,60.9503067 18.86,59 L29.93,59 C30.7272991,60.7953165 31.7596709,62.4767039 33,64 L25.5,64 L18.3,71.24 C17.884298,71.0836482 17.4441265,71.0023857 17,71 C15.1159133,70.9934815 13.4827081,72.302636 13.0790438,74.1429839 C12.6753795,75.9833318 13.6107076,77.8558718 15.3245552,78.6385288 C17.0384027,79.4211859 19.0660682,78.9017463 20.1925214,77.391472 C21.3189745,75.8811977 21.2387832,73.7895921 20,72.37 L26.37,66 L34.92,66 C43.3916414,73.975281 56.6083586,73.975281 65.08,66 L73.63,66 L80,72.37 C78.7612168,73.7895921 78.6810255,75.8811977 79.8074786,77.391472 C80.9339318,78.9017463 82.9615973,79.4211859 84.6754448,78.6385288 C86.3892924,77.8558718 87.3246205,75.9833318 86.9209562,74.1429839 C86.5172919,72.302636 84.8840867,70.9934815 83,71 C82.5558735,71.0023857 82.115702,71.0836482 81.7,71.24 L74.46,64 L67,64 C68.2543713,62.4790275 69.3002606,60.7975335 70.11,59 L81.14,59 C81.643567,60.9503067 83.5187867,62.2219252 85.5170005,61.9681188 C87.5152143,61.7143124 89.0129833,60.0142681 89.0129833,58 C89.0129833,55.9857319 87.5152143,54.2856876 85.5170005,54.0318812 C83.5187867,53.7780748 81.643567,55.0496933 81.14,57 L70.85,57 C72.3832851,52.4592778 72.3832851,47.5407222 70.85,43 L83.14,43 C83.5947821,44.7614029 85.180843,45.9940928 87,46 Z M80,18 C80,16.8954305 80.8954305,16 82,16 C83.1045695,16 84,16.8954305 84,18 C84,19.1045695 83.1045695,20 82,20 C80.8954305,20 80,19.1045695 80,18 Z M16,18 C16,16.8954305 16.8954305,16 18,16 C19.1045695,16 20,16.8954305 20,18 C20,19.1045695 19.1045695,20 18,20 C16.8954305,20 16,19.1045695 16,18 Z M13,44 C11.8954305,44 11,43.1045695 11,42 C11,40.8954305 11.8954305,40 13,40 C14.1045695,40 15,40.8954305 15,42 C15,43.1045695 14.1045695,44 13,44 Z M15,60 C13.8954305,60 13,59.1045695 13,58 C13,56.8954305 13.8954305,56 15,56 C16.1045695,56 17,56.8954305 17,58 C17,59.1045695 16.1045695,60 15,60 Z M17,77 C15.8954305,77 15,76.1045695 15,75 C15,73.8954305 15.8954305,73 17,73 C18.1045695,73 19,73.8954305 19,75 C19,76.1045695 18.1045695,77 17,77 Z M85,75 C85,76.1045695 84.1045695,77 83,77 C81.8954305,77 81,76.1045695 81,75 C81,73.8954305 81.8954305,73 83,73 C84.1045695,73 85,73.8954305 85,75 Z M85,56 C86.1045695,56 87,56.8954305 87,58 C87,59.1045695 86.1045695,60 85,60 C83.8954305,60 83,59.1045695 83,58 C83,56.8954305 83.8954305,56 85,56 Z M50,70 C41.6910183,69.979772 34.2599903,64.8242479 31.3317933,57.0483075 C28.4035964,49.2723672 30.5882206,40.4958632 36.82,35 L37,35 L37,34.83 C44.4703407,28.3900752 55.5296593,28.3900752 63,34.83 L63,35 L63.18,35 C69.4117794,40.4958632 71.5964036,49.2723672 68.6682067,57.0483075 C65.7400097,64.8242479 58.3089817,69.979772 50,70 Z M87,40 C88.1045695,40 89,40.8954305 89,42 C89,43.1045695 88.1045695,44 87,44 C85.8954305,44 85,43.1045695 85,42 C85,40.8954305 85.8954305,40 87,40 Z M61.27,34.71 C61.7022389,35.0437345 61.7868197,35.6625093 61.46,36.1 C61.132334,36.5388029 60.512671,36.632421 60.07,36.31 L59.76,36.09 C59.3071265,35.7724363 59.1974363,35.1478735 59.515,34.695 C59.8325637,34.2421265 60.4571265,34.1324363 60.91,34.45 L61.27,34.71 Z M65.58,40.94 L65.59,40.92 C65.3675339,41.066953 65.0955951,41.118982 64.8345947,41.0645287 C64.5735944,41.0100754 64.3451462,40.8536491 64.2,40.63 L64.09,40.46 L64,40.32 C63.6797298,39.8747379 63.7778817,39.2545963 64.22,38.93 C64.6730449,38.6159848 65.2947628,38.7278046 65.61,39.18 C65.7,39.3 65.78,39.43 65.86,39.55 C66.0078952,39.7712469 66.0615002,40.0423195 66.0089477,40.3032053 C65.9563952,40.5640911 65.8020203,40.7932684 65.58,40.94 Z M57.2,65.49 L57.26,65.47 C57.738667,65.4611513 58.1564554,65.7928028 58.2564341,66.2609958 C58.3564128,66.7291888 58.1105307,67.2025616 57.67,67.39 L57.25,67.57 C56.7391366,67.7798682 56.1548682,67.5358634 55.945,67.025 C55.7351318,66.5141366 55.9791366,65.9298682 56.49,65.72 L56.62,65.66 L56.8,65.58 C56.9256863,65.5226953 57.0618817,65.4920513 57.2,65.49 Z M62.46,62 C62.717877,61.9340592 62.9914022,61.9736484 63.22,62.11 C63.6077236,62.5000375 63.6077236,63.1299625 63.22,63.52 L62.89,63.83 C62.7066017,63.9966976 62.4678358,64.089353 62.22,64.09 C61.8054929,64.0930772 61.4320588,63.840106 61.2811759,63.4540232 C61.130293,63.0679404 61.2332449,62.6287954 61.54,62.35 L61.62,62.28 L61.76,62.28 C61.9478666,62.0989149 62.1990724,61.9984325 62.46,62 Z M55.3,31.75 L55.27,31.63 C55.8222847,31.7073199 56.2073199,32.2177153 56.13,32.77 C56.0526801,33.3222847 55.5422847,33.7073199 54.99,33.63 C54.8972934,33.6452958 54.8027066,33.6452958 54.71,33.63 L54.64,33.63 L54.44,33.63 L54.35,33.63 C53.9927344,33.5835555 53.6873853,33.35004 53.5489746,33.0174167 C53.4105639,32.6847934 53.4601197,32.3035955 53.6789746,32.0174167 C53.8978295,31.7312379 54.2527344,31.5835555 54.61,31.63 C54.6930471,31.6202314 54.7769529,31.6202314 54.86,31.63 L55.3,31.75 Z M68,50.7999872 C68.5206613,50.8521635 68.9130719,51.2968955 68.9,51.82 C68.9,51.96 68.9,52.11 68.9,52.26 C68.8389766,52.7649651 68.4086257,53.1436739 67.9,53.14 L67.77,53.14 C67.2240435,53.0722995 66.8353033,52.5763206 66.9,52.03 L66.9,51.94 C66.8950827,51.8801008 66.8950827,51.8198992 66.9,51.76 L66.9,51.7 C66.951542,51.1870987 67.3845219,50.7974168 67.9,50.7999872 L68,50.7999872 Z M66.62,57 C67.1102656,57.2383448 67.3193083,57.8254433 67.09,58.32 L66.89,58.72 C66.7177963,59.0523996 66.3743567,59.2607787 66,59.2600022 C65.6414975,59.2500453 65.3157775,59.0488704 65.1463624,58.7327666 C64.9769473,58.4166627 64.9897823,58.0340401 65.18,57.73 C65.2172128,57.6687856 65.2506097,57.6053315 65.28,57.54 L65.28,57.46 C65.4482534,57.116609 65.7976049,56.8992347 66.18,56.8999916 C66.3323698,56.8993764 66.4828673,56.9335803 66.62,57 Z M39.69,63.51 L39.8,63.6 C40.2418278,63.9313708 40.3313708,64.5581722 40,65 C39.8111456,65.2518058 39.5147573,65.4 39.2,65.4 C38.9824824,65.3971243 38.7718349,65.3233977 38.6,65.19 L38.24,64.92 C38.0310187,64.7547799 37.8966014,64.5130024 37.866564,64.2482977 C37.8365266,63.983593 37.9133523,63.7178446 38.08,63.51 C38.2728228,63.2722535 38.563916,63.1359187 38.87,63.14 C39.0937641,63.1421449 39.3109908,63.2157217 39.49,63.35 L39.69,63.51 Z M38.67,37.33 C38.4984724,37.5164121 38.2625901,37.6307793 38.01,37.65 C37.7227728,37.6496363 37.4495698,37.5257843 37.26,37.31 C36.8935053,36.8982776 36.929287,36.2676255 37.34,35.9 C37.45,35.8 37.56,35.7 37.68,35.61 C37.9515218,35.3777774 38.3263077,35.30805 38.6631793,35.4270835 C39.0000509,35.546117 39.2478295,35.8358274 39.3131793,36.1870835 C39.3785291,36.5383396 39.2515218,36.8977774 38.98,37.13 L38.86,37.23 L38.79,37.23 L38.67,37.33 Z M32,48.56 C31.4540435,48.4922995 31.0653033,47.9963206 31.13,47.45 C31.2,47.3 31.2,47.15 31.2,47.01 C31.2747694,46.5169619 31.7013566,46.1543628 32.2,46.16 L32.36,46.16 C32.9031063,46.2470643 33.27394,46.7564021 33.19,47.3 L33.13,47.7 C33.0597504,48.1970163 32.631932,48.5649401 32.13,48.56 L32,48.56 Z M43.75,34.19 C43.6290887,34.2378158 43.5000129,34.2615929 43.37,34.26 C42.889395,34.2611766 42.4759259,33.920295 42.3854368,33.4482841 C42.2949476,32.9762733 42.5530346,32.5066478 43,32.33 L43.42,32.17 C43.5321529,32.1292798 43.6506881,32.1089595 43.77,32.11 C44.2552422,32.110569 44.670049,32.4594149 44.7538148,32.9373727 C44.8375806,33.4153304 44.5661283,33.8844486 44.11,34.05 L43.75,34.19 Z M45.07,66.27 L45.02,66.31 C45.5722847,66.3900813 45.9550812,66.9027153 45.8749999,67.455 C45.7949186,68.0072847 45.2822847,68.3900812 44.73,68.31 C44.6335762,68.319691 44.5364238,68.319691 44.44,68.31 L44.01,68.17 C43.4896026,67.9942907 43.208329,67.4317435 43.38,66.91 C43.5193947,66.4806615 43.9291389,66.197938 44.38,66.22 C44.4851686,66.2220267 44.5895273,66.2388587 44.69,66.27 L44.82,66.27 L44.93,66.27 L44.99,66.27 L45.07,66.27 Z M49.72,33 L49.69,33 L49.55,33 C48.9977153,33 48.55,32.5522847 48.55,32 C48.55,31.4477153 48.9977153,31 49.55,31 L50,31 C50.5522847,31 51,31.4477153 51,32 C51,32.5522847 50.5522847,33 50,33 L49.72,33 Z M51.06,67 L50.99,67 C51.5422847,66.9834315 52.0034315,67.4177153 52.02,67.97 C52.0365685,68.5222847 51.6022847,68.9834315 51.05,69 L50.6,69 C50.0477153,69 49.6,68.5522847 49.6,68 C49.6,67.4477153 50.0477153,67 50.6,67 L51.06,67 Z M35,42 C34.8267616,42.3253472 34.4885937,42.5290165 34.12,42.53 C33.7675501,42.5325899 33.4397637,42.3494469 33.2572198,42.0479418 C33.0746759,41.7464366 33.0643346,41.371099 33.23,41.06 C33.3,40.92 33.38,40.79 33.45,40.66 C33.6267741,40.3455131 33.9592359,40.1506217 34.32,40.15 C34.4914997,40.1526615 34.6597362,40.1972957 34.81,40.28 C35.2897834,40.5511716 35.459731,41.1594053 35.19,41.64 L35,42 Z M35.7,59.18 L35.75,59.25 C36.0474116,59.7140673 35.9132328,60.3312901 35.45,60.63 C34.9859327,60.9274116 34.3687099,60.7932328 34.07,60.33 C33.98,60.21 33.91,60.08 33.83,59.95 C33.5448988,59.480231 33.692267,58.8684294 34.16,58.58 C34.629769,58.2948988 35.2415706,58.442267 35.53,58.91 L35.6,59.02 L35.7,59.18 Z M33.33,53.35 C33.35,53.46 33.38,53.57 33.42,53.75 C33.5378162,54.2883131 33.1979393,54.8204887 32.66,54.94 C32.5869915,54.9497619 32.5130085,54.9497619 32.44,54.94 C31.9603072,54.9506736 31.5406417,54.6191379 31.44,54.15 C31.4,54.01 31.34,53.86 31.34,53.71 C31.2360885,53.16897 31.589337,52.6458045 32.13,52.54 L32.33,52.54 C32.8158642,52.5311636 33.2377509,52.8728918 33.33,53.35 Z M66.56,46.13 C66.53,46 66.49,45.87 66.46,45.75 C66.3932238,45.4927189 66.4316254,45.2194383 66.5667221,44.9905245 C66.7018187,44.7616107 66.9224933,44.5959011 67.18,44.53 C67.2630471,44.5202314 67.3469529,44.5202314 67.43,44.53 C67.8977664,44.5151994 68.313234,44.8268001 68.43,45.28 C68.46,45.42 68.53,45.56 68.53,45.71 C68.6552036,46.245421 68.3246344,46.7814792 67.79,46.91 L67.56,46.91 C67.0833401,46.9216496 66.6647542,46.5951526 66.56,46.13 Z M57,26 C55.004429,25.9760805 53.3318044,24.4848798 53.0799271,22.5051238 C52.8280497,20.5253678 54.0739923,18.6628481 56,18.14 L56,8 L58,8 L58,18.14 C59.9260077,18.6628481 61.1719503,20.5253678 60.9200729,22.5051238 C60.6681956,24.4848798 58.995571,25.9760805 57,26 Z M57,20 C55.8954305,20 55,20.8954305 55,22 C55,23.1045695 55.8954305,24 57,24 C58.1045695,24 59,23.1045695 59,22 C59,20.8954305 58.1045695,20 57,20 Z M43,26 C41.004429,25.9760805 39.3318044,24.4848798 39.0799271,22.5051238 C38.8280497,20.5253678 40.0739923,18.6628481 42,18.14 L42,8 L44,8 L44,18.14 C45.9260077,18.6628481 47.1719503,20.5253678 46.9200729,22.5051238 C46.6681956,24.4848798 44.995571,25.9760805 43,26 Z M43,20 C41.8954305,20 41,20.8954305 41,22 C41,23.1045695 41.8954305,24 43,24 C44.1045695,24 45,23.1045695 45,22 C45,20.8954305 44.1045695,20 43,20 Z M57,74 C58.995571,74.0239195 60.6681956,75.5151202 60.9200729,77.4948762 C61.1719503,79.4746322 59.9260077,81.3371519 58,81.86 L58,92 L56,92 L56,81.86 C54.0739923,81.3371519 52.8280497,79.4746322 53.0799271,77.4948762 C53.3318044,75.5151202 55.004429,74.0239195 57,74 Z M57,80 C58.1045695,80 59,79.1045695 59,78 C59,76.8954305 58.1045695,76 57,76 C55.8954305,76 55,76.8954305 55,78 C55,79.1045695 55.8954305,80 57,80 Z M43,74 C44.995571,74.0239195 46.6681956,75.5151202 46.9200729,77.4948762 C47.1719503,79.4746322 45.9260077,81.3371519 44,81.86 L44,92 L42,92 L42,81.86 C40.0739923,81.3371519 38.8280497,79.4746322 39.0799271,77.4948762 C39.3318044,75.5151202 41.004429,74.0239195 43,74 Z M43,80 C44.1045695,80 45,79.1045695 45,78 C45,76.8954305 44.1045695,76 43,76 C41.8954305,76 41,76.8954305 41,78 C41,79.1045695 41.8954305,80 43,80 Z" id="Stroke" fill="#000000" fill-rule="nonzero"></path>
    </g>
</svg>