<?xml version="1.0" encoding="UTF-8"?>
<svg width="100px" height="100px" viewBox="0 0 100 100" version="1.1" xmlns="http://www.w3.org/2000/svg" xmlns:xlink="http://www.w3.org/1999/xlink">
    <!-- Generator: Sketch 55.2 (78181) - https://sketchapp.com -->
    <title>digital_wallets</title>
    <desc>Created with Sketch.</desc>
    <g id="digital_wallets" stroke="none" stroke-width="1" fill="none" fill-rule="evenodd">
        <rect id="Rectangle" fill-opacity="0" fill="#FFFFFF" x="0" y="0" width="100" height="100"></rect>
        <circle id="Oval" fill="#E4F2F8" cx="50" cy="50" r="40"></circle>
        <circle id="Oval" fill="#FFB900" cx="13" cy="49" r="7"></circle>
        <circle id="Oval" fill="#D02E7D" cx="59" cy="90" r="5"></circle>
        <circle id="Oval" fill="#46A7CD" cx="82" cy="34" r="4"></circle>
        <path d="M86,49.7142857 L82.5444265,49.7142857 L82.5444265,36.2580645 C82.5444265,34.5760369 81.2067851,33.3425499 79.6462036,33.3425499 L62.2568659,33.3425499 L62.2568659,25.0445469 L71.8432956,14.952381 C72.6235864,15.7373272 73.6268174,16.2980031 74.8529887,16.2980031 C77.082391,16.2980031 78.9773829,14.3917051 78.9773829,12.1490015 C78.9773829,9.906298 77.082391,8 74.8529887,8 C72.6235864,8 70.7285945,9.906298 70.7285945,12.1490015 C70.7285945,12.5975422 70.8400646,13.0460829 70.9515347,13.3824885 L60.5848142,24.2596006 L60.5848142,33.2304147 L55.5686591,33.2304147 L55.5686591,16.1858679 C57.4636511,15.8494624 58.8012924,14.1674347 58.8012924,12.1490015 C58.8012924,9.906298 56.9063005,8 54.6768982,8 C52.447496,8 50.552504,9.906298 50.552504,12.1490015 C50.552504,14.1674347 52.0016155,15.8494624 53.7851373,16.1858679 L53.7851373,33.3425499 L45.3134087,33.3425499 L45.3134087,16.1858679 C47.2084006,15.8494624 48.546042,14.1674347 48.546042,12.1490015 C48.546042,9.906298 46.6510501,8 44.4216478,8 C42.1922456,8 40.2972536,9.906298 40.2972536,12.1490015 C40.2972536,14.1674347 41.7463651,15.8494624 43.5298869,16.1858679 L43.5298869,33.3425499 L38.5137318,33.3425499 L38.5137318,24.3717358 L28.1470113,13.4946237 C28.2584814,13.0460829 28.3699515,12.7096774 28.3699515,12.2611367 C28.3699515,10.0184332 26.4749596,8.11213518 24.2455574,8.11213518 C22.0161551,8.11213518 20.1211632,10.0184332 20.1211632,12.2611367 C20.1211632,14.5038402 22.0161551,16.4101382 24.2455574,16.4101382 C25.4717286,16.4101382 26.4749596,15.8494624 27.2552504,15.0645161 L36.8416801,25.156682 L36.8416801,33.4546851 L19.8982229,33.4546851 C18.2261712,33.4546851 17,34.8003072 17,36.3701997 L17,78.0844854 C17,79.7665131 18.3376414,81 19.8982229,81 L79.6462036,81 C81.3182553,81 82.5444265,79.6543779 82.5444265,78.0844854 L82.5444265,64.6282642 L86,64.6282642 L86,49.7142857 Z" id="Fill" fill="#FFFFFF" fill-rule="nonzero"></path>
        <path d="M86,49.7142857 L82.5444265,49.7142857 L82.5444265,36.2580645 C82.5444265,34.5760369 81.2067851,33.3425499 79.6462036,33.3425499 L62.2568659,33.3425499 L62.2568659,25.0445469 L71.8432956,14.952381 C72.6235864,15.7373272 73.6268174,16.2980031 74.8529887,16.2980031 C77.082391,16.2980031 78.9773829,14.3917051 78.9773829,12.1490015 C78.9773829,9.906298 77.082391,8 74.8529887,8 C72.6235864,8 70.7285945,9.906298 70.7285945,12.1490015 C70.7285945,12.5975422 70.8400646,13.0460829 70.9515347,13.3824885 L60.5848142,24.2596006 L60.5848142,33.2304147 L55.5686591,33.2304147 L55.5686591,16.1858679 C57.4636511,15.8494624 58.8012924,14.1674347 58.8012924,12.1490015 C58.8012924,9.906298 56.9063005,8 54.6768982,8 C52.447496,8 50.552504,9.906298 50.552504,12.1490015 C50.552504,14.1674347 52.0016155,15.8494624 53.7851373,16.1858679 L53.7851373,33.3425499 L45.3134087,33.3425499 L45.3134087,16.1858679 C47.2084006,15.8494624 48.546042,14.1674347 48.546042,12.1490015 C48.546042,9.906298 46.6510501,8 44.4216478,8 C42.1922456,8 40.2972536,9.906298 40.2972536,12.1490015 C40.2972536,14.1674347 41.7463651,15.8494624 43.5298869,16.1858679 L43.5298869,33.3425499 L38.5137318,33.3425499 L38.5137318,24.3717358 L28.1470113,13.4946237 C28.2584814,13.0460829 28.3699515,12.7096774 28.3699515,12.2611367 C28.3699515,10.0184332 26.4749596,8.11213518 24.2455574,8.11213518 C22.0161551,8.11213518 20.1211632,10.0184332 20.1211632,12.2611367 C20.1211632,14.5038402 22.0161551,16.4101382 24.2455574,16.4101382 C25.4717286,16.4101382 26.4749596,15.8494624 27.2552504,15.0645161 L36.8416801,25.156682 L36.8416801,33.4546851 L19.8982229,33.4546851 C18.2261712,33.4546851 17,34.8003072 17,36.3701997 L17,78.0844854 C17,79.7665131 18.3376414,81 19.8982229,81 L79.6462036,81 C81.3182553,81 82.5444265,79.6543779 82.5444265,78.0844854 L82.5444265,64.6282642 L86,64.6282642 L86,49.7142857 Z M74.8529887,9.68202765 C76.19063,9.68202765 77.3053312,10.8033794 77.3053312,12.1490015 C77.3053312,13.4946237 76.19063,14.6159754 74.8529887,14.6159754 C73.5153473,14.6159754 72.4006462,13.4946237 72.4006462,12.1490015 C72.4006462,10.8033794 73.5153473,9.68202765 74.8529887,9.68202765 Z M52.3360258,12.1490015 C52.3360258,10.8033794 53.450727,9.68202765 54.7883683,9.68202765 C56.1260097,9.68202765 57.2407108,10.8033794 57.2407108,12.1490015 C57.2407108,13.4946237 56.1260097,14.6159754 54.7883683,14.6159754 C53.450727,14.6159754 52.3360258,13.4946237 52.3360258,12.1490015 Z M42.1922456,12.1490015 C42.1922456,10.8033794 43.3069467,9.68202765 44.644588,9.68202765 C45.9822294,9.68202765 47.0969305,10.8033794 47.0969305,12.1490015 C47.0969305,13.4946237 45.9822294,14.6159754 44.644588,14.6159754 C43.3069467,14.6159754 42.1922456,13.4946237 42.1922456,12.1490015 Z M24.5799677,14.6159754 C23.2423263,14.6159754 22.1276252,13.4946237 22.1276252,12.1490015 C22.1276252,10.8033794 23.2423263,9.68202765 24.5799677,9.68202765 C25.917609,9.68202765 27.0323102,10.8033794 27.0323102,12.1490015 C27.0323102,13.4946237 25.917609,14.6159754 24.5799677,14.6159754 Z M80.8723748,77.9723502 C80.8723748,78.6451613 80.3150242,79.2058372 79.6462036,79.2058372 L19.8982229,79.2058372 C19.1179321,79.2058372 18.5605816,78.6451613 18.5605816,77.9723502 L18.5605816,36.2580645 C18.5605816,35.4731183 19.1179321,34.9124424 19.8982229,34.9124424 L79.6462036,34.9124424 C80.3150242,34.9124424 80.8723748,35.4731183 80.8723748,36.1459293 L80.8723748,49.6021505 L66.6042003,49.6021505 C64.9321486,49.6021505 63.5945073,50.9477727 63.5945073,52.6298003 L63.5945073,61.2642089 C63.5945073,62.9462366 64.9321486,64.2918587 66.6042003,64.2918587 L80.8723748,64.2918587 L80.8723748,77.9723502 Z M84.3279483,62.8341014 L66.6042003,62.8341014 C65.8239095,62.8341014 65.266559,62.1612903 65.266559,61.4884793 L65.266559,52.8540707 C65.266559,52.0691244 65.9353796,51.5084485 66.6042003,51.5084485 L84.3279483,51.5084485 L84.3279483,62.8341014 Z M31.2727273,45.3064516 C31.8409091,45.7580645 32.1818182,46.4354839 32.1818182,47.1129032 L33.8863636,47.1129032 C33.8863636,45.983871 33.3181818,44.8548387 32.4090909,44.0645161 C31.7272727,43.5 30.8181818,43.0483871 29.7954545,42.9354839 L29.7954545,40 L28.0909091,40 L28.0909091,42.9354839 C27.1818182,43.0483871 26.2727273,43.3870968 25.4772727,44.0645161 C24.5681818,44.8548387 24,45.983871 24,47.1129032 C24,48.2419355 24.5681818,49.3709677 25.4772727,50.1612903 C26.3863636,50.9516129 27.6363636,51.4032258 28.8863636,51.4032258 C29.7954545,51.4032258 30.5909091,51.7419355 31.1590909,52.1935484 C31.7272727,52.6451613 32.0681818,53.3225806 32.0681818,54 C32.0681818,54.6774194 31.7272727,55.3548387 31.1590909,55.8064516 C29.9090909,56.8225806 27.75,56.8225806 26.6136364,55.8064516 C26.0454545,55.3548387 25.7045455,54.6774194 25.7045455,54 L24.1136364,54 C24.1136364,55.1290323 24.6818182,56.2580645 25.5909091,57.0483871 C26.2727273,57.6129032 27.1818182,58.0645161 28.2045455,58.1774194 L28.2045455,61 L29.9090909,61 L29.9090909,58.1774194 C30.8181818,58.0645161 31.7272727,57.6129032 32.5227273,57.0483871 C33.4318182,56.2580645 34,55.1290323 34,54 C34,52.8709677 33.4318182,51.7419355 32.5227273,50.9516129 C31.6136364,50.1612903 30.3636364,49.7096774 29.1136364,49.7096774 C28.2045455,49.7096774 27.4090909,49.3709677 26.8409091,48.9193548 C26.2727273,48.4677419 25.9318182,47.7903226 25.9318182,47.1129032 C25.9318182,46.4354839 26.2727273,45.7580645 26.8409091,45.3064516 C27.9772727,44.2903226 30.1363636,44.2903226 31.2727273,45.3064516 Z M70.5,60 C72.4558824,60 74,58.4558824 74,56.5 C74,54.5441176 72.4558824,53 70.5,53 C68.5441176,53 67,54.5441176 67,56.5 C67.1029412,58.4558824 68.6470588,60 70.5,60 Z M70.5,54.6470588 C71.5294118,54.6470588 72.4558824,55.4705882 72.4558824,56.6029412 C72.4558824,57.6323529 71.6323529,58.5588235 70.5,58.5588235 C69.4705882,58.5588235 68.5441176,57.7352941 68.5441176,56.6029412 C68.6470588,55.4705882 69.4705882,54.6470588 70.5,54.6470588 Z M35,73 L37,73 L37,75 L35,75 L35,73 Z M31,73 L33,73 L33,75 L31,75 L31,73 Z M22,73 L24,73 L24,75 L22,75 L22,73 Z M27,73 L29,73 L29,75 L27,75 L27,73 Z" id="Stroke" fill="#000000" fill-rule="nonzero"></path>
    </g>
</svg>