<svg xmlns="http://www.w3.org/2000/svg" 
    xmlns:xlink="http://www.w3.org/1999/xlink" width="111" height="39" viewBox="0 0 111 39">
    <defs>
        <path id="a" d="M137.06 27.97c.29 0 .55.11.75.31l5.56 5.49c.2.2.31.46.31.74 0 .28-.11.55-.31.75l-5.56 5.49A1.06 1.06 0 0 1 136 40c.01-.28.12-.54.32-.74l3.13-3.01c.46-.44.71-1.03.71-1.66a2.3 2.3 0 0 0-.69-1.67l-3.18-3.14a1.04 1.04 0 0 1 .02-1.5c.2-.2.47-.31.75-.31zm1.72 5.64c.54.54.54 1.41-.02 1.95l-3.12 3a2 2 0 0 0-.02 2.88 2.06 2.06 0 0 0 2.89 0l5.56-5.5a2 2 0 0 0 0-2.85l-5.56-5.5a2.07 2.07 0 0 0-2.89 0l-.02.02a2 2 0 0 0 0 2.86z"/>
        <path id="b" d="M156.05 41.44c.8-.8.79-2.09-.02-2.88l-3.13-3a1.36 1.36 0 0 1-.01-1.95l3.18-3.14a2 2 0 0 0 0-2.86l-.02-.02a2.06 2.06 0 0 0-2.89 0l-5.56 5.5a2 2 0 0 0 0 2.85l5.56 5.5c.8.79 2.09.79 2.89 0"/>
        <path id="c" d="M98.23 55.41h-5.24v-1.23c0-1.45 1.03-2.56 2.62-2.56s2.62 1.11 2.62 2.56zM90 54.18v4.81c0 3.08 2.53 5.18 5.68 5.18 2.52 0 4.71-1.42 5.42-3.61l-2.9-.86a2.5 2.5 0 0 1-2.52 1.85c-1.59 0-2.69-1.11-2.69-2.56V58h8.24v-3.82c0-3.11-2.5-5.18-5.62-5.18C92.5 49 90 51.07 90 54.18z"/>
        <path id="d" d="M111.49 49a4 4 0 0 0-3.5 2.03v-1.66H105V63.8h2.99V53.28s.78-1.51 2.62-1.51c1.56 0 2.62 1.02 2.62 2.78v9.25h3v-9.56c0-2.96-1.87-5.24-4.74-5.24"/>
        <path id="e" d="M125.61 60.82L122.06 50H119l4.93 14.43h3.3L132.16 50h-2.99z"/>
        <path id="f" d="M142.23 55.41h-5.24v-1.23c0-1.45 1.03-2.56 2.62-2.56s2.62 1.11 2.62 2.56zM134 54.18v4.81c0 3.08 2.53 5.18 5.68 5.18 2.52 0 4.7-1.42 5.42-3.61l-2.9-.86a2.5 2.5 0 0 1-2.52 1.85c-1.59 0-2.69-1.11-2.69-2.56V58h8.24v-3.82c0-3.11-2.5-5.18-5.62-5.18-3.11 0-5.61 2.07-5.61 5.18z"/>
        <path id="g" d="M154.14 55.2c-1.68-.31-3.15-.5-3.15-1.64 0-1.17 1.03-1.97 2.62-1.97a2.5 2.5 0 0 1 2.62 2.59h3c0-3.05-2.53-5.18-5.62-5.18-3.4 0-5.55 2.07-5.55 4.41 0 3.48 2.81 3.94 5.15 4.41 1.68.34 3.15.52 3.15 1.78 0 1.51-1.25 1.98-2.75 1.98a2.51 2.51 0 0 1-2.62-2.59H148c0 3.05 2.53 5.18 5.61 5.18 3.09 0 5.68-1.76 5.68-4.41 0-3.42-2.81-4.13-5.15-4.56"/>
        <path id="h" d="M168.17 46h-2.99v3.51H162v2.78h3.18v7.58c0 2.65 2 4.44 4.68 4.44 1.34 0 2.53-.46 3.37-1.26l-1.69-2.1c-.4.49-1.03.77-1.68.77-1.03 0-1.69-.8-1.69-1.85v-7.58h5.06v-2.78h-5.06z"/>
        <path id="i" d="M183.11 50H176v2.77h4.12v8.88H176v2.78h11.23v-2.78h-4.12z"/>
        <path id="j" d="M181.78 46.55c.96 0 1.81-.81 1.81-1.76 0-.96-.85-1.79-1.81-1.79-.97 0-1.78.83-1.78 1.79 0 .95.81 1.76 1.78 1.76"/>
        <path id="k" d="M198.23 58.99a2.5 2.5 0 0 1-2.62 2.59 2.5 2.5 0 0 1-2.62-2.59v-4.81a2.52 2.52 0 0 1 2.62-2.59 2.52 2.52 0 0 1 2.62 2.59zM190 54.18v4.81c0 3.08 2.53 5.18 5.61 5.18 3.09 0 5.62-2.1 5.62-5.18v-4.81c0-3.05-2.53-5.18-5.62-5.18-3.05 0-5.61 2.13-5.61 5.18z"/>
    </defs>
    <g transform="translate(-90 -26)">
        <use xlink:href="#a"/>
    </g>
    <g transform="translate(-90 -26)">
        <use xlink:href="#b"/>
    </g>
    <g transform="translate(-90 -26)">
        <use xlink:href="#c"/>
    </g>
    <g transform="translate(-90 -26)">
        <use xlink:href="#d"/>
    </g>
    <g transform="translate(-90 -26)">
        <use xlink:href="#e"/>
    </g>
    <g transform="translate(-90 -26)">
        <use xlink:href="#f"/>
    </g>
    <g transform="translate(-90 -26)">
        <use xlink:href="#g"/>
    </g>
    <g transform="translate(-90 -26)">
        <use xlink:href="#h"/>
    </g>
    <g transform="translate(-90 -26)">
        <use xlink:href="#i"/>
    </g>
    <g transform="translate(-90 -26)">
        <use xlink:href="#j"/>
    </g>
    <g transform="translate(-90 -26)">
        <use xlink:href="#k"/>
    </g>
</svg>