<svg xmlns="http://www.w3.org/2000/svg" viewBox="0 0 283.5 72.6">
    <linearGradient id="a" gradientUnits="userSpaceOnUse" x1="14.616" y1="152.639" x2="200.616" y2="55.639" gradientTransform="matrix(1 0 0 -1 0 118)">
        <stop offset="0" stop-color="#22cef3"/>
        <stop offset=".273" stop-color="#3e92f4"/>
        <stop offset=".711" stop-color="#3658f4"/>
        <stop offset="1" stop-color="#4a17f9"/>
    </linearGradient>
    <path d="M206 18.5c-2.9-1.6-6.1-2.5-9.8-2.5s-7 .9-10.1 2.6c-3 1.7-5.5 4.2-7.2 7.3-1.8 3.1-2.7 6.8-2.7 11 0 4.3.9 8.1 2.6 11.2 1.7 3.2 4.1 5.6 7.2 7.2 3.1 1.7 6.6 2.5 10.6 2.5 3.5 0 6.6-.5 9.3-1.6s5.1-2.8 7.3-5.1l-4.4-5.3c-1.8 1.7-3.6 3-5.5 3.7-1.9.8-3.9 1.1-6.1 1.1-3.7 0-6.6-1-8.8-3s-3.5-4.8-3.8-8.6h30.3l.1-2.2c0-4.3-.8-8-2.4-11.2-1.5-3.1-3.7-5.4-6.6-7.1zm-21.2 14.8c.4-2.1 1.1-3.9 2.1-5.4s2.4-2.8 4-3.6c1.6-.9 3.4-1.3 5.3-1.3 3 0 5.4.9 7.2 2.8s2.9 4.4 3.2 7.6l-21.8-.1zm62.8-14.8c-2.8-1.6-6.1-2.5-9.8-2.5s-7 .9-10.1 2.6c-3 1.7-5.5 4.2-7.2 7.3-1.8 3.1-2.7 6.8-2.7 11 0 4.3.9 8.1 2.5 11.2 1.7 3.2 4.1 5.6 7.2 7.2 3.1 1.7 6.6 2.5 10.6 2.5 3.5 0 6.6-.5 9.3-1.6s5.1-2.8 7.3-5.1l-4.4-5.3c-1.8 1.7-3.6 3-5.4 3.7-1.9.8-3.9 1.1-6.1 1.1-3.7 0-6.6-1-8.8-3s-3.5-4.8-3.8-8.6h30.3l.1-2.2c0-4.3-.8-8-2.4-11.2-1.6-3.1-3.8-5.4-6.6-7.1zm-21.3 14.8c.4-2.1 1.1-3.9 2.1-5.4s2.4-2.8 4-3.6c1.6-.9 3.4-1.3 5.3-1.3 3 0 5.4.9 7.2 2.8s2.9 4.4 3.2 7.6l-21.8-.1zm42.2-8.2l-.2-8h-7.8v39.8h8.2V37.7c0-3.1.6-5.7 1.9-7.6s2.9-3.3 4.9-4.1c2-.8 4.2-1.2 6.5-1.2l1.5.1v-8.3c-7-.1-12 2.8-15 8.5zM71 25.1l-.2-8H63v39.8h8.2V37.7c0-3.1.6-5.7 1.9-7.6S76 26.8 78 26c2-.8 4.2-1.2 6.5-1.2l1.5.1v-8.3c-7-.1-12 2.8-15 8.5zM34.1 39.2h11.4s-2.7 5.2-8.2 8.5c-2.5 1.5-5.5 2.5-9.1 2.5-4.3 0-8.3-1.4-11.5-3.8-5.2-3.8-8.5-10.2-8.5-17.5 0-5.9 1.9-11.2 5.4-15.1 1.7-2 3.8-3.4 6.2-4.5 2.5-1.2 5.4-1.8 8.5-1.8h2.5c6.2.3 13.3 4 17.3 11.8l6.5-4.6C49.3 5.1 40.1.4 30.8 0h-2.9c-3.8 0-7.4.8-10.6 2.1-.2.1-.5.2-.7.3-.1 0-.2.1-.3.1C6.6 7 0 17 0 28.9 0 39 4.8 47.7 12.1 52.8c.2.1.4.2.5.3l.1.1c4.3 2.8 9.5 4.5 15.1 4.5 4.1 0 8.1-.7 11.5-2.5l.6-.3h.1c.1-.1.3-.1.4-.2 7.1-4.1 10-10 10-10v12h7.5v-25H34.1v7.5zm129.7-20.4c-2.8-1.9-6.2-2.8-10-2.8-3.2 0-6 .7-8.5 2.1-2.4 1.4-4.4 3.3-5.9 5.8l-.2-6.8h-7.8v55.5h8.2V50.5c1.5 2.3 3.4 4.2 5.8 5.4 2.4 1.3 5.1 1.9 8.3 1.9 3.7 0 6.9-.9 9.8-2.8 2.9-1.8 5.1-4.4 6.7-7.5 1.6-3.2 2.4-6.7 2.4-10.6s-.8-7.4-2.3-10.6c-1.4-3.1-3.6-5.6-6.5-7.5zm-1.2 25.3c-1.1 2.1-2.6 3.6-4.5 4.8-1.9 1.1-4 1.7-6.3 1.7s-4.4-.5-6.3-1.6c-1.9-1.1-3.3-2.6-4.3-4.7-1-2-1.6-4.4-1.6-7.2 0-2.7.6-5.2 1.7-7.2 1.1-2.1 2.6-3.7 4.6-4.8 1.9-1.1 4.1-1.6 6.4-1.6 2.3 0 4.4.5 6.2 1.6s3.2 2.7 4.2 4.8 1.5 4.5 1.5 7.2c0 2.6-.5 5-1.6 7zm-44.8-6c0 2.8-.5 5.1-1.4 6.9-.9 1.8-2.1 3.2-3.7 4-1.5.9-3.3 1.3-5.2 1.3-2.9 0-5.1-.9-6.7-2.7s-2.4-4.5-2.4-8.1V17.1h-8.2v23.5c0 3.8.6 6.9 1.8 9.5 1.2 2.6 2.9 4.5 5 5.8 2.2 1.3 4.7 1.9 7.5 1.9 2.9 0 5.5-.6 7.7-1.8s4.1-3 5.5-5.4l.3 6.2h7.8V17.1h-8v21z" fill="url(#a)"/>
</svg>