<?xml version="1.0" encoding="UTF-8"?>
<svg width="546px" height="425px" viewBox="0 0 546 425" version="1.1" xmlns="http://www.w3.org/2000/svg" xmlns:xlink="http://www.w3.org/1999/xlink">
    <!-- Generator: Sketch 55.2 (78181) - https://sketchapp.com -->
    <title>Man</title>
    <desc>Created with Sketch.</desc>
    <g id="Page-1" stroke="none" stroke-width="1" fill="none" fill-rule="evenodd">
        <g id="Circlewise-Advertiser" transform="translate(-667.000000, -245.000000)">
            <g id="Art" transform="translate(668.000000, 224.000000)">
                <g id="Man" transform="translate(0.738529, 21.000000)">
                    <path d="M-1.13686838e-13,407.343572 C6.8954305,375.114524 36.0267395,355.333333 87.393927,348 C81.7884583,310.343572 116.268927,291 148.65174,295 C142.554083,285 148.948615,270.5 171.485691,270.5 C171.485691,245 223.314119,229.444077 241.627827,244.5 C257.702959,234.462718 271.036293,223.835642 281.627827,212.618772 L296.997943,234.393825 C286.751199,242.741317 278.488864,254.276709 272.210938,269 C278.488864,279.666667 266.408876,299.781191 235.970973,329.343572 L155.261471,407 L-1.13686838e-13,407.343572 Z" id="Path-8-Copy" fill="#FFFFFF"></path>
                    <path d="M-1.13686838e-13,407.343572 C6.8954305,375.114524 36.0267395,355.333333 87.393927,348 C81.7884583,310.343572 116.268927,291 148.65174,295 C142.554083,285 148.948615,270.5 171.485691,270.5 C171.485691,245 223.314119,229.444077 241.627827,244.5 C257.702959,234.462718 271.036293,223.835642 281.627827,212.618772 L296.997943,234.393825 C286.751199,242.741317 278.488864,254.276709 272.210938,269 C278.488864,279.666667 266.408876,299.781191 235.970973,329.343572" id="Path-8-Copy-2" stroke="#000000" stroke-width="2" stroke-linecap="round" stroke-linejoin="round"></path>
                    <g transform="translate(244.997943, 0.000000)">
                        <path d="M282,109 L274.98327,134.831256 L252,137 L257.42488,120.61505 C259.17575,115.329259 263.754183,111.504323 269.232069,110.753026 L282,109" id="Fill-10" stroke="#000000" stroke-width="2" fill="#FFFFFF"></path>
                        <path d="M202.702802,98.8696031 C190.747305,110.825073 190.747305,130.274314 202.702802,142.229784 L204.770054,144.297031 C216.725551,156.252501 236.176516,156.252501 248.132013,144.297031 L256.298666,136.130397 C268.252485,124.176605 268.252485,104.725686 256.296988,92.7702162 L254.229736,90.7029687 C242.274239,78.7474992 222.824952,78.7474992 210.869455,90.7029687 L202.702802,98.8696031 Z M263.18671,143.020103 L255.020057,151.186738 C239.267326,166.937754 213.634741,166.937754 197.88201,151.186738 L195.81308,149.117812 C180.062027,133.365118 180.062027,107.732591 195.814758,91.9815747 L203.981411,83.8132623 C219.734142,68.0622459 245.365049,68.0622459 261.11778,83.8132623 L263.18671,85.8821878 C278.937763,101.634882 278.937763,127.265731 263.18671,143.020103 L263.18671,143.020103 Z" id="Fill-11" stroke="#000000" stroke-width="2" fill="#D02E7D"></path>
                        <polyline id="Fill-12" stroke="#000000" stroke-width="2" fill="#FFFFFF" stroke-linejoin="round" points="48.9642707 305 42 312.636406 52.4312736 355 62 324.70831 48.9642707 305"></polyline>
                        <polyline id="Fill-13" stroke="#000000" stroke-width="2" fill="#FFFFFF" stroke-linejoin="round" points="38.2395178 295 31 302.261501 38.8021488 345 50 315.431396 38.2395178 295"></polyline>
                        <path d="M47,304.905168 C47.2953314,305.166794 61.9209467,325 61.9209467,325 L182,190.4458 L147.597251,160 C147.597251,160 69.1431413,279.499009 47,304.905168 Z" id="Fill-16" stroke="#000000" stroke-width="2" fill="#FFFFFE" stroke-linejoin="round"></path>
                        <path d="M143.487045,157 C143.487045,157 59.3154208,271.100422 36,295.008186 C36.2804433,295.287337 49.7350062,316 49.7350062,316 L176,189.559761 L143.487045,157" id="Fill-31" stroke="#000000" stroke-width="2" fill="#FFFFFE" stroke-linejoin="round"></path>
                        <path d="M260.000778,96.162595 C263.163681,132.69031 252.781621,148.388269 215.735284,179.632904 C213.284035,185.174843 211.795115,191.217692 210,197 C215.89343,194.961064 221.781812,192.85153 227.552427,190.548692 C249.978751,164.896423 278.549182,136.152972 265.882431,101.074195 C264.262284,96.5895445 262.159291,96.755954 260.372587,96.250002 C258.589249,95.74405 260.000778,96.162595 260.000778,96.162595" id="Fill-20" stroke="#000000" stroke-width="2" fill="#FFFFFE" stroke-linejoin="round"></path>
                        <path d="M286.190016,54.2332588 C287.419418,60.8931382 288.259699,66.9857746 288.789974,71.3807072 C289.226141,75.0012351 286.233599,78.1174692 282.575859,77.8628092 L270.282339,77.0114168 L259.007692,93 L230.594535,77.5227041 L237.378916,65.6139647 L236.680663,63.8414312 L225.431263,37.5729182 C220.758046,10.6995878 255.279223,-0.88409095 270.24362,12.7284907 C274.476572,16.5793758 277.857877,23.5012896 280.530681,31.4489315 L298,50.9844525 L286.190016,54.2332588 Z" id="Fill-44" stroke="#000000" stroke-width="2" fill="#FFFFFF" stroke-linejoin="round"></path>
                        <polyline id="Collar" stroke="#000000" stroke-width="2" fill="#FFFFFE" points="266 93.0956369 261.745978 107 224 85.8202531 235.361558 70 266 93.0956369"></polyline>
                        <path d="M258.493603,68 C257.273593,68 256.081385,67.7822446 254.92025,67.3467337 C249.66734,65.3768844 247.107937,59.6113903 247,59.3668342 L249.986243,58 C250.007504,58.0469012 252.113901,62.7370184 256.06176,64.2060302 C258.05368,64.9514238 260.246753,64.7403685 262.578836,63.5879397 L264,66.6046901 C262.119288,67.5343384 260.277826,68 258.493603,68" id="Mouth" fill="#000000"></path>
                        <path d="M238.094128,66 L237.36437,65.4393843 C228.182286,58.3675215 221.008306,49.027867 216.551871,38.3440857 L216.118419,37.3039072 C214.108621,32.4829501 214.841765,26.9578462 218.041865,22.8241499 C216.560337,16.7519391 219.675778,10.4973594 225.420719,8.00498366 L240.036199,1.66259667 C246.747942,-1.25024081 254.517919,-0.287737991 260.311961,4.173547 L267,9.32378139 L231.25709,22.3344555 L238.094128,66" id="Hair" fill="#000000"></path>
                        <g id="Glasses" transform="translate(216.000000, 17.000000)">
                            <path d="M23.2124545,12.1834832 C20.9655455,12.8328832 19.5578636,15.1261832 20.1633182,17.3276832 C23.273,28.6020832 35.2744545,35.1198832 46.7646364,31.8014832 L71.9296818,24.5339832 C73.3558636,24.1225832 74.1917273,22.6571832 73.7981818,21.2631832 L68.3221818,1.8882832 C67.9269545,0.492583201 66.452,-0.303016799 65.0258182,0.108383201 L23.2124545,12.1834832" id="Fill-24" fill="#000000"></path>
                            <path d="M27.8189545,14.3900832 C26.1976818,14.8592832 25.2491364,16.5830832 25.7133182,18.2235832 C28.0291818,26.4209832 36.5610455,31.2115832 44.6707727,28.8689832 L73.5425455,20.5321832 L68.487,2.6447832 L27.8189545,14.3900832" id="Fill-25" fill="#46A7CD"></path>
                            <polyline id="Fill-26" fill="#79D4FB" points="46.0515455 28.4711832 55.7556364 25.6695832 68.4600909 2.5512832 58.7576818 5.3528832 46.0515455 28.4711832"></polyline>
                            <path d="M24.9632273,21.8972832 L8.23922727,26.4260832 C4.65022727,27.3984832 0.962,25.2445832 0,21.6184832 L23.2208636,15.3284832 L24.9632273,21.8972832" id="Fill-27" fill="#000000"></path>
                        </g>
                        <path d="M244.870721,136.273328 L190.393001,190.983248 C186.286379,195.107501 179.508524,194.987933 175.254338,190.717167 L143,158.322671 L214.135615,87.4188709 C226.619813,74.8810758 231.130557,76.8834181 244.060799,89.867488 C256.989364,102.851558 257.353242,123.735533 244.870721,136.273328" id="Body" stroke="#000000" stroke-width="2" fill="#FFFFFE"></path>
                        <path d="M220.537809,81.7431665 C212.318657,81.7431665 204.616454,84.918717 198.85281,90.6823749 L190.682332,98.8528717 C184.918687,104.61653 181.743144,112.31875 181.743144,120.539599 C181.743144,128.757092 184.918687,136.459312 190.682332,142.22297 L192.751806,144.292449 C204.710445,156.251116 224.166522,156.251116 236.125161,144.292449 L244.293961,136.123631 L244.292282,136.123631 C256.250922,124.166642 256.250922,104.708842 244.293961,92.7518536 L242.224487,90.6840533 C236.459164,84.918717 228.756961,81.7431665 220.537809,81.7431665 Z M214.438483,163 C204.089435,163 193.740387,159.060773 185.861951,151.18232 L183.794156,149.114519 C176.1893,141.509646 172,131.360305 172,120.539599 C172,109.715537 176.1893,99.5678741 183.794156,91.9630012 L191.962955,83.7941827 C199.567811,76.1893098 209.71545,72 220.537809,72 C231.360168,72 241.509486,76.1893098 249.114341,83.7941827 L251.182137,85.8619831 C266.939008,101.61889 266.939008,127.254915 251.183815,143.013501 L251.182137,143.013501 L243.013337,151.18232 C235.134902,159.060773 224.787532,163 214.438483,163 L214.438483,163 Z" id="Fill-30" stroke="#000000" stroke-width="2" fill="#D02E7D"></path>
                        <path d="M98.4192756,170.580724 L98.4192756,170.580724 C109.989306,182.150755 108.051435,201.420121 94.4089597,210.455107 L0,269 L58.5432107,174.59104 C67.579879,160.948565 86.8492451,159.010694 98.4192756,170.580724" id="Fill-32" stroke="#000000" stroke-width="2" fill="#FFFFFF"></path>
                        <path d="M98.1047644,169.896026 L98.1047644,169.896026 C105.575824,177.368693 104.325296,189.812999 95.5141437,195.646479 L26,242 L72.3523386,172.484928 C78.1875723,163.675562 90.6320151,162.423358 98.1047644,169.896026" id="Fill-33" fill="#FFB900"></path>
                        <path d="M98.4813781,169.51926 L98.4813781,169.51926 C102.325731,173.363738 101.681036,179.766666 97.149463,182.767401 L66,202 L85.2319697,170.851218 C88.2343071,166.317796 94.6370254,165.674781 98.4813781,169.51926" id="Fill-34" fill="#D02E7D"></path>
                        <polyline id="Fill-35" fill="#000000" points="129 154.401201 104.401201 179 90 164.600496 114.600496 140 129 154.401201"></polyline>
                        <polyline id="Fill-36" fill="#000000" points="87 150 119 182 119 150 87 150"></polyline>
                        <path d="M178.078647,57.1367419 L94,141.215272 L127.784774,175 L211.861744,90.9214694 C222.04364,80.7412643 222.771637,64.8108955 213.480447,55.519718 C204.189257,46.2285405 188.258866,46.9565368 178.078647,57.1367419" id="Fill-37" stroke="#000000" stroke-width="2" fill="#D02E7D"></path>
                        <path d="M109.290764,141 C107.569745,139.278953 107.569745,136.463921 109.290764,134.742874 L179.742975,64.2895209 C180.602642,63.4298403 181.737065,63 182.871488,63 C184.004225,63 185.138648,63.4298403 186,64.2895209 L109.290764,141" id="Fill-38" fill="#FFFFFF"></path>
                        <path d="M269,109 L261.982882,134.831256 L239,137 L244.425179,120.61505 C246.176146,115.329259 250.754832,111.504323 256.23302,110.753026 L269,109" id="Fill-39" stroke="#000000" stroke-width="2" fill="#FFFFFF"></path>
                        <path d="M210.242413,113.789269 L245,116.593507 L244.239547,137.918917 L181.382191,139.993269 C173.843567,140.24313 167.717696,133.503583 168.010047,125.283314 C168.142593,121.565933 169.564285,118.237337 171.77971,115.780724 L171.763306,115.768461 C171.763306,115.768461 208.310677,77.4558359 231.622787,78.0058662 C237.844982,79.994695 241.457979,88.9561635 233.643902,94.9578655 L210.242413,113.789269 Z" id="Fill-43" stroke="#000000" stroke-width="2" fill="#FFFFFF" stroke-linejoin="round"></path>
                        <path d="M239.415219,119.586105 C238.633828,118.804632 237.367435,118.804632 236.586044,119.586105 C235.804652,120.365895 235.804652,121.632421 236.586044,122.413895 C237.367435,123.195368 238.633828,123.195368 239.415219,122.413895 C240.194927,121.632421 240.194927,120.365895 239.415219,119.586105" id="Fill-42" fill="#000000"></path>
                    </g>
                    <g id="Speed" transform="translate(157.261471, 203.248601)" stroke="#000000" stroke-linecap="round" stroke-width="2">
                        <path d="M31.9997064,189.001287 L90.6741301,134.620114" id="Line" transform="translate(61.336918, 161.810700) rotate(-2.174744) translate(-61.336918, -161.810700) "></path>
                        <path d="M96.947353,125.985603 L102.814795,120.547486" id="Line" transform="translate(99.881074, 123.266544) rotate(-2.174744) translate(-99.881074, -123.266544) "></path>
                        <path d="M68.947353,134.985603 L74.8147953,129.547486" id="Line" transform="translate(71.881074, 132.266544) rotate(-2.174744) translate(-71.881074, -132.266544) "></path>
                        <path d="M63.0263235,141.067629 L64.4931841,139.7081" id="Line" transform="translate(63.759754, 140.387865) rotate(-2.174744) translate(-63.759754, -140.387865) "></path>
                        <path d="M65.2629416,187.274708 L109.268759,146.488828" id="Line" transform="translate(87.265850, 166.881768) rotate(-2.174744) translate(-87.265850, -166.881768) "></path>
                        <path d="M112.842059,171.876235 L124.576944,161" id="Line" transform="translate(118.709501, 166.438117) rotate(-2.174744) translate(-118.709501, -166.438117) "></path>
                        <path d="M96.947353,187.985603 L102.814795,182.547486" id="Line" transform="translate(99.881074, 185.266544) rotate(-2.174744) translate(-99.881074, -185.266544) "></path>
                        <path d="M89,196.040287 L91.9337212,193.321229" id="Line" transform="translate(90.466861, 194.680758) rotate(-2.174744) translate(-90.466861, -194.680758) "></path>
                        <path d="M272.842059,11.8762346 L284.576944,1" id="Line" transform="translate(278.709501, 6.438117) rotate(-2.174744) translate(-278.709501, -6.438117) "></path>
                        <path d="M265,20.0402873 L267.933721,17.3212287" id="Line" transform="translate(266.466861, 18.680758) rotate(-2.174744) translate(-266.466861, -18.680758) "></path>
                        <path d="M248.868382,35.9035768 L259.136407,26.3868714" id="Line" transform="translate(254.002394, 31.145224) rotate(-2.174744) translate(-254.002394, -31.145224) "></path>
                        <path d="M72.8420589,80.8762346 L84.5769437,70" id="Line" transform="translate(78.709501, 75.438117) rotate(-2.174744) translate(-78.709501, -75.438117) "></path>
                        <path d="M56.947353,96.9856031 L62.8147953,91.5474858" id="Line" transform="translate(59.881074, 94.266544) rotate(-2.174744) translate(-59.881074, -94.266544) "></path>
                        <path d="M49,105.040287 L51.9337212,102.321229" id="Line" transform="translate(50.466861, 103.680758) rotate(-2.174744) translate(-50.466861, -103.680758) "></path>
                        <path d="M17.9210295,203.958261 L25.2553324,197.160614" id="Line" transform="translate(21.588181, 200.559438) rotate(-2.174744) translate(-21.588181, -200.559438) "></path>
                        <path d="M1,220.040287 L3.93372119,217.321229" id="Line" transform="translate(2.466861, 218.680758) rotate(-2.174744) translate(-2.466861, -218.680758) "></path>
                    </g>
                </g>
            </g>
        </g>
    </g>
</svg>