<?xml version="1.0" encoding="UTF-8"?>
<svg width="394px" height="513px" viewBox="0 0 394 513" version="1.1" xmlns="http://www.w3.org/2000/svg" xmlns:xlink="http://www.w3.org/1999/xlink">
    <!-- Generator: Sketch 55.2 (78181) - https://sketchapp.com -->
    <title>Background</title>
    <desc>Created with Sketch.</desc>
    <g id="Page-1" stroke="none" stroke-width="1" fill="none" fill-rule="evenodd">
        <g id="Circlewise-Advertiser" transform="translate(-881.000000, -224.000000)">
            <g id="Art" transform="translate(668.000000, 224.000000)">
                <g id="Background" transform="translate(213.736471, 0.000000)">
                    <circle id="Oval" fill="#FFB900" cx="218" cy="175" r="175"></circle>
                    <circle id="Oval" fill="#E4F2F8" cx="84" cy="429" r="84"></circle>
                    <g id="Grid" transform="translate(243.000000, 290.000000)" fill="#000000">
                        <circle id="Oval" cx="4" cy="4" r="4"></circle>
                        <circle id="Oval" cx="28" cy="4" r="4"></circle>
                        <circle id="Oval" cx="52" cy="4" r="4"></circle>
                        <circle id="Oval" cx="76" cy="4" r="4"></circle>
                        <circle id="Oval" cx="100" cy="4" r="4"></circle>
                        <circle id="Oval" cx="124" cy="4" r="4"></circle>
                        <circle id="Oval" cx="4" cy="28" r="4"></circle>
                        <circle id="Oval" cx="28" cy="28" r="4"></circle>
                        <circle id="Oval" cx="52" cy="28" r="4"></circle>
                        <circle id="Oval" cx="76" cy="28" r="4"></circle>
                        <circle id="Oval" cx="100" cy="28" r="4"></circle>
                        <circle id="Oval" cx="124" cy="28" r="4"></circle>
                        <circle id="Oval" cx="4" cy="52" r="4"></circle>
                        <circle id="Oval" cx="28" cy="52" r="4"></circle>
                        <circle id="Oval" cx="52" cy="52" r="4"></circle>
                        <circle id="Oval" cx="76" cy="52" r="4"></circle>
                        <circle id="Oval" cx="100" cy="52" r="4"></circle>
                        <circle id="Oval" cx="124" cy="52" r="4"></circle>
                        <circle id="Oval" cx="4" cy="76" r="4"></circle>
                        <circle id="Oval" cx="28" cy="76" r="4"></circle>
                        <circle id="Oval" cx="52" cy="76" r="4"></circle>
                        <circle id="Oval" cx="76" cy="76" r="4"></circle>
                        <circle id="Oval" cx="100" cy="76" r="4"></circle>
                        <circle id="Oval" cx="124" cy="76" r="4"></circle>
                        <circle id="Oval" cx="4" cy="100" r="4"></circle>
                        <circle id="Oval" cx="28" cy="100" r="4"></circle>
                        <circle id="Oval" cx="52" cy="100" r="4"></circle>
                        <circle id="Oval" cx="76" cy="100" r="4"></circle>
                        <circle id="Oval" cx="100" cy="100" r="4"></circle>
                        <circle id="Oval" cx="124" cy="100" r="4"></circle>
                    </g>
                </g>
            </g>
        </g>
    </g>
</svg>