<?xml version="1.0" encoding="UTF-8"?>
<svg width="18px" height="18px" viewBox="0 0 18 18" version="1.1" xmlns="http://www.w3.org/2000/svg" xmlns:xlink="http://www.w3.org/1999/xlink">
    <!-- Generator: Sketch 43.2 (39069) - http://www.bohemiancoding.com/sketch -->
    <title>Settings</title>
    <desc>Created with Sketch.</desc>
    <defs></defs>
    <g id="New-website" stroke="none" stroke-width="1" fill="none" fill-rule="evenodd">
        <g id="Supply-platform" transform="translate(-1060.000000, -1594.000000)">
            <g id="One-agreement" transform="translate(0.000000, 1079.000000)">
                <g id="Col-2" transform="translate(960.000000, 0.000000)">
                    <g id="Settings" transform="translate(100.000000, 515.000000)">
                        <rect id="Rectangle-12" x="0" y="0" width="18" height="18"></rect>
                        <path d="M9.03834721,12.1846391 C8.1651034,12.1846391 7.41863199,11.874783 6.79891059,11.2550616 C6.17918918,10.6353402 5.86933312,9.8888688 5.86933312,9.015625 C5.86933312,8.1423812 6.17918918,7.39590979 6.79891059,6.77618838 C7.41863199,6.15646697 8.1651034,5.84661092 9.03834721,5.84661092 C9.91159101,5.84661092 10.6580624,6.15646697 11.2777838,6.77618838 C11.8975052,7.39590979 12.2073613,8.1423812 12.2073613,9.015625 C12.2073613,9.8888688 11.8975052,10.6353402 11.2777838,11.2550616 C10.6580624,11.874783 9.91159101,12.1846391 9.03834721,12.1846391 Z M11.2073613,9.015625 C11.2073613,8.40786852 11.0030529,7.915671 10.570677,7.48329516 C10.1383012,7.05091932 9.64610368,6.84661092 9.03834721,6.84661092 C8.43059073,6.84661092 7.93839321,7.05091932 7.50601737,7.48329516 C7.07364153,7.915671 6.86933312,8.40786852 6.86933312,9.015625 C6.86933312,9.62338148 7.07364153,10.115579 7.50601737,10.5479548 C7.93839321,10.9803307 8.43059073,11.1846391 9.03834721,11.1846391 C9.64610368,11.1846391 10.1383012,10.9803307 10.570677,10.5479548 C11.0030529,10.115579 11.2073613,9.62338148 11.2073613,9.015625 Z" id="settings" fill="#ABC32D" fill-rule="nonzero"></path>
                        <path d="M17.7425726,11.9577465 L15.9256711,15.084507 C15.8129945,15.2816911 15.6298978,15.3380286 15.3763754,15.2535211 L13.1369388,14.3661972 C12.5453865,14.7887345 12.0383493,15.0845062 11.615812,15.2535211 L11.2777838,17.6197183 C11.2214455,17.8732407 11.0806019,18 10.8552486,18 L7.2214458,18 C6.99609256,18 6.8552489,17.8732407 6.79891059,17.6197183 L6.46088242,15.2535211 C5.92566847,15.0281679 5.41863129,14.7323962 4.93975566,14.3661972 L2.70031904,15.2535211 C2.44679664,15.3380286 2.26369988,15.2816911 2.15102326,15.084507 L0.334121853,11.9577465 C0.193276079,11.7042241 0.221444811,11.507043 0.418628896,11.3661972 L2.32003735,9.88732394 C2.29186819,9.69013986 2.27778383,9.39436817 2.27778383,9 C2.27778383,8.60563183 2.29186819,8.30986014 2.32003735,8.11267606 L0.418628896,6.63380282 C0.221444811,6.49295704 0.193276079,6.29577592 0.334121853,6.04225352 L2.15102326,2.91549296 C2.26369988,2.71830887 2.44679664,2.66197141 2.70031904,2.74647887 L4.93975566,3.63380282 C5.53130791,3.21126549 6.03834509,2.9154938 6.46088242,2.74647887 L6.79891059,0.38028169 C6.8552489,0.126759296 6.99609256,0 7.2214458,0 L10.8552486,0 C11.0806019,0 11.2214455,0.126759296 11.2777838,0.38028169 L11.615812,2.74647887 C12.1510259,2.97183211 12.6580631,3.2676038 13.1369388,3.63380282 L15.3763754,2.74647887 C15.6298978,2.66197141 15.8129945,2.71830887 15.9256711,2.91549296 L17.7425726,6.04225352 C17.8834183,6.29577592 17.8552496,6.49295704 17.6580655,6.63380282 L15.7566571,8.11267606 C15.7848262,8.30986014 15.7989106,8.60563183 15.7989106,9 C15.7989106,9.39436817 15.7848262,9.69013986 15.7566571,9.88732394 L17.6580655,11.3661972 C17.8552496,11.507043 17.8834183,11.7042241 17.7425726,11.9577465 Z M15.1427165,10.6766762 L14.6846376,10.3203926 L14.7667076,9.74590259 C14.7868072,9.60520544 14.7989106,9.35103357 14.7989106,9 C14.7989106,8.64896643 14.7868072,8.39479456 14.7667076,8.25409741 L14.6846376,7.67960741 L15.1427165,7.32332384 L17.0768273,5.82006935 C16.8296631,5.99661521 16.7772168,6.36373922 16.8779473,6.54467089 L15.057428,3.4116319 C15.1961678,3.65442645 15.5178619,3.75340926 15.7447397,3.67616037 L13.5053031,4.56348432 L12.979099,4.7719803 L12.5294886,4.42816065 C12.1174196,4.11304901 11.6839784,3.86020829 11.227755,3.66811425 L10.7059339,3.44840011 L10.6258625,2.88790023 L10.3015968,0.597212148 C10.3422218,0.780024661 10.5866388,1 10.8552486,1 L7.2214458,1 C7.4900556,1 7.73447264,0.780024661 7.78886008,0.521703046 L7.45083191,2.88790023 L7.36906952,3.460237 L6.83227309,3.67495556 C6.49427348,3.81015541 6.05274767,4.06771213 5.52099385,4.44753629 L5.07776983,4.76412487 L4.57139129,4.56348432 L2.38409127,3.69516217 C2.55883253,3.75340926 2.88052666,3.65442645 3.01564849,3.41791032 L1.20827913,6.52789645 C1.29947759,6.36373922 1.2470313,5.99661521 1.03256951,5.8444506 L2.93397796,7.32332384 L3.39205684,7.67960741 L3.30998684,8.25409741 C3.28988725,8.39479456 3.27778383,8.64896643 3.27778383,9 C3.27778383,9.35103357 3.28988725,9.60520544 3.30998684,9.74590259 L3.39205684,10.3203926 L2.93397796,10.6766762 L0.999867089,12.1799307 C1.2470313,12.0033848 1.29947759,11.6362608 1.19874709,11.4553291 L3.0192664,14.5883681 C2.88052666,14.3455736 2.55883253,14.2465907 2.33195467,14.3238396 L4.57139129,13.4365157 L5.09759545,13.2280197 L5.54720576,13.5718394 C5.95927483,13.886951 6.39271606,14.1397917 6.84893942,14.3318858 L7.3707605,14.5515999 L7.45083191,15.1120998 L7.77509765,17.4027879 C7.73447264,17.2199753 7.4900556,17 7.2214458,17 L10.8552486,17 C10.5866388,17 10.3422218,17.2199753 10.2878343,17.478297 L10.6258625,15.1120998 L10.7076249,14.539763 L11.2444213,14.3250444 C11.5824209,14.1898446 12.0239467,13.9322879 12.5557006,13.5524637 L12.9989246,13.2358751 L13.5053031,13.4365157 L15.6926031,14.3048378 C15.5178619,14.2465907 15.1961678,14.3455736 15.0610459,14.5820897 L16.8684153,11.4721035 C16.7772168,11.6362608 16.8296631,12.0033848 17.0768273,12.1799307 L15.1427165,10.6766762 Z" id="Path" fill="#ABC32D" fill-rule="nonzero"></path>
                    </g>
                </g>
            </g>
        </g>
    </g>
</svg>