<?xml version="1.0" encoding="UTF-8"?>
<svg width="48px" height="65px" viewBox="0 0 48 65" version="1.1" xmlns="http://www.w3.org/2000/svg" xmlns:xlink="http://www.w3.org/1999/xlink">
    <!-- Generator: Sketch 43.2 (39069) - http://www.bohemiancoding.com/sketch -->
    <title>ic-clicks</title>
    <desc>Created with Sketch.</desc>
    <defs></defs>
    <g id="New-website" stroke="none" stroke-width="1" fill="none" fill-rule="evenodd">
        <g id="Home" transform="translate(-1096.000000, -3149.000000)">
            <g id="Marketplace" transform="translate(3.000000, 2477.000000)">
                <g id="Clicks-and-conversions" transform="translate(379.000000, 673.000000)">
                    <g id="Clicks" transform="translate(618.000000, 0.000000)">
                        <g id="ic-clicks" transform="translate(88.000000, 0.000000)">
                            <rect id="Rectangle-18" x="0" y="0" width="64" height="64"></rect>
                            <path d="M28.7368421,1 L28.7368421,23.3888889 L9,23.3888889 C9,17.6481194 10.9078757,12.6581409 14.7236842,8.41880342 C18.5394928,4.17946598 23.2104987,1.70655624 28.7368421,1 Z M9,40.3461538 L9,29.0854701 L54,29.0854701 L54,40.3461538 C54,46.5285209 51.7851099,51.8496928 47.3552632,56.3098291 C42.9254164,60.7699653 37.6403816,63 31.5,63 C25.3596184,63 20.0745836,60.7699653 15.6447368,56.3098291 C11.2148901,51.8496928 9,46.5285209 9,40.3461538 Z" id="mouse" stroke="#DCE0E3" stroke-width="2"></path>
                            <path d="M35,1 C40.600028,1.72584189 45.333314,4.26625041 49.2,8.62130178 C53.066686,12.9763531 55,18.1025346 55,24 L35,24 L35,1 Z" id="Path" stroke="#00B4FF" stroke-width="2"></path>
                        </g>
                    </g>
                </g>
            </g>
        </g>
    </g>
</svg>