<?xml version="1.0" encoding="UTF-8"?>
<svg width="60px" height="60px" viewBox="0 0 60 60" version="1.1" xmlns="http://www.w3.org/2000/svg" xmlns:xlink="http://www.w3.org/1999/xlink">
    <!-- Generator: Sketch 43.2 (39069) - http://www.bohemiancoding.com/sketch -->
    <title>ic-countries</title>
    <desc>Created with Sketch.</desc>
    <defs></defs>
    <g id="New-website" stroke="none" stroke-width="1" fill="none" fill-rule="evenodd">
        <g id="Home" transform="translate(-770.000000, -3152.000000)">
            <g id="Marketplace" transform="translate(3.000000, 2477.000000)">
                <g id="Clicks-and-conversions" transform="translate(379.000000, 673.000000)">
                    <g id="Countries" transform="translate(327.000000, 0.000000)">
                        <g id="ic-countries" transform="translate(59.000000, 0.000000)">
                            <rect id="Rectangle-18" x="0" y="0" width="64" height="64"></rect>
                            <path d="M48.2421875,46.8242188 C52.1093943,42.6991981 54.0429688,37.7578413 54.0429688,32 C54.0429688,27.4452897 52.7754033,23.320331 50.2402344,19.625 C47.7050654,15.929669 44.3750206,13.2656332 40.25,11.6328125 L40.25,12.7929688 C40.25,14.2539136 39.6914118,15.521479 38.5742188,16.5957031 C37.4570257,17.6699272 36.1679761,18.2070312 34.7070312,18.2070312 L29.2929688,18.2070312 L29.2929688,23.75 C29.2929688,24.5234414 29.0136747,25.1679662 28.4550781,25.6835938 C27.8964816,26.1992213 27.2304726,26.4570312 26.4570312,26.4570312 L21.0429688,26.4570312 L21.0429688,32 L37.5429688,32 C38.3164101,32 38.9609349,32.2578099 39.4765625,32.7734375 C39.9921901,33.2890651 40.25,33.9335899 40.25,34.7070312 L40.25,42.9570312 L42.9570312,42.9570312 C45.5351691,42.9570312 47.2968703,44.2460809 48.2421875,46.8242188 Z" id="Path" stroke="#00B4FF" stroke-width="2"></path>
                            <path d="M30.2929688,53.7851562 L30.2929688,48.5 L30.2929688,47.5 L29.2929688,47.5 C28.1032923,47.5 27.0664989,47.0507229 26.132888,46.117112 C25.1992771,45.1835011 24.75,44.1467077 24.75,42.9570312 L24.75,40.25 L24.75,39.8357864 L24.4571068,39.5428932 L11.3086693,26.3944557 L10.0597841,25.1455705 L9.63142,26.8590269 C9.18253003,28.6545867 8.95703125,30.3683775 8.95703125,32 C8.95703125,37.8339599 10.9183179,42.9287966 14.8234662,47.2379257 C18.7211093,51.5387733 23.5149289,54.0594671 29.1669962,54.77719 L30.2929688,54.9201706 L30.2929688,53.7851562 Z" id="Path" stroke="#DCE0E3" stroke-width="2"></path>
                            <path d="M32,3.54296875 C24.1719169,3.54296875 17.4509281,6.33407706 11.8925026,11.8925026 C6.33407706,17.4509281 3.54296875,24.1719169 3.54296875,32 C3.54296875,39.8280831 6.33407706,46.5490719 11.8925026,52.1074974 C17.4509281,57.6659229 24.1719169,60.4570312 32,60.4570312 C39.8280831,60.4570312 46.5490719,57.6659229 52.1074974,52.1074974 C57.6659229,46.5490719 60.4570312,39.8280831 60.4570312,32 C60.4570312,24.1719169 57.6659229,17.4509281 52.1074974,11.8925026 C46.5490719,6.33407706 39.8280831,3.54296875 32,3.54296875 Z" id="Path" stroke="#DCE0E3" stroke-width="2"></path>
                        </g>
                    </g>
                </g>
            </g>
        </g>
    </g>
</svg>