<?xml version="1.0" encoding="UTF-8"?>
<svg width="56px" height="48px" viewBox="0 0 56 48" version="1.1" xmlns="http://www.w3.org/2000/svg" xmlns:xlink="http://www.w3.org/1999/xlink">
    <!-- Generator: Sketch 43.2 (39069) - http://www.bohemiancoding.com/sketch -->
    <title>ic-transactions</title>
    <desc>Created with Sketch.</desc>
    <defs></defs>
    <g id="New-website" stroke="none" stroke-width="1" fill="none" fill-rule="evenodd">
        <g id="Home" transform="translate(-1413.000000, -3158.000000)">
            <g id="Marketplace" transform="translate(3.000000, 2477.000000)">
                <g id="Clicks-and-conversions" transform="translate(379.000000, 673.000000)">
                    <g id="Transactions" transform="translate(929.000000, 0.000000)">
                        <g id="ic-transactions" transform="translate(97.000000, 0.000000)">
                            <rect id="Rectangle-18" x="0" y="0" width="64" height="64"></rect>
                            <path d="M52.8824366,14.6331884 C52.2306067,10.8678071 48.9463556,8 44.9929031,8 L13.0070969,8 C8.58817117,8 5,11.5848994 5,16.0070969 L5,47.9929031 C5,52.4118288 8.58489938,56 13.0070969,56 L44.9929031,56 C49.4118288,56 53,52.4151006 53,47.9929031 L53,22.953125 L51,24.953125 L51,47.9929031 C51,51.3092751 48.3085156,54 44.9929031,54 L13.0070969,54 C9.69072491,54 7,51.3085156 7,47.9929031 L7,16.0070969 C7,12.6907249 9.69148436,10 13.0070969,10 L44.9929031,10 C48.3092751,10 51,12.6914844 51,16.0070969 L51,16.515625 L52.8824366,14.6331884 Z" id="Path" fill="#DCE0E3"></path>
                            <polygon id="Path" fill="#00B4FF" points="13.0940521 32.21875 27 46.1246979 60.1715729 12.953125 58.78125 11.5628021 27 43.3440521 14.484375 30.8284271"></polygon>
                        </g>
                    </g>
                </g>
            </g>
        </g>
    </g>
</svg>