<?xml version="1.0" encoding="UTF-8"?>
<svg width="59px" height="44px" viewBox="0 0 59 44" version="1.1" xmlns="http://www.w3.org/2000/svg" xmlns:xlink="http://www.w3.org/1999/xlink">
    <!-- Generator: Sketch 43.2 (39069) - http://www.bohemiancoding.com/sketch -->
    <title>ic_flexible</title>
    <desc>Created with Sketch.</desc>
    <defs></defs>
    <g id="New-website" stroke="none" stroke-width="1" fill="none" fill-rule="evenodd">
        <g id="Careers" transform="translate(-981.000000, -1979.000000)" stroke="#00B4FF" stroke-width="2" fill="#E5F7FF">
            <g id="ic_flexible" transform="translate(984.000000, 1981.000000)">
                <path d="M42.4248826,0 L53,10.6995305 L45.0375587,10.6995305 L45.0375587,29.2370892 C45.0375587,32.1400771 44.0007928,34.6283151 41.92723,36.7018779 C39.8536673,38.7754407 37.3654292,39.8122066 34.4624413,39.8122066 C31.5594534,39.8122066 29.0712154,38.7754407 26.9976526,36.7018779 C24.9240898,34.6283151 23.8873239,32.1400771 23.8873239,29.2370892 L23.8873239,10.6995305 C23.8873239,9.28950782 23.3482057,8.0453888 22.2699531,6.96713615 C21.1917004,5.8888835 19.9475814,5.34976526 18.5375587,5.34976526 C17.127536,5.34976526 15.883417,5.8888835 14.8051643,6.96713615 C13.7269117,8.0453888 13.1877934,9.28950782 13.1877934,10.6995305 L13.1877934,29.2370892 L21.1502347,29.2370892 L10.5751174,39.8122066 L0,29.2370892 L7.96244131,29.2370892 L7.96244131,10.6995305 C7.96244131,7.79654261 8.99920716,5.28756926 11.07277,3.17253521 C13.1463327,1.05750116 15.6345708,0 18.5375587,0 C21.4405466,0 23.9287846,1.05750116 26.0023474,3.17253521 C28.0759102,5.28756926 29.1126761,7.79654261 29.1126761,10.6995305 L29.1126761,29.2370892 C29.1126761,30.6471119 29.6517943,31.8912309 30.7300469,32.9694836 C31.8082996,34.0477362 33.0524186,34.5868545 34.4624413,34.5868545 C35.872464,34.5868545 37.116583,34.0477362 38.1948357,32.9694836 C39.2730883,31.8912309 39.8122066,30.6471119 39.8122066,29.2370892 L39.8122066,10.6995305 L31.8497653,10.6995305 L42.4248826,0 Z" id="swap_calls"></path>
            </g>
        </g>
    </g>
</svg>