<?xml version="1.0" encoding="UTF-8"?>
<svg width="54px" height="64px" viewBox="0 0 54 64" version="1.1" xmlns="http://www.w3.org/2000/svg" xmlns:xlink="http://www.w3.org/1999/xlink">
    <!-- Generator: Sketch 43.2 (39069) - http://www.bohemiancoding.com/sketch -->
    <title>ic_grow</title>
    <desc>Created with Sketch.</desc>
    <defs></defs>
    <g id="New-website" stroke="none" stroke-width="1" fill="none" fill-rule="evenodd">
        <g id="Careers" transform="translate(-1229.000000, -911.000000)" stroke="#00B4FF" stroke-width="2">
            <g id="Group-5" transform="translate(0.000000, 816.000000)">
                <g id="Group-2" transform="translate(417.000000, 96.000000)">
                    <g id="ic_grow" transform="translate(812.000000, 0.000000)">
                        <path d="M32.46875,15.75 C31.062493,14.2499925 29.3281353,13.5 27.265625,13.5 C25.2031147,13.5 23.4453198,14.2499925 21.9921875,15.75 C20.5390552,17.2500075 19.8125,19.0312397 19.8125,21.09375 C19.8125,23.1562603 20.5390552,24.9140552 21.9921875,26.3671875 C23.4453198,27.8203198 25.2031147,28.546875 27.265625,28.546875 C29.3281353,28.546875 31.0859302,27.8203198 32.5390625,26.3671875 C33.9921948,24.9140552 34.71875,23.1562603 34.71875,21.09375 C34.71875,19.0312397 33.9687575,17.2500075 32.46875,15.75 Z M8,27.84375 C8,24.7499845 9.45311047,22.500007 12.359375,21.09375 C9.45311047,19.687493 8,17.4375155 8,14.34375 C8,12.2812397 8.7499925,10.5000075 10.25,9 C11.7500075,7.4999925 13.5312397,6.75 15.59375,6.75 C17.000007,6.75 18.406243,7.21874531 19.8125,8.15625 L19.8125,7.59375 C19.8125,5.53123969 20.5390552,3.7500075 21.9921875,2.25 C23.4453198,0.7499925 25.2031147,0 27.265625,0 C29.3281353,0 31.0859302,0.7499925 32.5390625,2.25 C33.9921948,3.7500075 34.71875,5.53123969 34.71875,7.59375 L34.71875,8.15625 C36.125007,7.21874531 37.531243,6.75 38.9375,6.75 C41.0000103,6.75 42.7812425,7.4999925 44.28125,9 C45.7812575,10.5000075 46.53125,12.2812397 46.53125,14.34375 C46.53125,17.4375155 45.0781395,19.687493 42.171875,21.09375 C45.0781395,22.500007 46.53125,24.7499845 46.53125,27.84375 C46.53125,29.9062603 45.7812575,31.6640552 44.28125,33.1171875 C42.7812425,34.5703198 41.0000103,35.296875 38.9375,35.296875 C37.343742,35.296875 35.9375061,34.8750042 34.71875,34.03125 L34.71875,34.59375 C34.71875,36.6562603 33.9921948,38.4140552 32.5390625,39.8671875 C31.0859302,41.3203198 29.3281353,42.046875 27.265625,42.046875 C25.2031147,42.046875 23.4453198,41.3203198 21.9921875,39.8671875 C20.5390552,38.4140552 19.8125,36.6562603 19.8125,34.59375 L19.8125,34.03125 C18.5937439,34.8750042 17.187508,35.296875 15.59375,35.296875 C13.5312397,35.296875 11.7500075,34.5703198 10.25,33.1171875 C8.7499925,31.6640552 8,29.9062603 8,27.84375 Z" id="local_florist" fill="#E5F7FF"></path>
                        <path d="M25.9827215,61.9829927 C19.1907648,61.7542014 13.4081593,59.216709 8.58524246,54.3507304 C3.76256366,49.4849919 1.24676484,43.7228535 1.01727846,37.0170073 C7.8092352,37.2457986 13.5918407,39.783291 18.4147575,44.6492696 C23.2374363,49.5150081 25.7532352,55.2771465 25.9827215,61.9829927 Z M28.0172785,61.9829927 C28.2467648,55.2771465 30.7625637,49.5150081 35.5852425,44.6492696 C40.4081593,39.783291 46.1907648,37.2457986 52.9827215,37.0170073 C52.7532352,43.7228535 50.2374363,49.4849919 45.4147575,54.3507304 C40.5918407,59.216709 34.8092352,61.7542014 28.0172785,61.9829927 Z" id="Path"></path>
                    </g>
                </g>
            </g>
        </g>
    </g>
</svg>