<?xml version="1.0" encoding="UTF-8"?>
<svg width="51px" height="68px" viewBox="0 0 51 68" version="1.1" xmlns="http://www.w3.org/2000/svg" xmlns:xlink="http://www.w3.org/1999/xlink">
    <!-- Generator: Sketch 43.2 (39069) - http://www.bohemiancoding.com/sketch -->
    <title>ic_impact</title>
    <desc>Created with Sketch.</desc>
    <defs></defs>
    <g id="New-website" stroke="none" stroke-width="1" fill="none" fill-rule="evenodd">
        <g id="Careers" transform="translate(-822.000000, -909.000000)" stroke="#00B4FF" stroke-width="2">
            <g id="Group-5" transform="translate(0.000000, 816.000000)">
                <g id="Group-2" transform="translate(417.000000, 96.000000)">
                    <g id="ic_impact" transform="translate(406.000000, 0.000000)">
                        <path d="M28.5449229,0 C34.5445426,4.87469101 39.3019821,10.8039137 42.8173843,17.787846 C46.3327865,24.7717783 48.0904612,32.2008835 48.0904612,40.0753843 C48.0904612,46.6374684 45.7468949,52.2620275 41.059692,56.9492304 C36.3724891,61.6364333 30.7010587,63.9799995 24.0452306,63.9799995 C17.3894025,63.9799995 11.7179721,61.6364333 7.03076918,56.9492304 C2.34356629,52.2620275 0,46.6374684 0,40.0753843 C0,29.9510261 3.23412148,21.0454742 9.70246147,13.3584614 L9.70246147,14.4833845 C9.70246147,17.5769384 10.7336306,20.2017327 12.7959999,22.357846 C14.8583692,24.5139593 17.4362921,25.5919998 20.529846,25.5919998 C23.5296559,25.5919998 25.9904005,24.537395 27.9121536,22.4281537 C29.8339068,20.3189124 30.794769,17.6706825 30.794769,14.4833845 C30.794769,12.6085034 30.6072837,10.4524224 30.2323075,8.01507687 C29.8573312,5.57773136 29.4823606,3.656007 29.1073844,2.24984614 L28.5449229,0 Z" id="whatshot" fill="#E5F7FF"></path>
                        <path d="M22.703125,54.4375 C26.7343952,54.4375 30.1327987,53.0547013 32.8984375,50.2890625 C35.6640763,47.5234237 37.046875,44.1250202 37.046875,40.09375 C37.046875,35.9687294 36.4843806,31.9375197 35.359375,28 C32.4531105,31.8437692 27.8125319,34.4218684 21.4375,35.734375 C15.8124719,36.9531311 13,40.0468502 13,45.015625 C13,47.6406381 13.9374906,49.8671784 15.8125,51.6953125 C17.6875094,53.5234466 19.9843614,54.4375 22.703125,54.4375 Z" id="Path" fill="#FFFFFF"></path>
                    </g>
                </g>
            </g>
        </g>
    </g>
</svg>