<?xml version="1.0" encoding="UTF-8"?>
<svg width="65px" height="65px" viewBox="0 0 65 65" version="1.1" xmlns="http://www.w3.org/2000/svg" xmlns:xlink="http://www.w3.org/1999/xlink">
    <!-- Generator: Sketch 43.2 (39069) - http://www.bohemiancoding.com/sketch -->
    <title>ic_problem</title>
    <desc>Created with Sketch.</desc>
    <defs></defs>
    <g id="New-website" stroke="none" stroke-width="1" fill="none" fill-rule="evenodd">
        <g id="Careers" transform="translate(-416.000000, -911.000000)" stroke-width="2" stroke="#00B4FF" fill="#E5F7FF">
            <g id="Group-5" transform="translate(0.000000, 816.000000)">
                <g id="Group-2" transform="translate(417.000000, 96.000000)">
                    <g id="ic_problem">
                        <path d="M55.40625,30.09375 C57.4687603,30.09375 59.2499925,30.8203052 60.75,32.2734375 C62.2500075,33.7265698 63,35.4843647 63,37.546875 C63,39.6093853 62.2500075,41.3671802 60.75,42.8203125 C59.2499925,44.2734448 57.4687603,45 55.40625,45 L50.90625,45 L50.90625,57.09375 C50.90625,58.687508 50.3203184,60.0703066 49.1484375,61.2421875 C47.9765566,62.4140684 46.593758,63 45,63 L33.609375,63 L33.609375,58.5 C33.609375,56.2499887 32.812508,54.3515702 31.21875,52.8046875 C29.624992,51.2578048 27.7031363,50.484375 25.453125,50.484375 C23.2031137,50.484375 21.281258,51.2578048 19.6875,52.8046875 C18.093742,54.3515702 17.296875,56.2499887 17.296875,58.5 L17.296875,63 L5.90625,63 C4.31249203,63 2.92969336,62.4140684 1.7578125,61.2421875 C0.585931641,60.0703066 0,58.687508 0,57.09375 L0,45.703125 L4.5,45.703125 C6.75001125,45.703125 8.64842977,44.906258 10.1953125,43.3125 C11.7421952,41.718742 12.515625,39.7968862 12.515625,37.546875 C12.515625,35.2968637 11.7421952,33.375008 10.1953125,31.78125 C8.64842977,30.187492 6.75001125,29.390625 4.5,29.390625 L0,29.390625 L0,18 C0,16.406242 0.585931641,15.0234434 1.7578125,13.8515625 C2.92969336,12.6796816 4.31249203,12.09375 5.90625,12.09375 L18,12.09375 L18,7.59375 C18,5.53123969 18.7265552,3.7500075 20.1796875,2.25 C21.6328198,0.7499925 23.3906147,0 25.453125,0 C27.5156353,0 29.2734302,0.7499925 30.7265625,2.25 C32.1796948,3.7500075 32.90625,5.53123969 32.90625,7.59375 L32.90625,12.09375 L45,12.09375 C46.593758,12.09375 47.9765566,12.6796816 49.1484375,13.8515625 C50.3203184,15.0234434 50.90625,16.406242 50.90625,18 L50.90625,30.09375 L55.40625,30.09375 Z" id="hard_problems"></path>
                    </g>
                </g>
            </g>
        </g>
    </g>
</svg>