<?xml version="1.0" encoding="UTF-8"?>
<svg width="53px" height="53px" viewBox="0 0 53 53" version="1.1" xmlns="http://www.w3.org/2000/svg" xmlns:xlink="http://www.w3.org/1999/xlink">
    <!-- Generator: Sketch 43.2 (39069) - http://www.bohemiancoding.com/sketch -->
    <title>ic_remote</title>
    <desc>Created with Sketch.</desc>
    <defs></defs>
    <g id="New-website" stroke="none" stroke-width="1" fill="none" fill-rule="evenodd">
        <g id="Careers" transform="translate(-640.000000, -1974.000000)" stroke="#00B4FF" stroke-width="2">
            <g id="ic_remote" transform="translate(640.000000, 1974.000000)">
                <path d="M8.4207218,8.54513495 C13.4592113,3.50664547 19.4672028,1 26.5,1 C33.5333958,1 39.5204696,3.48632633 44.5170716,8.48292838 C49.5136737,13.4795304 52,19.4666042 52,26.5 C52,33.5333958 49.5136737,39.5204696 44.5170716,44.5170716 C39.5204696,49.5136737 33.5333958,52 26.5,52 C19.4666042,52 13.4795304,49.5136737 8.48292838,44.5170716 C3.48632633,39.5204696 1,33.5333958 1,26.5 C1,19.4660056 3.46601397,13.4998428 8.4207218,8.54513495 L8.4207218,8.54513495 Z" id="Path"></path>
                <path d="M23.8873239,47.5258216 L23.8873239,42.4248826 C22.4773012,42.4248826 21.2331822,41.8857644 20.1549296,40.8075117 C19.0766769,39.7292591 18.5375587,38.4851401 18.5375587,37.0751174 L18.5375587,34.4624413 L5.84741784,21.7723005 C5.43270528,23.4311507 5.22535211,25.0070348 5.22535211,26.5 C5.22535211,31.8912633 7.02932468,36.5774449 10.6373239,40.5586854 C14.2453232,44.539926 18.6619457,46.8622815 23.8873239,47.5258216 Z" id="public" fill="#E5F7FF"></path>
                <path d="M42.1760563,40.8075117 C45.9084694,36.8262712 47.7746479,32.0571483 47.7746479,26.5 C47.7746479,22.1040469 46.5512642,18.122866 44.1044601,14.556338 C41.657656,10.98981 38.4436819,8.41863073 34.4624413,6.842723 L34.4624413,7.96244131 C34.4624413,9.37246401 33.9233231,10.5958477 32.8450704,11.6326291 C31.7668178,12.6694105 30.5226988,13.1877934 29.1126761,13.1877934 L23.8873239,13.1877934 L23.8873239,18.5375587 C23.8873239,19.2840413 23.6177648,19.9061008 23.0786385,20.4037559 C22.5395122,20.9014109 21.8967173,21.1502347 21.1502347,21.1502347 L15.9248826,21.1502347 L15.9248826,26.5 L31.8497653,26.5 C32.5962479,26.5 33.2183074,26.7488238 33.7159624,27.2464789 C34.2136175,27.7441339 34.4624413,28.3661935 34.4624413,29.1126761 L34.4624413,37.0751174 L37.0751174,37.0751174 C39.5633927,37.0751174 41.2636887,38.3192364 42.1760563,40.8075117 Z" id="Path" fill="#E5F7FF"></path>
            </g>
        </g>
    </g>
</svg>