<?xml version="1.0" encoding="UTF-8"?>
<svg width="54px" height="54px" viewBox="0 0 54 54" version="1.1" xmlns="http://www.w3.org/2000/svg" xmlns:xlink="http://www.w3.org/1999/xlink">
    <!-- Generator: Sketch 43.2 (39069) - http://www.bohemiancoding.com/sketch -->
    <title>ic_salary</title>
    <desc>Created with Sketch.</desc>
    <defs></defs>
    <g id="New-website" stroke="none" stroke-width="1" fill="none" fill-rule="evenodd">
        <g id="Careers" transform="translate(-640.000000, -2277.000000)" stroke="#00B4FF" stroke-width="2">
            <g id="ic_salary" transform="translate(640.000000, 2277.000000)">
                <path d="M8.83210678,8.95710678 C13.8952443,3.89396929 19.9327738,1.375 27,1.375 C34.0678247,1.375 40.0843388,3.87355234 45.1053932,8.89460678 C50.1264477,13.9156612 52.625,19.9321753 52.625,27 C52.625,34.0678247 50.1264477,40.0843388 45.1053932,45.1053932 C40.0843388,50.1264477 34.0678247,52.625 27,52.625 C19.9321753,52.625 13.9156612,50.1264477 8.89460678,45.1053932 C3.87355234,40.0843388 1.375,34.0678247 1.375,27 C1.375,19.9315766 3.85314217,13.9360714 8.83210678,8.95710678 L8.83210678,8.95710678 Z" id="Path"></path>
                <path d="M30.75,43.25 C36.3333613,42.1666612 39.125,39.3750225 39.125,34.875 C39.125,29.7916412 35.3750375,26.2916762 27.875,24.375 C23.20831,23.2083275 20.875,21.5000113 20.875,19.25 C20.875,17.9999938 21.4374944,16.9583375 22.5625,16.125 C23.6875056,15.2916625 25.24999,14.875 27.25,14.875 C31.0000187,14.875 32.9583325,16.54165 33.125,19.875 L38.375,19.875 C38.2083325,15.1249763 35.6666912,12.1250062 30.75,10.875 L30.75,5.625 L23.625,5.625 L23.625,10.875 C21.2083213,11.3750025 19.2291744,12.3541594 17.6875,13.8125 C16.1458256,15.2708406 15.375,17.1249887 15.375,19.375 C15.375,24.04169 19.0832962,27.2916575 26.5,29.125 C31.2500237,30.2083388 33.625,32.1249862 33.625,34.875 C33.625,35.9583388 33.1458381,36.9374956 32.1875,37.8125 C31.2291619,38.6875044 29.583345,39.125 27.25,39.125 C22.8333112,39.125 20.458335,37.45835 20.125,34.125 L14.875,34.125 C15.1250012,38.8750237 18.0416387,41.8749938 23.625,43.125 L23.625,48.375 L30.75,48.375 L30.75,43.25 Z" id="monetization_on" fill="#E5F7FF"></path>
            </g>
        </g>
    </g>
</svg>