<?xml version="1.0" encoding="UTF-8"?>
<svg width="92px" height="87px" viewBox="0 0 92 87" version="1.1" xmlns="http://www.w3.org/2000/svg" xmlns:xlink="http://www.w3.org/1999/xlink">
    <!-- Generator: Sketch 55.2 (78181) - https://sketchapp.com -->
    <title>Publishers</title>
    <desc>Created with Sketch.</desc>
    <g id="Page-1" stroke="none" stroke-width="1" fill="none" fill-rule="evenodd">
        <g id="Circlewise-Advertiser" transform="translate(-169.000000, -787.000000)">
            <g id="Publishers" transform="translate(165.000000, 777.000000)">
                <g id="Group" transform="translate(4.000000, 27.000000)"></g>
                <rect id="Rectangle" fill-opacity="0" fill="#FFFFFF" x="0" y="0" width="100" height="100"></rect>
                <circle id="Oval" fill="#E4F2F8" cx="50" cy="50" r="40"></circle>
                <circle id="Oval" fill="#D02E7D" cx="32" cy="32" r="5"></circle>
                <circle id="Oval" fill="#FFB900" cx="42" cy="90" r="7"></circle>
                <circle id="Oval" fill="#46A7CD" cx="87" cy="31" r="4"></circle>
                <path d="M95.4329738,62.4591837 C95.4329738,62.4591837 96,67.2295918 96,71.7193878 L93.8736518,71.8596939 L71.192604,71.7193878 L69.0662558,71.8596939 L30.9337442,72 L28.807396,71.8596939 L6.12634823,72 L4,71.8596939 C4.14175655,67.2295918 4.70878274,62.3188776 4.70878274,62.3188776 C4.70878274,61.1964286 5.13405239,59.7933673 5.84283513,58.5306122 C6.55161787,57.127551 7.82742681,56.1454082 9.38674884,55.5841837 L14.7734977,53.619898 L19.5932203,62.4591837 L20.8690293,62.4591837 L25.6887519,53.619898 L30.7919877,55.4438776 C30.9337442,55.1632653 31.0755008,54.8826531 31.2172573,54.6020408 C32.2095532,52.9183673 33.7688752,51.6556122 35.7534669,50.9540816 L42.6995378,48.4285714 L48.9368259,59.9336735 L51.0631741,59.9336735 L57.3004622,48.4285714 L64.2465331,50.9540816 C66.2311248,51.6556122 67.7904468,52.9183673 68.7827427,54.6020408 C68.9244992,54.8826531 69.0662558,55.1632653 69.2080123,55.4438776 L74.3112481,53.619898 L79.1309707,62.4591837 L80.4067797,62.4591837 L85.2265023,53.619898 L90.7550077,55.5841837 C92.3143297,56.1454082 93.5901387,57.127551 94.2989214,58.5306122 C95.0077042,59.9336735 95.4329738,61.1964286 95.4329738,62.4591837 Z M50,46.2857143 C44.6976744,46.2857143 40.372093,41.9534161 40.372093,36.6428571 C40.372093,31.3322981 44.6976744,27 50,27 C55.3023256,27 59.627907,31.3322981 59.627907,36.6428571 C59.627907,41.9534161 55.3023256,46.2857143 50,46.2857143 Z M79.4186047,51.6428571 C75.0422833,51.6428571 71.3953488,48.3701299 71.3953488,44.1428571 C71.3953488,40.0519481 75.0422833,36.6428571 79.4186047,36.6428571 C83.794926,36.6428571 87.4418605,40.0519481 87.4418605,44.1428571 C87.4418605,48.2337662 83.794926,51.6428571 79.4186047,51.6428571 Z M20.5813953,51.6428571 C16.205074,51.6428571 12.5581395,48.3701299 12.5581395,44.1428571 C12.5581395,40.0519481 16.205074,36.6428571 20.5813953,36.6428571 C24.9577167,36.6428571 28.6046512,40.0519481 28.6046512,44.1428571 C28.6046512,48.2337662 24.9577167,51.6428571 20.5813953,51.6428571 Z" id="Path-Copy-2" fill="#FFFFFF" fill-rule="nonzero"></path>
                <path d="M61.6318388,71.5379143 L61.1336125,63.6512801 L63.2524433,63.518226 L63.7506696,71.4048601 L61.6318388,71.5379143 Z M38.3517921,71.6164788 L36.2329613,71.482851 L36.7333357,63.5962169 L38.8521665,63.7298447 L38.3517921,71.6164788 Z M88.314425,71.5392628 L87.9317186,65.4834545 L90.0505494,65.3503517 L90.4332557,71.40616 L88.314425,71.5392628 Z M11.7830149,71.4943412 L9.66418417,71.3607133 L10.0484002,65.304905 L12.167231,65.4385328 L11.7830149,71.4943412 Z M95.4329738,62.4591837 C95.4329738,62.4591837 96,67.2295918 96,71.7193878 L93.8736518,71.8596939 C93.7318952,67.2295918 93.164869,62.4591837 93.164869,62.4591837 C93.164869,61.1964286 92.7395994,60.2142857 92.3143297,59.5127551 C91.8890601,58.6709184 90.8967643,57.9693878 89.9044684,57.5484694 L86.0770416,56.1454082 L81.540832,64.5637755 L77.7134052,64.5637755 L73.1771957,56.1454082 L69.9167951,57.2678571 C70.0585516,57.9693878 70.2003082,58.6709184 70.2003082,59.372449 C70.2003082,59.372449 70.9090909,65.5459184 71.192604,71.7193878 L69.0662558,71.8596939 C68.7827427,65.8265306 68.0739599,59.5127551 68.0739599,59.5127551 C68.0739599,57.9693878 67.5069337,56.5663265 66.9399076,55.5841837 C66.2311248,54.3214286 64.9553159,53.3392857 63.5377504,52.7780612 L58.2927581,50.9540816 L52.3389831,61.8979592 L47.6610169,61.8979592 L41.7072419,50.9540816 L36.4622496,52.7780612 C34.9029276,53.3392857 33.7688752,54.3214286 33.0600924,55.5841837 C32.6348228,56.5663265 31.9260401,57.9693878 31.9260401,59.5127551 C31.9260401,59.6530612 31.2172573,65.9668367 30.9337442,72 L28.807396,71.8596939 C29.0909091,65.6862245 29.7996918,59.372449 29.7996918,59.372449 C29.7996918,58.8112245 29.9414484,58.1096939 30.0832049,57.4081633 L26.8228043,56.2857143 L22.2865948,64.7040816 L18.459168,64.7040816 L13.9229584,56.2857143 L10.0955316,57.6887755 C9.10323575,57.9693878 8.25269646,58.8112245 7.68567026,59.6530612 C7.26040062,60.3545918 6.83513097,61.3367347 6.83513097,62.4591837 C6.83513097,62.5994898 6.26810478,67.369898 6.12634823,72 L4,71.8596939 C4.14175655,67.2295918 4.70878274,62.3188776 4.70878274,62.3188776 C4.70878274,61.1964286 5.13405239,59.7933673 5.84283513,58.5306122 C6.55161787,57.127551 7.82742681,56.1454082 9.38674884,55.5841837 L14.7734977,53.619898 L19.5932203,62.4591837 L20.8690293,62.4591837 L25.6887519,53.619898 L30.7919877,55.4438776 C30.9337442,55.1632653 31.0755008,54.8826531 31.2172573,54.6020408 C32.2095532,52.9183673 33.7688752,51.6556122 35.7534669,50.9540816 L42.6995378,48.4285714 L48.9368259,59.9336735 L51.0631741,59.9336735 L57.3004622,48.4285714 L64.2465331,50.9540816 C66.2311248,51.6556122 67.7904468,52.9183673 68.7827427,54.6020408 C68.9244992,54.8826531 69.0662558,55.1632653 69.2080123,55.4438776 L74.3112481,53.619898 L79.1309707,62.4591837 L80.4067797,62.4591837 L85.2265023,53.619898 L90.7550077,55.5841837 C92.3143297,56.1454082 93.5901387,57.127551 94.2989214,58.5306122 C95.0077042,59.9336735 95.4329738,61.1964286 95.4329738,62.4591837 Z M50,46.2857143 C44.6976744,46.2857143 40.372093,41.9534161 40.372093,36.6428571 C40.372093,31.3322981 44.6976744,27 50,27 C55.3023256,27 59.627907,31.3322981 59.627907,36.6428571 C59.627907,41.9534161 55.3023256,46.2857143 50,46.2857143 Z M50,28.9565217 C45.8139535,28.9565217 42.3255814,32.310559 42.3255814,36.6428571 C42.3255814,40.9751553 45.8139535,44.3291925 50,44.3291925 C54.3255814,44.3291925 57.6744186,40.9751553 57.6744186,36.6428571 C57.6744186,32.310559 54.1860465,28.9565217 50,28.9565217 Z M79.4186047,51.6428571 C75.0422833,51.6428571 71.3953488,48.3701299 71.3953488,44.1428571 C71.3953488,40.0519481 75.0422833,36.6428571 79.4186047,36.6428571 C83.794926,36.6428571 87.4418605,40.0519481 87.4418605,44.1428571 C87.4418605,48.2337662 83.794926,51.6428571 79.4186047,51.6428571 Z M79.4186047,38.6883117 C76.2093023,38.6883117 73.5835095,41.1428571 73.5835095,44.1428571 C73.5835095,47.1428571 76.2093023,49.5974026 79.4186047,49.5974026 C82.627907,49.5974026 85.2536998,47.1428571 85.2536998,44.1428571 C85.2536998,41.1428571 82.627907,38.6883117 79.4186047,38.6883117 Z M20.5813953,51.6428571 C16.205074,51.6428571 12.5581395,48.3701299 12.5581395,44.1428571 C12.5581395,40.0519481 16.205074,36.6428571 20.5813953,36.6428571 C24.9577167,36.6428571 28.6046512,40.0519481 28.6046512,44.1428571 C28.6046512,48.2337662 24.9577167,51.6428571 20.5813953,51.6428571 Z M20.5813953,38.6883117 C17.372093,38.6883117 14.7463002,41.1428571 14.7463002,44.1428571 C14.7463002,47.1428571 17.372093,49.5974026 20.5813953,49.5974026 C23.7906977,49.5974026 26.4164905,47.1428571 26.4164905,44.1428571 C26.4164905,41.1428571 23.7906977,38.6883117 20.5813953,38.6883117 Z" id="Stroke" fill="#000000" fill-rule="nonzero"></path>
            </g>
        </g>
    </g>
</svg>