<?xml version="1.0" encoding="UTF-8"?>
<svg width="91px" height="80px" viewBox="0 0 91 80" version="1.1" xmlns="http://www.w3.org/2000/svg" xmlns:xlink="http://www.w3.org/1999/xlink">
    <!-- Generator: Sketch 55.2 (78181) - https://sketchapp.com -->
    <title>Transactions</title>
    <desc>Created with Sketch.</desc>
    <g id="Page-1" stroke="none" stroke-width="1" fill="none" fill-rule="evenodd">
        <g id="Circlewise-Advertiser" transform="translate(-933.000000, -787.000000)">
            <g id="Transactions" transform="translate(925.000000, 777.000000)">
                <rect id="Rectangle" fill-opacity="0" fill="#FFFFFF" x="0" y="0" width="100" height="100"></rect>
                <circle id="Oval" fill="#E4F2F8" cx="50" cy="50" r="40"></circle>
                <circle id="Oval" fill="#D02E7D" cx="24" cy="32" r="5"></circle>
                <circle id="Oval" fill="#FFB900" cx="50" cy="80" r="7"></circle>
                <circle id="Oval" fill="#46A7CD" cx="95" cy="47" r="4"></circle>
                <path d="M90.6070087,58.1974522 C89.5855929,55.7770701 86.7766992,54.6305732 84.3508365,55.6496815 L66.7314127,63.4203822 C66.7314127,63.1656051 66.8590897,62.910828 66.8590897,62.5286624 C66.8590897,61 66.0930278,59.5987261 64.8162579,58.8343949 C68.2635365,55.522293 70.1786913,50.9363057 70.3063683,46.2229299 C71.7108151,46.7324841 73.1152619,46.9872611 74.6473857,46.9872611 C75.6688016,46.9872611 76.6902175,46.8598726 77.5839564,46.6050955 C80.775881,45.8407643 83.4570976,43.8025478 85.1168984,41 C86.7766992,38.1974522 87.2874071,34.8853503 86.5213452,31.7006369 C85.7552833,28.5159236 83.7124516,25.8407643 80.9035579,24.1847134 C78.0946643,22.5286624 74.7750627,22.0191083 71.5831381,22.7834395 C67.3697976,23.8025478 64.050196,27.1146497 62.7734262,31.1910828 C62.3903952,30.9363057 62.0073643,30.6815287 61.4966564,30.2993631 C57.4109929,27.7515924 52.5592675,27.1146497 47.835219,28.2611465 C46.0477413,28.6433121 44.3879405,29.4076433 42.9834937,30.2993631 C42.7281397,25.2038217 38.3871222,21 33.1523659,21 C27.6622556,21 23.3212381,25.4585987 23.3212381,30.8089172 C23.3212381,36.1592357 27.7899325,40.6178344 33.1523659,40.6178344 C33.7907508,40.6178344 34.4291357,40.6178344 34.9398437,40.4904459 C34.0461048,43.5477707 33.7907508,46.8598726 34.6844897,50.044586 C34.9398437,50.8089172 35.1951976,51.5732484 35.4505516,52.3375796 C35.1951976,52.3375796 34.9398437,52.3375796 34.8121667,52.3375796 L27.6622556,52.3375796 L27.6622556,49.1528662 L8,49.1528662 L8,51.0636943 L11.5749556,76.1592357 L11.5749556,78.0700637 L27.6622556,78.0700637 L27.6622556,74.8853503 L33.0246889,74.8853503 L50.0057278,80.4904459 C51.1548206,80.8726115 52.3039135,81 53.4530064,81 C55.2404841,81 57.0279619,80.6178344 58.5600857,79.7261146 L88.0534691,64.4394904 C91.7561016,62.656051 91.1177167,59.343949 90.6070087,58.1974522 Z" id="Fill" fill="#FFFFFF" fill-rule="nonzero"></path>
                <path d="M90.6070087,58.1974522 C89.5855929,55.7770701 86.7766992,54.6305732 84.3508365,55.6496815 L66.7314127,63.4203822 C66.7314127,63.1656051 66.8590897,62.910828 66.8590897,62.5286624 C66.8590897,61 66.0930278,59.5987261 64.8162579,58.8343949 C68.2635365,55.522293 70.1786913,50.9363057 70.3063683,46.2229299 C71.7108151,46.7324841 73.1152619,46.9872611 74.6473857,46.9872611 C75.6688016,46.9872611 76.6902175,46.8598726 77.5839564,46.6050955 C80.775881,45.8407643 83.4570976,43.8025478 85.1168984,41 C86.7766992,38.1974522 87.2874071,34.8853503 86.5213452,31.7006369 C85.7552833,28.5159236 83.7124516,25.8407643 80.9035579,24.1847134 C78.0946643,22.5286624 74.7750627,22.0191083 71.5831381,22.7834395 C67.3697976,23.8025478 64.050196,27.1146497 62.7734262,31.1910828 C62.3903952,30.9363057 62.0073643,30.6815287 61.4966564,30.2993631 C57.4109929,27.7515924 52.5592675,27.1146497 47.835219,28.2611465 C46.0477413,28.6433121 44.3879405,29.4076433 42.9834937,30.2993631 C42.7281397,25.2038217 38.3871222,21 33.1523659,21 C27.6622556,21 23.3212381,25.4585987 23.3212381,30.8089172 C23.3212381,36.1592357 27.7899325,40.6178344 33.1523659,40.6178344 C33.7907508,40.6178344 34.4291357,40.6178344 34.9398437,40.4904459 C34.0461048,43.5477707 33.7907508,46.8598726 34.6844897,50.044586 C34.9398437,50.8089172 35.1951976,51.5732484 35.4505516,52.3375796 C35.1951976,52.3375796 34.9398437,52.3375796 34.8121667,52.3375796 L27.6622556,52.3375796 L27.6622556,49.1528662 L8,49.1528662 L8,51.0636943 L25.7471008,51.0636943 L25.7471008,76.1592357 L11.5749556,76.1592357 L11.5749556,78.0700637 L27.6622556,78.0700637 L27.6622556,74.8853503 L33.0246889,74.8853503 L50.0057278,80.4904459 C51.1548206,80.8726115 52.3039135,81 53.4530064,81 C55.2404841,81 57.0279619,80.6178344 58.5600857,79.7261146 L88.0534691,64.4394904 C91.7561016,62.656051 91.1177167,59.343949 90.6070087,58.1974522 Z M72.093846,24.6942675 C74.7750627,24.0573248 77.5839564,24.4394904 79.8821421,25.8407643 C82.3080048,27.2420382 83.9678056,29.5350318 84.6061905,32.2101911 C85.2445754,34.8853503 84.8615444,37.6878981 83.4570976,39.9808917 C82.0526508,42.4012739 79.7544651,44.0573248 77.0732484,44.6942675 C74.7750627,45.2038217 72.3492,45.0764331 70.1786913,44.0573248 C70.0510143,43.1656051 69.9233373,42.2738854 69.7956603,41.5095541 C68.9019214,38.0700637 67.1144437,34.8853503 64.433227,32.5923567 C65.3269659,28.6433121 68.2635365,25.5859873 72.093846,24.6942675 Z M48.345927,30.1719745 C52.5592675,29.1528662 56.9002849,29.7898089 60.6029175,31.955414 C64.30555,34.1210191 66.8590897,37.6878981 67.8805056,41.8917197 C69.2849524,47.7515924 67.2421206,54.1210191 62.6457492,58.0700637 C62.5180722,58.0700637 62.5180722,58.0700637 62.3903952,58.0700637 L62.3903952,58.0700637 L62.3903952,58.0700637 C62.3903952,58.0700637 62.3903952,58.0700637 62.2627183,58.0700637 L62.2627183,58.0700637 L50.1334048,58.0700637 L40.9406619,53.7388535 C39.919246,53.2292994 38.7701532,52.8471338 37.6210603,52.7197452 C37.1103524,51.7006369 36.8549984,50.8089172 36.5996444,49.6624204 C34.4291357,41.1273885 39.791569,32.3375796 48.345927,30.1719745 Z M33.2800429,38.8343949 C28.9390254,38.8343949 25.3640698,35.2675159 25.3640698,30.9363057 C25.3640698,26.6050955 28.9390254,23.0382166 33.2800429,23.0382166 C37.6210603,23.0382166 41.1960159,26.6050955 41.1960159,30.9363057 C41.1960159,31.1910828 41.1960159,31.4458599 41.1960159,31.7006369 C38.8978302,33.4840764 37.1103524,35.7770701 35.9612595,38.3248408 C35.0675206,38.7070064 34.1737817,38.8343949 33.2800429,38.8343949 Z M87.2874071,62.656051 L57.6663468,78.0700637 C55.4958381,79.2165605 52.9422984,79.343949 50.5164357,78.5796178 L33.5353968,72.9745223 L27.6622556,72.9745223 L27.6622556,54.3757962 L34.8121667,54.3757962 C36.5996444,54.3757962 38.5147992,54.7579618 40.1746,55.522293 L49.8780508,59.9808917 L62.5180722,59.9808917 C63.9225191,59.9808917 64.9439349,61.1273885 64.9439349,62.5286624 C64.9439349,63.9299363 63.7948421,65.0764331 62.3903952,65.0764331 L47.5798651,65.0764331 L47.4521881,65.0764331 C46.0477413,65.3312102 43.4942016,66.477707 43.4942016,69.1528662 L45.4093564,69.1528662 C45.4093564,67.6242038 47.3245111,67.1146497 47.7075421,66.9872611 L62.5180722,66.9872611 C63.2841341,66.9872611 63.9225191,66.7324841 64.560904,66.477707 L85.1168984,57.433121 C86.5213452,56.7961783 88.308823,57.5605096 88.819531,58.9617834 C89.2025619,59.5987261 89.4579159,61.5095541 87.2874071,62.656051 Z M20,71 L22,71 L22,73 L20,73 L20,71 Z M16,71 L18,71 L18,73 L16,73 L16,71 Z M73.5396825,38.6721311 C74.3015873,39.3278689 75.5714286,39.3278689 76.2063492,38.6721311 C76.5873016,38.4098361 76.7142857,38.0163934 76.7142857,37.6229508 C76.7142857,37.2295082 76.5873016,36.8360656 76.2063492,36.5737705 C75.8253968,36.1803279 75.3174603,36.0491803 74.8095238,36.0491803 C73.7936508,36.0491803 72.9047619,35.6557377 72.1428571,35 C71.3809524,34.3442623 71,33.4262295 71,32.3770492 C71,31.3278689 71.3809524,30.4098361 72.1428571,29.7540984 C72.6507937,29.2295082 73.2857143,28.9672131 73.9206349,28.8360656 L73.9206349,27 L76.0793651,27 L76.0793651,28.8360656 C76.7142857,29.0983607 77.3492063,29.3606557 77.8571429,29.7540984 C78.6190476,30.4098361 79,31.3278689 79,32.3770492 L77.0952381,32.3770492 C77.0952381,31.9836066 76.968254,31.5901639 76.5873016,31.3278689 C75.8253968,30.6721311 74.4285714,30.6721311 73.6666667,31.3278689 C73.2857143,31.5901639 73.1587302,31.9836066 73.1587302,32.3770492 C73.1587302,32.7704918 73.2857143,33.1639344 73.6666667,33.4262295 C74.047619,33.8196721 74.5555556,33.9508197 75.0634921,33.9508197 C76.0793651,33.9508197 76.968254,34.3442623 77.7301587,35 C78.4920635,35.6557377 78.8730159,36.5737705 78.8730159,37.6229508 C78.8730159,38.6721311 78.4920635,39.5901639 77.7301587,40.2459016 C77.2222222,40.7704918 76.5873016,41.0327869 75.952381,41.1639344 L75.952381,43 L74.047619,43 L74.047619,41.1639344 C73.4126984,41.0327869 72.7777778,40.6393443 72.2698413,40.2459016 C71.5079365,39.5901639 71.1269841,38.6721311 71.1269841,37.6229508 L73.031746,37.6229508 C73.031746,38.0163934 73.1587302,38.4098361 73.5396825,38.6721311 Z M49.9764706,52.0324324 C51.4,53.2 53.7294118,53.2 55.0235294,51.9027027 C55.6705882,51.2540541 56.0588235,50.6054054 56.0588235,49.827027 C56.0588235,49.1783784 55.6705882,48.4 55.0235294,47.8810811 C54.2470588,47.2324324 53.3411765,46.972973 52.4352941,46.972973 C51.0117647,46.972973 49.7176471,46.4540541 48.6823529,45.5459459 C47.6470588,44.6378378 47,43.3405405 47,42.0432432 C47,40.7459459 47.6470588,39.4486486 48.6823529,38.5405405 C49.4588235,37.7621622 50.4941176,37.372973 51.5294118,37.2432432 L51.5294118,34 L53.4705882,34 L53.4705882,37.2432432 C54.5058824,37.5027027 55.5411765,37.8918919 56.3176471,38.5405405 C57.3529412,39.4486486 58,40.7459459 58,42.0432432 L56.0588235,42.0432432 C56.0588235,41.2648649 55.6705882,40.4864865 55.0235294,39.9675676 C53.7294118,38.8 51.2705882,38.8 49.9764706,39.9675676 C49.3294118,40.6162162 48.9411765,41.2648649 48.9411765,42.0432432 C48.9411765,42.8216216 49.3294118,43.6 49.9764706,44.1189189 C50.7529412,44.7675676 51.6588235,45.027027 52.5647059,45.027027 C53.9882353,45.027027 55.2823529,45.5459459 56.3176471,46.4540541 C57.3529412,47.3621622 58,48.6594595 58,49.9567568 C58,51.2540541 57.3529412,52.5513514 56.3176471,53.4594595 C55.5411765,54.1081081 54.5058824,54.627027 53.4705882,54.7567568 L53.4705882,58 L51.5294118,58 L51.5294118,54.7567568 C50.4941176,54.627027 49.4588235,54.1081081 48.6823529,53.4594595 C47.6470588,52.5513514 47,51.2540541 47,49.9567568 L48.9411765,49.9567568 C48.9411765,50.7351351 49.3294118,51.5135135 49.9764706,52.0324324 Z M35.0588235,30.8105263 C35.6470588,31.3157895 36,32.0736842 36,32.9578947 C36,33.8421053 35.6470588,34.6 35.0588235,35.1052632 C34.7058824,35.3578947 34.3529412,35.6105263 33.8823529,35.7368421 L33.8823529,37 L32.1176471,37 L32.1176471,35.7368421 C31.6470588,35.6105263 31.2941176,35.4842105 30.9411765,35.1052632 C30.3529412,34.4736842 30,33.7157895 30,32.9578947 L31.7647059,32.9578947 C31.7647059,33.2105263 32,33.4631579 32.1176471,33.5894737 C32.5882353,34.0947368 33.5294118,34.0947368 34,33.5894737 C34.1176471,33.4631579 34.3529412,33.3368421 34.3529412,32.9578947 C34.3529412,32.7052632 34.1176471,32.4526316 34,32.3263158 C33.7647059,32.0736842 33.4117647,31.9473684 33.0588235,31.9473684 C32.2352941,31.9473684 31.5294118,31.6947368 30.9411765,31.1894737 C30.3529412,30.5578947 30,29.8 30,29.0421053 C30,28.1578947 30.3529412,27.4 30.9411765,26.8947368 C31.2941176,26.6421053 31.6470588,26.3894737 32.1176471,26.2631579 L32.1176471,25 L33.8823529,25 L33.8823529,26.2631579 C34.3529412,26.3894737 34.7058824,26.6421053 35.0588235,26.8947368 C35.6470588,27.5263158 36,28.2842105 36,29.0421053 L34.2352941,29.0421053 C34.2352941,28.7894737 34,28.5368421 33.8823529,28.4105263 C33.4117647,27.9052632 32.4705882,27.9052632 32,28.4105263 C31.8823529,28.5368421 31.6470588,28.6631579 31.6470588,29.0421053 C31.6470588,29.2947368 31.8823529,29.5473684 32,29.6736842 C32.2352941,29.9263158 32.5882353,30.0526316 32.9411765,30.0526316 C33.7647059,30.0526316 34.4705882,30.3052632 35.0588235,30.8105263 Z" id="Stroke" fill="#000000" fill-rule="nonzero"></path>
            </g>
        </g>
    </g>
</svg>