<?xml version="1.0" encoding="UTF-8"?>
<svg width="91px" height="80px" viewBox="0 0 91 80" version="1.1" xmlns="http://www.w3.org/2000/svg" xmlns:xlink="http://www.w3.org/1999/xlink">
    <!-- Generator: Sketch 55.2 (78181) - https://sketchapp.com -->
    <title>Countries</title>
    <desc>Created with Sketch.</desc>
    <g id="Page-1" stroke="none" stroke-width="1" fill="none" fill-rule="evenodd">
        <g id="Circlewise-Advertiser" transform="translate(-554.000000, -787.000000)">
            <g id="Countries" transform="translate(545.000000, 777.000000)">
                <rect id="Rectangle" fill-opacity="0" fill="#FFFFFF" x="0" y="0" width="100" height="100"></rect>
                <circle id="Oval" fill="#E4F2F8" cx="50" cy="50" r="40"></circle>
                <circle id="Oval" fill="#D02E7D" cx="64" cy="16" r="5"></circle>
                <circle id="Oval" fill="#46A7CD" cx="13" cy="71" r="4"></circle>
                <path d="M98.6229008,70.8094303 L85.7282443,58.8644401 C87.6061069,56.0982318 88.6076336,52.7033399 88.4824427,49.3084479 C88.2320611,42.8958743 83.9755725,37.3634578 78.0916031,35.3516699 C76.4641221,32.3339882 74.4610687,29.56778 72.0824427,27.1787819 L72.0824427,27.1787819 L71.3312977,26.4243615 C65.4473282,21.0176817 57.810687,18 49.7984733,18 C49.7984733,18 49.7984733,18 49.7984733,18 C49.5480916,18 49.1725191,18 48.9221374,18 C48.1709924,18 47.5450382,18 46.7938931,18.1257367 C45.5419847,18.2514735 44.4152672,18.502947 43.1633588,18.7544204 C37.6549618,19.8860511 32.3969466,22.5265226 28.2656489,26.4243615 C28.2656489,26.4243615 28.2656489,26.4243615 28.2656489,26.4243615 L27.5145038,27.1787819 L27.5145038,27.1787819 C21.3801527,33.2141454 18,41.3870334 18,50.0628684 C18,58.6129666 21.5053435,66.9115914 27.5145038,72.9469548 L27.5145038,72.9469548 L28.2656489,73.5756385 C34.1496183,78.9823183 41.7862595,82 49.7984733,82 C51.8015267,82 53.8045802,81.8742633 55.6824427,81.497053 C61.4412214,80.3654224 66.9496183,77.7249509 71.3312977,73.5756385 C71.3312977,73.5756385 71.3312977,73.5756385 71.3312977,73.5756385 C71.3312977,73.5756385 71.3312977,73.5756385 71.3312977,73.5756385 L72.0824427,72.8212181 L72.0824427,72.8212181 C74.5862595,70.43222 76.589313,67.6660118 78.2167939,64.5225933 C79.3435115,64.1453831 80.470229,63.5166994 81.5969466,62.8880157 L92.989313,76.21611 C93.740458,77.0962672 94.8671756,77.5992141 95.9938931,77.5992141 C96.9954198,77.5992141 97.9969466,77.2220039 98.7480916,76.4675835 C99.4992366,75.7131631 100,74.5815324 100,73.5756385 C99.8748092,72.5697446 99.3740458,71.5638507 98.6229008,70.8094303 Z" id="Path-Copy-3" fill="#FFFFFF" fill-rule="nonzero"></path>
                <path d="M98.6229008,70.8094303 L85.7282443,58.8644401 C87.6061069,56.0982318 88.6076336,52.7033399 88.4824427,49.3084479 C88.2320611,42.8958743 83.9755725,37.3634578 78.0916031,35.3516699 C76.4641221,32.3339882 74.4610687,29.56778 72.0824427,27.1787819 L72.0824427,27.1787819 L71.3312977,26.4243615 C65.4473282,21.0176817 57.810687,18 49.7984733,18 C49.7984733,18 49.7984733,18 49.7984733,18 C49.5480916,18 49.1725191,18 48.9221374,18 C48.1709924,18 47.5450382,18 46.7938931,18.1257367 C45.5419847,18.2514735 44.4152672,18.502947 43.1633588,18.7544204 C37.6549618,19.8860511 32.3969466,22.5265226 28.2656489,26.4243615 C28.2656489,26.4243615 28.2656489,26.4243615 28.2656489,26.4243615 L27.5145038,27.1787819 L27.5145038,27.1787819 C21.3801527,33.2141454 18,41.3870334 18,50.0628684 C18,58.6129666 21.5053435,66.9115914 27.5145038,72.9469548 L27.5145038,72.9469548 L28.2656489,73.5756385 C34.1496183,78.9823183 41.7862595,82 49.7984733,82 C51.8015267,82 53.8045802,81.8742633 55.6824427,81.497053 C61.4412214,80.3654224 66.9496183,77.7249509 71.3312977,73.5756385 C71.3312977,73.5756385 71.3312977,73.5756385 71.3312977,73.5756385 C71.3312977,73.5756385 71.3312977,73.5756385 71.3312977,73.5756385 L72.0824427,72.8212181 L72.0824427,72.8212181 C74.5862595,70.43222 76.589313,67.6660118 78.2167939,64.5225933 C79.3435115,64.1453831 80.470229,63.5166994 81.5969466,62.8880157 L92.989313,76.21611 C93.740458,77.0962672 94.8671756,77.5992141 95.9938931,77.5992141 C96.9954198,77.5992141 97.9969466,77.2220039 98.7480916,76.4675835 C99.4992366,75.7131631 100,74.5815324 100,73.5756385 C99.8748092,72.5697446 99.3740458,71.5638507 98.6229008,70.8094303 Z M56.5587786,79.3595285 C59.3129771,77.0962672 61.5664122,73.5756385 63.319084,68.9233792 C65.4473282,70.0550098 67.4503817,71.3123772 69.3282443,72.9469548 C62.6931298,78.3536346 56.9343511,79.2337917 56.5587786,79.3595285 Z M30.2687023,72.9469548 C32.1465649,71.4381139 34.1496183,70.0550098 36.1526718,69.0491159 C37.9053435,73.5756385 40.1587786,77.2220039 42.9129771,79.4852652 C42.5374046,79.2337917 36.6534351,78.2278978 30.2687023,72.9469548 Z M42.9129771,20.7662083 C40.1587786,23.0294695 37.9053435,26.675835 36.1526718,31.2023576 C34.0244275,30.0707269 32.021374,28.8133595 30.2687023,27.3045187 C30.519084,27.0530452 35.4015267,22.5265226 42.9129771,20.7662083 Z M69.2030534,27.1787819 C67.3251908,28.8133595 65.3221374,30.0707269 63.1938931,31.2023576 C61.4412214,26.5500982 59.0625954,23.0294695 56.4335878,20.7662083 C64.3206107,22.5265226 69.0778626,27.0530452 69.2030534,27.1787819 Z M50.6748092,20.0117878 C54.9312977,20.6404715 58.9374046,25.0412574 61.5664122,31.956778 C58.1862595,33.4656189 54.4305344,34.2200393 50.6748092,34.345776 L50.6748092,20.0117878 Z M48.7969466,20.0117878 L48.7969466,34.345776 C45.0412214,34.2200393 41.2854962,33.3398821 37.9053435,31.956778 C40.5343511,25.1669941 44.4152672,20.6404715 48.7969466,20.0117878 Z M48.7969466,36.3575639 L48.7969466,49.1827112 L35.0259542,49.1827112 C35.151145,43.524558 35.9022901,38.2436149 37.4045802,33.8428291 C40.9099237,35.3516699 44.7908397,36.2318271 48.7969466,36.3575639 Z M48.7969466,50.9430255 L48.7969466,63.7681729 C44.7908397,63.8939096 40.9099237,64.7740668 37.2793893,66.2829077 C35.9022901,61.8821218 35.0259542,56.6011788 34.9007634,50.9430255 L48.7969466,50.9430255 Z M48.7969466,65.654224 L48.7969466,79.9882122 C44.2900763,79.3595285 40.4091603,74.8330059 37.9053435,68.043222 C41.410687,66.6601179 45.0412214,65.7799607 48.7969466,65.654224 Z M50.6748092,80.1139489 L50.6748092,65.654224 C54.4305344,65.7799607 58.0610687,66.5343811 61.5664122,68.043222 C58.9374046,74.9587426 55.0564885,79.4852652 50.6748092,80.1139489 Z M50.6748092,63.7681729 L50.6748092,50.9430255 L57.810687,50.9430255 C57.810687,51.194499 57.810687,51.5717092 57.810687,51.8231827 C58.3114504,55.8467583 60.3145038,59.367387 63.319084,61.8821218 C62.9435115,63.3909627 62.5679389,64.8998035 62.1923664,66.2829077 C58.5618321,64.7740668 54.680916,63.8939096 50.6748092,63.7681729 Z M57.810687,49.0569745 L50.6748092,49.0569745 L50.6748092,36.3575639 C54.680916,36.2318271 58.5618321,35.3516699 62.1923664,33.8428291 C62.6931298,35.2259332 63.0687023,36.7347741 63.319084,38.2436149 C62.6931298,38.7465619 62.1923664,39.2495088 61.5664122,39.8781925 C59.3129771,42.3929273 58.0610687,45.6620825 57.810687,49.0569745 Z M65.0717557,36.9862475 C64.6961832,35.6031434 64.4458015,34.345776 63.9450382,33.0884086 C66.3236641,31.8310413 68.5770992,30.3222004 70.7053435,28.5618861 C72.5832061,30.4479371 74.3358779,32.5854617 75.7129771,34.848723 C75.3374046,34.848723 74.9618321,34.7229862 74.5862595,34.7229862 C71.080916,34.345776 67.8259542,35.2259332 65.0717557,36.9862475 Z M28.8916031,28.4361493 C30.8946565,30.1964637 33.1480916,31.7053045 35.5267176,32.9626719 C34.0244275,37.6149312 33.1480916,43.1473477 33.0229008,49.0569745 L19.8778626,49.0569745 C20.1282443,41.3870334 23.3832061,33.9685658 28.8916031,28.4361493 Z M19.8778626,50.9430255 L33.1480916,50.9430255 C33.2732824,56.8526523 34.1496183,62.3850688 35.6519084,67.0373281 C33.2732824,68.2946955 31.0198473,69.8035363 29.0167939,71.5638507 C23.3832061,66.1571709 20.1282443,58.7387033 19.8778626,50.9430255 Z M70.5801527,71.6895874 C68.5770992,69.9292731 66.3236641,68.2946955 63.8198473,67.1630648 C64.1954198,65.9056974 64.5709924,64.5225933 64.9465649,63.1394892 C67.3251908,64.6483301 70.2045802,65.5284872 73.2091603,65.5284872 C73.9603053,65.5284872 74.8366412,65.4027505 75.5877863,65.2770138 C74.210687,67.540275 72.5832061,69.6777996 70.5801527,71.6895874 Z M97.3709924,75.3359528 C96.9954198,75.7131631 96.4946565,75.9646365 95.8687023,75.9646365 C95.2427481,75.9646365 94.6167939,75.7131631 94.2412214,75.2102161 L81.7221374,60.4990177 L80.9709924,61.0019646 C78.7175573,62.762279 75.9633588,63.6424361 73.0839695,63.6424361 C66.1984733,63.6424361 60.4396947,58.4872299 59.6885496,51.697446 C59.1877863,47.7996071 60.4396947,44.0275049 62.9435115,41.0098232 C65.6977099,37.8664047 69.8290076,36.1060904 74.210687,36.4833006 C80.9709924,36.9862475 86.2290076,42.6444008 86.6045802,49.4341847 C86.729771,52.7033399 85.7282443,55.8467583 83.7251908,58.3614931 L83.2244275,58.9901768 L97.3709924,72.0667976 C97.8717557,72.4440079 98.1221374,72.9469548 98.1221374,73.5756385 C98.1221374,74.3300589 97.8717557,74.8330059 97.3709924,75.3359528 Z" id="Shape" fill="#000000" fill-rule="nonzero"></path>
                <circle id="Oval" fill="#FFB900" cx="73" cy="50" r="7"></circle>
            </g>
        </g>
    </g>
</svg>