<svg xmlns="http://www.w3.org/2000/svg" width="82" height="80" viewBox="0 0 82 80">
    <g fill="none" fill-rule="evenodd" transform="translate(-8 -10)">
        <path fill="none" d="M0 0h100v100H0z"/>
        <circle cx="50" cy="50" r="40" fill="#E4F2F8"/>
        <circle cx="64" cy="16" r="5" fill="#D02E7D"/>
        <circle cx="80" cy="77" r="7" fill="#FFB900"/>
        <circle cx="12" cy="51" r="4" fill="#46A7CD"/>
        <path fill="#FFF" fill-rule="nonzero" d="M90 33.523L80.77 19H19.23l-8.86 14.03-.37.493v.123c0 4.554 3.446 8.246 7.877 8.739v37.907h64.37v-38.03C86.553 41.769 90 38.077 90 33.523z"/>
        <path fill="#000" fill-rule="nonzero" d="M90 33.523L80.77 19H19.23l-8.86 14.03-.37.493v.123c0 4.554 3.446 8.246 7.877 8.739v37.907h64.37v-38.03C86.553 41.769 90 38.077 90 33.523zm-2.708-.861H74l-4.554-11.816h10.216l7.63 11.816zm-28.677 0l-1.477-11.816H67.6l4.554 11.816H58.615zm-1.846 0H43.231l1.477-11.816h10.461l1.6 11.816zm-15.384 0H27.969l4.554-11.816h10.462l-1.6 11.816zm-.247 1.846c-.492 3.323-3.323 5.907-6.769 5.907s-6.4-2.584-6.769-5.907h13.538zm15.631 0c-.492 3.323-3.323 5.907-6.769 5.907s-6.4-2.584-6.77-5.907h13.54zm15.754 0c-.492 3.323-3.323 5.907-6.77 5.907-3.445 0-6.4-2.584-6.768-5.907h13.538zM20.215 20.846h10.216L26 32.662H12.708l7.507-11.816zm-8.369 13.662h13.662c-.493 3.323-3.323 5.907-6.77 5.907-3.446 0-6.4-2.584-6.892-5.907zM26.492 78.2V52.6h15.631v25.6h-15.63zm17.477 0V50.754H24.646V78.2H19.6V42.262c3.077-.37 5.538-2.216 6.892-4.8 1.477 2.83 4.431 4.923 7.877 4.923 3.446 0 6.4-1.97 7.877-4.923 1.477 2.83 4.43 4.923 7.877 4.923 3.446 0 6.4-1.97 7.877-4.923 1.477 2.83 4.43 4.923 7.877 4.923 3.446 0 6.4-1.97 7.877-4.923 1.354 2.584 3.815 4.553 6.892 4.8v36.061H43.97V78.2zm37.293-37.785c-3.447 0-6.4-2.584-6.77-5.907h13.662c-.492 3.323-3.446 5.907-6.892 5.907zM38.677 64.908h1.846v1.846h-1.846v-1.846zm15.385 1.846V53.708h19.323v13.046H54.062zm1.723-11.2v9.354h15.753v-9.354H55.785z"/>
    </g>
</svg>
