<?xml version="1.0" encoding="UTF-8"?>
<svg width="72px" height="72px" viewBox="0 0 72 72" version="1.1" xmlns="http://www.w3.org/2000/svg" xmlns:xlink="http://www.w3.org/1999/xlink">
    <!-- Generator: Sketch 55 (78076) - https://sketchapp.com -->
    <title>Icon Monitoring</title>
    <desc>Created with Sketch.</desc>
    <g id="Page-1" stroke="none" stroke-width="1" fill="none" fill-rule="evenodd">
        <g id="UA-Command-Center---Adjustment" transform="translate(-977.000000, -1284.000000)">
            <g id="Icon-Monitoring" transform="translate(977.000000, 1284.000000)">
                <path d="M30.110446,-1.12247071e-15 L41.889554,1.12247071e-15 C51.8003672,-6.98116128e-16 55.8110373,1.11390733 59.7221484,3.20559245 C63.6332596,5.29727756 66.7027224,8.36674045 68.7944076,12.2778516 C70.8860927,16.1889627 72,20.1996328 72,30.110446 L72,41.889554 C72,51.8003672 70.8860927,55.8110373 68.7944076,59.7221484 C66.7027224,63.6332596 63.6332596,66.7027224 59.7221484,68.7944076 C55.8110373,70.8860927 51.8003672,72 41.889554,72 L30.110446,72 C20.1996328,72 16.1889627,70.8860927 12.2778516,68.7944076 C8.36674045,66.7027224 5.29727756,63.6332596 3.20559245,59.7221484 C1.11390733,55.8110373 4.65410752e-16,51.8003672 -7.4831381e-16,41.889554 L7.4831381e-16,30.110446 C-4.65410752e-16,20.1996328 1.11390733,16.1889627 3.20559245,12.2778516 C5.29727756,8.36674045 8.36674045,5.29727756 12.2778516,3.20559245 C16.1889627,1.11390733 20.1996328,6.98116128e-16 30.110446,-1.12247071e-15 Z" id="Rectangle" fill="#D0E9FF"></path>
                <path d="M36,29 C37.9687598,29.072917 39.6093684,29.7656184 40.921875,31.078125 C42.2343816,32.3906316 42.890625,34.0312402 42.890625,36 C42.890625,37.9687598 42.2343816,39.6093684 40.921875,40.921875 C39.6093684,42.2343816 37.9687598,42.890625 36,42.890625 C34.0312402,42.890625 32.3906316,42.2343816 31.078125,40.921875 C29.7656184,39.6093684 29.109375,37.9687598 29.109375,36 C29.109375,34.0312402 29.7656184,32.3906316 31.078125,31.078125 C32.3906316,29.7656184 34.0312402,29.072917 36,29 Z M36,18.5 C41.9062795,18.572917 47.137998,20.2135256 51.6953125,23.421875 C56.252627,26.6302244 59.5885311,30.8228908 61.703125,36 C59.5885311,41.1771092 56.252627,45.3697756 51.6953125,48.578125 C47.137998,51.7864744 41.9062795,53.427083 36,53.5 C30.0937205,53.427083 24.862002,51.7864744 20.3046875,48.578125 C15.747373,45.3697756 12.4114689,41.1771092 10.296875,36 C12.4114689,30.8228908 15.747373,26.6302244 20.3046875,23.421875 C24.862002,20.2135256 30.0937205,18.572917 36,18.5 Z M15.4375,36 C17.4062598,39.9375197 20.2135234,43.054676 23.859375,45.3515625 C27.5052266,47.648449 31.5520611,48.796875 36,48.796875 C40.4479389,48.796875 44.4947734,47.648449 48.140625,45.3515625 C51.7864766,43.054676 54.5937402,39.9375197 56.5625,36 C54.5937402,32.0624803 51.7864766,28.945324 48.140625,26.6484375 C44.4947734,24.351551 40.4479389,23.203125 36,23.203125 C31.5520611,23.203125 27.5052266,24.351551 23.859375,26.6484375 C20.2135234,28.945324 17.4062598,32.0624803 15.4375,36 Z" id="ï›" fill="#008FFF" fill-rule="nonzero"></path>
            </g>
        </g>
    </g>
</svg>