<?xml version="1.0" encoding="UTF-8"?>
<svg width="72px" height="72px" viewBox="0 0 72 72" version="1.1" xmlns="http://www.w3.org/2000/svg" xmlns:xlink="http://www.w3.org/1999/xlink">
    <!-- Generator: Sketch 55 (78076) - https://sketchapp.com -->
    <title>Icon Optimizations</title>
    <desc>Created with Sketch.</desc>
    <g id="Page-1" stroke="none" stroke-width="1" fill="none" fill-rule="evenodd">
        <g id="UA-Command-Center---Adjustment" transform="translate(-586.000000, -1284.000000)">
            <g id="Icon-Optimizations" transform="translate(586.000000, 1284.000000)">
                <path d="M30.110446,-1.12247071e-15 L41.889554,1.12247071e-15 C51.8003672,-6.98116128e-16 55.8110373,1.11390733 59.7221484,3.20559245 C63.6332596,5.29727756 66.7027224,8.36674045 68.7944076,12.2778516 C70.8860927,16.1889627 72,20.1996328 72,30.110446 L72,41.889554 C72,51.8003672 70.8860927,55.8110373 68.7944076,59.7221484 C66.7027224,63.6332596 63.6332596,66.7027224 59.7221484,68.7944076 C55.8110373,70.8860927 51.8003672,72 41.889554,72 L30.110446,72 C20.1996328,72 16.1889627,70.8860927 12.2778516,68.7944076 C8.36674045,66.7027224 5.29727756,63.6332596 3.20559245,59.7221484 C1.11390733,55.8110373 4.65410752e-16,51.8003672 -7.4831381e-16,41.889554 L7.4831381e-16,30.110446 C-4.65410752e-16,20.1996328 1.11390733,16.1889627 3.20559245,12.2778516 C5.29727756,8.36674045 8.36674045,5.29727756 12.2778516,3.20559245 C16.1889627,1.11390733 20.1996328,6.98116128e-16 30.110446,-1.12247071e-15 Z" id="Rectangle" fill="#D0E9FF"></path>
                <path d="M54.703125,12.703125 C56.0156316,12.703125 57.1093706,13.1406206 57.984375,14.015625 C58.8593794,14.8906294 59.296875,15.9843684 59.296875,17.296875 L59.296875,45.296875 C59.296875,46.6093816 58.8593794,47.7213496 57.984375,48.6328125 C57.1093706,49.5442754 56.0156316,50 54.703125,50 L26.703125,50 C25.3906184,50 24.2786504,49.5442754 23.3671875,48.6328125 C22.4557246,47.7213496 22,46.6093816 22,45.296875 L22,17.296875 C22,15.9843684 22.4557246,14.8906294 23.3671875,14.015625 C24.2786504,13.1406206 25.3906184,12.703125 26.703125,12.703125 L54.703125,12.703125 Z M54.703125,17.296875 L26.703125,17.296875 L26.703125,45.296875 L54.703125,45.296875 L54.703125,17.296875 Z M45.296875,54.703125 L45.296875,59.296875 L17.296875,59.296875 C15.9843684,59.296875 14.8906294,58.8593794 14.015625,57.984375 C13.1406206,57.1093706 12.703125,56.0156316 12.703125,54.703125 L12.703125,24.296875 L17.296875,24.296875 L17.296875,54.703125 L45.296875,54.703125 Z M37.421875,40.703125 L29.984375,33.265625 L32.390625,30.75 L37.421875,35.671875 L48.796875,24.296875 L51.203125,26.8125 L37.421875,40.703125 Z" id="ﰭ" fill="#008FFF" fill-rule="nonzero"></path>
            </g>
        </g>
    </g>
</svg>