<?xml version="1.0" encoding="UTF-8"?>
<svg width="72px" height="72px" viewBox="0 0 72 72" version="1.1" xmlns="http://www.w3.org/2000/svg" xmlns:xlink="http://www.w3.org/1999/xlink">
    <!-- Generator: Sketch 55 (78076) - https://sketchapp.com -->
    <title>Icon Data Aggregation</title>
    <desc>Created with Sketch.</desc>
    <g id="Page-1" stroke="none" stroke-width="1" fill="none" fill-rule="evenodd">
        <g id="UA-Command-Center---Adjustment" transform="translate(-196.000000, -1284.000000)">
            <g id="Icon-Data-Aggregation" transform="translate(196.000000, 1284.000000)">
                <path d="M30.110446,-1.12247071e-15 L41.889554,1.12247071e-15 C51.8003672,-6.98116128e-16 55.8110373,1.11390733 59.7221484,3.20559245 C63.6332596,5.29727756 66.7027224,8.36674045 68.7944076,12.2778516 C70.8860927,16.1889627 72,20.1996328 72,30.110446 L72,41.889554 C72,51.8003672 70.8860927,55.8110373 68.7944076,59.7221484 C66.7027224,63.6332596 63.6332596,66.7027224 59.7221484,68.7944076 C55.8110373,70.8860927 51.8003672,72 41.889554,72 L30.110446,72 C20.1996328,72 16.1889627,70.8860927 12.2778516,68.7944076 C8.36674045,66.7027224 5.29727756,63.6332596 3.20559245,59.7221484 C1.11390733,55.8110373 4.65410752e-16,51.8003672 -7.4831381e-16,41.889554 L7.4831381e-16,30.110446 C-4.65410752e-16,20.1996328 1.11390733,16.1889627 3.20559245,12.2778516 C5.29727756,8.36674045 8.36674045,5.29727756 12.2778516,3.20559245 C16.1889627,1.11390733 20.1996328,6.98116128e-16 30.110446,-1.12247071e-15 Z" id="Rectangle" fill="#D0E9FF"></path>
                <path d="M19.703125,22 L19.703125,31.296875 L15,31.296875 L15,22 C15,20.6874934 15.4557246,19.5937544 16.3671875,18.71875 C17.2786504,17.8437456 18.3906184,17.369792 19.703125,17.296875 L33.703125,17.296875 L33.703125,22 L19.703125,22 Z M52.296875,50 L52.296875,40.703125 L57,40.703125 L57,50 C57,51.3125066 56.5442754,52.4062456 55.6328125,53.28125 C54.7213496,54.1562544 53.6093816,54.630208 52.296875,54.703125 L38.296875,54.703125 L38.296875,50 L52.296875,50 Z M19.703125,50 L33.703125,50 L33.703125,54.703125 L19.703125,54.703125 C18.3906184,54.630208 17.2786504,54.1562544 16.3671875,53.28125 C15.4557246,52.4062456 15,51.3125066 15,50 L15,40.703125 L19.703125,40.703125 L19.703125,50 Z M52.296875,17.296875 C53.6093816,17.369792 54.7213496,17.8437456 55.6328125,18.71875 C56.5442754,19.5937544 57,20.6874934 57,22 L57,31.296875 L52.296875,31.296875 L52.296875,22 L38.296875,22 L38.296875,17.296875 L52.296875,17.296875 Z M26.703125,38.296875 L15,38.296875 L15,33.703125 L26.703125,33.703125 L26.703125,29 L33.703125,36 L26.703125,43 L26.703125,38.296875 Z M45.296875,33.703125 L57,33.703125 L57,38.296875 L45.296875,38.296875 L45.296875,43 L38.296875,36 L45.296875,29 L45.296875,33.703125 Z" id="яже" fill="#008FFF" fill-rule="nonzero"></path>
            </g>
        </g>
    </g>
</svg>