<?xml version="1.0" encoding="UTF-8"?>
<svg width="72px" height="72px" viewBox="0 0 72 72" version="1.1" xmlns="http://www.w3.org/2000/svg" xmlns:xlink="http://www.w3.org/1999/xlink">
    <!-- Generator: Sketch 55 (78076) - https://sketchapp.com -->
    <title>Icon Fraud Prevention</title>
    <desc>Created with Sketch.</desc>
    <g id="Page-1" stroke="none" stroke-width="1" fill="none" fill-rule="evenodd">
        <g id="UA-Command-Center---Adjustment" transform="translate(-1172.000000, -1284.000000)">
            <g id="Icon-Fraud-Prevention" transform="translate(1172.000000, 1284.000000)">
                <path d="M30.110446,-1.12247071e-15 L41.889554,1.12247071e-15 C51.8003672,-6.98116128e-16 55.8110373,1.11390733 59.7221484,3.20559245 C63.6332596,5.29727756 66.7027224,8.36674045 68.7944076,12.2778516 C70.8860927,16.1889627 72,20.1996328 72,30.110446 L72,41.889554 C72,51.8003672 70.8860927,55.8110373 68.7944076,59.7221484 C66.7027224,63.6332596 63.6332596,66.7027224 59.7221484,68.7944076 C55.8110373,70.8860927 51.8003672,72 41.889554,72 L30.110446,72 C20.1996328,72 16.1889627,70.8860927 12.2778516,68.7944076 C8.36674045,66.7027224 5.29727756,63.6332596 3.20559245,59.7221484 C1.11390733,55.8110373 4.65410752e-16,51.8003672 -7.4831381e-16,41.889554 L7.4831381e-16,30.110446 C-4.65410752e-16,20.1996328 1.11390733,16.1889627 3.20559245,12.2778516 C5.29727756,8.36674045 8.36674045,5.29727756 12.2778516,3.20559245 C16.1889627,1.11390733 20.1996328,6.98116128e-16 30.110446,-1.12247071e-15 Z" id="Rectangle" fill="#D0E9FF"></path>
                <path d="M57,33.703125 C56.8541659,40.3385748 54.8489777,46.2447658 50.984375,51.421875 C47.1197723,56.5989842 42.1250306,60.0260333 36,61.703125 C29.8749694,60.0260333 24.8802277,56.5989842 21.015625,51.421875 C17.1510223,46.2447658 15.1458341,40.3385748 15,33.703125 L15,19.703125 L36,10.296875 L57,19.703125 L57,33.703125 Z M36,57 C40.5208559,55.6874934 44.3489427,52.8620009 47.484375,48.5234375 C50.6198073,44.1848741 52.223958,39.3906512 52.296875,34.140625 L52.296875,22.65625 L36,15.4375 L19.703125,22.65625 L19.703125,34.140625 C19.8489591,39.3906512 21.4713387,44.1848741 24.5703125,48.5234375 C27.6692863,52.8620009 31.4791441,55.6874934 36,57 Z M31.296875,47.703125 L22,38.296875 L25.28125,35.015625 L31.296875,41.03125 L46.71875,25.71875 L50,29 L31.296875,47.703125 Z" id="ﲤ" fill="#008FFF" fill-rule="nonzero"></path>
            </g>
        </g>
    </g>
</svg>