<?xml version="1.0" encoding="UTF-8"?>
<svg width="72px" height="72px" viewBox="0 0 72 72" version="1.1" xmlns="http://www.w3.org/2000/svg" xmlns:xlink="http://www.w3.org/1999/xlink">
    <!-- Generator: Sketch 55 (78076) - https://sketchapp.com -->
    <title>Icon Auto Execution</title>
    <desc>Created with Sketch.</desc>
    <g id="Page-1" stroke="none" stroke-width="1" fill="none" fill-rule="evenodd">
        <g id="UA-Command-Center---Adjustment" transform="translate(-782.000000, -1284.000000)">
            <g id="Icon-Auto-Execution" transform="translate(782.000000, 1284.000000)">
                <path d="M30.110446,-1.12247071e-15 L41.889554,1.12247071e-15 C51.8003672,-6.98116128e-16 55.8110373,1.11390733 59.7221484,3.20559245 C63.6332596,5.29727756 66.7027224,8.36674045 68.7944076,12.2778516 C70.8860927,16.1889627 72,20.1996328 72,30.110446 L72,41.889554 C72,51.8003672 70.8860927,55.8110373 68.7944076,59.7221484 C66.7027224,63.6332596 63.6332596,66.7027224 59.7221484,68.7944076 C55.8110373,70.8860927 51.8003672,72 41.889554,72 L30.110446,72 C20.1996328,72 16.1889627,70.8860927 12.2778516,68.7944076 C8.36674045,66.7027224 5.29727756,63.6332596 3.20559245,59.7221484 C1.11390733,55.8110373 4.65410752e-16,51.8003672 -7.4831381e-16,41.889554 L7.4831381e-16,30.110446 C-4.65410752e-16,20.1996328 1.11390733,16.1889627 3.20559245,12.2778516 C5.29727756,8.36674045 8.36674045,5.29727756 12.2778516,3.20559245 C16.1889627,1.11390733 20.1996328,6.98116128e-16 30.110446,-1.12247071e-15 Z" id="Rectangle" fill="#D0E9FF"></path>
                <path d="M33.703125,33.921875 L33.703125,19.703125 L26.703125,19.703125 L36,10.296875 L45.296875,19.703125 L38.296875,19.703125 L38.296875,29.984375 C36.5468663,31.0781305 35.0156316,32.3906173 33.703125,33.921875 Z M59.296875,33.703125 L49.890625,42.890625 L49.890625,35.890625 C49.0156206,35.7447909 47.1015773,36.2187445 44.1484375,37.3125 C41.1952977,38.4062555 39.2447964,41.2135191 38.296875,45.734375 C40.4114689,46.5364623 41.8333297,47.9583231 42.5625,50 C43.2187533,51.8958428 43.1458373,53.6822833 42.34375,55.359375 C41.5416627,57.0364667 40.1927178,58.2031217 38.296875,58.859375 C36.4010322,59.5156283 34.6145917,59.4427123 32.9375,58.640625 C31.2604083,57.8385377 30.0937533,56.5078218 29.4375,54.6484375 C28.7812467,52.7890532 28.8541627,51.0208417 29.65625,49.34375 C30.4583373,47.6666583 31.8072822,46.4635453 33.703125,45.734375 C34.1406272,41.4322702 35.8906097,37.9323052 38.953125,35.234375 C42.0156403,32.5364448 45.6978952,31.223958 50,31.296875 L50,24.296875 L59.296875,33.703125 Z M32.828125,35.015625 C31.8802036,36.3281316 31.1145863,37.7499923 30.53125,39.28125 C28.0520709,37.1666561 25.2083494,36.072917 22,36 L22,43 L12.703125,33.703125 L22,24.296875 L22,31.296875 C23.9687598,31.296875 25.8645742,31.6249967 27.6875,32.28125 C29.5104258,32.9375033 31.2239503,33.8489525 32.828125,35.015625 Z" id="了" fill="#008FFF" fill-rule="nonzero"></path>
            </g>
        </g>
    </g>
</svg>