<?xml version="1.0" encoding="UTF-8"?>
<svg width="72px" height="72px" viewBox="0 0 72 72" version="1.1" xmlns="http://www.w3.org/2000/svg" xmlns:xlink="http://www.w3.org/1999/xlink">
    <!-- Generator: Sketch 55 (78076) - https://sketchapp.com -->
    <title>Icon LTV Prediction</title>
    <desc>Created with Sketch.</desc>
    <g id="Page-1" stroke="none" stroke-width="1" fill="none" fill-rule="evenodd">
        <g id="UA-Command-Center---Adjustment" transform="translate(-391.000000, -1284.000000)">
            <g id="Icon-LTV-Prediction" transform="translate(391.000000, 1284.000000)">
                <path d="M30.110446,-1.12247071e-15 L41.889554,1.12247071e-15 C51.8003672,-6.98116128e-16 55.8110373,1.11390733 59.7221484,3.20559245 C63.6332596,5.29727756 66.7027224,8.36674045 68.7944076,12.2778516 C70.8860927,16.1889627 72,20.1996328 72,30.110446 L72,41.889554 C72,51.8003672 70.8860927,55.8110373 68.7944076,59.7221484 C66.7027224,63.6332596 63.6332596,66.7027224 59.7221484,68.7944076 C55.8110373,70.8860927 51.8003672,72 41.889554,72 L30.110446,72 C20.1996328,72 16.1889627,70.8860927 12.2778516,68.7944076 C8.36674045,66.7027224 5.29727756,63.6332596 3.20559245,59.7221484 C1.11390733,55.8110373 4.65410752e-16,51.8003672 -7.4831381e-16,41.889554 L7.4831381e-16,30.110446 C-4.65410752e-16,20.1996328 1.11390733,16.1889627 3.20559245,12.2778516 C5.29727756,8.36674045 8.36674045,5.29727756 12.2778516,3.20559245 C16.1889627,1.11390733 20.1996328,6.98116128e-16 30.110446,-1.12247071e-15 Z" id="Rectangle" fill="#D0E9FF"></path>
                <g id="Icon" transform="translate(15.000000, 16.000000)">
                    <path d="M0.916666667,34.0015432 C3.25925926,25.3897194 8.37037037,18.5235355 16.25,13.4029916 C24.1296296,8.28244769 33.0740741,5.48942374 43.0833333,5.02391975" id="Path-4" stroke="#008FFF" stroke-width="4" stroke-dasharray="3,3"></path>
                    <path d="M0.916666667,34.0015432 C3.25925926,25.3897194 8.37037037,18.5235355 16.25,13.4029916 C18.3588776,12.0325465 20.5440271,10.8288201 22.8054487,9.79181252" id="Path-4" stroke="#008FFF" stroke-width="4"></path>
                    <polyline id="Path" stroke="#008FFF" stroke-width="4" points="0 2.02623457 0 36 44 36"></polyline>
                    <polygon id="Triangle" fill="#008FFF" transform="translate(23.512302, 9.830493) rotate(66.000000) translate(-23.512302, -9.830493) " points="23.1865029 4.53364627 31.7035282 15.1273393 15.321076 14.6393294"></polygon>
                </g>
            </g>
        </g>
    </g>
</svg>