<svg xmlns="http://www.w3.org/2000/svg" width="540" height="452" viewBox="0 0 540 452">
    <g fill="none" fill-rule="evenodd">
        <circle cx="407.5" cy="132.5" r="132.5" fill="#FFF5D9"/>
        <circle cx="179" cy="273" r="177" stroke="#F8E0EC" stroke-width="4"/>
        <path fill="#46A7CD" d="M218.5 94a2.5 2.5 0 1 1 0-5 2.5 2.5 0 0 1 0 5zm13 0a2.5 2.5 0 1 1 0-5 2.5 2.5 0 0 1 0 5zm-68-41a2.5 2.5 0 1 1 0-5 2.5 2.5 0 0 1 0 5zm13 0a2.5 2.5 0 1 1 0-5 2.5 2.5 0 0 1 0 5zm14 0a2.5 2.5 0 1 1 0-5 2.5 2.5 0 0 1 0 5zm14 0a2.5 2.5 0 1 1 0-5 2.5 2.5 0 0 1 0 5zm14 0a2.5 2.5 0 1 1 0-5 2.5 2.5 0 0 1 0 5zm13 0a2.5 2.5 0 1 1 0-5 2.5 2.5 0 0 1 0 5zm-68 14a2.5 2.5 0 1 1 0-5 2.5 2.5 0 0 1 0 5zm13 0a2.5 2.5 0 1 1 0-5 2.5 2.5 0 0 1 0 5zm14 0a2.5 2.5 0 1 1 0-5 2.5 2.5 0 0 1 0 5zm14 0a2.5 2.5 0 1 1 0-5 2.5 2.5 0 0 1 0 5zm14 0a2.5 2.5 0 1 1 0-5 2.5 2.5 0 0 1 0 5zm13 0a2.5 2.5 0 1 1 0-5 2.5 2.5 0 0 1 0 5zm-68 14a2.5 2.5 0 1 1 0-5 2.5 2.5 0 0 1 0 5zm13 0a2.5 2.5 0 1 1 0-5 2.5 2.5 0 0 1 0 5zm14 0a2.5 2.5 0 1 1 0-5 2.5 2.5 0 0 1 0 5zm14 0a2.5 2.5 0 1 1 0-5 2.5 2.5 0 0 1 0 5zm14 0a2.5 2.5 0 1 1 0-5 2.5 2.5 0 0 1 0 5zm13 0a2.5 2.5 0 1 1 0-5 2.5 2.5 0 0 1 0 5zm-68 13a2.5 2.5 0 1 1 0-5 2.5 2.5 0 0 1 0 5zm13 0a2.5 2.5 0 1 1 0-5 2.5 2.5 0 0 1 0 5zm14 0a2.5 2.5 0 1 1 0-5 2.5 2.5 0 0 1 0 5zm14 0a2.5 2.5 0 1 1 0-5 2.5 2.5 0 0 1 0 5zm-41-54a2.5 2.5 0 1 1 0-5 2.5 2.5 0 0 1 0 5zm13 0a2.5 2.5 0 1 1 0-5 2.5 2.5 0 0 1 0 5zm14 0a2.5 2.5 0 1 1 0-5 2.5 2.5 0 0 1 0 5zm14 0a2.5 2.5 0 1 1 0-5 2.5 2.5 0 0 1 0 5zm14 0a2.5 2.5 0 1 1 0-5 2.5 2.5 0 0 1 0 5zm13 0a2.5 2.5 0 1 1 0-5 2.5 2.5 0 0 1 0 5z"/>
        <circle cx="285.5" cy="422.5" r="10.5" fill="#FFB900"/>
    </g>
</svg>
