<?xml version="1.0" encoding="UTF-8"?>
<svg width="395px" height="259px" viewBox="0 0 395 259" version="1.1" xmlns="http://www.w3.org/2000/svg" xmlns:xlink="http://www.w3.org/1999/xlink">
    <!-- Generator: Sketch 55.2 (78181) - https://sketchapp.com -->
    <title>Hero Graphic</title>
    <desc>Created with Sketch.</desc>
    <defs>
        <path d="M4.07918091,125.5774 C7.40448784,127.07805 39.9167292,128.654859 94.4601813,128.654859 C94.4685998,128.654859 94.4770183,128.654859 94.4854368,128.654859 C163.247733,128.654859 217.799603,126.174241 221.385884,122.883847 C223.911433,119.825817 225.4436,96.2047695 225.191045,64.1284826 C224.93849,31.7972951 223.08642,9.3846939 221.486906,6.76963138 C215.636049,4.13514046 132.76435,1.42108547e-14 70.105465,1.42108547e-14 C12.8428379,1.42108547e-14 5.10623774,3.40929547 4.10443641,4.45454335 C1.77251231,6.86910479 -0.374204814,26.6899575 0.0551386114,65.5288816 C0.417134049,98.2929339 2.4207367,122.792145 4.07918091,125.5774 Z" id="path-1"></path>
    </defs>
    <g id="Page-1" stroke="none" stroke-width="1" fill="none" fill-rule="evenodd">
        <g id="Circlewise-Homepage" transform="translate(-529.000000, -336.000000)">
            <g id="Hero" transform="translate(165.000000, 144.000000)">
                <g id="Hero-Graphic" transform="translate(364.000000, 194.000000)">
                    <g id="Laptop" transform="translate(0.000000, 18.000000)">
                        <path d="M0.333861694,211.483537 C5.35707379,200.532931 60.2610611,159.429355 66.6513582,154.667134 C67.2738955,154.203416 68.1824635,154.29367 68.6872235,154.870205 C69.1835709,155.445184 65.9140476,156.632165 68.4684942,156.750752 C160,161 222,161 314.513758,153.370902 C316.774703,153.184455 314.220531,152.209393 314.262981,151.615581 C312.415917,152.605051 304.016745,154.839165 266.325791,156.526633 C240.768437,157.671019 206.023248,158.326398 170.983036,158.326398 C170.974607,158.326398 170.966178,158.326398 170.966178,158.326398 C108.767063,158.326398 71.9651475,156.402243 68.5934649,154.576046 C66.6884642,151.603908 64.3872908,122.079999 63.9574013,82.2192997 C63.5275118,41.4490007 65.3903664,11.6646498 68.6103233,8.10321549 C69.7651246,6.82899788 78.556787,2.67437986 143.411102,2.67437986 C214.772764,2.67437986 308.792133,7.69195185 314.802158,10.8747749 C316.631295,13.6533311 318.772314,40.6466867 319.075765,79.9919456 C319.366343,118.293413 317.661701,146.678835 314.815556,151.128897 C315.306636,150.913634 315.910955,150.965084 316.356132,151.305179 C327.511328,159.801486 383.10223,202.696944 381.983345,212.747017 C381.948552,213.054553 381.870442,213.344368 381.75227,213.612468 C382.330722,215.993663 386.268757,233.6501 376.273558,236.077295 C371.292426,237.284921 274.122418,238.496434 186.493258,238.871777 C170.015909,238.941717 150.184091,239 129.602153,239 C106.281014,239 81.9906186,238.925398 60.4899948,238.709361 C2.33464241,238.128084 1.97222499,237.019927 1.51709615,235.617246 C0.0168566239,230.994227 2.84217094e-14,213.096639 2.84217094e-14,212.336627 C2.84217094e-14,212.012503 0.125359349,211.715099 0.333861694,211.483537 Z" id="Combined-Shape" fill="#FFFFFF"></path>
                        <path d="M68.5934649,154.576046 C71.9651475,156.402243 108.767063,158.326398 170.966178,158.326398 C170.966178,158.326398 170.974607,158.326398 170.983036,158.326398 C206.023248,158.326398 240.768437,157.671019 266.325791,156.526633 C308.539257,154.636686 314.009812,152.061041 314.684149,151.316257 C317.609083,147.544915 319.370787,118.879295 319.075765,79.9919456 C318.772314,40.6466867 316.631295,13.6533311 314.802158,10.8747749 C308.792133,7.69195185 214.772764,2.67437986 143.411102,2.67437986 C78.556787,2.67437986 69.7651246,6.82899788 68.6103233,8.10321549 C65.3903664,11.6646498 63.5275118,41.4490007 63.9574013,82.2192997 C64.3872908,122.079999 66.6884642,151.603908 68.5934649,154.576046 Z M170.983036,161 C170.974607,161 170.966178,161 170.966178,161 C143.899996,161 118.721956,160.613614 100.076551,159.913144 C68.4080223,158.722113 67.0677785,157.139253 66.3512959,156.288738 C63.0217594,152.335476 61.3612057,109.990091 61.0661835,82.4921798 C60.8385949,61.6335717 60.8975993,12.4615217 66.3850128,6.39130141 C67.8095487,4.81077401 72.1590192,0 143.411102,0 C176.647463,0 218.523761,1.12339503 255.443685,3.00479016 C294.327615,4.98569711 315.021317,7.02335688 316.951605,9.06179409 C321.385368,13.7310747 321.941695,76.8114549 321.966983,79.4943865 C322.093421,95.0532133 322.11028,146.326673 317.044326,152.876571 C316.066539,154.129021 313.799082,157.062287 266.848402,159.180022 C241.198326,160.336847 206.250836,161 170.983036,161 L170.983036,161 Z" id="Fill-375" fill="#171817"></path>
                        <path d="M82.9696989,142.249971 C86.2950059,143.750621 118.807247,145.327429 173.350699,145.327429 C173.359118,145.327429 173.367536,145.327429 173.375955,145.327429 C242.138251,145.327429 296.690121,142.846811 300.276402,139.556418 C302.801951,136.498388 304.334118,112.87734 304.081563,80.8010532 C303.829008,48.4698657 301.976939,26.0572645 300.377424,23.442202 C294.526567,20.807711 211.654868,16.6725706 148.995983,16.6725706 C91.7333559,16.6725706 83.9967558,20.0818661 82.9949544,21.1271139 C80.6630303,23.5416754 78.5163132,43.3625281 78.9456566,82.2014522 C79.3076521,114.965504 81.3112547,139.464716 82.9696989,142.249971 Z M173.375955,148 C173.367536,148 173.359118,148 173.350699,148 C149.433745,148 127.183653,147.67982 110.700233,147.097745 C82.6582145,146.108451 81.4880432,144.811411 80.7977263,144.036607 C77.5650229,140.445461 76.2854111,102.316062 76.0581116,82.6552996 C75.8560677,65.3205048 75.9149972,24.4524787 80.8314003,19.3513582 C82.1025936,18.0278957 85.9751029,14 148.995983,14 C178.376543,14 215.392681,14.931786 248.022781,16.492275 C282.412348,18.1374719 300.731001,19.8432853 302.465211,21.5623101 C306.45558,25.5054979 306.952271,77.9341986 306.969108,80.1638017 C307.086967,93.0922356 307.095386,135.701823 302.557815,141.199283 C301.69071,142.256965 299.645014,144.732143 258.099724,146.490802 C235.428708,147.449788 204.549655,148 173.375955,148 L173.375955,148 Z" id="Fill-376" fill="#171817"></path>
                        <path d="M0.881129782,214.187966 C-0.128390224,213.464379 -0.0358508905,212.599966 0.0482757767,212.262292 C2.52159979,202.655707 60.0978908,159.550954 66.6513582,154.667134 C67.2738955,154.203416 68.1824635,154.29367 68.6872235,154.870205 C69.1835709,155.445184 69.0910316,156.287812 68.4684942,156.750752 C43.7016034,175.199098 6.58491782,204.679416 3.0768358,212.310531 C10.6566485,215.621912 85.2685897,217.615276 190.85597,217.289273 C287.921318,216.988946 374.0502,214.902216 378.921134,212.733012 C379.038912,212.677771 379.080975,212.642758 379.0978,212.470809 C379.846528,205.820037 339.877948,172.690664 314.513758,153.370902 C313.899633,152.90096 313.807094,152.057554 314.320266,151.488021 C314.825026,150.916154 315.742007,150.836015 316.356132,151.305179 C327.511328,159.801486 383.10223,202.696944 381.983345,212.747017 C381.865568,213.788048 381.251443,214.626008 380.267161,215.106065 C374.159565,218.061877 266.208225,219.725348 191.495332,219.962654 C184.765199,219.984439 176.916181,220 168.318436,220 C107.124698,220 7.86364316,219.214947 0.881129782,214.187966 Z" id="Fill-377" fill="#171817"></path>
                        <path d="M60.4899948,238.709361 C2.33464241,238.128084 1.97222499,237.019927 1.51709615,235.617246 C0.0168566239,230.994227 0,213.096639 0,212.336627 C0,211.599151 0.64898002,211 1.44966965,211 C2.25035929,211 2.89933931,211.599151 2.89933931,212.336627 C2.89933931,217.169465 3.12690373,230.059366 4.14672948,234.298493 C11.5130741,235.924981 83.7774207,236.662457 190.125861,236.182204 C284.750519,235.754794 371.385137,234.498987 375.531867,233.492631 C381.996382,231.923649 380.133725,218.884544 378.869478,213.993422 C378.684056,213.275374 379.172898,212.554217 379.948302,212.38403 C380.732135,212.208404 381.50754,212.657573 381.692963,213.374067 C381.903671,214.196248 386.766807,233.529155 376.273558,236.077295 C371.292426,237.284921 274.122418,238.496434 186.493258,238.871777 C170.015909,238.941717 150.184091,239 129.602153,239 C106.281014,239 81.9906186,238.925398 60.4899948,238.709361 Z" id="Fill-378" fill="#171817"></path>
                        <path d="M41.3223508,202.058713 C51.1609948,203.951751 121.495938,205.347433 209.488259,205.347433 C287.347366,205.347433 344.712805,204.214695 350.116064,202.583058 C350.116064,202.375633 350.040317,201.699383 349.097692,200.228905 C343.029547,190.802269 314.927551,169.486891 309.137143,168.824521 C308.455424,168.745869 305.417143,168.652567 294.8042,168.652567 C263.495598,168.652567 188.994591,169.448337 134.600103,170.030513 C103.939555,170.357458 79.7258861,170.616545 73.9775594,170.616545 C69.6600022,170.616545 45.2275097,195.442719 41.3223508,202.058713 Z M209.496675,208 C209.488259,208 209.488259,208 209.488259,208 C167.272144,208 125.451595,207.646839 94.7489653,207.031505 C40.2534818,205.938863 39.10045,204.553206 38.3345675,203.637145 C38.031581,203.265477 37.9221693,202.797422 38.0568299,202.354043 C39.5296808,197.395902 67.3202733,167.96475 73.9775594,167.96475 C79.7090535,167.96475 103.914306,167.705662 134.566438,167.377947 C188.969342,166.797312 263.478765,166 294.8042,166 C306.469179,166 308.775243,166.110267 309.499044,166.192774 C316.947461,167.045605 349.341765,192.04913 352.674616,200.954505 C353.390001,202.863737 352.792444,203.953294 352.161222,204.530844 C351.403756,205.222516 350.141312,206.379158 306.385016,207.235074 C281.161392,207.728575 246.747179,208 209.496675,208 L209.496675,208 Z" id="Fill-379" fill="#171817"></path>
                        <path d="M193.5,206 C192.671512,206 192,205.395823 192,204.65041 L192,168.348805 C192,167.604177 192.671512,167 193.5,167 C194.328488,167 195,167.604177 195,168.348805 L195,204.65041 C195,205.395823 194.328488,206 193.5,206" id="Fill-380" fill="#171817"></path>
                        <path d="M162.495412,206 C162.400035,206 162.304659,205.992237 162.200612,205.974382 C161.394247,205.831541 160.86534,205.129757 161.030082,204.405461 L169.04171,168.077299 C169.206452,167.354555 169.986805,166.881006 170.79317,167.026176 C171.608206,167.169793 172.128442,167.870801 171.972371,168.595097 L163.952072,204.924036 C163.813342,205.559056 163.189059,206 162.495412,206" id="Fill-381" fill="#171817"></path>
                        <path d="M131.449152,206 C131.28923,206 131.120892,205.974869 130.952553,205.919109 C130.203448,205.665442 129.816269,204.890303 130.085611,204.189773 L144.192368,167.891767 C144.46171,167.189666 145.294985,166.826835 146.044091,167.081288 C146.793196,167.335741 147.188792,168.110094 146.911033,168.81141 L132.812693,205.109415 C132.593853,205.659159 132.038336,206 131.449152,206" id="Fill-382" fill="#171817"></path>
                        <path d="M97.4617081,206 C97.2156659,206 96.9696238,205.944516 96.74055,205.826516 C96.0448446,205.460793 95.7903182,204.641042 96.1890762,203.994775 L117.272344,169.682461 C117.662618,169.036194 118.553461,168.809571 119.25765,169.173731 C119.96184,169.539454 120.207882,170.359986 119.809124,171.005471 L98.73434,205.317786 C98.4628452,205.755403 97.9707609,206 97.4617081,206" id="Fill-383" fill="#171817"></path>
                        <path d="M65.4690636,205 C65.1536921,205 64.8468442,204.911482 64.582614,204.729829 C63.934824,204.28801 63.8069707,203.457483 64.3013368,202.875575 L92.3693974,169.522879 C92.85524,168.939432 93.7757837,168.828593 94.4235738,169.269642 C95.0628403,169.711461 95.1906936,170.542757 94.704851,171.123895 L66.6367904,204.476591 C66.3469896,204.819886 65.9037648,205 65.4690636,205" id="Fill-384" fill="#171817"></path>
                        <path d="M222.50732,206 C221.804981,206 221.18068,205.559052 221.041947,204.924024 L213.030082,168.594707 C212.865336,167.870403 213.394258,167.169389 214.200647,167.02577 C215.015707,166.882151 215.796083,167.353376 215.952158,168.076904 L223.972693,204.405444 C224.128769,205.129748 223.599847,205.831539 222.793458,205.974382 C222.698079,205.992237 222.602699,206 222.50732,206" id="Fill-385" fill="#171817"></path>
                        <path d="M253.550562,206 C252.961261,206 252.405635,205.659156 252.195171,205.109408 L238.085628,168.811111 C237.816233,168.10979 238.203488,167.33543 238.952741,167.080975 C239.701995,166.827306 240.535435,167.189354 240.813248,167.891461 L254.914372,204.189758 C255.183767,204.890294 254.796512,205.665439 254.047259,205.919108 C253.887305,205.974869 253.718934,206 253.550562,206" id="Fill-386" fill="#171817"></path>
                        <path d="M287.544571,206 C287.035376,206 286.543155,205.755404 286.271585,205.317789 L265.190929,171.005615 C264.79206,170.360132 265.038171,169.539603 265.742557,169.173881 C266.438456,168.810504 267.329546,169.034001 267.728415,169.682609 L288.809071,203.994784 C289.20794,204.641048 288.961829,205.460795 288.257443,205.826517 C288.028306,205.944517 287.782195,206 287.544571,206" id="Fill-387" fill="#171817"></path>
                        <path d="M319.537124,205 C319.093899,205 318.659198,204.819884 318.369397,204.476586 L290.301337,171.123555 C289.806971,170.542412 289.934824,169.711107 290.582614,169.269284 C291.221881,168.82746 292.142424,168.94138 292.63679,169.522524 L320.704851,202.875554 C321.190694,203.457468 321.06284,204.288003 320.423574,204.729826 C320.159344,204.911481 319.843972,205 319.537124,205" id="Fill-388" fill="#171817"></path>
                        <path d="M65.4469678,177 C64.6477705,177 64,176.333188 64,175.508814 C64,174.681828 64.6393579,174.008923 65.4385552,174.005441 L322.552951,173 C322.552951,173 322.552951,173 322.561364,173 C323.352149,173 324,173.666812 324,174.491186 C324.008332,175.317301 323.360561,175.991077 322.561364,175.993689 L65.4553804,177 L65.4469678,177" id="Fill-389" fill="#171817"></path>
                        <path d="M341.553014,193 L49.4469857,193 C48.6477785,193 48,192.327616 48,191.5 C48,190.671512 48.6477785,190 49.4469857,190 L341.553014,190 C342.352222,190 343,190.671512 343,191.5 C343,192.327616 342.352222,193 341.553014,193" id="Fill-390" fill="#171817"></path>
                    </g>
                    <g id="Bar-Chart" transform="translate(79.000000, 35.000000)">
                        <mask id="mask-2" fill="white">
                            <use xlink:href="#path-1"></use>
                        </mask>
                        <use id="Path" fill="#E4F2F8" xlink:href="#path-1"></use>
                        <rect id="Rectangle" fill="#FFB900" mask="url(#mask-2)" x="5.10948198" y="94.3274294" width="21" height="70" rx="5"></rect>
                        <rect id="Rectangle" fill="#FFB900" mask="url(#mask-2)" x="33.109482" y="87.3274294" width="21" height="70" rx="5"></rect>
                        <rect id="Rectangle" fill="#FFB900" mask="url(#mask-2)" x="61.109482" y="81.3274294" width="21" height="70" rx="5"></rect>
                        <rect id="Rectangle" fill="#FFB900" mask="url(#mask-2)" x="89.109482" y="78.3274294" width="21" height="70" rx="5"></rect>
                        <rect id="Rectangle" fill="#D02E7D" mask="url(#mask-2)" x="117.109482" y="78.3274294" width="21" height="70" rx="5"></rect>
                        <rect id="Rectangle" fill="#D02E7D" mask="url(#mask-2)" x="145.109482" y="72.3274294" width="21" height="70" rx="5"></rect>
                        <rect id="Rectangle" fill="#D02E7D" mask="url(#mask-2)" x="173.109482" y="64.3274294" width="21" height="68" rx="5"></rect>
                        <rect id="Rectangle" fill="#D02E7D" mask="url(#mask-2)" x="201.109482" y="53.3274294" width="21" height="79" rx="5"></rect>
                    </g>
                    <g id="Line-Chart" transform="translate(8.000000, 0.000000)">
                        <path id="Path-2" d="M336.838565,46.7193191 C283.159735,90.0019458 230.276989,111.396224 178.221553,110.796537 C120.645412,110.133251 61.6878652,128.557505 1.32084035,166.122588 C0.148567247,166.852068 -1.39310824,166.493113 -2.12258822,165.32084 C-2.85206821,164.148567 -2.49311346,162.606892 -1.32084035,161.877412 C59.8161198,123.833215 119.69214,105.121938 178.27915,105.796869 C229.030229,106.381529 280.783997,85.4612187 333.571599,42.9305941 L326.918291,35.2147029 C326.29439,34.4911608 326.375166,33.3988428 327.098708,32.7749423 C327.302093,32.5995663 327.543517,32.4739521 327.80386,32.4080475 L355.485121,25.4006816 C356.411294,25.1662259 357.352169,25.7269732 357.586625,26.6531457 C357.678478,27.015995 357.650166,27.3988483 357.50594,27.7442398 L346.503076,54.0936683 C346.134937,54.9752797 345.121814,55.3915314 344.240202,55.0233924 C343.992385,54.91991 343.772064,54.7601504 343.596688,54.5567655 L336.838565,46.7193191 Z" fill="#46A7CD" fill-rule="nonzero"></path>
                        <g id="Bling" transform="translate(333.000000, 0.000000)" stroke="#000000" stroke-linecap="round" stroke-linejoin="round" stroke-width="3">
                            <path d="M0.375,15.3692151 L8,21.6743799" id="Line-2"></path>
                            <path d="M18.625,0 L18.375,18" id="Line-2"></path>
                            <path d="M30.5,20.5 L45.875,8.71797483" id="Line-2"></path>
                            <path d="M32.5,31.5 L51.8125,38.1089874" id="Line-2"></path>
                            <path d="M25.5,42.5 L29.46875,50.1955063" id="Line-2"></path>
                        </g>
                    </g>
                </g>
            </g>
        </g>
    </g>
</svg>