<?xml version="1.0" encoding="UTF-8"?>
<svg width="520px" height="446px" viewBox="0 0 520 436" version="1.1" xmlns="http://www.w3.org/2000/svg" xmlns:xlink="http://www.w3.org/1999/xlink">
    <!-- Generator: Sketch 52.5 (67469) - http://www.bohemiancoding.com/sketch -->
    <title>Extend reach - vector</title>
    <desc>Created with Sketch.</desc>
    <defs>
        <polygon id="path-1" points="0 0 500 0 500 426 0 426"></polygon>
        <filter x="-3.5%" y="-2.9%" width="107.0%" height="108.2%" filterUnits="objectBoundingBox" id="filter-2">
            <feOffset dx="0" dy="5" in="SourceAlpha" result="shadowOffsetOuter1"></feOffset>
            <feGaussianBlur stdDeviation="5" in="shadowOffsetOuter1" result="shadowBlurOuter1"></feGaussianBlur>
            <feColorMatrix values="0 0 0 0 0   0 0 0 0 0   0 0 0 0 0  0 0 0 0.1 0" type="matrix" in="shadowBlurOuter1"></feColorMatrix>
        </filter>
        <rect id="path-3" x="2" y="214" width="496" height="210"></rect>
        <mask id="mask-4" maskContentUnits="userSpaceOnUse" maskUnits="objectBoundingBox" x="-2" y="-2" width="500" height="214">
            <rect x="0" y="212" width="500" height="214" fill="white"></rect>
            <use xlink:href="#path-3" fill="black"></use>
        </mask>
        <polygon id="path-5" points="0 0 496 0 496 105 0 105"></polygon>
        <filter x="-0.1%" y="-0.5%" width="100.2%" height="101.0%" filterUnits="objectBoundingBox" id="filter-6">
            <feOffset dx="0" dy="1" in="SourceAlpha" result="shadowOffsetInner1"></feOffset>
            <feComposite in="shadowOffsetInner1" in2="SourceAlpha" operator="arithmetic" k2="-1" k3="1" result="shadowInnerInner1"></feComposite>
            <feColorMatrix values="0 0 0 0 0.905882353   0 0 0 0 0.925490196   0 0 0 0 0.937254902  0 0 0 1 0" type="matrix" in="shadowInnerInner1"></feColorMatrix>
        </filter>
        <rect id="path-7" x="0" y="0" width="65" height="65"></rect>
        <rect id="path-9" x="0" y="0" width="65" height="65"></rect>
        <polygon id="path-11" points="0 0 496 0 496 105 0 105"></polygon>
        <filter x="-0.1%" y="-0.5%" width="100.2%" height="101.0%" filterUnits="objectBoundingBox" id="filter-12">
            <feOffset dx="0" dy="1" in="SourceAlpha" result="shadowOffsetInner1"></feOffset>
            <feComposite in="shadowOffsetInner1" in2="SourceAlpha" operator="arithmetic" k2="-1" k3="1" result="shadowInnerInner1"></feComposite>
            <feColorMatrix values="0 0 0 0 0.905882353   0 0 0 0 0.925490196   0 0 0 0 0.937254902  0 0 0 1 0" type="matrix" in="shadowInnerInner1"></feColorMatrix>
        </filter>
        <rect id="path-13" x="0" y="0" width="65" height="65"></rect>
        <polygon id="path-15" points="0 0 496 0 496 105 0 105"></polygon>
        <filter x="-0.1%" y="-0.5%" width="100.2%" height="101.0%" filterUnits="objectBoundingBox" id="filter-16">
            <feOffset dx="0" dy="1" in="SourceAlpha" result="shadowOffsetInner1"></feOffset>
            <feComposite in="shadowOffsetInner1" in2="SourceAlpha" operator="arithmetic" k2="-1" k3="1" result="shadowInnerInner1"></feComposite>
            <feColorMatrix values="0 0 0 0 0.905882353   0 0 0 0 0.925490196   0 0 0 0 0.937254902  0 0 0 1 0" type="matrix" in="shadowInnerInner1"></feColorMatrix>
        </filter>
        <rect id="path-17" x="0" y="0" width="65" height="65"></rect>
        <circle id="path-19" cx="250.5" cy="213.5" r="23.5"></circle>
        <filter x="-37.2%" y="-30.9%" width="174.5%" height="174.5%" filterUnits="objectBoundingBox" id="filter-20">
            <feMorphology radius="1" operator="dilate" in="SourceAlpha" result="shadowSpreadOuter1"></feMorphology>
            <feOffset dx="0" dy="3" in="shadowSpreadOuter1" result="shadowOffsetOuter1"></feOffset>
            <feGaussianBlur stdDeviation="5" in="shadowOffsetOuter1" result="shadowBlurOuter1"></feGaussianBlur>
            <feComposite in="shadowBlurOuter1" in2="SourceAlpha" operator="out" result="shadowBlurOuter1"></feComposite>
            <feColorMatrix values="0 0 0 0 0   0 0 0 0 0   0 0 0 0 0  0 0 0 0.2 0" type="matrix" in="shadowBlurOuter1"></feColorMatrix>
        </filter>
    </defs>
    <g id="Page-1" stroke="none" stroke-width="1" fill="none" fill-rule="evenodd">
        <g id="UA-Command-Center" transform="translate(-96.000000, -6230.000000)">
            <g id="Marketplace" transform="translate(0.000000, 5891.000000)">
                <g id="Extend-reach---vector" transform="translate(106.000000, 344.000000)">
                    <g id="Rectangle-9">
                        <use fill="black" fill-opacity="1" filter="url(#filter-2)" xlink:href="#path-1"></use>
                        <use fill="#FFFFFF" fill-rule="evenodd" xlink:href="#path-1"></use>
                    </g>
                    <rect id="Rectangle-17" stroke="#00B4FF" stroke-width="2" x="1" y="1" width="498" height="212"></rect>
                    <use id="Rectangle-17" stroke="#00B4FF" mask="url(#mask-4)" stroke-width="4" stroke-dasharray="5,5,5" xlink:href="#path-3"></use>
                    <g id="Group-Copy-6" transform="translate(2.000000, 319.000000)">
                        <g id="Table/Row/Shadow">
                            <use fill="#FFFFFF" fill-rule="evenodd" xlink:href="#path-5"></use>
                            <use fill="black" fill-opacity="1" filter="url(#filter-6)" xlink:href="#path-5"></use>
                        </g>
                        <g id="Channel" transform="translate(105.000000, 68.000000)" fill="#9C27B0" fill-opacity="0.1">
                            <rect id="Rectangle-48" x="0" y="0" width="67" height="17" rx="3"></rect>
                        </g>
                        <g id="Channel" transform="translate(178.000000, 68.000000)" fill="#F5A623" fill-opacity="0.1">
                            <rect id="Rectangle-48" x="0" y="0" width="67" height="17" rx="3"></rect>
                        </g>
                        <g id="Channel" transform="translate(250.000000, 68.000000)" fill="#00BCD4" fill-opacity="0.1">
                            <rect id="Rectangle-48" x="0" y="0" width="60" height="17" rx="3"></rect>
                        </g>
                        <path d="M116.162109,39 L115.256836,39 L107.645508,27.5917969 L107.575195,27.5917969 C107.645508,28.9511787 107.680664,29.976559 107.680664,30.6679688 L107.680664,39 L106.819336,39 L106.819336,26.1503906 L107.71582,26.1503906 L115.318359,37.5410156 L115.371094,37.5410156 C115.318359,36.4863229 115.291992,35.4843797 115.291992,34.5351562 L115.291992,26.1503906 L116.162109,26.1503906 L116.162109,39 Z M123.439453,39.1757812 C122.050774,39.1757812 120.968266,38.7480512 120.191895,37.8925781 C119.415523,37.0371051 119.027344,35.8388749 119.027344,34.2978516 C119.027344,32.7744064 119.40234,31.5542038 120.152344,30.637207 C120.902348,29.7202103 121.91308,29.2617188 123.18457,29.2617188 C124.309576,29.2617188 125.197262,29.6542929 125.847656,30.4394531 C126.49805,31.2246133 126.823242,32.2910089 126.823242,33.6386719 L126.823242,34.3417969 L119.941406,34.3417969 C119.953125,35.6543034 120.259274,36.6562465 120.859863,37.3476562 C121.460452,38.039066 122.320307,38.3847656 123.439453,38.3847656 C123.984378,38.3847656 124.463377,38.3466801 124.876465,38.2705078 C125.289553,38.1943356 125.812497,38.0302747 126.445312,37.7783203 L126.445312,38.5693359 C125.906247,38.8037121 125.408205,38.9633785 124.951172,39.0483398 C124.494138,39.1333012 123.990237,39.1757812 123.439453,39.1757812 Z M123.18457,30.0351562 C122.264644,30.0351562 121.52637,30.3383759 120.969727,30.9448242 C120.413083,31.5512726 120.087891,32.4257755 119.994141,33.5683594 L125.900391,33.5683594 C125.900391,32.460932 125.660159,31.595218 125.179688,30.9711914 C124.699216,30.3471648 124.034184,30.0351562 123.18457,30.0351562 Z M136.737305,39 L134.645508,32.6103516 C134.510742,32.1767556 134.337892,31.5410198 134.126953,30.703125 L134.074219,30.703125 L133.889648,31.3535156 L133.494141,32.6279297 L131.367188,39 L130.505859,39 L127.772461,29.4462891 L128.704102,29.4462891 L130.233398,34.9833984 C130.590822,36.354499 130.825195,37.3623015 130.936523,38.0068359 L130.989258,38.0068359 C131.334963,36.6357353 131.586913,35.7246116 131.745117,35.2734375 L133.713867,29.4462891 L134.504883,29.4462891 L136.376953,35.2558594 C136.79883,36.6328194 137.05664,37.5439431 137.150391,37.9892578 L137.203125,37.9892578 C137.25,37.6083965 137.484373,36.5888755 137.90625,34.9306641 L139.365234,29.4462891 L140.244141,29.4462891 L137.651367,39 L136.737305,39 Z M152.71582,36.5126953 C152.71582,37.3681683 152.390628,38.0258766 151.740234,38.4858398 C151.08984,38.9458031 150.166998,39.1757812 148.97168,39.1757812 C147.69433,39.1757812 146.680668,38.9794942 145.930664,38.5869141 L145.930664,37.6464844 C146.891606,38.1269555 147.905268,38.3671875 148.97168,38.3671875 C149.915044,38.3671875 150.631345,38.2104508 151.120605,37.8969727 C151.609866,37.5834945 151.854492,37.1660182 151.854492,36.6445312 C151.854492,36.1640601 151.65967,35.7597673 151.27002,35.4316406 C150.880369,35.103514 150.240239,34.7812516 149.349609,34.4648438 C148.394526,34.1191389 147.723635,33.8217786 147.336914,33.5727539 C146.950193,33.3237292 146.658692,33.042482 146.462402,32.7290039 C146.266112,32.4155258 146.167969,32.0332054 146.167969,31.5820312 C146.167969,30.8671839 146.468259,30.3017599 147.068848,29.8857422 C147.669437,29.4697245 148.508784,29.2617188 149.586914,29.2617188 C150.618169,29.2617188 151.596675,29.4550762 152.522461,29.8417969 L152.197266,30.6328125 C151.259761,30.2460918 150.389652,30.0527344 149.586914,30.0527344 C148.807613,30.0527344 148.189455,30.1816393 147.732422,30.4394531 C147.275388,30.6972669 147.046875,31.0546852 147.046875,31.5117188 C147.046875,32.0097681 147.224119,32.4082016 147.578613,32.7070312 C147.933107,33.0058609 148.625971,33.3398419 149.657227,33.7089844 C150.518559,34.0195328 151.145506,34.2993152 151.538086,34.5483398 C151.930666,34.7973645 152.225097,35.0800765 152.421387,35.3964844 C152.617677,35.7128922 152.71582,36.0849588 152.71582,36.5126953 Z M163.078125,34.2099609 C163.078125,35.7685625 162.700199,36.9858355 161.944336,37.8618164 C161.188473,38.7377973 160.145514,39.1757812 158.81543,39.1757812 C157.977535,39.1757812 157.239261,38.9736348 156.600586,38.5693359 C155.961911,38.165037 155.472658,37.5849647 155.132812,36.8291016 C154.792967,36.0732384 154.623047,35.2002003 154.623047,34.2099609 C154.623047,32.6513594 155.000973,31.4370161 155.756836,30.5668945 C156.512699,29.696773 157.549798,29.2617188 158.868164,29.2617188 C160.180671,29.2617188 161.210445,29.7026323 161.95752,30.5844727 C162.704594,31.466313 163.078125,32.674797 163.078125,34.2099609 Z M155.537109,34.2099609 C155.537109,35.5224675 155.825681,36.546383 156.402832,37.2817383 C156.979983,38.0170935 157.795893,38.3847656 158.850586,38.3847656 C159.905279,38.3847656 160.721189,38.0170935 161.29834,37.2817383 C161.875491,36.546383 162.164062,35.5224675 162.164062,34.2099609 C162.164062,32.891595 161.872562,31.8691443 161.289551,31.1425781 C160.70654,30.416012 159.887701,30.0527344 158.833008,30.0527344 C157.778315,30.0527344 156.965335,30.4145472 156.394043,31.1381836 C155.822751,31.86182 155.537109,32.8857356 155.537109,34.2099609 Z M166.479492,29.4462891 L166.479492,35.6337891 C166.479492,36.5947314 166.681639,37.2934548 167.085938,37.7299805 C167.490236,38.1665061 168.117183,38.3847656 168.966797,38.3847656 C170.103521,38.3847656 170.939939,38.0976591 171.476074,37.5234375 C172.01221,36.9492159 172.280273,36.0146549 172.280273,34.7197266 L172.280273,29.4462891 L173.141602,29.4462891 L173.141602,39 L172.40332,39 L172.245117,37.6816406 L172.192383,37.6816406 C171.571286,38.6777394 170.466805,39.1757812 168.878906,39.1757812 C166.705067,39.1757812 165.618164,38.0127069 165.618164,35.6865234 L165.618164,29.4462891 L166.479492,29.4462891 Z M180.102539,29.2617188 C180.506838,29.2617188 180.940427,29.302734 181.40332,29.3847656 L181.236328,30.2197266 C180.837889,30.1201167 180.424807,30.0703125 179.99707,30.0703125 C179.182613,30.0703125 178.514651,30.4160122 177.993164,31.1074219 C177.471677,31.7988316 177.210938,32.6718697 177.210938,33.7265625 L177.210938,39 L176.34082,39 L176.34082,29.4462891 L177.079102,29.4462891 L177.166992,31.1689453 L177.228516,31.1689453 C177.621096,30.4658168 178.040037,29.9721694 178.485352,29.6879883 C178.930666,29.4038072 179.469723,29.2617188 180.102539,29.2617188 Z M186.799805,39.1757812 C185.434563,39.1757812 184.365238,38.7451215 183.591797,37.8837891 C182.818356,37.0224566 182.431641,35.8212968 182.431641,34.2802734 C182.431641,32.6982343 182.833004,31.466313 183.635742,30.5844727 C184.438481,29.7026323 185.537102,29.2617188 186.931641,29.2617188 C187.757817,29.2617188 188.548824,29.405272 189.304688,29.6923828 L189.067383,30.4658203 C188.241207,30.1904283 187.523441,30.0527344 186.914062,30.0527344 C185.742182,30.0527344 184.854495,30.4145472 184.250977,31.1381836 C183.647458,31.86182 183.345703,32.9033135 183.345703,34.2626953 C183.345703,35.5517643 183.647458,36.5610315 184.250977,37.2905273 C184.854495,38.0200232 185.698237,38.3847656 186.782227,38.3847656 C187.649418,38.3847656 188.455074,38.2294937 189.199219,37.9189453 L189.199219,38.7275391 C188.589841,39.0263687 187.790044,39.1757812 186.799805,39.1757812 Z M195.395508,39.1757812 C194.006829,39.1757812 192.92432,38.7480512 192.147949,37.8925781 C191.371578,37.0371051 190.983398,35.8388749 190.983398,34.2978516 C190.983398,32.7744064 191.358395,31.5542038 192.108398,30.637207 C192.858402,29.7202103 193.869134,29.2617188 195.140625,29.2617188 C196.265631,29.2617188 197.153317,29.6542929 197.803711,30.4394531 C198.454105,31.2246133 198.779297,32.2910089 198.779297,33.6386719 L198.779297,34.3417969 L191.897461,34.3417969 C191.90918,35.6543034 192.215329,36.6562465 192.815918,37.3476562 C193.416507,38.039066 194.276362,38.3847656 195.395508,38.3847656 C195.940432,38.3847656 196.419432,38.3466801 196.83252,38.2705078 C197.245608,38.1943356 197.768552,38.0302747 198.401367,37.7783203 L198.401367,38.5693359 C197.862302,38.8037121 197.36426,38.9633785 196.907227,39.0483398 C196.450193,39.1333012 195.946292,39.1757812 195.395508,39.1757812 Z M195.140625,30.0351562 C194.220699,30.0351562 193.482425,30.3383759 192.925781,30.9448242 C192.369138,31.5512726 192.043946,32.4257755 191.950195,33.5683594 L197.856445,33.5683594 C197.856445,32.460932 197.616213,31.595218 197.135742,30.9711914 C196.655271,30.3471648 195.990239,30.0351562 195.140625,30.0351562 Z" id="Title" fill="#00B4FF"></path>
                        <g id="Channel" transform="translate(206.000000, 23.000000)">
                            <rect id="Rectangle-48" stroke="#B2E8FF" x="-0.5" y="-0.5" width="56" height="21" rx="3"></rect>
                            <path d="M32.5625,14 L31.4960938,11.2753906 L28.0625,11.2753906 L27.0078125,14 L26,14 L29.3867188,5.3984375 L30.2246094,5.3984375 L33.59375,14 L32.5625,14 Z M31.1855469,10.3789062 L30.1894531,7.72460938 C30.0605462,7.3886702 29.9277351,6.97656494 29.7910156,6.48828125 C29.7050777,6.86328313 29.5820321,7.27538838 29.421875,7.72460938 L28.4140625,10.3789062 L31.1855469,10.3789062 Z M37.6132812,14.1171875 C37.1953104,14.1171875 36.8134783,14.0400398 36.4677734,13.8857422 C36.1220686,13.7314445 35.8320324,13.4941422 35.5976562,13.1738281 L35.5273438,13.1738281 C35.574219,13.54883 35.5976562,13.9042952 35.5976562,14.2402344 L35.5976562,16.8828125 L34.625,16.8828125 L34.625,7.578125 L35.4160156,7.578125 L35.5507812,8.45703125 L35.5976562,8.45703125 C35.8476575,8.10546699 36.1386702,7.85156328 36.4707031,7.6953125 C36.802736,7.53906172 37.1835916,7.4609375 37.6132812,7.4609375 C38.464848,7.4609375 39.122068,7.75195021 39.5849609,8.33398438 C40.0478539,8.91601854 40.2792969,9.73241662 40.2792969,10.7832031 C40.2792969,11.8378959 40.0439477,12.6572236 39.5732422,13.2412109 C39.1025367,13.8251982 38.4492229,14.1171875 37.6132812,14.1171875 Z M37.4726562,8.28710938 C36.816403,8.28710938 36.3417983,8.46874818 36.0488281,8.83203125 C35.7558579,9.19531432 35.6054688,9.77343354 35.5976562,10.5664062 L35.5976562,10.7832031 C35.5976562,11.6855514 35.7480454,12.3310527 36.0488281,12.7197266 C36.3496109,13.1084004 36.8320279,13.3027344 37.4960938,13.3027344 C38.050784,13.3027344 38.48535,13.0781272 38.7998047,12.6289062 C39.1142594,12.1796853 39.2714844,11.5605508 39.2714844,10.7714844 C39.2714844,9.97069912 39.1142594,9.35644745 38.7998047,8.92871094 C38.48535,8.50097442 38.0429716,8.28710938 37.4726562,8.28710938 Z M44.9667969,14.1171875 C44.548826,14.1171875 44.1669939,14.0400398 43.8212891,13.8857422 C43.4755842,13.7314445 43.185548,13.4941422 42.9511719,13.1738281 L42.8808594,13.1738281 C42.9277346,13.54883 42.9511719,13.9042952 42.9511719,14.2402344 L42.9511719,16.8828125 L41.9785156,16.8828125 L41.9785156,7.578125 L42.7695312,7.578125 L42.9042969,8.45703125 L42.9511719,8.45703125 C43.2011731,8.10546699 43.4921858,7.85156328 43.8242188,7.6953125 C44.1562517,7.53906172 44.5371072,7.4609375 44.9667969,7.4609375 C45.8183636,7.4609375 46.4755836,7.75195021 46.9384766,8.33398438 C47.4013695,8.91601854 47.6328125,9.73241662 47.6328125,10.7832031 C47.6328125,11.8378959 47.3974633,12.6572236 46.9267578,13.2412109 C46.4560523,13.8251982 45.8027386,14.1171875 44.9667969,14.1171875 Z M44.8261719,8.28710938 C44.1699186,8.28710938 43.695314,8.46874818 43.4023438,8.83203125 C43.1093735,9.19531432 42.9589844,9.77343354 42.9511719,10.5664062 L42.9511719,10.7832031 C42.9511719,11.6855514 43.101561,12.3310527 43.4023438,12.7197266 C43.7031265,13.1084004 44.1855436,13.3027344 44.8496094,13.3027344 C45.4042996,13.3027344 45.8388656,13.0781272 46.1533203,12.6289062 C46.467775,12.1796853 46.625,11.5605508 46.625,10.7714844 C46.625,9.97069912 46.467775,9.35644745 46.1533203,8.92871094 C45.8388656,8.50097442 45.3964872,8.28710938 44.8261719,8.28710938 Z" id="App" fill="#00B4FF"></path>
                            <path d="M17.34375,14.65625 L17.34375,5.34375 L10.65625,5.34375 L10.65625,14.65625 L17.34375,14.65625 Z M17.34375,2.6875 C17.6979184,2.6875 18.005207,2.81770703 18.265625,3.078125 C18.526043,3.33854297 18.65625,3.64583156 18.65625,4 L18.65625,16 C18.65625,16.3541684 18.526043,16.6666653 18.265625,16.9375 C18.005207,17.2083347 17.6979184,17.34375 17.34375,17.34375 L10.65625,17.34375 C10.3020816,17.34375 9.99479297,17.2083347 9.734375,16.9375 C9.47395703,16.6666653 9.34375,16.3541684 9.34375,16 L9.34375,4 C9.34375,3.64583156 9.47395703,3.33333469 9.734375,3.0625 C9.99479297,2.79166531 10.3020816,2.65625 10.65625,2.65625 L17.34375,2.6875 Z" id="smartphone" fill="#00B4FF"></path>
                        </g>
                        <g id="Logo" transform="translate(20.000000, 20.000000)">
                            <mask id="mask-8" fill="white">
                                <use xlink:href="#path-7"></use>
                            </mask>
                            <rect stroke="#E7ECEF" x="-0.5" y="-0.5" width="66" height="66"></rect>
                            <g id="logo-placeholder" mask="url(#mask-8)" fill-rule="nonzero">
                                <polygon id="Rectangle" fill="#FFFFFF" points="0 0 65 0 65 65 0 65"></polygon>
                                <g id="Group" transform="translate(6.691176, 5.735294)" fill="#F0F4F6">
                                    <path d="M25.2340258,41.5315124 C23.9353414,41.5315124 22.6995212,41.4103352 21.6325735,41.1791746 L21.6325735,38.5700061 L21.6384568,38.5691366 L21.6384568,8.20744794 L21.0386869,8.344601 C15.9958257,9.49768658 11.5968593,12.6964394 8.92703874,17.1404378 L0.72495351,17.1404378 C2.61523656,12.4063748 5.81477214,8.34797006 10.01229,5.37113999 C14.5001597,2.18825429 19.7856526,0.505901353 25.2973257,0.505901353 C30.808672,0.505901353 36.0941649,2.18814561 40.5815988,5.37103131 C44.7788988,8.34786138 47.9787612,12.4062661 49.8686085,17.1403291 L41.6672859,17.1403291 C38.9733874,12.6544893 34.5301872,9.44562927 29.4337226,8.31634443 L28.8371123,8.18419061 L28.8371123,38.4392651 L28.8378749,38.4396998 L28.8378749,41.1804788 C27.7726705,41.4105525 26.5359787,41.5315124 25.2340258,41.5315124 L25.2340258,41.5315124 Z" id="Shape"></path>
                                    <path d="M25.2972168,0.99495744 C30.7061501,0.99495744 35.8931521,2.64601079 40.2974571,5.76955768 C42.4189322,7.27400289 44.298865,9.08133683 45.8850685,11.1412411 C47.1969358,12.8444604 48.2863272,14.6928751 49.1339584,16.6511643 L41.9426026,16.6511643 C39.1667737,12.1751056 34.6769429,8.97711354 29.53984,7.83880833 L28.3467282,7.574392 L28.3467282,8.79366317 L28.3467282,38.1410496 L28.3467282,38.7362851 L28.3474908,38.7367199 L28.3474908,40.7786921 C27.407361,40.9499704 26.3290825,41.0423476 25.2340258,41.0423476 C24.1241518,41.0423476 23.063959,40.9517092 22.1228487,40.7782573 L22.1228487,38.9979845 L22.128732,38.9973324 L22.128732,38.1385499 L22.128732,8.82126767 L22.128732,7.59373689 L20.9290832,7.86804302 C15.8467821,9.03014896 11.4024924,12.2174905 8.65150411,16.6514903 L1.45938567,16.6514903 C2.30712587,14.6932011 3.39651724,12.8447864 4.70838457,11.1415671 C6.29491493,9.08155419 8.17495667,7.27432893 10.2962138,5.76988372 C14.7006278,2.64601079 19.8878477,0.99495744 25.2972168,0.99495744 L25.2972168,0.99495744 Z M25.2972168,0.0168452652 C13.7050424,0.0168452652 3.80006815,7.36083751 0.0120934535,17.6293852 L9.20704032,17.6293852 C11.7552726,13.2409219 16.056402,9.9855472 21.1481817,8.82126767 L21.1481817,38.1387673 C21.1457848,38.1389846 21.1439326,38.1398541 21.1422984,38.1405062 L21.1422984,41.5668331 C22.274725,41.850377 23.6910754,42.0206772 25.2340258,42.0206772 C26.7763224,42.0206772 28.1960503,41.8516811 29.3280411,41.568572 L29.3280411,38.1415929 C29.3278232,38.1413756 29.3274964,38.1413756 29.3272785,38.1413756 L29.3272785,8.79388053 C34.4713542,9.93370725 38.8193321,13.2062532 41.3868485,17.6294938 L50.5812506,17.6294938 C46.7933849,7.36094619 36.8886286,0.0168452652 25.2972168,0.0168452652 L25.2972168,0.0168452652 L25.2972168,0.0168452652 Z" id="Shape"></path>
                                </g>
                                <g id="Group" transform="translate(5.735294, 26.764706)" fill="#F0F4F6">
                                    <path d="M27.208635,32.9070071 C12.4790036,32.9070071 0.495540998,20.8861871 0.495540998,6.1105016 C0.495540998,4.24801374 0.688165775,2.38927999 1.06835205,0.579018637 L8.74890731,0.578797806 C8.21440107,2.36808023 7.94384581,4.22548898 7.94384581,6.1105016 C7.94384581,16.7662553 16.586094,25.4356351 27.2087451,25.4356351 C37.8308458,25.4356351 46.4726537,16.7660345 46.4726537,6.1105016 C46.4726537,4.22648272 46.2019884,2.36874272 45.6677023,0.579018637 L53.3481475,0.579018637 C53.7282237,2.38939041 53.9208485,4.24801374 53.9208485,6.1105016 C53.9207384,20.8861871 41.9377161,32.9070071 27.208635,32.9070071 L27.208635,32.9070071 Z" id="Shape"></path>
                                    <path d="M8.09497371,1.07588818 C7.66547549,2.7130181 7.44830481,4.40093914 7.44830481,6.11072243 C7.44830481,17.0405273 16.3126769,25.932615 27.208525,25.932615 C38.1037126,25.932615 46.9677545,17.0405273 46.9677545,6.11072243 C46.9677545,4.40160163 46.7505838,2.7136806 46.3210856,1.07610901 L52.9427549,1.07610901 C53.2631725,2.72792419 53.4255276,4.4178327 53.4255276,6.11072243 C53.4255276,20.6123568 41.6645192,32.4104688 27.208525,32.4104688 C12.7519804,32.4104688 0.990751783,20.612136 0.990751783,6.11072243 C0.990751783,4.41761187 1.15288681,2.72781377 1.4731943,1.07610901 L8.09497371,1.07588818 L8.09497371,1.07588818 Z M9.42683645,0.0820386818 L0.669453654,0.0823699282 C0.231590018,2.02225903 0.000110071301,4.03988061 0.000110071301,6.11072243 C0.000110071301,21.1601279 12.2059167,33.4042079 27.208525,33.4042079 C42.2102527,33.4042079 54.4160593,21.1601279 54.4160593,6.11072243 C54.4160593,4.03988061 54.1844693,2.02236944 53.7468258,0.0823699282 L44.9892228,0.0823699282 C45.6292874,1.97566371 45.9771127,4.00311226 45.9771127,6.11072243 C45.9771127,16.4923146 37.5575388,24.9388759 27.208525,24.9388759 C16.8595111,24.9388759 8.43894652,16.4923146 8.43894652,6.11072243 C8.43894652,4.0026706 8.78655169,1.97522204 9.42683645,0.0820386818 L9.42683645,0.0820386818 L9.42683645,0.0820386818 Z" id="Shape"></path>
                                </g>
                            </g>
                        </g>
                        <path d="M105,54 C105,52.3431458 106.342235,51 107.999918,51 L241.000082,51 C242.656891,51 244,52.3465171 244,54 L244,54 C244,55.6568542 242.657765,57 241.000082,57 L107.999918,57 C106.343109,57 105,55.6534829 105,54 L105,54 Z" id="Rectangle-3" fill="#E7ECEF"></path>
                        <g id="Add-to-trade" transform="translate(391.000000, 20.000000)" fill="#00B4FF">
                            <path d="M0,2.99428189 C0,1.34058566 1.33514702,0 3.00022799,0 L81.999772,0 C83.6567522,0 85,1.3405687 85,2.99428189 L85,26.0057181 C85,27.6594143 83.664853,29 81.999772,29 L3.00022799,29 C1.34324782,29 0,27.6594313 0,26.0057181 L0,2.99428189 Z" id="Rectangle-2"></path>
                        </g>
                    </g>
                    <g id="Group-Copy-7" transform="translate(2.000000, 2.000000)">
                        <polygon id="Table/Row/Shadow" fill="#FFFFFF" points="0 0 496 0 496 105 0 105"></polygon>
                        <g id="Channel" transform="translate(171.000000, 68.000000)" fill="#F5A623" fill-opacity="0.1">
                            <rect id="Rectangle-48" x="0" y="0" width="67" height="17" rx="3"></rect>
                        </g>
                        <g id="Channel" transform="translate(105.000000, 68.000000)" fill="#00BCD4" fill-opacity="0.1">
                            <rect id="Rectangle-48" x="0" y="0" width="60" height="17" rx="3"></rect>
                        </g>
                        <path d="M113.841797,39 L106.819336,39 L106.819336,26.1503906 L113.841797,26.1503906 L113.841797,26.9765625 L107.71582,26.9765625 L107.71582,31.8369141 L113.499023,31.8369141 L113.499023,32.6630859 L107.71582,32.6630859 L107.71582,38.1738281 L113.841797,38.1738281 L113.841797,39 Z M118.87793,34.0869141 L115.546875,29.4462891 L116.548828,29.4462891 L119.396484,33.4716797 L122.217773,29.4462891 L123.175781,29.4462891 L119.897461,34.0869141 L123.413086,39 L122.402344,39 L119.396484,34.7373047 L116.373047,39 L115.415039,39 L118.87793,34.0869141 Z M126.366211,39 L125.496094,39 L125.496094,29.4462891 L126.366211,29.4462891 L126.366211,39 Z M125.373047,26.7919922 C125.373047,26.2294894 125.557615,25.9482422 125.926758,25.9482422 C126.108399,25.9482422 126.250488,26.0214836 126.353027,26.1679688 C126.455567,26.3144539 126.506836,26.5224596 126.506836,26.7919922 C126.506836,27.0556654 126.455567,27.2636711 126.353027,27.4160156 C126.250488,27.5683601 126.108399,27.6445312 125.926758,27.6445312 C125.557615,27.6445312 125.373047,27.3603544 125.373047,26.7919922 Z M135.489258,36.5126953 C135.489258,37.3681683 135.164066,38.0258766 134.513672,38.4858398 C133.863278,38.9458031 132.940436,39.1757812 131.745117,39.1757812 C130.467767,39.1757812 129.454105,38.9794942 128.704102,38.5869141 L128.704102,37.6464844 C129.665044,38.1269555 130.678706,38.3671875 131.745117,38.3671875 C132.688481,38.3671875 133.404783,38.2104508 133.894043,37.8969727 C134.383303,37.5834945 134.62793,37.1660182 134.62793,36.6445312 C134.62793,36.1640601 134.433107,35.7597673 134.043457,35.4316406 C133.653807,35.103514 133.013676,34.7812516 132.123047,34.4648438 C131.167964,34.1191389 130.497072,33.8217786 130.110352,33.5727539 C129.723631,33.3237292 129.43213,33.042482 129.23584,32.7290039 C129.03955,32.4155258 128.941406,32.0332054 128.941406,31.5820312 C128.941406,30.8671839 129.241696,30.3017599 129.842285,29.8857422 C130.442874,29.4697245 131.282221,29.2617188 132.360352,29.2617188 C133.391607,29.2617188 134.370113,29.4550762 135.295898,29.8417969 L134.970703,30.6328125 C134.033198,30.2460918 133.16309,30.0527344 132.360352,30.0527344 C131.581051,30.0527344 130.962893,30.1816393 130.505859,30.4394531 C130.048826,30.6972669 129.820312,31.0546852 129.820312,31.5117188 C129.820312,32.0097681 129.997557,32.4082016 130.352051,32.7070312 C130.706545,33.0058609 131.399409,33.3398419 132.430664,33.7089844 C133.291996,34.0195328 133.918943,34.2993152 134.311523,34.5483398 C134.704104,34.7973645 134.998534,35.0800765 135.194824,35.3964844 C135.391114,35.7128922 135.489258,36.0849588 135.489258,36.5126953 Z M140.472656,38.4023438 C141.02344,38.4023438 141.503904,38.3554692 141.914062,38.2617188 L141.914062,38.9648438 C141.492185,39.1054695 141.005862,39.1757812 140.455078,39.1757812 C139.611324,39.1757812 138.988772,38.9501976 138.587402,38.4990234 C138.186033,38.0478493 137.985352,37.338872 137.985352,36.3720703 L137.985352,30.2021484 L136.570312,30.2021484 L136.570312,29.6923828 L137.985352,29.296875 L138.424805,27.1347656 L138.873047,27.1347656 L138.873047,29.4462891 L141.676758,29.4462891 L141.676758,30.2021484 L138.873047,30.2021484 L138.873047,36.2490234 C138.873047,36.981449 139.001952,37.5234357 139.259766,37.875 C139.517579,38.2265643 139.921872,38.4023438 140.472656,38.4023438 Z M144.849609,39 L143.979492,39 L143.979492,29.4462891 L144.849609,29.4462891 L144.849609,39 Z M143.856445,26.7919922 C143.856445,26.2294894 144.041014,25.9482422 144.410156,25.9482422 C144.591798,25.9482422 144.733886,26.0214836 144.836426,26.1679688 C144.938965,26.3144539 144.990234,26.5224596 144.990234,26.7919922 C144.990234,27.0556654 144.938965,27.2636711 144.836426,27.4160156 C144.733886,27.5683601 144.591798,27.6445312 144.410156,27.6445312 C144.041014,27.6445312 143.856445,27.3603544 143.856445,26.7919922 Z M154.710938,39 L154.710938,32.8037109 C154.710938,31.8427686 154.508791,31.1440452 154.104492,30.7075195 C153.700193,30.2709939 153.073246,30.0527344 152.223633,30.0527344 C151.081049,30.0527344 150.244632,30.3413057 149.714355,30.918457 C149.184079,31.4956084 148.918945,32.4316342 148.918945,33.7265625 L148.918945,39 L148.048828,39 L148.048828,29.4462891 L148.787109,29.4462891 L148.954102,30.7558594 L149.006836,30.7558594 C149.627933,29.7597606 150.732414,29.2617188 152.320312,29.2617188 C154.488292,29.2617188 155.572266,30.4247931 155.572266,32.7509766 L155.572266,39 L154.710938,39 Z M166.119141,29.4462891 L166.119141,30.0527344 L164.141602,30.1757812 C164.668948,30.8320345 164.932617,31.5527304 164.932617,32.3378906 C164.932617,33.2578171 164.626468,34.0034151 164.01416,34.574707 C163.401852,35.145999 162.580083,35.4316406 161.548828,35.4316406 C161.115232,35.4316406 160.810548,35.4140627 160.634766,35.3789062 C160.289061,35.5605478 160.025392,35.7744128 159.84375,36.0205078 C159.662108,36.2666028 159.571289,36.5273424 159.571289,36.8027344 C159.571289,37.1074234 159.687011,37.3300774 159.918457,37.4707031 C160.149904,37.6113288 160.538083,37.6816406 161.083008,37.6816406 L162.75293,37.6816406 C163.790044,37.6816406 164.583982,37.8911112 165.134766,38.3100586 C165.68555,38.729006 165.960938,39.3486287 165.960938,40.1689453 C165.960938,41.1767629 165.55225,41.9545871 164.734863,42.5024414 C163.917476,43.0502957 162.752937,43.3242188 161.241211,43.3242188 C160.040033,43.3242188 159.109867,43.0927758 158.450684,42.6298828 C157.791501,42.1669899 157.461914,41.5224651 157.461914,40.6962891 C157.461914,40.0400358 157.665525,39.4951194 158.072754,39.0615234 C158.479983,38.6279275 159.032223,38.332032 159.729492,38.1738281 C159.442381,38.0507806 159.212403,37.876466 159.039551,37.6508789 C158.866698,37.4252918 158.780273,37.1660171 158.780273,36.8730469 C158.780273,36.2343718 159.187496,35.6718774 160.001953,35.1855469 C159.44531,34.9570301 159.01172,34.598147 158.701172,34.1088867 C158.390623,33.6196265 158.235352,33.0585969 158.235352,32.4257812 C158.235352,31.4706983 158.538571,30.7045927 159.14502,30.1274414 C159.751468,29.5502901 160.570307,29.2617188 161.601562,29.2617188 C162.228519,29.2617188 162.714842,29.3232416 163.060547,29.4462891 L166.119141,29.4462891 Z M158.384766,40.6171875 C158.384766,41.9296941 159.360342,42.5859375 161.311523,42.5859375 C163.819348,42.5859375 165.073242,41.7861408 165.073242,40.1865234 C165.073242,39.6123018 164.876955,39.1962904 164.484375,38.9384766 C164.091795,38.6806628 163.456059,38.5517578 162.577148,38.5517578 L161.012695,38.5517578 C159.260733,38.5517578 158.384766,39.2402275 158.384766,40.6171875 Z M159.114258,32.4257812 C159.114258,33.1640662 159.338377,33.7368144 159.786621,34.144043 C160.234866,34.5512716 160.833981,34.7548828 161.583984,34.7548828 C162.380863,34.7548828 162.991697,34.5527364 163.416504,34.1484375 C163.841311,33.7441386 164.053711,33.158207 164.053711,32.390625 C164.053711,31.5761678 163.835451,30.9653341 163.398926,30.5581055 C162.9624,30.1508769 162.351566,29.9472656 161.566406,29.9472656 C160.804684,29.9472656 160.205569,30.1655252 159.769043,30.6020508 C159.332517,31.0385764 159.114258,31.6464805 159.114258,32.4257812 Z M178.678711,36.5126953 C178.678711,37.3681683 178.353519,38.0258766 177.703125,38.4858398 C177.052731,38.9458031 176.129889,39.1757812 174.93457,39.1757812 C173.65722,39.1757812 172.643558,38.9794942 171.893555,38.5869141 L171.893555,37.6464844 C172.854497,38.1269555 173.868159,38.3671875 174.93457,38.3671875 C175.877934,38.3671875 176.594236,38.2104508 177.083496,37.8969727 C177.572756,37.5834945 177.817383,37.1660182 177.817383,36.6445312 C177.817383,36.1640601 177.622561,35.7597673 177.23291,35.4316406 C176.84326,35.103514 176.203129,34.7812516 175.3125,34.4648438 C174.357417,34.1191389 173.686525,33.8217786 173.299805,33.5727539 C172.913084,33.3237292 172.621583,33.042482 172.425293,32.7290039 C172.229003,32.4155258 172.130859,32.0332054 172.130859,31.5820312 C172.130859,30.8671839 172.431149,30.3017599 173.031738,29.8857422 C173.632327,29.4697245 174.471674,29.2617188 175.549805,29.2617188 C176.58106,29.2617188 177.559566,29.4550762 178.485352,29.8417969 L178.160156,30.6328125 C177.222652,30.2460918 176.352543,30.0527344 175.549805,30.0527344 C174.770504,30.0527344 174.152346,30.1816393 173.695312,30.4394531 C173.238279,30.6972669 173.009766,31.0546852 173.009766,31.5117188 C173.009766,32.0097681 173.18701,32.4082016 173.541504,32.7070312 C173.895998,33.0058609 174.588862,33.3398419 175.620117,33.7089844 C176.48145,34.0195328 177.108396,34.2993152 177.500977,34.5483398 C177.893557,34.7973645 178.187987,35.0800765 178.384277,35.3964844 C178.580567,35.7128922 178.678711,36.0849588 178.678711,36.5126953 Z M189.041016,34.2099609 C189.041016,35.7685625 188.66309,36.9858355 187.907227,37.8618164 C187.151363,38.7377973 186.108405,39.1757812 184.77832,39.1757812 C183.940425,39.1757812 183.202152,38.9736348 182.563477,38.5693359 C181.924801,38.165037 181.435549,37.5849647 181.095703,36.8291016 C180.755858,36.0732384 180.585938,35.2002003 180.585938,34.2099609 C180.585938,32.6513594 180.963863,31.4370161 181.719727,30.5668945 C182.47559,29.696773 183.512689,29.2617188 184.831055,29.2617188 C186.143561,29.2617188 187.173336,29.7026323 187.92041,30.5844727 C188.667484,31.466313 189.041016,32.674797 189.041016,34.2099609 Z M181.5,34.2099609 C181.5,35.5224675 181.788571,36.546383 182.365723,37.2817383 C182.942874,38.0170935 183.758784,38.3847656 184.813477,38.3847656 C185.868169,38.3847656 186.684079,38.0170935 187.26123,37.2817383 C187.838382,36.546383 188.126953,35.5224675 188.126953,34.2099609 C188.126953,32.891595 187.835452,31.8691443 187.252441,31.1425781 C186.669431,30.416012 185.850591,30.0527344 184.795898,30.0527344 C183.741206,30.0527344 182.928226,30.4145472 182.356934,31.1381836 C181.785642,31.86182 181.5,32.8857356 181.5,34.2099609 Z M192.442383,29.4462891 L192.442383,35.6337891 C192.442383,36.5947314 192.644529,37.2934548 193.048828,37.7299805 C193.453127,38.1665061 194.080074,38.3847656 194.929688,38.3847656 C196.066412,38.3847656 196.902829,38.0976591 197.438965,37.5234375 C197.9751,36.9492159 198.243164,36.0146549 198.243164,34.7197266 L198.243164,29.4462891 L199.104492,29.4462891 L199.104492,39 L198.366211,39 L198.208008,37.6816406 L198.155273,37.6816406 C197.534177,38.6777394 196.429695,39.1757812 194.841797,39.1757812 C192.667958,39.1757812 191.581055,38.0127069 191.581055,35.6865234 L191.581055,29.4462891 L192.442383,29.4462891 Z M206.06543,29.2617188 C206.469729,29.2617188 206.903318,29.302734 207.366211,29.3847656 L207.199219,30.2197266 C206.800779,30.1201167 206.387697,30.0703125 205.959961,30.0703125 C205.145504,30.0703125 204.477542,30.4160122 203.956055,31.1074219 C203.434568,31.7988316 203.173828,32.6718697 203.173828,33.7265625 L203.173828,39 L202.303711,39 L202.303711,29.4462891 L203.041992,29.4462891 L203.129883,31.1689453 L203.191406,31.1689453 C203.583986,30.4658168 204.002927,29.9721694 204.448242,29.6879883 C204.893557,29.4038072 205.432614,29.2617188 206.06543,29.2617188 Z M212.762695,39.1757812 C211.397454,39.1757812 210.328129,38.7451215 209.554688,37.8837891 C208.781246,37.0224566 208.394531,35.8212968 208.394531,34.2802734 C208.394531,32.6982343 208.795894,31.466313 209.598633,30.5844727 C210.401371,29.7026323 211.499993,29.2617188 212.894531,29.2617188 C213.720707,29.2617188 214.511715,29.405272 215.267578,29.6923828 L215.030273,30.4658203 C214.204097,30.1904283 213.486331,30.0527344 212.876953,30.0527344 C211.705072,30.0527344 210.817386,30.4145472 210.213867,31.1381836 C209.610349,31.86182 209.308594,32.9033135 209.308594,34.2626953 C209.308594,35.5517643 209.610349,36.5610315 210.213867,37.2905273 C210.817386,38.0200232 211.661127,38.3847656 212.745117,38.3847656 C213.612309,38.3847656 214.417965,38.2294937 215.162109,37.9189453 L215.162109,38.7275391 C214.552731,39.0263687 213.752935,39.1757812 212.762695,39.1757812 Z M221.358398,39.1757812 C219.96972,39.1757812 218.887211,38.7480512 218.11084,37.8925781 C217.334469,37.0371051 216.946289,35.8388749 216.946289,34.2978516 C216.946289,32.7744064 217.321285,31.5542038 218.071289,30.637207 C218.821293,29.7202103 219.832025,29.2617188 221.103516,29.2617188 C222.228521,29.2617188 223.116208,29.6542929 223.766602,30.4394531 C224.416995,31.2246133 224.742188,32.2910089 224.742188,33.6386719 L224.742188,34.3417969 L217.860352,34.3417969 C217.87207,35.6543034 218.17822,36.6562465 218.778809,37.3476562 C219.379398,38.039066 220.239252,38.3847656 221.358398,38.3847656 C221.903323,38.3847656 222.382322,38.3466801 222.79541,38.2705078 C223.208498,38.1943356 223.731442,38.0302747 224.364258,37.7783203 L224.364258,38.5693359 C223.825193,38.8037121 223.327151,38.9633785 222.870117,39.0483398 C222.413084,39.1333012 221.909182,39.1757812 221.358398,39.1757812 Z M221.103516,30.0351562 C220.183589,30.0351562 219.445315,30.3383759 218.888672,30.9448242 C218.332028,31.5512726 218.006836,32.4257755 217.913086,33.5683594 L223.819336,33.5683594 C223.819336,32.460932 223.579104,31.595218 223.098633,30.9711914 C222.618162,30.3471648 221.953129,30.0351562 221.103516,30.0351562 Z" id="Title" fill="#00B4FF"></path>
                        <g id="Channel" transform="translate(232.000000, 23.000000)">
                            <rect id="Rectangle-48" stroke="#B2E8FF" x="-0.5" y="-0.5" width="81" height="21" rx="3"></rect>
                            <path d="M33.8691406,14 L32.7324219,14 L28.0507812,6.81054688 L28.0039062,6.81054688 C28.0664066,7.65430109 28.0976562,8.42773086 28.0976562,9.13085938 L28.0976562,14 L27.1777344,14 L27.1777344,5.43359375 L28.3027344,5.43359375 L32.9726562,12.59375 L33.0195312,12.59375 C33.0117187,12.4882807 32.9941408,12.1494169 32.9667969,11.5771484 C32.939453,11.00488 32.9296875,10.5957044 32.9375,10.3496094 L32.9375,5.43359375 L33.8691406,5.43359375 L33.8691406,14 Z M38.7910156,14.1171875 C37.8417921,14.1171875 37.0927762,13.8281279 36.5439453,13.25 C35.9951144,12.6718721 35.7207031,11.8691458 35.7207031,10.8417969 C35.7207031,9.80663545 35.9755834,8.98437805 36.4853516,8.375 C36.9951197,7.76562195 37.6796832,7.4609375 38.5390625,7.4609375 C39.343754,7.4609375 39.9804664,7.72558329 40.4492188,8.25488281 C40.9179711,8.78418233 41.1523438,9.48241754 41.1523438,10.3496094 L41.1523438,10.9648438 L36.7285156,10.9648438 C36.748047,11.7187538 36.9384748,12.2910137 37.2998047,12.6816406 C37.6611346,13.0722676 38.1699186,13.2675781 38.8261719,13.2675781 C39.5175816,13.2675781 40.2011685,13.1230483 40.8769531,12.8339844 L40.8769531,13.7011719 C40.5332014,13.8496101 40.2080093,13.9560544 39.9013672,14.0205078 C39.594725,14.0849613 39.2246115,14.1171875 38.7910156,14.1171875 Z M38.5273438,8.27539062 C38.0117162,8.27539062 37.6005875,8.4433577 37.2939453,8.77929688 C36.9873032,9.11523605 36.8066409,9.58007516 36.7519531,10.1738281 L40.109375,10.1738281 C40.109375,9.56054381 39.9726576,9.09082194 39.6992188,8.76464844 C39.4257799,8.43847493 39.0351588,8.27539062 38.5273438,8.27539062 Z M44.8847656,13.3144531 C45.0566415,13.3144531 45.2226554,13.3017579 45.3828125,13.2763672 C45.5429696,13.2509764 45.6699214,13.2246095 45.7636719,13.1972656 L45.7636719,13.9414062 C45.6582026,13.9921878 45.5029307,14.0341795 45.2978516,14.0673828 C45.0927724,14.1005861 44.9082039,14.1171875 44.7441406,14.1171875 C43.5019469,14.1171875 42.8808594,13.4628972 42.8808594,12.1542969 L42.8808594,8.33398438 L41.9609375,8.33398438 L41.9609375,7.86523438 L42.8808594,7.4609375 L43.2910156,6.08984375 L43.8535156,6.08984375 L43.8535156,7.578125 L45.7167969,7.578125 L45.7167969,8.33398438 L43.8535156,8.33398438 L43.8535156,12.1132812 C43.8535156,12.5000019 43.9453116,12.796874 44.1289062,13.0039062 C44.3125009,13.2109385 44.5644515,13.3144531 44.8847656,13.3144531 Z M52.2910156,14 L51.1132812,10.2324219 C51.0390621,10.001952 50.9003916,9.47851971 50.6972656,8.66210938 L50.6503906,8.66210938 C50.4941398,9.34570654 50.3574225,9.87304502 50.2402344,10.2441406 L49.0273438,14 L47.9023438,14 L46.1503906,7.578125 L47.1699219,7.578125 C47.5839864,9.19141432 47.899413,10.4199177 48.1162109,11.2636719 C48.3330089,12.1074261 48.4570311,12.6757798 48.4882812,12.96875 L48.5351562,12.96875 C48.5781252,12.7460926 48.6474605,12.4580096 48.7431641,12.1044922 C48.8388677,11.7509748 48.9218746,11.4707042 48.9921875,11.2636719 L50.1699219,7.578125 L51.2246094,7.578125 L52.3730469,11.2636719 C52.591798,11.9355502 52.740234,12.4999977 52.8183594,12.9570312 L52.8652344,12.9570312 C52.8808595,12.8164055 52.9228512,12.5996108 52.9912109,12.3066406 C53.0595707,12.0136704 53.4667931,10.4375143 54.2128906,7.578125 L55.2207031,7.578125 L53.4453125,14 L52.2910156,14 Z M61.9238281,10.7832031 C61.9238281,11.8300834 61.6601589,12.647458 61.1328125,13.2353516 C60.6054661,13.8232451 59.8769578,14.1171875 58.9472656,14.1171875 C58.373044,14.1171875 57.8632835,13.9824232 57.4179688,13.7128906 C56.972654,13.443358 56.6289075,13.0566431 56.3867188,12.5527344 C56.14453,12.0488256 56.0234375,11.4589878 56.0234375,10.7832031 C56.0234375,9.73632289 56.2851536,8.92090136 56.8085938,8.33691406 C57.3320339,7.75292677 58.0585891,7.4609375 58.9882812,7.4609375 C59.8867232,7.4609375 60.6005833,7.75976264 61.1298828,8.35742188 C61.6591823,8.95508111 61.9238281,9.76366678 61.9238281,10.7832031 Z M57.03125,10.7832031 C57.03125,11.6035197 57.1953109,12.2285135 57.5234375,12.6582031 C57.8515641,13.0878928 58.3339812,13.3027344 58.9707031,13.3027344 C59.6074251,13.3027344 60.0908187,13.0888693 60.4208984,12.6611328 C60.7509782,12.2333963 60.9160156,11.607426 60.9160156,10.7832031 C60.9160156,9.96679279 60.7509782,9.34668181 60.4208984,8.92285156 C60.0908187,8.49902132 59.6035188,8.28710938 58.9589844,8.28710938 C58.3222624,8.28710938 57.8417985,8.49609166 57.5175781,8.9140625 C57.1933578,9.33203334 57.03125,9.95507398 57.03125,10.7832031 Z M66.5585938,7.4609375 C66.8437514,7.4609375 67.0996082,7.48437477 67.3261719,7.53125 L67.1914062,8.43359375 C66.9257799,8.37499971 66.6914073,8.34570312 66.4882812,8.34570312 C65.9687474,8.34570312 65.5244159,8.55663852 65.1552734,8.97851562 C64.786131,9.40039273 64.6015625,9.92577811 64.6015625,10.5546875 L64.6015625,14 L63.6289062,14 L63.6289062,7.578125 L64.4316406,7.578125 L64.5429688,8.76757812 L64.5898438,8.76757812 C64.8281262,8.34960729 65.1152327,8.02734488 65.4511719,7.80078125 C65.7871111,7.57421762 66.156248,7.4609375 66.5585938,7.4609375 Z M69.4882812,10.7128906 C69.6562508,10.4746082 69.9121077,10.1621113 70.2558594,9.77539062 L72.3300781,7.578125 L73.484375,7.578125 L70.8828125,10.3144531 L73.6660156,14 L72.4882812,14 L70.2207031,10.9648438 L69.4882812,11.5976562 L69.4882812,14 L68.5273438,14 L68.5273438,4.8828125 L69.4882812,4.8828125 L69.4882812,9.71679688 C69.4882812,9.9316417 69.4726564,10.2636696 69.4414062,10.7128906 L69.4882812,10.7128906 Z" id="Network" fill="#00B4FF"></path>
                            <path d="M17.34375,12.65625 L20,12.65625 L20,16 L16.65625,16 L16.65625,13.96875 L14,11.15625 L11.34375,13.96875 L11.34375,16 L8,16 L8,12.65625 L10.65625,12.65625 L13.34375,10 L13.34375,7.875 C12.9479147,7.72916594 12.6250013,7.489585 12.375,7.15625 C12.1249987,6.822915 12,6.43750219 12,6 C12,5.45833063 12.1979147,4.98958531 12.59375,4.59375 C12.9895853,4.19791469 13.4583306,4 14,4 C14.5416694,4 15.0104147,4.19791469 15.40625,4.59375 C15.8020853,4.98958531 16,5.45833063 16,6 C16,6.43750219 15.8750013,6.822915 15.625,7.15625 C15.3749987,7.489585 15.0520853,7.72916594 14.65625,7.875 L14.65625,10 L17.34375,12.65625 Z" id="device_hub" fill="#00B4FF"></path>
                        </g>
                        <g id="Logo" transform="translate(20.000000, 20.000000)">
                            <mask id="mask-10" fill="white">
                                <use xlink:href="#path-9"></use>
                            </mask>
                            <rect stroke="#E7ECEF" x="-0.5" y="-0.5" width="66" height="66"></rect>
                            <g id="logo-placeholder" mask="url(#mask-10)" fill-rule="nonzero">
                                <polygon id="Rectangle" fill="#FFFFFF" points="0 0 65 0 65 65 0 65"></polygon>
                                <g id="Group" transform="translate(6.691176, 5.735294)" fill="#F0F4F6">
                                    <path d="M25.2340258,41.5315124 C23.9353414,41.5315124 22.6995212,41.4103352 21.6325735,41.1791746 L21.6325735,38.5700061 L21.6384568,38.5691366 L21.6384568,8.20744794 L21.0386869,8.344601 C15.9958257,9.49768658 11.5968593,12.6964394 8.92703874,17.1404378 L0.72495351,17.1404378 C2.61523656,12.4063748 5.81477214,8.34797006 10.01229,5.37113999 C14.5001597,2.18825429 19.7856526,0.505901353 25.2973257,0.505901353 C30.808672,0.505901353 36.0941649,2.18814561 40.5815988,5.37103131 C44.7788988,8.34786138 47.9787612,12.4062661 49.8686085,17.1403291 L41.6672859,17.1403291 C38.9733874,12.6544893 34.5301872,9.44562927 29.4337226,8.31634443 L28.8371123,8.18419061 L28.8371123,38.4392651 L28.8378749,38.4396998 L28.8378749,41.1804788 C27.7726705,41.4105525 26.5359787,41.5315124 25.2340258,41.5315124 L25.2340258,41.5315124 Z" id="Shape"></path>
                                    <path d="M25.2972168,0.99495744 C30.7061501,0.99495744 35.8931521,2.64601079 40.2974571,5.76955768 C42.4189322,7.27400289 44.298865,9.08133683 45.8850685,11.1412411 C47.1969358,12.8444604 48.2863272,14.6928751 49.1339584,16.6511643 L41.9426026,16.6511643 C39.1667737,12.1751056 34.6769429,8.97711354 29.53984,7.83880833 L28.3467282,7.574392 L28.3467282,8.79366317 L28.3467282,38.1410496 L28.3467282,38.7362851 L28.3474908,38.7367199 L28.3474908,40.7786921 C27.407361,40.9499704 26.3290825,41.0423476 25.2340258,41.0423476 C24.1241518,41.0423476 23.063959,40.9517092 22.1228487,40.7782573 L22.1228487,38.9979845 L22.128732,38.9973324 L22.128732,38.1385499 L22.128732,8.82126767 L22.128732,7.59373689 L20.9290832,7.86804302 C15.8467821,9.03014896 11.4024924,12.2174905 8.65150411,16.6514903 L1.45938567,16.6514903 C2.30712587,14.6932011 3.39651724,12.8447864 4.70838457,11.1415671 C6.29491493,9.08155419 8.17495667,7.27432893 10.2962138,5.76988372 C14.7006278,2.64601079 19.8878477,0.99495744 25.2972168,0.99495744 L25.2972168,0.99495744 Z M25.2972168,0.0168452652 C13.7050424,0.0168452652 3.80006815,7.36083751 0.0120934535,17.6293852 L9.20704032,17.6293852 C11.7552726,13.2409219 16.056402,9.9855472 21.1481817,8.82126767 L21.1481817,38.1387673 C21.1457848,38.1389846 21.1439326,38.1398541 21.1422984,38.1405062 L21.1422984,41.5668331 C22.274725,41.850377 23.6910754,42.0206772 25.2340258,42.0206772 C26.7763224,42.0206772 28.1960503,41.8516811 29.3280411,41.568572 L29.3280411,38.1415929 C29.3278232,38.1413756 29.3274964,38.1413756 29.3272785,38.1413756 L29.3272785,8.79388053 C34.4713542,9.93370725 38.8193321,13.2062532 41.3868485,17.6294938 L50.5812506,17.6294938 C46.7933849,7.36094619 36.8886286,0.0168452652 25.2972168,0.0168452652 L25.2972168,0.0168452652 L25.2972168,0.0168452652 Z" id="Shape"></path>
                                </g>
                                <g id="Group" transform="translate(5.735294, 26.764706)" fill="#F0F4F6">
                                    <path d="M27.208635,32.9070071 C12.4790036,32.9070071 0.495540998,20.8861871 0.495540998,6.1105016 C0.495540998,4.24801374 0.688165775,2.38927999 1.06835205,0.579018637 L8.74890731,0.578797806 C8.21440107,2.36808023 7.94384581,4.22548898 7.94384581,6.1105016 C7.94384581,16.7662553 16.586094,25.4356351 27.2087451,25.4356351 C37.8308458,25.4356351 46.4726537,16.7660345 46.4726537,6.1105016 C46.4726537,4.22648272 46.2019884,2.36874272 45.6677023,0.579018637 L53.3481475,0.579018637 C53.7282237,2.38939041 53.9208485,4.24801374 53.9208485,6.1105016 C53.9207384,20.8861871 41.9377161,32.9070071 27.208635,32.9070071 L27.208635,32.9070071 Z" id="Shape"></path>
                                    <path d="M8.09497371,1.07588818 C7.66547549,2.7130181 7.44830481,4.40093914 7.44830481,6.11072243 C7.44830481,17.0405273 16.3126769,25.932615 27.208525,25.932615 C38.1037126,25.932615 46.9677545,17.0405273 46.9677545,6.11072243 C46.9677545,4.40160163 46.7505838,2.7136806 46.3210856,1.07610901 L52.9427549,1.07610901 C53.2631725,2.72792419 53.4255276,4.4178327 53.4255276,6.11072243 C53.4255276,20.6123568 41.6645192,32.4104688 27.208525,32.4104688 C12.7519804,32.4104688 0.990751783,20.612136 0.990751783,6.11072243 C0.990751783,4.41761187 1.15288681,2.72781377 1.4731943,1.07610901 L8.09497371,1.07588818 L8.09497371,1.07588818 Z M9.42683645,0.0820386818 L0.669453654,0.0823699282 C0.231590018,2.02225903 0.000110071301,4.03988061 0.000110071301,6.11072243 C0.000110071301,21.1601279 12.2059167,33.4042079 27.208525,33.4042079 C42.2102527,33.4042079 54.4160593,21.1601279 54.4160593,6.11072243 C54.4160593,4.03988061 54.1844693,2.02236944 53.7468258,0.0823699282 L44.9892228,0.0823699282 C45.6292874,1.97566371 45.9771127,4.00311226 45.9771127,6.11072243 C45.9771127,16.4923146 37.5575388,24.9388759 27.208525,24.9388759 C16.8595111,24.9388759 8.43894652,16.4923146 8.43894652,6.11072243 C8.43894652,4.0026706 8.78655169,1.97522204 9.42683645,0.0820386818 L9.42683645,0.0820386818 L9.42683645,0.0820386818 Z" id="Shape"></path>
                                </g>
                            </g>
                        </g>
                        <path d="M105,54 C105,52.3431458 106.346724,51 108.001199,51 L206.998801,51 C208.656318,51 210,52.3465171 210,54 L210,54 C210,55.6568542 208.653276,57 206.998801,57 L108.001199,57 C106.343682,57 105,55.6534829 105,54 L105,54 Z" id="Rectangle-3" fill="#E7ECEF"></path>
                        <g id="Add-to-trade" transform="translate(391.000000, 20.000000)" fill="#00B4FF">
                            <path d="M0,2.99428189 C0,1.34058566 1.33514702,0 3.00022799,0 L81.999772,0 C83.6567522,0 85,1.3405687 85,2.99428189 L85,26.0057181 C85,27.6594143 83.664853,29 81.999772,29 L3.00022799,29 C1.34324782,29 0,27.6594313 0,26.0057181 L0,2.99428189 Z" id="Rectangle-2"></path>
                        </g>
                    </g>
                    <g id="Group-Copy-8" transform="translate(2.000000, 107.000000)">
                        <g id="Table/Row/Shadow">
                            <use fill="#FFFFFF" fill-rule="evenodd" xlink:href="#path-11"></use>
                            <use fill="black" fill-opacity="1" filter="url(#filter-12)" xlink:href="#path-11"></use>
                        </g>
                        <g id="Channel" transform="translate(105.000000, 68.000000)" fill="#9C27B0" fill-opacity="0.1">
                            <rect id="Rectangle-48" x="0" y="0" width="67" height="17" rx="3"></rect>
                        </g>
                        <g id="Channel" transform="translate(178.000000, 68.000000)" fill="#00BCD4" fill-opacity="0.1">
                            <rect id="Rectangle-48" x="0" y="0" width="60" height="17" rx="3"></rect>
                        </g>
                        <path d="M113.841797,39 L106.819336,39 L106.819336,26.1503906 L113.841797,26.1503906 L113.841797,26.9765625 L107.71582,26.9765625 L107.71582,31.8369141 L113.499023,31.8369141 L113.499023,32.6630859 L107.71582,32.6630859 L107.71582,38.1738281 L113.841797,38.1738281 L113.841797,39 Z M118.87793,34.0869141 L115.546875,29.4462891 L116.548828,29.4462891 L119.396484,33.4716797 L122.217773,29.4462891 L123.175781,29.4462891 L119.897461,34.0869141 L123.413086,39 L122.402344,39 L119.396484,34.7373047 L116.373047,39 L115.415039,39 L118.87793,34.0869141 Z M126.366211,39 L125.496094,39 L125.496094,29.4462891 L126.366211,29.4462891 L126.366211,39 Z M125.373047,26.7919922 C125.373047,26.2294894 125.557615,25.9482422 125.926758,25.9482422 C126.108399,25.9482422 126.250488,26.0214836 126.353027,26.1679688 C126.455567,26.3144539 126.506836,26.5224596 126.506836,26.7919922 C126.506836,27.0556654 126.455567,27.2636711 126.353027,27.4160156 C126.250488,27.5683601 126.108399,27.6445312 125.926758,27.6445312 C125.557615,27.6445312 125.373047,27.3603544 125.373047,26.7919922 Z M135.489258,36.5126953 C135.489258,37.3681683 135.164066,38.0258766 134.513672,38.4858398 C133.863278,38.9458031 132.940436,39.1757812 131.745117,39.1757812 C130.467767,39.1757812 129.454105,38.9794942 128.704102,38.5869141 L128.704102,37.6464844 C129.665044,38.1269555 130.678706,38.3671875 131.745117,38.3671875 C132.688481,38.3671875 133.404783,38.2104508 133.894043,37.8969727 C134.383303,37.5834945 134.62793,37.1660182 134.62793,36.6445312 C134.62793,36.1640601 134.433107,35.7597673 134.043457,35.4316406 C133.653807,35.103514 133.013676,34.7812516 132.123047,34.4648438 C131.167964,34.1191389 130.497072,33.8217786 130.110352,33.5727539 C129.723631,33.3237292 129.43213,33.042482 129.23584,32.7290039 C129.03955,32.4155258 128.941406,32.0332054 128.941406,31.5820312 C128.941406,30.8671839 129.241696,30.3017599 129.842285,29.8857422 C130.442874,29.4697245 131.282221,29.2617188 132.360352,29.2617188 C133.391607,29.2617188 134.370113,29.4550762 135.295898,29.8417969 L134.970703,30.6328125 C134.033198,30.2460918 133.16309,30.0527344 132.360352,30.0527344 C131.581051,30.0527344 130.962893,30.1816393 130.505859,30.4394531 C130.048826,30.6972669 129.820312,31.0546852 129.820312,31.5117188 C129.820312,32.0097681 129.997557,32.4082016 130.352051,32.7070312 C130.706545,33.0058609 131.399409,33.3398419 132.430664,33.7089844 C133.291996,34.0195328 133.918943,34.2993152 134.311523,34.5483398 C134.704104,34.7973645 134.998534,35.0800765 135.194824,35.3964844 C135.391114,35.7128922 135.489258,36.0849588 135.489258,36.5126953 Z M140.472656,38.4023438 C141.02344,38.4023438 141.503904,38.3554692 141.914062,38.2617188 L141.914062,38.9648438 C141.492185,39.1054695 141.005862,39.1757812 140.455078,39.1757812 C139.611324,39.1757812 138.988772,38.9501976 138.587402,38.4990234 C138.186033,38.0478493 137.985352,37.338872 137.985352,36.3720703 L137.985352,30.2021484 L136.570312,30.2021484 L136.570312,29.6923828 L137.985352,29.296875 L138.424805,27.1347656 L138.873047,27.1347656 L138.873047,29.4462891 L141.676758,29.4462891 L141.676758,30.2021484 L138.873047,30.2021484 L138.873047,36.2490234 C138.873047,36.981449 139.001952,37.5234357 139.259766,37.875 C139.517579,38.2265643 139.921872,38.4023438 140.472656,38.4023438 Z M144.849609,39 L143.979492,39 L143.979492,29.4462891 L144.849609,29.4462891 L144.849609,39 Z M143.856445,26.7919922 C143.856445,26.2294894 144.041014,25.9482422 144.410156,25.9482422 C144.591798,25.9482422 144.733886,26.0214836 144.836426,26.1679688 C144.938965,26.3144539 144.990234,26.5224596 144.990234,26.7919922 C144.990234,27.0556654 144.938965,27.2636711 144.836426,27.4160156 C144.733886,27.5683601 144.591798,27.6445312 144.410156,27.6445312 C144.041014,27.6445312 143.856445,27.3603544 143.856445,26.7919922 Z M154.710938,39 L154.710938,32.8037109 C154.710938,31.8427686 154.508791,31.1440452 154.104492,30.7075195 C153.700193,30.2709939 153.073246,30.0527344 152.223633,30.0527344 C151.081049,30.0527344 150.244632,30.3413057 149.714355,30.918457 C149.184079,31.4956084 148.918945,32.4316342 148.918945,33.7265625 L148.918945,39 L148.048828,39 L148.048828,29.4462891 L148.787109,29.4462891 L148.954102,30.7558594 L149.006836,30.7558594 C149.627933,29.7597606 150.732414,29.2617188 152.320312,29.2617188 C154.488292,29.2617188 155.572266,30.4247931 155.572266,32.7509766 L155.572266,39 L154.710938,39 Z M166.119141,29.4462891 L166.119141,30.0527344 L164.141602,30.1757812 C164.668948,30.8320345 164.932617,31.5527304 164.932617,32.3378906 C164.932617,33.2578171 164.626468,34.0034151 164.01416,34.574707 C163.401852,35.145999 162.580083,35.4316406 161.548828,35.4316406 C161.115232,35.4316406 160.810548,35.4140627 160.634766,35.3789062 C160.289061,35.5605478 160.025392,35.7744128 159.84375,36.0205078 C159.662108,36.2666028 159.571289,36.5273424 159.571289,36.8027344 C159.571289,37.1074234 159.687011,37.3300774 159.918457,37.4707031 C160.149904,37.6113288 160.538083,37.6816406 161.083008,37.6816406 L162.75293,37.6816406 C163.790044,37.6816406 164.583982,37.8911112 165.134766,38.3100586 C165.68555,38.729006 165.960938,39.3486287 165.960938,40.1689453 C165.960938,41.1767629 165.55225,41.9545871 164.734863,42.5024414 C163.917476,43.0502957 162.752937,43.3242188 161.241211,43.3242188 C160.040033,43.3242188 159.109867,43.0927758 158.450684,42.6298828 C157.791501,42.1669899 157.461914,41.5224651 157.461914,40.6962891 C157.461914,40.0400358 157.665525,39.4951194 158.072754,39.0615234 C158.479983,38.6279275 159.032223,38.332032 159.729492,38.1738281 C159.442381,38.0507806 159.212403,37.876466 159.039551,37.6508789 C158.866698,37.4252918 158.780273,37.1660171 158.780273,36.8730469 C158.780273,36.2343718 159.187496,35.6718774 160.001953,35.1855469 C159.44531,34.9570301 159.01172,34.598147 158.701172,34.1088867 C158.390623,33.6196265 158.235352,33.0585969 158.235352,32.4257812 C158.235352,31.4706983 158.538571,30.7045927 159.14502,30.1274414 C159.751468,29.5502901 160.570307,29.2617188 161.601562,29.2617188 C162.228519,29.2617188 162.714842,29.3232416 163.060547,29.4462891 L166.119141,29.4462891 Z M158.384766,40.6171875 C158.384766,41.9296941 159.360342,42.5859375 161.311523,42.5859375 C163.819348,42.5859375 165.073242,41.7861408 165.073242,40.1865234 C165.073242,39.6123018 164.876955,39.1962904 164.484375,38.9384766 C164.091795,38.6806628 163.456059,38.5517578 162.577148,38.5517578 L161.012695,38.5517578 C159.260733,38.5517578 158.384766,39.2402275 158.384766,40.6171875 Z M159.114258,32.4257812 C159.114258,33.1640662 159.338377,33.7368144 159.786621,34.144043 C160.234866,34.5512716 160.833981,34.7548828 161.583984,34.7548828 C162.380863,34.7548828 162.991697,34.5527364 163.416504,34.1484375 C163.841311,33.7441386 164.053711,33.158207 164.053711,32.390625 C164.053711,31.5761678 163.835451,30.9653341 163.398926,30.5581055 C162.9624,30.1508769 162.351566,29.9472656 161.566406,29.9472656 C160.804684,29.9472656 160.205569,30.1655252 159.769043,30.6020508 C159.332517,31.0385764 159.114258,31.6464805 159.114258,32.4257812 Z M178.678711,36.5126953 C178.678711,37.3681683 178.353519,38.0258766 177.703125,38.4858398 C177.052731,38.9458031 176.129889,39.1757812 174.93457,39.1757812 C173.65722,39.1757812 172.643558,38.9794942 171.893555,38.5869141 L171.893555,37.6464844 C172.854497,38.1269555 173.868159,38.3671875 174.93457,38.3671875 C175.877934,38.3671875 176.594236,38.2104508 177.083496,37.8969727 C177.572756,37.5834945 177.817383,37.1660182 177.817383,36.6445312 C177.817383,36.1640601 177.622561,35.7597673 177.23291,35.4316406 C176.84326,35.103514 176.203129,34.7812516 175.3125,34.4648438 C174.357417,34.1191389 173.686525,33.8217786 173.299805,33.5727539 C172.913084,33.3237292 172.621583,33.042482 172.425293,32.7290039 C172.229003,32.4155258 172.130859,32.0332054 172.130859,31.5820312 C172.130859,30.8671839 172.431149,30.3017599 173.031738,29.8857422 C173.632327,29.4697245 174.471674,29.2617188 175.549805,29.2617188 C176.58106,29.2617188 177.559566,29.4550762 178.485352,29.8417969 L178.160156,30.6328125 C177.222652,30.2460918 176.352543,30.0527344 175.549805,30.0527344 C174.770504,30.0527344 174.152346,30.1816393 173.695312,30.4394531 C173.238279,30.6972669 173.009766,31.0546852 173.009766,31.5117188 C173.009766,32.0097681 173.18701,32.4082016 173.541504,32.7070312 C173.895998,33.0058609 174.588862,33.3398419 175.620117,33.7089844 C176.48145,34.0195328 177.108396,34.2993152 177.500977,34.5483398 C177.893557,34.7973645 178.187987,35.0800765 178.384277,35.3964844 C178.580567,35.7128922 178.678711,36.0849588 178.678711,36.5126953 Z M189.041016,34.2099609 C189.041016,35.7685625 188.66309,36.9858355 187.907227,37.8618164 C187.151363,38.7377973 186.108405,39.1757812 184.77832,39.1757812 C183.940425,39.1757812 183.202152,38.9736348 182.563477,38.5693359 C181.924801,38.165037 181.435549,37.5849647 181.095703,36.8291016 C180.755858,36.0732384 180.585938,35.2002003 180.585938,34.2099609 C180.585938,32.6513594 180.963863,31.4370161 181.719727,30.5668945 C182.47559,29.696773 183.512689,29.2617188 184.831055,29.2617188 C186.143561,29.2617188 187.173336,29.7026323 187.92041,30.5844727 C188.667484,31.466313 189.041016,32.674797 189.041016,34.2099609 Z M181.5,34.2099609 C181.5,35.5224675 181.788571,36.546383 182.365723,37.2817383 C182.942874,38.0170935 183.758784,38.3847656 184.813477,38.3847656 C185.868169,38.3847656 186.684079,38.0170935 187.26123,37.2817383 C187.838382,36.546383 188.126953,35.5224675 188.126953,34.2099609 C188.126953,32.891595 187.835452,31.8691443 187.252441,31.1425781 C186.669431,30.416012 185.850591,30.0527344 184.795898,30.0527344 C183.741206,30.0527344 182.928226,30.4145472 182.356934,31.1381836 C181.785642,31.86182 181.5,32.8857356 181.5,34.2099609 Z M192.442383,29.4462891 L192.442383,35.6337891 C192.442383,36.5947314 192.644529,37.2934548 193.048828,37.7299805 C193.453127,38.1665061 194.080074,38.3847656 194.929688,38.3847656 C196.066412,38.3847656 196.902829,38.0976591 197.438965,37.5234375 C197.9751,36.9492159 198.243164,36.0146549 198.243164,34.7197266 L198.243164,29.4462891 L199.104492,29.4462891 L199.104492,39 L198.366211,39 L198.208008,37.6816406 L198.155273,37.6816406 C197.534177,38.6777394 196.429695,39.1757812 194.841797,39.1757812 C192.667958,39.1757812 191.581055,38.0127069 191.581055,35.6865234 L191.581055,29.4462891 L192.442383,29.4462891 Z M206.06543,29.2617188 C206.469729,29.2617188 206.903318,29.302734 207.366211,29.3847656 L207.199219,30.2197266 C206.800779,30.1201167 206.387697,30.0703125 205.959961,30.0703125 C205.145504,30.0703125 204.477542,30.4160122 203.956055,31.1074219 C203.434568,31.7988316 203.173828,32.6718697 203.173828,33.7265625 L203.173828,39 L202.303711,39 L202.303711,29.4462891 L203.041992,29.4462891 L203.129883,31.1689453 L203.191406,31.1689453 C203.583986,30.4658168 204.002927,29.9721694 204.448242,29.6879883 C204.893557,29.4038072 205.432614,29.2617188 206.06543,29.2617188 Z M212.762695,39.1757812 C211.397454,39.1757812 210.328129,38.7451215 209.554688,37.8837891 C208.781246,37.0224566 208.394531,35.8212968 208.394531,34.2802734 C208.394531,32.6982343 208.795894,31.466313 209.598633,30.5844727 C210.401371,29.7026323 211.499993,29.2617188 212.894531,29.2617188 C213.720707,29.2617188 214.511715,29.405272 215.267578,29.6923828 L215.030273,30.4658203 C214.204097,30.1904283 213.486331,30.0527344 212.876953,30.0527344 C211.705072,30.0527344 210.817386,30.4145472 210.213867,31.1381836 C209.610349,31.86182 209.308594,32.9033135 209.308594,34.2626953 C209.308594,35.5517643 209.610349,36.5610315 210.213867,37.2905273 C210.817386,38.0200232 211.661127,38.3847656 212.745117,38.3847656 C213.612309,38.3847656 214.417965,38.2294937 215.162109,37.9189453 L215.162109,38.7275391 C214.552731,39.0263687 213.752935,39.1757812 212.762695,39.1757812 Z M221.358398,39.1757812 C219.96972,39.1757812 218.887211,38.7480512 218.11084,37.8925781 C217.334469,37.0371051 216.946289,35.8388749 216.946289,34.2978516 C216.946289,32.7744064 217.321285,31.5542038 218.071289,30.637207 C218.821293,29.7202103 219.832025,29.2617188 221.103516,29.2617188 C222.228521,29.2617188 223.116208,29.6542929 223.766602,30.4394531 C224.416995,31.2246133 224.742188,32.2910089 224.742188,33.6386719 L224.742188,34.3417969 L217.860352,34.3417969 C217.87207,35.6543034 218.17822,36.6562465 218.778809,37.3476562 C219.379398,38.039066 220.239252,38.3847656 221.358398,38.3847656 C221.903323,38.3847656 222.382322,38.3466801 222.79541,38.2705078 C223.208498,38.1943356 223.731442,38.0302747 224.364258,37.7783203 L224.364258,38.5693359 C223.825193,38.8037121 223.327151,38.9633785 222.870117,39.0483398 C222.413084,39.1333012 221.909182,39.1757812 221.358398,39.1757812 Z M221.103516,30.0351562 C220.183589,30.0351562 219.445315,30.3383759 218.888672,30.9448242 C218.332028,31.5512726 218.006836,32.4257755 217.913086,33.5683594 L223.819336,33.5683594 C223.819336,32.460932 223.579104,31.595218 223.098633,30.9711914 C222.618162,30.3471648 221.953129,30.0351562 221.103516,30.0351562 Z" id="Title" fill="#00B4FF"></path>
                        <g id="Channel" transform="translate(232.000000, 23.000000)">
                            <path d="M-0.5,2.99420208 C-0.5,1.06577255 1.06838978,-0.5 2.99609755,-0.5 L52.0039024,-0.5 C53.9337903,-0.5 55.5,1.06621612 55.5,2.99420208 L55.5,17.0057979 C55.5,18.9342274 53.9316102,20.5 52.0039024,20.5 L2.99609755,20.5 C1.06620965,20.5 -0.5,18.9337839 -0.5,17.0057979 L-0.5,2.99420208 Z" id="Rectangle-48" stroke="#B2E8FF"></path>
                            <path d="M32.5625,14 L31.4960938,11.2753906 L28.0625,11.2753906 L27.0078125,14 L26,14 L29.3867188,5.3984375 L30.2246094,5.3984375 L33.59375,14 L32.5625,14 Z M31.1855469,10.3789062 L30.1894531,7.72460938 C30.0605462,7.3886702 29.9277351,6.97656494 29.7910156,6.48828125 C29.7050777,6.86328313 29.5820321,7.27538838 29.421875,7.72460938 L28.4140625,10.3789062 L31.1855469,10.3789062 Z M37.6132812,14.1171875 C37.1953104,14.1171875 36.8134783,14.0400398 36.4677734,13.8857422 C36.1220686,13.7314445 35.8320324,13.4941422 35.5976562,13.1738281 L35.5273438,13.1738281 C35.574219,13.54883 35.5976562,13.9042952 35.5976562,14.2402344 L35.5976562,16.8828125 L34.625,16.8828125 L34.625,7.578125 L35.4160156,7.578125 L35.5507812,8.45703125 L35.5976562,8.45703125 C35.8476575,8.10546699 36.1386702,7.85156328 36.4707031,7.6953125 C36.802736,7.53906172 37.1835916,7.4609375 37.6132812,7.4609375 C38.464848,7.4609375 39.122068,7.75195021 39.5849609,8.33398438 C40.0478539,8.91601854 40.2792969,9.73241662 40.2792969,10.7832031 C40.2792969,11.8378959 40.0439477,12.6572236 39.5732422,13.2412109 C39.1025367,13.8251982 38.4492229,14.1171875 37.6132812,14.1171875 Z M37.4726562,8.28710938 C36.816403,8.28710938 36.3417983,8.46874818 36.0488281,8.83203125 C35.7558579,9.19531432 35.6054688,9.77343354 35.5976562,10.5664062 L35.5976562,10.7832031 C35.5976562,11.6855514 35.7480454,12.3310527 36.0488281,12.7197266 C36.3496109,13.1084004 36.8320279,13.3027344 37.4960938,13.3027344 C38.050784,13.3027344 38.48535,13.0781272 38.7998047,12.6289062 C39.1142594,12.1796853 39.2714844,11.5605508 39.2714844,10.7714844 C39.2714844,9.97069912 39.1142594,9.35644745 38.7998047,8.92871094 C38.48535,8.50097442 38.0429716,8.28710938 37.4726562,8.28710938 Z M44.9667969,14.1171875 C44.548826,14.1171875 44.1669939,14.0400398 43.8212891,13.8857422 C43.4755842,13.7314445 43.185548,13.4941422 42.9511719,13.1738281 L42.8808594,13.1738281 C42.9277346,13.54883 42.9511719,13.9042952 42.9511719,14.2402344 L42.9511719,16.8828125 L41.9785156,16.8828125 L41.9785156,7.578125 L42.7695312,7.578125 L42.9042969,8.45703125 L42.9511719,8.45703125 C43.2011731,8.10546699 43.4921858,7.85156328 43.8242188,7.6953125 C44.1562517,7.53906172 44.5371072,7.4609375 44.9667969,7.4609375 C45.8183636,7.4609375 46.4755836,7.75195021 46.9384766,8.33398438 C47.4013695,8.91601854 47.6328125,9.73241662 47.6328125,10.7832031 C47.6328125,11.8378959 47.3974633,12.6572236 46.9267578,13.2412109 C46.4560523,13.8251982 45.8027386,14.1171875 44.9667969,14.1171875 Z M44.8261719,8.28710938 C44.1699186,8.28710938 43.695314,8.46874818 43.4023438,8.83203125 C43.1093735,9.19531432 42.9589844,9.77343354 42.9511719,10.5664062 L42.9511719,10.7832031 C42.9511719,11.6855514 43.101561,12.3310527 43.4023438,12.7197266 C43.7031265,13.1084004 44.1855436,13.3027344 44.8496094,13.3027344 C45.4042996,13.3027344 45.8388656,13.0781272 46.1533203,12.6289062 C46.467775,12.1796853 46.625,11.5605508 46.625,10.7714844 C46.625,9.97069912 46.467775,9.35644745 46.1533203,8.92871094 C45.8388656,8.50097442 45.3964872,8.28710938 44.8261719,8.28710938 Z" id="App" fill="#00B4FF"></path>
                            <path d="M17.34375,14.65625 L17.34375,5.34375 L10.65625,5.34375 L10.65625,14.65625 L17.34375,14.65625 Z M17.34375,2.6875 C17.6979184,2.6875 18.005207,2.81770703 18.265625,3.078125 C18.526043,3.33854297 18.65625,3.64583156 18.65625,4 L18.65625,16 C18.65625,16.3541684 18.526043,16.6666653 18.265625,16.9375 C18.005207,17.2083347 17.6979184,17.34375 17.34375,17.34375 L10.65625,17.34375 C10.3020816,17.34375 9.99479297,17.2083347 9.734375,16.9375 C9.47395703,16.6666653 9.34375,16.3541684 9.34375,16 L9.34375,4 C9.34375,3.64583156 9.47395703,3.33333469 9.734375,3.0625 C9.99479297,2.79166531 10.3020816,2.65625 10.65625,2.65625 L17.34375,2.6875 Z" id="smartphone" fill="#00B4FF"></path>
                        </g>
                        <g id="Logo" transform="translate(20.000000, 20.000000)">
                            <mask id="mask-14" fill="white">
                                <use xlink:href="#path-13"></use>
                            </mask>
                            <rect stroke="#E7ECEF" x="-0.5" y="-0.5" width="66" height="66"></rect>
                            <g id="logo-placeholder" mask="url(#mask-14)" fill-rule="nonzero">
                                <polygon id="Rectangle" fill="#FFFFFF" points="0 0 65 0 65 65 0 65"></polygon>
                                <g id="Group" transform="translate(6.691176, 5.735294)" fill="#F0F4F6">
                                    <path d="M25.2340258,41.5315124 C23.9353414,41.5315124 22.6995212,41.4103352 21.6325735,41.1791746 L21.6325735,38.5700061 L21.6384568,38.5691366 L21.6384568,8.20744794 L21.0386869,8.344601 C15.9958257,9.49768658 11.5968593,12.6964394 8.92703874,17.1404378 L0.72495351,17.1404378 C2.61523656,12.4063748 5.81477214,8.34797006 10.01229,5.37113999 C14.5001597,2.18825429 19.7856526,0.505901353 25.2973257,0.505901353 C30.808672,0.505901353 36.0941649,2.18814561 40.5815988,5.37103131 C44.7788988,8.34786138 47.9787612,12.4062661 49.8686085,17.1403291 L41.6672859,17.1403291 C38.9733874,12.6544893 34.5301872,9.44562927 29.4337226,8.31634443 L28.8371123,8.18419061 L28.8371123,38.4392651 L28.8378749,38.4396998 L28.8378749,41.1804788 C27.7726705,41.4105525 26.5359787,41.5315124 25.2340258,41.5315124 L25.2340258,41.5315124 Z" id="Shape"></path>
                                    <path d="M25.2972168,0.99495744 C30.7061501,0.99495744 35.8931521,2.64601079 40.2974571,5.76955768 C42.4189322,7.27400289 44.298865,9.08133683 45.8850685,11.1412411 C47.1969358,12.8444604 48.2863272,14.6928751 49.1339584,16.6511643 L41.9426026,16.6511643 C39.1667737,12.1751056 34.6769429,8.97711354 29.53984,7.83880833 L28.3467282,7.574392 L28.3467282,8.79366317 L28.3467282,38.1410496 L28.3467282,38.7362851 L28.3474908,38.7367199 L28.3474908,40.7786921 C27.407361,40.9499704 26.3290825,41.0423476 25.2340258,41.0423476 C24.1241518,41.0423476 23.063959,40.9517092 22.1228487,40.7782573 L22.1228487,38.9979845 L22.128732,38.9973324 L22.128732,38.1385499 L22.128732,8.82126767 L22.128732,7.59373689 L20.9290832,7.86804302 C15.8467821,9.03014896 11.4024924,12.2174905 8.65150411,16.6514903 L1.45938567,16.6514903 C2.30712587,14.6932011 3.39651724,12.8447864 4.70838457,11.1415671 C6.29491493,9.08155419 8.17495667,7.27432893 10.2962138,5.76988372 C14.7006278,2.64601079 19.8878477,0.99495744 25.2972168,0.99495744 L25.2972168,0.99495744 Z M25.2972168,0.0168452652 C13.7050424,0.0168452652 3.80006815,7.36083751 0.0120934535,17.6293852 L9.20704032,17.6293852 C11.7552726,13.2409219 16.056402,9.9855472 21.1481817,8.82126767 L21.1481817,38.1387673 C21.1457848,38.1389846 21.1439326,38.1398541 21.1422984,38.1405062 L21.1422984,41.5668331 C22.274725,41.850377 23.6910754,42.0206772 25.2340258,42.0206772 C26.7763224,42.0206772 28.1960503,41.8516811 29.3280411,41.568572 L29.3280411,38.1415929 C29.3278232,38.1413756 29.3274964,38.1413756 29.3272785,38.1413756 L29.3272785,8.79388053 C34.4713542,9.93370725 38.8193321,13.2062532 41.3868485,17.6294938 L50.5812506,17.6294938 C46.7933849,7.36094619 36.8886286,0.0168452652 25.2972168,0.0168452652 L25.2972168,0.0168452652 L25.2972168,0.0168452652 Z" id="Shape"></path>
                                </g>
                                <g id="Group" transform="translate(5.735294, 26.764706)" fill="#F0F4F6">
                                    <path d="M27.208635,32.9070071 C12.4790036,32.9070071 0.495540998,20.8861871 0.495540998,6.1105016 C0.495540998,4.24801374 0.688165775,2.38927999 1.06835205,0.579018637 L8.74890731,0.578797806 C8.21440107,2.36808023 7.94384581,4.22548898 7.94384581,6.1105016 C7.94384581,16.7662553 16.586094,25.4356351 27.2087451,25.4356351 C37.8308458,25.4356351 46.4726537,16.7660345 46.4726537,6.1105016 C46.4726537,4.22648272 46.2019884,2.36874272 45.6677023,0.579018637 L53.3481475,0.579018637 C53.7282237,2.38939041 53.9208485,4.24801374 53.9208485,6.1105016 C53.9207384,20.8861871 41.9377161,32.9070071 27.208635,32.9070071 L27.208635,32.9070071 Z" id="Shape"></path>
                                    <path d="M8.09497371,1.07588818 C7.66547549,2.7130181 7.44830481,4.40093914 7.44830481,6.11072243 C7.44830481,17.0405273 16.3126769,25.932615 27.208525,25.932615 C38.1037126,25.932615 46.9677545,17.0405273 46.9677545,6.11072243 C46.9677545,4.40160163 46.7505838,2.7136806 46.3210856,1.07610901 L52.9427549,1.07610901 C53.2631725,2.72792419 53.4255276,4.4178327 53.4255276,6.11072243 C53.4255276,20.6123568 41.6645192,32.4104688 27.208525,32.4104688 C12.7519804,32.4104688 0.990751783,20.612136 0.990751783,6.11072243 C0.990751783,4.41761187 1.15288681,2.72781377 1.4731943,1.07610901 L8.09497371,1.07588818 L8.09497371,1.07588818 Z M9.42683645,0.0820386818 L0.669453654,0.0823699282 C0.231590018,2.02225903 0.000110071301,4.03988061 0.000110071301,6.11072243 C0.000110071301,21.1601279 12.2059167,33.4042079 27.208525,33.4042079 C42.2102527,33.4042079 54.4160593,21.1601279 54.4160593,6.11072243 C54.4160593,4.03988061 54.1844693,2.02236944 53.7468258,0.0823699282 L44.9892228,0.0823699282 C45.6292874,1.97566371 45.9771127,4.00311226 45.9771127,6.11072243 C45.9771127,16.4923146 37.5575388,24.9388759 27.208525,24.9388759 C16.8595111,24.9388759 8.43894652,16.4923146 8.43894652,6.11072243 C8.43894652,4.0026706 8.78655169,1.97522204 9.42683645,0.0820386818 L9.42683645,0.0820386818 L9.42683645,0.0820386818 Z" id="Shape"></path>
                                </g>
                            </g>
                        </g>
                        <path d="M105,54 C105,52.3431458 106.342697,51 108.004723,51 L166.995277,51 C168.65474,51 170,52.3465171 170,54 L170,54 C170,55.6568542 168.657303,57 166.995277,57 L108.004723,57 C106.34526,57 105,55.6534829 105,54 L105,54 Z" id="Rectangle-3" fill="#E7ECEF"></path>
                        <g id="Add-to-trade" transform="translate(391.000000, 20.000000)" fill="#00B4FF">
                            <path d="M0,2.99428189 C0,1.34058566 1.33514702,0 3.00022799,0 L81.999772,0 C83.6567522,0 85,1.3405687 85,2.99428189 L85,26.0057181 C85,27.6594143 83.664853,29 81.999772,29 L3.00022799,29 C1.34324782,29 0,27.6594313 0,26.0057181 L0,2.99428189 Z" id="Rectangle-2"></path>
                        </g>
                    </g>
                    <g id="Group-Copy-9" transform="translate(2.000000, 214.000000)">
                        <g id="Table/Row/Shadow">
                            <use fill="#FFFFFF" fill-rule="evenodd" xlink:href="#path-15"></use>
                            <use fill="black" fill-opacity="1" filter="url(#filter-16)" xlink:href="#path-15"></use>
                        </g>
                        <g id="Channel" transform="translate(105.000000, 68.000000)" fill="#9C27B0" fill-opacity="0.1">
                            <rect id="Rectangle-48" x="0" y="0" width="67" height="17" rx="3"></rect>
                        </g>
                        <g id="Channel" transform="translate(178.000000, 68.000000)" fill="#F5A623" fill-opacity="0.1">
                            <rect id="Rectangle-48" x="0" y="0" width="67" height="17" rx="3"></rect>
                        </g>
                        <g id="Channel" transform="translate(250.000000, 68.000000)" fill="#00BCD4" fill-opacity="0.1">
                            <rect id="Rectangle-48" x="0" y="0" width="60" height="17" rx="3"></rect>
                        </g>
                        <path d="M116.162109,39 L115.256836,39 L107.645508,27.5917969 L107.575195,27.5917969 C107.645508,28.9511787 107.680664,29.976559 107.680664,30.6679688 L107.680664,39 L106.819336,39 L106.819336,26.1503906 L107.71582,26.1503906 L115.318359,37.5410156 L115.371094,37.5410156 C115.318359,36.4863229 115.291992,35.4843797 115.291992,34.5351562 L115.291992,26.1503906 L116.162109,26.1503906 L116.162109,39 Z M123.439453,39.1757812 C122.050774,39.1757812 120.968266,38.7480512 120.191895,37.8925781 C119.415523,37.0371051 119.027344,35.8388749 119.027344,34.2978516 C119.027344,32.7744064 119.40234,31.5542038 120.152344,30.637207 C120.902348,29.7202103 121.91308,29.2617188 123.18457,29.2617188 C124.309576,29.2617188 125.197262,29.6542929 125.847656,30.4394531 C126.49805,31.2246133 126.823242,32.2910089 126.823242,33.6386719 L126.823242,34.3417969 L119.941406,34.3417969 C119.953125,35.6543034 120.259274,36.6562465 120.859863,37.3476562 C121.460452,38.039066 122.320307,38.3847656 123.439453,38.3847656 C123.984378,38.3847656 124.463377,38.3466801 124.876465,38.2705078 C125.289553,38.1943356 125.812497,38.0302747 126.445312,37.7783203 L126.445312,38.5693359 C125.906247,38.8037121 125.408205,38.9633785 124.951172,39.0483398 C124.494138,39.1333012 123.990237,39.1757812 123.439453,39.1757812 Z M123.18457,30.0351562 C122.264644,30.0351562 121.52637,30.3383759 120.969727,30.9448242 C120.413083,31.5512726 120.087891,32.4257755 119.994141,33.5683594 L125.900391,33.5683594 C125.900391,32.460932 125.660159,31.595218 125.179688,30.9711914 C124.699216,30.3471648 124.034184,30.0351562 123.18457,30.0351562 Z M136.737305,39 L134.645508,32.6103516 C134.510742,32.1767556 134.337892,31.5410198 134.126953,30.703125 L134.074219,30.703125 L133.889648,31.3535156 L133.494141,32.6279297 L131.367188,39 L130.505859,39 L127.772461,29.4462891 L128.704102,29.4462891 L130.233398,34.9833984 C130.590822,36.354499 130.825195,37.3623015 130.936523,38.0068359 L130.989258,38.0068359 C131.334963,36.6357353 131.586913,35.7246116 131.745117,35.2734375 L133.713867,29.4462891 L134.504883,29.4462891 L136.376953,35.2558594 C136.79883,36.6328194 137.05664,37.5439431 137.150391,37.9892578 L137.203125,37.9892578 C137.25,37.6083965 137.484373,36.5888755 137.90625,34.9306641 L139.365234,29.4462891 L140.244141,29.4462891 L137.651367,39 L136.737305,39 Z M152.71582,36.5126953 C152.71582,37.3681683 152.390628,38.0258766 151.740234,38.4858398 C151.08984,38.9458031 150.166998,39.1757812 148.97168,39.1757812 C147.69433,39.1757812 146.680668,38.9794942 145.930664,38.5869141 L145.930664,37.6464844 C146.891606,38.1269555 147.905268,38.3671875 148.97168,38.3671875 C149.915044,38.3671875 150.631345,38.2104508 151.120605,37.8969727 C151.609866,37.5834945 151.854492,37.1660182 151.854492,36.6445312 C151.854492,36.1640601 151.65967,35.7597673 151.27002,35.4316406 C150.880369,35.103514 150.240239,34.7812516 149.349609,34.4648438 C148.394526,34.1191389 147.723635,33.8217786 147.336914,33.5727539 C146.950193,33.3237292 146.658692,33.042482 146.462402,32.7290039 C146.266112,32.4155258 146.167969,32.0332054 146.167969,31.5820312 C146.167969,30.8671839 146.468259,30.3017599 147.068848,29.8857422 C147.669437,29.4697245 148.508784,29.2617188 149.586914,29.2617188 C150.618169,29.2617188 151.596675,29.4550762 152.522461,29.8417969 L152.197266,30.6328125 C151.259761,30.2460918 150.389652,30.0527344 149.586914,30.0527344 C148.807613,30.0527344 148.189455,30.1816393 147.732422,30.4394531 C147.275388,30.6972669 147.046875,31.0546852 147.046875,31.5117188 C147.046875,32.0097681 147.224119,32.4082016 147.578613,32.7070312 C147.933107,33.0058609 148.625971,33.3398419 149.657227,33.7089844 C150.518559,34.0195328 151.145506,34.2993152 151.538086,34.5483398 C151.930666,34.7973645 152.225097,35.0800765 152.421387,35.3964844 C152.617677,35.7128922 152.71582,36.0849588 152.71582,36.5126953 Z M163.078125,34.2099609 C163.078125,35.7685625 162.700199,36.9858355 161.944336,37.8618164 C161.188473,38.7377973 160.145514,39.1757812 158.81543,39.1757812 C157.977535,39.1757812 157.239261,38.9736348 156.600586,38.5693359 C155.961911,38.165037 155.472658,37.5849647 155.132812,36.8291016 C154.792967,36.0732384 154.623047,35.2002003 154.623047,34.2099609 C154.623047,32.6513594 155.000973,31.4370161 155.756836,30.5668945 C156.512699,29.696773 157.549798,29.2617188 158.868164,29.2617188 C160.180671,29.2617188 161.210445,29.7026323 161.95752,30.5844727 C162.704594,31.466313 163.078125,32.674797 163.078125,34.2099609 Z M155.537109,34.2099609 C155.537109,35.5224675 155.825681,36.546383 156.402832,37.2817383 C156.979983,38.0170935 157.795893,38.3847656 158.850586,38.3847656 C159.905279,38.3847656 160.721189,38.0170935 161.29834,37.2817383 C161.875491,36.546383 162.164062,35.5224675 162.164062,34.2099609 C162.164062,32.891595 161.872562,31.8691443 161.289551,31.1425781 C160.70654,30.416012 159.887701,30.0527344 158.833008,30.0527344 C157.778315,30.0527344 156.965335,30.4145472 156.394043,31.1381836 C155.822751,31.86182 155.537109,32.8857356 155.537109,34.2099609 Z M166.479492,29.4462891 L166.479492,35.6337891 C166.479492,36.5947314 166.681639,37.2934548 167.085938,37.7299805 C167.490236,38.1665061 168.117183,38.3847656 168.966797,38.3847656 C170.103521,38.3847656 170.939939,38.0976591 171.476074,37.5234375 C172.01221,36.9492159 172.280273,36.0146549 172.280273,34.7197266 L172.280273,29.4462891 L173.141602,29.4462891 L173.141602,39 L172.40332,39 L172.245117,37.6816406 L172.192383,37.6816406 C171.571286,38.6777394 170.466805,39.1757812 168.878906,39.1757812 C166.705067,39.1757812 165.618164,38.0127069 165.618164,35.6865234 L165.618164,29.4462891 L166.479492,29.4462891 Z M180.102539,29.2617188 C180.506838,29.2617188 180.940427,29.302734 181.40332,29.3847656 L181.236328,30.2197266 C180.837889,30.1201167 180.424807,30.0703125 179.99707,30.0703125 C179.182613,30.0703125 178.514651,30.4160122 177.993164,31.1074219 C177.471677,31.7988316 177.210938,32.6718697 177.210938,33.7265625 L177.210938,39 L176.34082,39 L176.34082,29.4462891 L177.079102,29.4462891 L177.166992,31.1689453 L177.228516,31.1689453 C177.621096,30.4658168 178.040037,29.9721694 178.485352,29.6879883 C178.930666,29.4038072 179.469723,29.2617188 180.102539,29.2617188 Z M186.799805,39.1757812 C185.434563,39.1757812 184.365238,38.7451215 183.591797,37.8837891 C182.818356,37.0224566 182.431641,35.8212968 182.431641,34.2802734 C182.431641,32.6982343 182.833004,31.466313 183.635742,30.5844727 C184.438481,29.7026323 185.537102,29.2617188 186.931641,29.2617188 C187.757817,29.2617188 188.548824,29.405272 189.304688,29.6923828 L189.067383,30.4658203 C188.241207,30.1904283 187.523441,30.0527344 186.914062,30.0527344 C185.742182,30.0527344 184.854495,30.4145472 184.250977,31.1381836 C183.647458,31.86182 183.345703,32.9033135 183.345703,34.2626953 C183.345703,35.5517643 183.647458,36.5610315 184.250977,37.2905273 C184.854495,38.0200232 185.698237,38.3847656 186.782227,38.3847656 C187.649418,38.3847656 188.455074,38.2294937 189.199219,37.9189453 L189.199219,38.7275391 C188.589841,39.0263687 187.790044,39.1757812 186.799805,39.1757812 Z M195.395508,39.1757812 C194.006829,39.1757812 192.92432,38.7480512 192.147949,37.8925781 C191.371578,37.0371051 190.983398,35.8388749 190.983398,34.2978516 C190.983398,32.7744064 191.358395,31.5542038 192.108398,30.637207 C192.858402,29.7202103 193.869134,29.2617188 195.140625,29.2617188 C196.265631,29.2617188 197.153317,29.6542929 197.803711,30.4394531 C198.454105,31.2246133 198.779297,32.2910089 198.779297,33.6386719 L198.779297,34.3417969 L191.897461,34.3417969 C191.90918,35.6543034 192.215329,36.6562465 192.815918,37.3476562 C193.416507,38.039066 194.276362,38.3847656 195.395508,38.3847656 C195.940432,38.3847656 196.419432,38.3466801 196.83252,38.2705078 C197.245608,38.1943356 197.768552,38.0302747 198.401367,37.7783203 L198.401367,38.5693359 C197.862302,38.8037121 197.36426,38.9633785 196.907227,39.0483398 C196.450193,39.1333012 195.946292,39.1757812 195.395508,39.1757812 Z M195.140625,30.0351562 C194.220699,30.0351562 193.482425,30.3383759 192.925781,30.9448242 C192.369138,31.5512726 192.043946,32.4257755 191.950195,33.5683594 L197.856445,33.5683594 C197.856445,32.460932 197.616213,31.595218 197.135742,30.9711914 C196.655271,30.3471648 195.990239,30.0351562 195.140625,30.0351562 Z" id="Title" fill="#00B4FF"></path>
                        <g id="Channel" transform="translate(206.000000, 23.000000)">
                            <rect id="Rectangle-48" stroke="#B2E8FF" x="-0.5" y="-0.5" width="81" height="21" rx="3"></rect>
                            <path d="M33.8691406,14 L32.7324219,14 L28.0507812,6.81054688 L28.0039062,6.81054688 C28.0664066,7.65430109 28.0976562,8.42773086 28.0976562,9.13085938 L28.0976562,14 L27.1777344,14 L27.1777344,5.43359375 L28.3027344,5.43359375 L32.9726562,12.59375 L33.0195312,12.59375 C33.0117187,12.4882807 32.9941408,12.1494169 32.9667969,11.5771484 C32.939453,11.00488 32.9296875,10.5957044 32.9375,10.3496094 L32.9375,5.43359375 L33.8691406,5.43359375 L33.8691406,14 Z M38.7910156,14.1171875 C37.8417921,14.1171875 37.0927762,13.8281279 36.5439453,13.25 C35.9951144,12.6718721 35.7207031,11.8691458 35.7207031,10.8417969 C35.7207031,9.80663545 35.9755834,8.98437805 36.4853516,8.375 C36.9951197,7.76562195 37.6796832,7.4609375 38.5390625,7.4609375 C39.343754,7.4609375 39.9804664,7.72558329 40.4492188,8.25488281 C40.9179711,8.78418233 41.1523438,9.48241754 41.1523438,10.3496094 L41.1523438,10.9648438 L36.7285156,10.9648438 C36.748047,11.7187538 36.9384748,12.2910137 37.2998047,12.6816406 C37.6611346,13.0722676 38.1699186,13.2675781 38.8261719,13.2675781 C39.5175816,13.2675781 40.2011685,13.1230483 40.8769531,12.8339844 L40.8769531,13.7011719 C40.5332014,13.8496101 40.2080093,13.9560544 39.9013672,14.0205078 C39.594725,14.0849613 39.2246115,14.1171875 38.7910156,14.1171875 Z M38.5273438,8.27539062 C38.0117162,8.27539062 37.6005875,8.4433577 37.2939453,8.77929688 C36.9873032,9.11523605 36.8066409,9.58007516 36.7519531,10.1738281 L40.109375,10.1738281 C40.109375,9.56054381 39.9726576,9.09082194 39.6992188,8.76464844 C39.4257799,8.43847493 39.0351588,8.27539062 38.5273438,8.27539062 Z M44.8847656,13.3144531 C45.0566415,13.3144531 45.2226554,13.3017579 45.3828125,13.2763672 C45.5429696,13.2509764 45.6699214,13.2246095 45.7636719,13.1972656 L45.7636719,13.9414062 C45.6582026,13.9921878 45.5029307,14.0341795 45.2978516,14.0673828 C45.0927724,14.1005861 44.9082039,14.1171875 44.7441406,14.1171875 C43.5019469,14.1171875 42.8808594,13.4628972 42.8808594,12.1542969 L42.8808594,8.33398438 L41.9609375,8.33398438 L41.9609375,7.86523438 L42.8808594,7.4609375 L43.2910156,6.08984375 L43.8535156,6.08984375 L43.8535156,7.578125 L45.7167969,7.578125 L45.7167969,8.33398438 L43.8535156,8.33398438 L43.8535156,12.1132812 C43.8535156,12.5000019 43.9453116,12.796874 44.1289062,13.0039062 C44.3125009,13.2109385 44.5644515,13.3144531 44.8847656,13.3144531 Z M52.2910156,14 L51.1132812,10.2324219 C51.0390621,10.001952 50.9003916,9.47851971 50.6972656,8.66210938 L50.6503906,8.66210938 C50.4941398,9.34570654 50.3574225,9.87304502 50.2402344,10.2441406 L49.0273438,14 L47.9023438,14 L46.1503906,7.578125 L47.1699219,7.578125 C47.5839864,9.19141432 47.899413,10.4199177 48.1162109,11.2636719 C48.3330089,12.1074261 48.4570311,12.6757798 48.4882812,12.96875 L48.5351562,12.96875 C48.5781252,12.7460926 48.6474605,12.4580096 48.7431641,12.1044922 C48.8388677,11.7509748 48.9218746,11.4707042 48.9921875,11.2636719 L50.1699219,7.578125 L51.2246094,7.578125 L52.3730469,11.2636719 C52.591798,11.9355502 52.740234,12.4999977 52.8183594,12.9570312 L52.8652344,12.9570312 C52.8808595,12.8164055 52.9228512,12.5996108 52.9912109,12.3066406 C53.0595707,12.0136704 53.4667931,10.4375143 54.2128906,7.578125 L55.2207031,7.578125 L53.4453125,14 L52.2910156,14 Z M61.9238281,10.7832031 C61.9238281,11.8300834 61.6601589,12.647458 61.1328125,13.2353516 C60.6054661,13.8232451 59.8769578,14.1171875 58.9472656,14.1171875 C58.373044,14.1171875 57.8632835,13.9824232 57.4179688,13.7128906 C56.972654,13.443358 56.6289075,13.0566431 56.3867188,12.5527344 C56.14453,12.0488256 56.0234375,11.4589878 56.0234375,10.7832031 C56.0234375,9.73632289 56.2851536,8.92090136 56.8085938,8.33691406 C57.3320339,7.75292677 58.0585891,7.4609375 58.9882812,7.4609375 C59.8867232,7.4609375 60.6005833,7.75976264 61.1298828,8.35742188 C61.6591823,8.95508111 61.9238281,9.76366678 61.9238281,10.7832031 Z M57.03125,10.7832031 C57.03125,11.6035197 57.1953109,12.2285135 57.5234375,12.6582031 C57.8515641,13.0878928 58.3339812,13.3027344 58.9707031,13.3027344 C59.6074251,13.3027344 60.0908187,13.0888693 60.4208984,12.6611328 C60.7509782,12.2333963 60.9160156,11.607426 60.9160156,10.7832031 C60.9160156,9.96679279 60.7509782,9.34668181 60.4208984,8.92285156 C60.0908187,8.49902132 59.6035188,8.28710938 58.9589844,8.28710938 C58.3222624,8.28710938 57.8417985,8.49609166 57.5175781,8.9140625 C57.1933578,9.33203334 57.03125,9.95507398 57.03125,10.7832031 Z M66.5585938,7.4609375 C66.8437514,7.4609375 67.0996082,7.48437477 67.3261719,7.53125 L67.1914062,8.43359375 C66.9257799,8.37499971 66.6914073,8.34570312 66.4882812,8.34570312 C65.9687474,8.34570312 65.5244159,8.55663852 65.1552734,8.97851562 C64.786131,9.40039273 64.6015625,9.92577811 64.6015625,10.5546875 L64.6015625,14 L63.6289062,14 L63.6289062,7.578125 L64.4316406,7.578125 L64.5429688,8.76757812 L64.5898438,8.76757812 C64.8281262,8.34960729 65.1152327,8.02734488 65.4511719,7.80078125 C65.7871111,7.57421762 66.156248,7.4609375 66.5585938,7.4609375 Z M69.4882812,10.7128906 C69.6562508,10.4746082 69.9121077,10.1621113 70.2558594,9.77539062 L72.3300781,7.578125 L73.484375,7.578125 L70.8828125,10.3144531 L73.6660156,14 L72.4882812,14 L70.2207031,10.9648438 L69.4882812,11.5976562 L69.4882812,14 L68.5273438,14 L68.5273438,4.8828125 L69.4882812,4.8828125 L69.4882812,9.71679688 C69.4882812,9.9316417 69.4726564,10.2636696 69.4414062,10.7128906 L69.4882812,10.7128906 Z" id="Network" fill="#00B4FF"></path>
                            <path d="M17.34375,12.65625 L20,12.65625 L20,16 L16.65625,16 L16.65625,13.96875 L14,11.15625 L11.34375,13.96875 L11.34375,16 L8,16 L8,12.65625 L10.65625,12.65625 L13.34375,10 L13.34375,7.875 C12.9479147,7.72916594 12.6250013,7.489585 12.375,7.15625 C12.1249987,6.822915 12,6.43750219 12,6 C12,5.45833063 12.1979147,4.98958531 12.59375,4.59375 C12.9895853,4.19791469 13.4583306,4 14,4 C14.5416694,4 15.0104147,4.19791469 15.40625,4.59375 C15.8020853,4.98958531 16,5.45833063 16,6 C16,6.43750219 15.8750013,6.822915 15.625,7.15625 C15.3749987,7.489585 15.0520853,7.72916594 14.65625,7.875 L14.65625,10 L17.34375,12.65625 Z" id="device_hub" fill="#00B4FF"></path>
                        </g>
                        <g id="Logo" transform="translate(20.000000, 20.000000)">
                            <mask id="mask-18" fill="white">
                                <use xlink:href="#path-17"></use>
                            </mask>
                            <rect stroke="#E7ECEF" x="-0.5" y="-0.5" width="66" height="66"></rect>
                            <g id="logo-placeholder" mask="url(#mask-18)" fill-rule="nonzero">
                                <polygon id="Rectangle" fill="#FFFFFF" points="0 0 65 0 65 65 0 65"></polygon>
                                <g id="Group" transform="translate(6.691176, 5.735294)" fill="#F0F4F6">
                                    <path d="M25.2340258,41.5315124 C23.9353414,41.5315124 22.6995212,41.4103352 21.6325735,41.1791746 L21.6325735,38.5700061 L21.6384568,38.5691366 L21.6384568,8.20744794 L21.0386869,8.344601 C15.9958257,9.49768658 11.5968593,12.6964394 8.92703874,17.1404378 L0.72495351,17.1404378 C2.61523656,12.4063748 5.81477214,8.34797006 10.01229,5.37113999 C14.5001597,2.18825429 19.7856526,0.505901353 25.2973257,0.505901353 C30.808672,0.505901353 36.0941649,2.18814561 40.5815988,5.37103131 C44.7788988,8.34786138 47.9787612,12.4062661 49.8686085,17.1403291 L41.6672859,17.1403291 C38.9733874,12.6544893 34.5301872,9.44562927 29.4337226,8.31634443 L28.8371123,8.18419061 L28.8371123,38.4392651 L28.8378749,38.4396998 L28.8378749,41.1804788 C27.7726705,41.4105525 26.5359787,41.5315124 25.2340258,41.5315124 L25.2340258,41.5315124 Z" id="Shape"></path>
                                    <path d="M25.2972168,0.99495744 C30.7061501,0.99495744 35.8931521,2.64601079 40.2974571,5.76955768 C42.4189322,7.27400289 44.298865,9.08133683 45.8850685,11.1412411 C47.1969358,12.8444604 48.2863272,14.6928751 49.1339584,16.6511643 L41.9426026,16.6511643 C39.1667737,12.1751056 34.6769429,8.97711354 29.53984,7.83880833 L28.3467282,7.574392 L28.3467282,8.79366317 L28.3467282,38.1410496 L28.3467282,38.7362851 L28.3474908,38.7367199 L28.3474908,40.7786921 C27.407361,40.9499704 26.3290825,41.0423476 25.2340258,41.0423476 C24.1241518,41.0423476 23.063959,40.9517092 22.1228487,40.7782573 L22.1228487,38.9979845 L22.128732,38.9973324 L22.128732,38.1385499 L22.128732,8.82126767 L22.128732,7.59373689 L20.9290832,7.86804302 C15.8467821,9.03014896 11.4024924,12.2174905 8.65150411,16.6514903 L1.45938567,16.6514903 C2.30712587,14.6932011 3.39651724,12.8447864 4.70838457,11.1415671 C6.29491493,9.08155419 8.17495667,7.27432893 10.2962138,5.76988372 C14.7006278,2.64601079 19.8878477,0.99495744 25.2972168,0.99495744 L25.2972168,0.99495744 Z M25.2972168,0.0168452652 C13.7050424,0.0168452652 3.80006815,7.36083751 0.0120934535,17.6293852 L9.20704032,17.6293852 C11.7552726,13.2409219 16.056402,9.9855472 21.1481817,8.82126767 L21.1481817,38.1387673 C21.1457848,38.1389846 21.1439326,38.1398541 21.1422984,38.1405062 L21.1422984,41.5668331 C22.274725,41.850377 23.6910754,42.0206772 25.2340258,42.0206772 C26.7763224,42.0206772 28.1960503,41.8516811 29.3280411,41.568572 L29.3280411,38.1415929 C29.3278232,38.1413756 29.3274964,38.1413756 29.3272785,38.1413756 L29.3272785,8.79388053 C34.4713542,9.93370725 38.8193321,13.2062532 41.3868485,17.6294938 L50.5812506,17.6294938 C46.7933849,7.36094619 36.8886286,0.0168452652 25.2972168,0.0168452652 L25.2972168,0.0168452652 L25.2972168,0.0168452652 Z" id="Shape"></path>
                                </g>
                                <g id="Group" transform="translate(5.735294, 26.764706)" fill="#F0F4F6">
                                    <path d="M27.208635,32.9070071 C12.4790036,32.9070071 0.495540998,20.8861871 0.495540998,6.1105016 C0.495540998,4.24801374 0.688165775,2.38927999 1.06835205,0.579018637 L8.74890731,0.578797806 C8.21440107,2.36808023 7.94384581,4.22548898 7.94384581,6.1105016 C7.94384581,16.7662553 16.586094,25.4356351 27.2087451,25.4356351 C37.8308458,25.4356351 46.4726537,16.7660345 46.4726537,6.1105016 C46.4726537,4.22648272 46.2019884,2.36874272 45.6677023,0.579018637 L53.3481475,0.579018637 C53.7282237,2.38939041 53.9208485,4.24801374 53.9208485,6.1105016 C53.9207384,20.8861871 41.9377161,32.9070071 27.208635,32.9070071 L27.208635,32.9070071 Z" id="Shape"></path>
                                    <path d="M8.09497371,1.07588818 C7.66547549,2.7130181 7.44830481,4.40093914 7.44830481,6.11072243 C7.44830481,17.0405273 16.3126769,25.932615 27.208525,25.932615 C38.1037126,25.932615 46.9677545,17.0405273 46.9677545,6.11072243 C46.9677545,4.40160163 46.7505838,2.7136806 46.3210856,1.07610901 L52.9427549,1.07610901 C53.2631725,2.72792419 53.4255276,4.4178327 53.4255276,6.11072243 C53.4255276,20.6123568 41.6645192,32.4104688 27.208525,32.4104688 C12.7519804,32.4104688 0.990751783,20.612136 0.990751783,6.11072243 C0.990751783,4.41761187 1.15288681,2.72781377 1.4731943,1.07610901 L8.09497371,1.07588818 L8.09497371,1.07588818 Z M9.42683645,0.0820386818 L0.669453654,0.0823699282 C0.231590018,2.02225903 0.000110071301,4.03988061 0.000110071301,6.11072243 C0.000110071301,21.1601279 12.2059167,33.4042079 27.208525,33.4042079 C42.2102527,33.4042079 54.4160593,21.1601279 54.4160593,6.11072243 C54.4160593,4.03988061 54.1844693,2.02236944 53.7468258,0.0823699282 L44.9892228,0.0823699282 C45.6292874,1.97566371 45.9771127,4.00311226 45.9771127,6.11072243 C45.9771127,16.4923146 37.5575388,24.9388759 27.208525,24.9388759 C16.8595111,24.9388759 8.43894652,16.4923146 8.43894652,6.11072243 C8.43894652,4.0026706 8.78655169,1.97522204 9.42683645,0.0820386818 L9.42683645,0.0820386818 L9.42683645,0.0820386818 Z" id="Shape"></path>
                                </g>
                            </g>
                        </g>
                        <path d="M105,54 C105,52.3431458 106.342235,51 107.999918,51 L241.000082,51 C242.656891,51 244,52.3465171 244,54 L244,54 C244,55.6568542 242.657765,57 241.000082,57 L107.999918,57 C106.343109,57 105,55.6534829 105,54 L105,54 Z" id="Rectangle-3" fill="#E7ECEF"></path>
                        <g id="Add-to-trade" transform="translate(391.000000, 20.000000)" fill="#00B4FF">
                            <path d="M0,2.99428189 C0,1.34058566 1.33514702,0 3.00022799,0 L81.999772,0 C83.6567522,0 85,1.3405687 85,2.99428189 L85,26.0057181 C85,27.6594143 83.664853,29 81.999772,29 L3.00022799,29 C1.34324782,29 0,27.6594313 0,26.0057181 L0,2.99428189 Z" id="Rectangle-2"></path>
                        </g>
                    </g>
                    <g id="Oval">
                        <use fill="black" fill-opacity="1" filter="url(#filter-20)" xlink:href="#path-19"></use>
                        <circle stroke="#E7ECEF" stroke-width="1" fill="#FFFFFF" fill-rule="evenodd" cx="250.5" cy="213.5" r="24"></circle>
                    </g>
                    <polygon id="add" fill="#00B4FF" points="261.267578 215.017578 252.017578 215.017578 252.017578 224.267578 248.982422 224.267578 248.982422 215.017578 239.732422 215.017578 239.732422 211.982422 248.982422 211.982422 248.982422 202.732422 252.017578 202.732422 252.017578 211.982422 261.267578 211.982422"></polygon>
                </g>
            </g>
        </g>
    </g>
</svg>