<?xml version="1.0" encoding="UTF-8"?>
<svg width="100px" height="100px" viewBox="0 0 100 100" version="1.1" xmlns="http://www.w3.org/2000/svg" xmlns:xlink="http://www.w3.org/1999/xlink">
    <!-- Generator: Sketch 55.2 (78181) - https://sketchapp.com -->
    <title>Marketplace</title>
    <desc>Created with Sketch.</desc>
    <g id="Page-1" stroke="none" stroke-width="1" fill="none" fill-rule="evenodd">
        <g id="Circlewise-Advertiser" transform="translate(-813.000000, -3368.000000)">
            <g id="Marketplace" transform="translate(813.000000, 3368.000000)">
                <path d="M38.458278,-1.55376046e-15 L61.541722,1.55376046e-15 C74.9145031,-9.02779573e-16 79.7637967,1.39238417 84.6526856,4.00699056 C89.5415744,6.62159695 93.3784031,10.4584256 95.9930094,15.3473144 C98.6076158,20.2362033 100,25.0854969 100,38.458278 L100,61.541722 C100,74.9145031 98.6076158,79.7637967 95.9930094,84.6526856 C93.3784031,89.5415744 89.5415744,93.3784031 84.6526856,95.9930094 C79.7637967,98.6076158 74.9145031,100 61.541722,100 L38.458278,100 C25.0854969,100 20.2362033,98.6076158 15.3473144,95.9930094 C10.4584256,93.3784031 6.62159695,89.5415744 4.00699056,84.6526856 C1.39238417,79.7637967 6.01853049e-16,74.9145031 -1.03584031e-15,61.541722 L1.03584031e-15,38.458278 C-6.01853049e-16,25.0854969 1.39238417,20.2362033 4.00699056,15.3473144 C6.62159695,10.4584256 10.4584256,6.62159695 15.3473144,4.00699056 C20.2362033,1.39238417 25.0854969,9.02779573e-16 38.458278,-1.55376046e-15 Z" id="Rectangle" fill="#46A7CD"></path>
                <path d="M89.3333333,36.25 C89.5,36.5 89.5833333,36.8333333 89.6666667,37.1666667 L89.6666667,42.5833333 C89.6666667,45.8333333 87.6666667,48.5833333 84.9166667,49.8333333 L84.9166667,77.4166667 C84.9166667,78.3333333 84.1666667,79.0833333 83.25,79.0833333 L16.8333333,79.0833333 C15.9166667,79.0833333 15.1666667,78.3333333 15.1666667,77.4166667 L15.1666667,49.8333333 C12.3333333,48.5833333 10.4166667,45.8333333 10.4166667,42.5833333 L10.4166667,37.1666667 C10.4166667,36.8333333 10.5,36.5 10.6666667,36.25 L19.75,22 C20.0833333,21.5 20.5833333,21.25 21.1666667,21.25 L78.8333333,21.25 C79.4166667,21.25 79.9166667,21.5 80.25,22 L89.3333333,36.25 Z M45,53 C42.2385763,53 40,55.2385763 40,58 L40,79 L60,79 L60,58 C60,55.2385763 57.7614237,53 55,53 L45,53 Z M22.0833333,24.5833333 L15.0833333,35.5 L85,35.5 L78,24.5833333 L22.0833333,24.5833333 Z M48.3333333,42.5833333 L48.3333333,38.75 L39,38.75 L39,42.5833333 C39,45.1666667 41.0833333,47.25 43.6666667,47.25 C46.25,47.25 48.3333333,45.1666667 48.3333333,42.5833333 Z M13.6666667,42.5833333 C13.6666667,45.1666667 15.75,47.25 18.3333333,47.25 C20.9166667,47.25 23,45.1666667 23,42.5833333 L23,38.75 L13.6666667,38.75 L13.6666667,42.5833333 Z M73.6666667,42.5833333 L73.6666667,38.75 L64.3333333,38.75 L64.3333333,42.5833333 C64.3333333,45.1666667 66.4166667,47.25 69,47.25 C71.5833333,47.25 73.6666667,45.1666667 73.6666667,42.5833333 Z M81.5833333,47.25 C84.1666667,47.25 86.3333333,45.1666667 86.25,42.5833333 L86.25,38.75 L76.9166667,38.75 L76.9166667,42.5833333 C76.9166667,45.1666667 79,47.25 81.5833333,47.25 Z M61,42.5833333 L61,38.75 L51.6666667,38.75 L51.6666667,42.5833333 C51.6666667,45.1666667 53.75,47.25 56.3333333,47.25 C58.9166667,47.25 61,45.1666667 61,42.5833333 Z M35.75,42.5833333 L35.75,38.75 L26.4166667,38.75 L26.4166667,42.5833333 C26.4166667,45.1666667 28.5,47.25 31.0833333,47.25 C33.6666667,47.25 35.75,45.1666667 35.75,42.5833333 Z" id="Shape" fill-opacity="0.2" fill="#000000" fill-rule="nonzero"></path>
                <path d="M45,55.75 L55,55.75 C56.1045695,55.75 57,56.6454305 57,57.75 L57,79 L43,79 L43,57.75 C43,56.6454305 43.8954305,55.75 45,55.75 Z" id="Path" fill="#FFFFFF" fill-rule="nonzero"></path>
            </g>
        </g>
    </g>
</svg>