<?xml version="1.0" encoding="UTF-8"?>
<svg width="100px" height="100px" viewBox="0 0 100 100" version="1.1" xmlns="http://www.w3.org/2000/svg" xmlns:xlink="http://www.w3.org/1999/xlink">
    <!-- Generator: Sketch 55.2 (78181) - https://sketchapp.com -->
    <title>mobile_banks</title>
    <desc>Created with Sketch.</desc>
    <g id="mobile_banks" stroke="none" stroke-width="1" fill="none" fill-rule="evenodd">
        <rect id="Rectangle" fill-opacity="0" fill="#FFFFFF" x="0" y="0" width="100" height="100"></rect>
        <circle id="Oval" fill="#E4F2F8" cx="50" cy="50" r="40"></circle>
        <circle id="Oval" fill="#FFB900" cx="13" cy="73" r="7"></circle>
        <circle id="Oval" fill="#D02E7D" cx="27" cy="13" r="5"></circle>
        <circle id="Oval" fill="#46A7CD" cx="90" cy="70" r="4"></circle>
        <path d="M78.5273973,35.5 C81.5547945,35.5 84,37.9230769 84,40.9230769 L84,55.1153846 C84,58.1153846 81.5547945,60.5384615 78.5273973,60.5384615 L74.9178082,60.5384615 L74.9178082,79.8076923 C74.9178082,81.5384615 73.5205479,83.0384615 71.6575342,83.0384615 L39.4041096,83.0384615 L39.4041096,84.8846154 C39.4041096,86.6153846 38.0068493,88 36.260274,88 L19.1438356,88 C17.3972603,88 16,86.6153846 16,84.7692308 L16,73.8076923 C16,72.0769231 17.3972603,70.6923077 19.1438356,70.6923077 L21.3561644,70.6923077 L21.3561644,65.5 C21.3561644,61.9230769 24.2671233,59.0384615 27.8767123,59.0384615 C28.2260274,59.0384615 28.4589041,59.1538462 28.8082192,59.1538462 L28.8082192,16.2307692 C28.8082192,14.5 30.2054795,13 32.0684932,13 L71.7739726,13 C73.5205479,13 75.0342466,14.5 75.0342466,16.2307692 L75.0342466,35.5 L78.5273973,35.5 Z" id="Fill" fill="#FFFFFF" fill-rule="nonzero"></path>
        <path d="M78.5273973,35.5 L75.0342466,35.5 L75.0342466,16.2307692 C75.0342466,14.5 73.5205479,13 71.7739726,13 L32.0684932,13 C30.2054795,13 28.8082192,14.5 28.8082192,16.2307692 L28.8082192,59.1538462 C28.4589041,59.1538462 28.2260274,59.0384615 27.8767123,59.0384615 C24.2671233,59.0384615 21.3561644,61.9230769 21.3561644,65.5 L21.3561644,70.6923077 L19.1438356,70.6923077 C17.3972603,70.6923077 16,72.0769231 16,73.8076923 L16,84.7692308 C16,86.6153846 17.3972603,88 19.1438356,88 L36.260274,88 C38.0068493,88 39.4041096,86.6153846 39.4041096,84.8846154 L39.4041096,83.0384615 L71.6575342,83.0384615 C73.5205479,83.0384615 74.9178082,81.5384615 74.9178082,79.8076923 L74.9178082,60.5384615 L78.5273973,60.5384615 C81.5547945,60.5384615 84,58.1153846 84,55.1153846 L84,40.9230769 C84,37.9230769 81.5547945,35.5 78.5273973,35.5 Z M30.4383562,16.2307692 C30.4383562,15.4230769 31.1369863,14.6153846 32.0684932,14.6153846 L71.7739726,14.6153846 C72.5890411,14.6153846 73.4041096,15.3076923 73.4041096,16.2307692 L73.4041096,21.7692308 L30.4383562,21.7692308 L30.4383562,16.2307692 Z M22.9863014,65.5 C22.9863014,62.8461538 25.0821918,60.7692308 27.760274,60.7692308 C30.4383562,60.7692308 32.5342466,62.8461538 32.5342466,65.5 L32.5342466,70.6923077 L22.9863014,70.6923077 L22.9863014,65.5 Z M37.7739726,84.8846154 C37.7739726,85.6923077 37.0753425,86.2692308 36.3767123,86.2692308 L19.1438356,86.2692308 C18.3287671,86.2692308 17.7465753,85.5769231 17.7465753,84.8846154 L17.7465753,73.9230769 C17.7465753,73.1153846 18.4452055,72.5384615 19.1438356,72.5384615 L36.260274,72.5384615 C37.0753425,72.5384615 37.6575342,73.2307692 37.6575342,73.9230769 L37.6575342,84.8846154 L37.7739726,84.8846154 Z M73.2876712,79.8076923 C73.2876712,80.6153846 72.5890411,81.4230769 71.6575342,81.4230769 L39.5205479,81.4230769 L39.5205479,75.5384615 L73.2876712,75.5384615 L73.2876712,79.8076923 Z M73.2876712,73.6923077 L39.5205479,73.6923077 C39.4041096,72.0769231 38.0068493,70.6923077 36.3767123,70.6923077 L34.2808219,70.6923077 L34.2808219,65.5 C34.2808219,62.8461538 32.6506849,60.6538462 30.4383562,59.6153846 L30.4383562,23.5 L73.2876712,23.5 L73.2876712,35.3846154 L59.0821918,35.3846154 L59.0821918,30.3076923 L57.3356164,30.3076923 L57.3356164,35.3846154 L57.3356164,60.5384615 L57.3356164,65.6153846 L59.0821918,65.6153846 L59.0821918,60.5384615 L73.4041096,60.5384615 L73.4041096,73.6923077 L73.2876712,73.6923077 Z M82.2534247,55.1153846 C82.2534247,57.1923077 80.6232877,58.8076923 78.5273973,58.8076923 L59.0821918,58.8076923 L59.0821918,37.1153846 L78.5273973,37.1153846 C80.6232877,37.1153846 82.2534247,38.7307692 82.2534247,40.8076923 L82.2534247,55.1153846 Z M70,56 L79,56 L79,49 L70,49 L70,56 Z M71.7532468,50.6935484 L77.3636364,50.6935484 L77.3636364,54.3064516 L71.7532468,54.3064516 L71.7532468,50.6935484 Z M64,41 L66,41 L66,43 L64,43 L64,41 Z M61,41 L63,41 L63,43 L61,43 L61,41 Z M77,41 L79,41 L79,43 L77,43 L77,41 Z M69,41 L71,41 L71,43 L69,43 L69,41 Z M74,41 L76,41 L76,43 L74,43 L74,41 Z M61,54 L68,54 L68,56 L61,56 L61,54 Z M64,50 L68,50 L68,52 L64,52 L64,50 Z M43,18 L53,18 L53,20 L43,20 L43,18 Z M55,18 L57,18 L57,20 L55,20 L55,18 Z M59,18 L61,18 L61,20 L59,20 L59,18 Z M48,78 L56,78 L56,80 L48,80 L48,78 Z M22,76 L33,76 L33,78 L22,78 L22,76 Z M22,81 L33,81 L33,83 L22,83 L22,81 Z" id="Stroke" fill="#000000" fill-rule="nonzero"></path>
    </g>
</svg>