<?xml version="1.0" encoding="UTF-8"?>
<svg width="100px" height="100px" viewBox="0 0 100 100" version="1.1" xmlns="http://www.w3.org/2000/svg" xmlns:xlink="http://www.w3.org/1999/xlink">
    <!-- Generator: Sketch 55.2 (78181) - https://sketchapp.com -->
    <title>money_transfers</title>
    <desc>Created with Sketch.</desc>
    <g id="money_transfers" stroke="none" stroke-width="1" fill="none" fill-rule="evenodd">
        <rect id="Rectangle" fill-opacity="0" fill="#FFFFFF" x="0" y="0" width="100" height="100"></rect>
        <circle id="Oval" fill="#E4F2F8" cx="50" cy="50" r="40"></circle>
        <circle id="Oval" fill="#FFB900" cx="85" cy="49" r="7"></circle>
        <circle id="Oval" fill="#D02E7D" cx="20" cy="63" r="5"></circle>
        <circle id="Oval" fill="#46A7CD" cx="18" cy="18" r="4"></circle>
        <polygon id="Fill" fill="#FFFFFF" fill-rule="nonzero" points="76.2660754 51.5137931 76.2660754 46 20 46 20 80.1586207 25.5454545 80.1586207 25.5454545 85 81 85 81 51.5137931"></polygon>
        <path d="M76.2660754,51.5137931 L76.2660754,46 L20,46 L20,80.1586207 L25.5454545,80.1586207 L25.5454545,85 L81,85 L81,51.5137931 L76.2660754,51.5137931 Z M22.0288248,78.2758621 L22.0288248,48.0172414 L74.2372506,48.0172414 L74.2372506,78.2758621 L22.0288248,78.2758621 Z M79.1064302,82.9827586 L27.5742794,82.9827586 L27.5742794,80.1586207 L76.2660754,80.1586207 L76.2660754,53.5310345 L79.1064302,53.5310345 L79.1064302,82.9827586 Z M63.55,52.9685535 L63.55,52 L33.584375,52 L33.584375,52.9685535 C33.584375,56.1509434 31.03125,58.7798742 27.940625,58.7798742 L27,58.7798742 L27,67.2201258 L27.940625,67.2201258 C31.03125,67.2201258 33.584375,69.8490566 33.584375,73.0314465 L33.584375,74 L63.415625,74 L63.415625,73.0314465 C63.415625,69.8490566 65.96875,67.2201258 69.059375,67.2201258 L70,67.2201258 L70,58.7798742 L69.059375,58.7798742 C65.96875,58.7798742 63.55,56.1509434 63.55,52.9685535 Z M68.11875,65.2830189 C64.759375,65.6981132 61.9375,68.4654088 61.534375,72.0628931 L35.465625,72.0628931 C35.0625,68.6037736 32.375,65.6981132 28.88125,65.2830189 L28.88125,60.8553459 C32.240625,60.4402516 35.0625,57.672956 35.465625,54.0754717 L61.534375,54.0754717 C61.9375,57.5345912 64.625,60.4402516 68.11875,60.8553459 L68.11875,65.2830189 Z M49.6666667,59.9038462 C49.1481481,59.3653846 47.9814815,59.3653846 47.2037037,59.9038462 C46.9444444,60.0384615 46.8148148,60.4423077 46.8148148,60.7115385 C46.8148148,60.9807692 46.9444444,61.25 47.2037037,61.5192308 C47.462963,61.7884615 47.9814815,61.9230769 48.3703704,61.9230769 C49.2777778,61.9230769 50.1851852,62.3269231 50.8333333,62.8653846 C51.4814815,63.5384615 51.8703704,64.3461538 51.8703704,65.2884615 C51.8703704,66.2307692 51.4814815,67.0384615 50.8333333,67.7115385 C50.4444444,68.1153846 49.9259259,68.3846154 49.4074074,68.5192308 L49.4074074,70 L47.462963,70 L47.462963,68.5192308 C46.9444444,68.3846154 46.4259259,68.1153846 46.037037,67.7115385 C45.3888889,67.0384615 45,66.2307692 45,65.2884615 L47.0740741,65.2884615 C47.0740741,65.5576923 47.2037037,65.8269231 47.462963,66.0961538 C48.1111111,66.6346154 49.1481481,66.6346154 49.7962963,66.0961538 C50.0555556,65.9615385 50.1851852,65.5576923 50.1851852,65.2884615 C50.1851852,65.0192308 50.0555556,64.75 49.7962963,64.4807692 C49.537037,64.2115385 49.0185185,64.0769231 48.6296296,64.0769231 C47.7222222,64.0769231 46.8148148,63.6730769 46.1666667,63.1346154 C45.5185185,62.4615385 45.1296296,61.6538462 45.1296296,60.7115385 C45.1296296,59.7692308 45.5185185,58.9615385 46.1666667,58.2884615 C46.5555556,57.8846154 47.0740741,57.6153846 47.5925926,57.4807692 L47.5925926,56 L49.537037,56 L49.537037,57.4807692 C50.0555556,57.6153846 50.5740741,57.8846154 50.962963,58.2884615 C51.6111111,58.9615385 52,59.7692308 52,60.7115385 L50.0555556,60.7115385 C50.0555556,60.4423077 49.9259259,60.1730769 49.6666667,59.9038462 Z M32,14 L34,14 L34,16 L32,16 L32,14 Z M32,10 L34,10 L34,12 L32,12 L32,10 Z M32,18 L34,18 L34,20 L32,20 L32,18 Z M50,32.778626 L38.5688623,44 L27,32.778626 L31.5449102,32.778626 L31.5449102,25.0305344 L33.6107784,25.0305344 L33.6107784,32.778626 L39.3952096,32.778626 L39.3952096,34.7824427 L31.9580838,34.7824427 L38.5688623,41.1946565 L45.0419162,34.7824427 L42.9760479,34.7824427 L42.9760479,9 L45.0419162,9 L45.0419162,32.778626 L50,32.778626 Z M57.6107784,25 L58,25 L58,27 L56,27 L56,25.8707224 L55.5449102,25.8707224 L55.5449102,11.3612167 L51,11.3612167 L62.4311377,0 L74,11.3612167 L69.0419162,11.3612167 L69.0419162,36 L66.9760479,36 L66.9760479,9.44486692 L69.0419162,9.44486692 L62.4311377,2.87452471 L55.9580838,9.44486692 L63.3952096,9.44486692 L63.3952096,11.3612167 L57.6107784,11.3612167 L57.6107784,25 Z M56,29 L58,29 L58,31 L56,31 L56,29 Z M56,33 L58,33 L58,35 L56,35 L56,33 Z" id="Stroke" fill="#000000" fill-rule="nonzero"></path>
    </g>
</svg>