<?xml version="1.0" encoding="UTF-8"?>
<svg width="100px" height="100px" viewBox="0 0 100 100" version="1.1" xmlns="http://www.w3.org/2000/svg" xmlns:xlink="http://www.w3.org/1999/xlink">
    <!-- Generator: Sketch 55.2 (78181) - https://sketchapp.com -->
    <title>p2p_lending</title>
    <desc>Created with Sketch.</desc>
    <g id="p2p_lending" stroke="none" stroke-width="1" fill="none" fill-rule="evenodd">
        <rect id="Rectangle" fill-opacity="0" fill="#FFFFFF" x="0" y="0" width="100" height="100"></rect>
        <circle id="Oval" fill="#E4F2F8" cx="50" cy="50" r="40"></circle>
        <circle id="Oval" fill="#D02E7D" cx="24" cy="32" r="5"></circle>
        <circle id="Oval" fill="#FFB900" cx="50" cy="58" r="7"></circle>
        <circle id="Oval" fill="#46A7CD" cx="95" cy="47" r="4"></circle>
        <path d="M68.8461538,50.4868624 C59.9846154,50.4868624 52.5076923,55.633694 48.9076923,63.1452859 L29.9384615,54.7990726 C30.4923077,53.12983 30.9076923,51.3214838 30.9076923,49.5131376 C30.9076923,47.9829985 30.6307692,46.3137558 30.2153846,44.9227202 L53.7538462,32.2642968 C56.9384615,37.2720247 62.4769231,40.61051 68.8461538,40.61051 C78.6769231,40.61051 86.7076923,32.5425039 86.7076923,22.6661515 C86.7076923,12.7897991 78.6769231,5 68.8461538,5 C59.0153846,5 50.9846154,13.0680062 50.9846154,22.9443586 C50.9846154,25.7264297 51.6769231,28.3693972 52.7846154,30.5950541 L29.5230769,43.114374 C27.1692308,38.1066461 21.9076923,34.6290572 16.0923077,34.6290572 C7.78461538,34.6290572 1,41.3060278 1,49.6522411 C1,57.9984544 7.78461538,64.675425 15.9538462,64.675425 C21.6307692,64.675425 26.6153846,61.4760433 29.1076923,56.7465224 L48.0769231,65.0927357 C47.2461538,67.4574961 46.6923077,69.9613601 46.6923077,72.7434312 C46.6923077,84.984544 56.6615385,95 68.8461538,95 C81.0307692,95 91,84.984544 91,72.7434312 C91,60.5023184 81.0307692,50.4868624 68.8461538,50.4868624 Z" id="Fill" fill="#FFFFFF" fill-rule="nonzero"></path>
        <path d="M68.8461538,50.4868624 C59.9846154,50.4868624 52.5076923,55.633694 48.9076923,63.1452859 L29.9384615,54.7990726 C30.4923077,53.12983 30.9076923,51.3214838 30.9076923,49.5131376 C30.9076923,47.9829985 30.6307692,46.3137558 30.2153846,44.9227202 L53.7538462,32.2642968 C56.9384615,37.2720247 62.4769231,40.61051 68.8461538,40.61051 C78.6769231,40.61051 86.7076923,32.5425039 86.7076923,22.6661515 C86.7076923,12.7897991 78.6769231,5 68.8461538,5 C59.0153846,5 50.9846154,13.0680062 50.9846154,22.9443586 C50.9846154,25.7264297 51.6769231,28.3693972 52.7846154,30.5950541 L29.5230769,43.114374 C27.1692308,38.1066461 21.9076923,34.6290572 16.0923077,34.6290572 C7.78461538,34.6290572 1,41.3060278 1,49.6522411 C1,57.9984544 7.78461538,64.675425 15.9538462,64.675425 C21.6307692,64.675425 26.6153846,61.4760433 29.1076923,56.7465224 L48.0769231,65.0927357 C47.2461538,67.4574961 46.6923077,69.9613601 46.6923077,72.7434312 C46.6923077,84.984544 56.6615385,95 68.8461538,95 C81.0307692,95 91,84.984544 91,72.7434312 C91,60.5023184 81.0307692,50.4868624 68.8461538,50.4868624 Z M59.2923077,35.4636785 L59.2923077,32.5425039 C59.2923077,29.7604328 61.3692308,27.3956723 64.1384615,27.1174652 L67.3230769,33.0989181 L70.3692308,33.0989181 L73.5538462,27.1174652 C76.3230769,27.3956723 78.4,29.7604328 78.4,32.5425039 L78.4,35.4636785 C75.7692308,37.5502318 72.4461538,38.8021638 68.8461538,38.8021638 C65.2461538,38.8021638 61.9230769,37.5502318 59.2923077,35.4636785 Z M68.8461538,7.08655332 C77.5692308,7.08655332 84.6307692,14.1808346 84.6307692,22.9443586 C84.6307692,27.1174652 83.1076923,30.7341577 80.4769231,33.6553323 L80.4769231,32.5425039 C80.4769231,28.3693972 77.1538462,25.0309119 73,25.0309119 L72.4461538,25.0309119 L69.2615385,31.1514683 L68.7076923,31.1514683 L65.5230769,25.1700155 L64.6923077,25.1700155 C60.5384615,25.1700155 57.2153846,28.5085008 57.2153846,32.6816074 L57.2153846,33.6553323 C54.7230769,30.8732612 53.0615385,27.1174652 53.0615385,22.9443586 C53.0615385,14.1808346 60.1230769,7.08655332 68.8461538,7.08655332 Z M8.2,59.9459042 L8.2,57.7202473 C8.2,55.4945904 9.86153846,53.6862442 11.9384615,53.4080371 L14.5692308,58.4157651 L17.3384615,58.4157651 L19.9692308,53.4080371 C22.0461538,53.6862442 23.7076923,55.4945904 23.7076923,57.7202473 L23.7076923,59.9459042 C21.4923077,61.6151468 18.8615385,62.5888717 15.9538462,62.5888717 C13.0461538,62.5888717 10.4153846,61.6151468 8.2,59.9459042 Z M25.7846154,57.9984544 L25.7846154,57.7202473 C25.7846154,54.2426584 22.8769231,51.3214838 19.4153846,51.3214838 L18.8615385,51.3214838 L16.2307692,56.3292117 L15.9538462,56.3292117 L13.3230769,51.3214838 L12.4923077,51.3214838 C9.03076923,51.3214838 6.12307692,54.2426584 6.12307692,57.7202473 L6.12307692,57.9984544 C4.18461538,55.7727975 3.07692308,52.8516229 3.07692308,49.6522411 C3.07692308,42.5579598 8.89230769,36.7156105 15.9538462,36.7156105 C23.0153846,36.7156105 28.8307692,42.5579598 28.8307692,49.6522411 C28.9692308,52.8516229 27.7230769,55.7727975 25.7846154,57.9984544 Z M56.6615385,88.6012365 L56.6615385,84.8454405 C56.6615385,81.0896445 59.5692308,78.0293663 63.1692308,77.7511592 L67.1846154,85.2627512 L70.7846154,85.2627512 L74.8,77.7511592 C78.4,78.0293663 81.3076923,81.0896445 81.3076923,84.8454405 L81.3076923,88.6012365 C77.8461538,91.244204 73.6923077,92.9134467 68.9846154,92.9134467 C64.2769231,92.7743431 59.9846154,91.244204 56.6615385,88.6012365 Z M83.2461538,86.7928903 L83.2461538,84.984544 C83.2461538,79.9768161 79.0923077,75.8037094 74.1076923,75.8037094 L73.5538462,75.8037094 L69.5384615,83.3153014 L68.4307692,83.3153014 L64.2769231,75.6646059 L63.7230769,75.6646059 C58.7384615,75.6646059 54.5846154,79.8377125 54.5846154,84.8454405 L54.5846154,86.7928903 C51.1230769,83.1761978 48.9076923,78.1684699 48.9076923,72.7434312 C48.9076923,61.6151468 57.9076923,52.5734158 68.9846154,52.5734158 C80.0615385,52.5734158 89.0615385,61.6151468 89.0615385,72.7434312 C88.9230769,78.1684699 86.7076923,83.0370943 83.2461538,86.7928903 Z M68.9978448,60 C65.1558908,60 62,63.1568627 62,67 C62,70.8431373 65.1558908,74 68.9978448,74 C72.8397987,74 75.9956895,70.8431373 75.9956895,67 C76.1329021,63.1568627 72.9770114,60 68.9978448,60 Z M68.9978448,72.0784314 C66.2535919,72.0784314 63.920977,69.8823529 63.920977,67 C63.920977,64.254902 66.1163793,61.9215686 68.9978448,61.9215686 C71.7420976,61.9215686 74.0747125,64.1176471 74.0747125,67 C74.0747125,69.8823529 71.8793102,72.0784314 68.9978448,72.0784314 Z M16,41 C13.2972973,41 11,43.1621622 11,46 C11,48.7027027 13.1621622,51 16,51 C18.8378378,51 21,48.8378378 21,46 C21,43.1621622 18.7027027,41 16,41 Z M16,48.8378378 C14.3783784,48.8378378 13.027027,47.4864865 13.027027,45.8648649 C13.027027,44.2432432 14.3783784,42.8918919 16,42.8918919 C17.6216216,42.8918919 18.972973,44.2432432 18.972973,45.8648649 C18.972973,47.6216216 17.6216216,48.8378378 16,48.8378378 Z M69,24 C72.2093023,24 75,21.3488372 75,18 C75,14.7906977 72.3488372,12 69,12 C65.7906977,12 63,14.6511628 63,18 C63.1395349,21.3488372 65.7906977,24 69,24 Z M69,14.2325581 C71.0930233,14.2325581 72.9069767,15.9069767 72.9069767,18.1395349 C72.9069767,20.2325581 71.2325581,22.0465116 69,22.0465116 C66.9069767,22.0465116 65.0930233,20.372093 65.0930233,18.1395349 C65.2325581,15.9069767 66.9069767,14.2325581 69,14.2325581 Z" id="Stroke" fill="#000000" fill-rule="nonzero"></path>
    </g>
</svg>