<?xml version="1.0" encoding="UTF-8"?>
<svg width="100px" height="100px" viewBox="0 0 100 100" version="1.1" xmlns="http://www.w3.org/2000/svg" xmlns:xlink="http://www.w3.org/1999/xlink">
    <!-- Generator: Sketch 55.2 (78181) - https://sketchapp.com -->
    <title>p2p_insurance</title>
    <desc>Created with Sketch.</desc>
    <g id="p2p_insurance" stroke="none" stroke-width="1" fill="none" fill-rule="evenodd">
        <rect id="Rectangle" fill-opacity="0" fill="#FFFFFF" x="0" y="0" width="100" height="100"></rect>
        <circle id="Oval" fill="#E4F2F8" cx="50" cy="50" r="40"></circle>
        <circle id="Oval" fill="#FFB900" cx="28" cy="16" r="7"></circle>
        <circle id="Oval" fill="#D02E7D" cx="14" cy="63" r="5"></circle>
        <circle id="Oval" fill="#46A7CD" cx="94" cy="55" r="4"></circle>
        <path d="M83,43.9652997 C83,44.0977918 83,44.0977918 82.8681102,44.0977918 C82.8681102,44.2302839 82.8681102,44.2302839 82.8681102,44.2302839 C82.8681102,44.4952681 82.6043307,44.6277603 82.3405512,44.7602524 C82.3405512,44.7602524 82.2086614,44.7602524 82.0767717,44.7602524 C81.6811024,44.7602524 81.2854331,44.4952681 81.1535433,44.0977918 C80.8897638,43.170347 78.6476378,42.1104101 75.3503937,42.1104101 C72.0531496,42.1104101 69.8110236,43.170347 69.5472441,43.9652997 C69.5472441,44.0977918 69.5472441,44.0977918 69.5472441,44.0977918 C69.5472441,44.0977918 69.4153543,44.2302839 69.4153543,44.2302839 C69.4153543,44.2302839 69.2834646,44.362776 69.2834646,44.362776 C69.2834646,44.4952681 69.1515748,44.4952681 69.1515748,44.4952681 C69.019685,44.4952681 69.019685,44.6277603 68.8877953,44.6277603 C68.7559055,44.7602524 68.6240157,44.7602524 68.492126,44.7602524 C68.3602362,44.7602524 68.2283465,44.6277603 68.0964567,44.6277603 C67.9645669,44.6277603 67.9645669,44.6277603 67.9645669,44.6277603 C67.8326772,44.6277603 67.7007874,44.4952681 67.7007874,44.4952681 C67.7007874,44.4952681 67.5688976,44.362776 67.5688976,44.362776 C67.4370079,44.362776 67.4370079,44.2302839 67.4370079,44.2302839 C66.1181102,41.0504732 58.8641732,38.6656151 50.1594488,38.533123 L50.1594488,48.0725552 C50.1594488,48.6025237 49.7637795,49 49.2362205,49 C48.7086614,49 48.3129921,48.6025237 48.3129921,48.0725552 L48.3129921,38.533123 C39.7401575,38.7981073 32.6181102,41.0504732 31.1673228,44.0977918 C31.0354331,44.4952681 30.9035433,44.7602524 30.507874,44.8927445 C30.507874,44.8927445 30.3759843,44.8927445 30.2440945,44.8927445 C29.980315,44.8927445 29.7165354,44.7602524 29.5846457,44.6277603 C29.5846457,44.4952681 29.4527559,44.4952681 29.4527559,44.362776 C29.4527559,44.2302839 29.4527559,44.2302839 29.4527559,44.2302839 C29.1889764,43.3028391 26.9468504,42.2429022 23.6496063,42.2429022 C20.3523622,42.2429022 18.1102362,43.4353312 17.8464567,44.2302839 C17.7145669,44.6277603 17.3188976,44.8927445 16.9232283,44.8927445 C16.5275591,44.8927445 16.1318898,44.4952681 16,44.0977918 C16,44.0977918 16,43.9652997 16,43.9652997 C16,25.681388 30.507874,10.8422713 48.5767717,10.1798107 L48.5767717,7.92744479 C48.5767717,7.39747634 48.9724409,7 49.5,7 C50.0275591,7 50.4232283,7.39747634 50.4232283,7.92744479 L50.4232283,10.3123028 C68.492126,10.8422713 83,25.681388 83,43.9652997 Z M63.1795511,50 C70.5810474,50 76,52.4832827 76,55.881459 L76,87.118541 C76,90.5167173 70.4488778,93 63.1795511,93 C60.1396509,93 57.2319202,92.4772036 54.9850374,91.6930091 C53.3990025,92.4772036 51.5486284,93 49.5660848,93 C47.319202,93 45.3366584,92.4772036 43.6184539,91.4316109 C41.3715711,92.4772036 38.3316708,93 35.159601,93 C28.286783,93 23,90.3860182 23,87.118541 L23,63.4620061 C23,60.0638298 28.286783,57.5805471 35.159601,57.5805471 C42.032419,57.5805471 47.319202,60.1945289 47.319202,63.4620061 L47.319202,69.4741641 C47.9800499,69.343465 48.6408978,69.212766 49.4339152,69.212766 C49.8304239,69.212766 50.0947631,69.212766 50.3591022,69.212766 L50.3591022,55.881459 C50.3591022,52.4832827 55.9102244,50 63.1795511,50 Z" id="Fill" fill="#FFFFFF" fill-rule="nonzero"></path>
        <path d="M63.1795511,50 C55.9102244,50 50.3591022,52.4832827 50.3591022,55.881459 L50.3591022,69.212766 C50.0947631,69.212766 49.8304239,69.212766 49.4339152,69.212766 C48.6408978,69.212766 47.9800499,69.343465 47.319202,69.4741641 L47.319202,63.4620061 C47.319202,60.1945289 42.032419,57.5805471 35.159601,57.5805471 C28.286783,57.5805471 23,60.0638298 23,63.4620061 L23,87.118541 C23,90.3860182 28.286783,93 35.159601,93 C38.3316708,93 41.3715711,92.4772036 43.6184539,91.4316109 C45.3366584,92.4772036 47.319202,93 49.5660848,93 C51.5486284,93 53.3990025,92.4772036 54.9850374,91.6930091 C57.2319202,92.4772036 60.1396509,93 63.1795511,93 C70.4488778,93 76,90.5167173 76,87.118541 L76,55.881459 C76,52.4832827 70.5810474,50 63.1795511,50 Z M35.2917706,59.4103343 C41.1072319,59.4103343 45.4688279,61.5015198 45.4688279,63.331307 C45.4688279,65.1610942 41.1072319,67.2522796 35.2917706,67.2522796 C29.4763092,67.2522796 25.1147132,65.1610942 25.1147132,63.331307 C25.1147132,61.5015198 29.4763092,59.4103343 35.2917706,59.4103343 Z M25.1147132,66.5987842 C27.2294264,68.1671733 30.9301746,69.212766 35.2917706,69.212766 C39.6533666,69.212766 43.3541147,68.1671733 45.4688279,66.5987842 L45.4688279,69.8662614 C42.957606,70.781155 40.8428928,72.4802432 39.521197,74.5714286 C38.1995012,74.8328267 36.7456359,74.9635258 35.2917706,74.9635258 C29.4763092,74.9635258 25.1147132,72.8723404 25.1147132,71.0425532 L25.1147132,66.5987842 Z M25.1147132,74.3100304 C27.2294264,75.8784195 30.9301746,76.9240122 35.2917706,76.9240122 C36.3491272,76.9240122 37.4064838,76.7933131 38.4638404,76.662614 C37.9351621,77.9696049 37.6708229,79.4072948 37.6708229,80.8449848 C37.6708229,81.4984802 37.6708229,82.0212766 37.8029925,82.674772 C37.0099751,82.8054711 36.2169576,82.8054711 35.2917706,82.8054711 C29.4763092,82.8054711 25.1147132,80.7142857 25.1147132,78.8844985 L25.1147132,74.3100304 Z M35.2917706,90.7781155 C29.4763092,90.7781155 25.1147132,88.6869301 25.1147132,86.8571429 L25.1147132,82.2826748 C27.2294264,83.8510638 30.9301746,84.8966565 35.2917706,84.8966565 C36.3491272,84.8966565 37.2743142,84.7659574 38.1995012,84.7659574 C38.8603491,86.8571429 40.1820449,88.556231 41.7680798,89.993921 C39.9177057,90.3860182 37.6708229,90.7781155 35.2917706,90.7781155 Z M39.521197,80.8449848 C39.521197,75.3556231 44.0149626,70.9118541 49.5660848,70.9118541 C55.117207,70.9118541 59.6109726,75.3556231 59.6109726,80.8449848 C59.6109726,86.3343465 55.117207,90.7781155 49.5660848,90.7781155 C44.0149626,90.7781155 39.521197,86.3343465 39.521197,80.8449848 Z M63.1795511,90.7781155 C60.9326683,90.7781155 58.8179551,90.5167173 57.0997506,89.993921 C58.6857855,88.6869301 59.8753117,87.118541 60.6683292,85.2887538 C61.4613466,85.4194529 62.3865337,85.4194529 63.3117207,85.4194529 C67.9376559,85.4194529 71.9027431,84.3738602 74.1496259,82.8054711 L74.1496259,86.8571429 C74.0174564,88.6869301 69.3915212,90.7781155 63.1795511,90.7781155 Z M63.1795511,83.4589666 C62.5187032,83.4589666 61.8578554,83.4589666 61.1970075,83.3282675 C61.3291771,82.5440729 61.4613466,81.6291793 61.4613466,80.8449848 C61.4613466,79.668693 61.3291771,78.4924012 60.9326683,77.3161094 C61.7256858,77.3161094 62.3865337,77.4468085 63.1795511,77.4468085 C67.8054863,77.4468085 71.7705736,76.4012158 74.0174564,74.8328267 L74.0174564,79.668693 C74.0174564,81.4984802 69.3915212,83.4589666 63.1795511,83.4589666 Z M63.1795511,75.6170213 C62.1221945,75.6170213 61.0648379,75.4863222 60.1396509,75.4863222 C58.553616,72.4802432 55.7780549,70.2583587 52.3416459,69.4741641 L52.3416459,66.9908815 C54.5885287,68.5592705 58.553616,69.6048632 63.1795511,69.6048632 C67.8054863,69.6048632 71.7705736,68.5592705 74.0174564,66.9908815 L74.0174564,71.6960486 C74.0174564,73.5258359 69.3915212,75.6170213 63.1795511,75.6170213 Z M63.1795511,67.6443769 C56.967581,67.6443769 52.3416459,65.5531915 52.3416459,63.7234043 L52.3416459,59.0182371 C54.5885287,60.5866261 58.553616,61.6322188 63.1795511,61.6322188 C67.8054863,61.6322188 71.7705736,60.5866261 74.0174564,59.0182371 L74.0174564,63.7234043 C74.0174564,65.5531915 69.3915212,67.6443769 63.1795511,67.6443769 Z M63.1795511,59.6717325 C56.967581,59.6717325 52.3416459,57.5805471 52.3416459,55.7507599 C52.3416459,53.9209726 56.967581,51.8297872 63.1795511,51.8297872 C69.3915212,51.8297872 74.0174564,53.9209726 74.0174564,55.7507599 C74.0174564,57.7112462 69.3915212,59.6717325 63.1795511,59.6717325 Z M51.4237288,77.3389831 C51.8305085,77.6101695 51.9661017,78.0169492 51.9661017,78.4237288 L54,78.4237288 C54,77.4745763 53.5932203,76.5254237 52.779661,75.8474576 C52.2372881,75.440678 51.6949153,75.1694915 51.0169492,75.0338983 L51.0169492,73 L48.9830508,73 L48.9830508,74.8983051 C48.3050847,75.0338983 47.6271186,75.3050847 47.220339,75.7118644 C46.4067797,76.3898305 46,77.3389831 46,78.2881356 C46,79.2372881 46.4067797,80.1864407 47.220339,80.8644068 C48.0338983,81.5423729 48.9830508,81.9491525 50.0677966,81.9491525 C50.6101695,81.9491525 51.1525424,82.0847458 51.559322,82.4915254 C51.9661017,82.7627119 52.1016949,83.1694915 52.1016949,83.5762712 C52.1016949,83.9830508 51.9661017,84.3898305 51.559322,84.6610169 C50.7457627,85.3389831 49.2542373,85.3389831 48.5762712,84.6610169 C48.1694915,84.3898305 48.0338983,83.9830508 48.0338983,83.5762712 L46,83.5762712 C46,84.5254237 46.4067797,85.4745763 47.220339,86.1525424 C47.7627119,86.559322 48.3050847,86.8305085 48.9830508,87.1016949 L48.9830508,89 L51.0169492,89 L51.0169492,87.1016949 C51.6949153,86.9661017 52.3728814,86.6949153 52.779661,86.1525424 C53.5932203,85.4745763 54,84.5254237 54,83.5762712 C54,82.6271186 53.5932203,81.6779661 52.779661,81 C51.9661017,80.3220339 51.0169492,79.9152542 49.9322034,79.9152542 C49.3898305,79.9152542 48.8474576,79.779661 48.440678,79.3728814 C48.0338983,79.2372881 47.8983051,78.8305085 47.8983051,78.4237288 C47.8983051,78.0169492 48.0338983,77.6101695 48.440678,77.3389831 C49.2542373,76.6610169 50.6101695,76.6610169 51.4237288,77.3389831 Z M83,43.9652997 C83,43.9652997 83,43.9652997 83,43.9652997 C83,25.681388 68.492126,10.8422713 50.4232283,10.3123028 L50.4232283,7.92744479 C50.4232283,7.39747634 50.0275591,7 49.5,7 C48.9724409,7 48.5767717,7.39747634 48.5767717,7.92744479 L48.5767717,10.1798107 C30.507874,10.8422713 16,25.681388 16,43.9652997 C16,43.9652997 16,43.9652997 16,43.9652997 C16,43.9652997 16,44.0977918 16,44.0977918 C16.1318898,44.4952681 16.5275591,44.8927445 16.9232283,44.8927445 C17.3188976,44.8927445 17.7145669,44.6277603 17.8464567,44.2302839 C17.8464567,44.2302839 17.8464567,44.2302839 17.8464567,44.2302839 C18.1102362,43.4353312 20.3523622,42.2429022 23.6496063,42.2429022 C26.9468504,42.2429022 29.1889764,43.3028391 29.4527559,44.2302839 C29.4527559,44.2302839 29.4527559,44.2302839 29.4527559,44.2302839 C29.4527559,44.2302839 29.4527559,44.2302839 29.4527559,44.362776 C29.4527559,44.4952681 29.5846457,44.4952681 29.5846457,44.6277603 C29.5846457,44.6277603 29.5846457,44.6277603 29.5846457,44.6277603 C29.7165354,44.7602524 29.980315,44.8927445 30.2440945,44.8927445 C30.3759843,44.8927445 30.507874,44.8927445 30.507874,44.8927445 C30.9035433,44.7602524 31.0354331,44.4952681 31.1673228,44.0977918 C32.6181102,41.0504732 39.7401575,38.7981073 48.3129921,38.533123 L48.3129921,48.0725552 C48.3129921,48.6025237 48.7086614,49 49.2362205,49 C49.7637795,49 50.1594488,48.6025237 50.1594488,48.0725552 L50.1594488,38.533123 C58.8641732,38.6656151 66.1181102,41.0504732 67.4370079,44.2302839 C67.4370079,44.2302839 67.4370079,44.2302839 67.4370079,44.2302839 C67.4370079,44.2302839 67.4370079,44.362776 67.5688976,44.362776 C67.5688976,44.362776 67.7007874,44.4952681 67.7007874,44.4952681 C67.7007874,44.4952681 67.7007874,44.4952681 67.7007874,44.4952681 C67.7007874,44.4952681 67.7007874,44.4952681 67.7007874,44.4952681 L67.7007874,44.4952681 C67.7007874,44.4952681 67.8326772,44.6277603 67.9645669,44.6277603 C67.9645669,44.6277603 67.9645669,44.6277603 68.0964567,44.6277603 C68.2283465,44.6277603 68.3602362,44.7602524 68.492126,44.7602524 C68.6240157,44.7602524 68.7559055,44.7602524 68.8877953,44.6277603 C68.8877953,44.6277603 68.8877953,44.6277603 68.8877953,44.6277603 C69.019685,44.6277603 69.019685,44.4952681 69.1515748,44.4952681 C69.1515748,44.4952681 69.2834646,44.4952681 69.2834646,44.362776 C69.2834646,44.362776 69.4153543,44.2302839 69.4153543,44.2302839 C69.4153543,44.2302839 69.5472441,44.0977918 69.5472441,44.0977918 C69.5472441,44.0977918 69.5472441,44.0977918 69.5472441,43.9652997 C69.8110236,43.170347 72.0531496,42.1104101 75.3503937,42.1104101 C78.6476378,42.1104101 80.8897638,43.170347 81.1535433,44.0977918 C81.2854331,44.4952681 81.6811024,44.7602524 82.0767717,44.7602524 C82.2086614,44.7602524 82.3405512,44.7602524 82.3405512,44.7602524 C82.6043307,44.6277603 82.8681102,44.4952681 82.8681102,44.2302839 C82.8681102,44.2302839 82.8681102,44.2302839 82.8681102,44.0977918 C83,44.0977918 83,44.0977918 83,43.9652997 Z M23.6496063,40.3880126 C21.4074803,40.3880126 19.4291339,40.785489 17.9783465,41.5804416 C19.0334646,28.0662461 28.5295276,16.9369085 41.0590551,13.3596215 C34.5964567,18.3943218 29.980315,29.126183 29.4527559,41.5804416 C28.0019685,40.785489 26.023622,40.3880126 23.6496063,40.3880126 Z M49.5,36.6782334 C49.5,36.6782334 49.5,36.6782334 49.5,36.6782334 L49.5,36.6782334 C49.5,36.6782334 49.5,36.6782334 49.5,36.6782334 C41.4547244,36.6782334 34.7283465,38.4006309 31.4311024,41.0504732 C32.2224409,24.8864353 40.003937,12.2996845 49.5,12.2996845 C58.996063,12.2996845 66.7775591,25.0189274 67.5688976,41.0504732 C64.2716535,38.2681388 57.5452756,36.6782334 49.5,36.6782334 Z M75.3503937,40.3880126 C72.976378,40.3880126 70.9980315,40.9179811 69.5472441,41.7129338 C69.019685,29.2586751 64.4035433,18.5268139 57.9409449,13.4921136 C70.4704724,17.0694006 79.9665354,28.1987382 80.8897638,41.7129338 C79.5708661,40.785489 77.5925197,40.3880126 75.3503937,40.3880126 Z" id="Stroke" fill="#000000" fill-rule="nonzero"></path>
    </g>
</svg>