<?xml version="1.0" encoding="UTF-8"?>
<svg width="100px" height="100px" viewBox="0 0 100 100" version="1.1" xmlns="http://www.w3.org/2000/svg" xmlns:xlink="http://www.w3.org/1999/xlink">
    <!-- Generator: Sketch 55.2 (78181) - https://sketchapp.com -->
    <title>Postbacks</title>
    <desc>Created with Sketch.</desc>
    <g id="Page-1" stroke="none" stroke-width="1" fill="none" fill-rule="evenodd">
        <g id="Circlewise-Advertiser" transform="translate(-528.000000, -3368.000000)">
            <g id="Postbacks" transform="translate(528.000000, 3368.000000)">
                <path d="M38.458278,-1.55376046e-15 L61.541722,1.55376046e-15 C74.9145031,-9.02779573e-16 79.7637967,1.39238417 84.6526856,4.00699056 C89.5415744,6.62159695 93.3784031,10.4584256 95.9930094,15.3473144 C98.6076158,20.2362033 100,25.0854969 100,38.458278 L100,61.541722 C100,74.9145031 98.6076158,79.7637967 95.9930094,84.6526856 C93.3784031,89.5415744 89.5415744,93.3784031 84.6526856,95.9930094 C79.7637967,98.6076158 74.9145031,100 61.541722,100 L38.458278,100 C25.0854969,100 20.2362033,98.6076158 15.3473144,95.9930094 C10.4584256,93.3784031 6.62159695,89.5415744 4.00699056,84.6526856 C1.39238417,79.7637967 6.01853049e-16,74.9145031 -1.03584031e-15,61.541722 L1.03584031e-15,38.458278 C-6.01853049e-16,25.0854969 1.39238417,20.2362033 4.00699056,15.3473144 C6.62159695,10.4584256 10.4584256,6.62159695 15.3473144,4.00699056 C20.2362033,1.39238417 25.0854969,9.02779573e-16 38.458278,-1.55376046e-15 Z" id="Rectangle" fill="#ACACAC"></path>
                <path d="M80.625,15 C83.1041667,15 85,16.95 85,19.5 L85,34.5 C85,37.05 83.1041667,39 80.625,39 L19.375,39 C16.8958333,39 15,37.05 15,34.5 L15,19.5 C15,16.95 16.8958333,15 19.375,15 L80.625,15 Z M28,21 C24.7,21 22,23.7 22,27 C22,30.3 24.7,33 28,33 C31.3,33 34,30.3 34,27 C34,23.7 31.3,21 28,21 Z M28,30 C26.35,30 25,28.65 25,27 C25,25.35 26.35,24 28,24 C29.65,24 31,25.35 31,27 C31,28.65 29.65,30 28,30 Z M44,21 C40.7,21 38,23.7 38,27 C38,30.3 40.7,33 44,33 C47.3,33 50,30.3 50,27 C50,23.7 47.3,21 44,21 Z M44,30 C42.35,30 41,28.65 41,27 C41,25.35 42.35,24 44,24 C45.65,24 47,25.35 47,27 C47,28.65 45.65,30 44,30 Z M63,22 L63,25 L66,25 L66,22 L63,22 Z M63,29 L63,32 L66,32 L66,29 L63,29 Z M69,22 L69,25 L72,25 L72,22 L69,22 Z M69,29 L69,32 L72,32 L72,29 L69,29 Z M75,22 L75,25 L78,25 L78,22 L75,22 Z M75,29 L75,32 L78,32 L78,29 L75,29 Z" id="Path-7" fill-opacity="0.2" fill="#000000" fill-rule="nonzero"></path>
                <path d="M80.625,61 C83.1041667,61 85,62.95 85,65.5 L85,80.5 C85,83.05 83.1041667,85 80.625,85 L19.375,85 C16.8958333,85 15,83.05 15,80.5 L15,65.5 C15,62.95 16.8958333,61 19.375,61 L80.625,61 Z M28,67 C24.7,67 22,69.7 22,73 C22,76.3 24.7,79 28,79 C31.3,79 34,76.3 34,73 C34,69.7 31.3,67 28,67 Z M28,76 C26.35,76 25,74.65 25,73 C25,71.35 26.35,70 28,70 C29.65,70 31,71.35 31,73 C31,74.65 29.65,76 28,76 Z M44,67 C40.7,67 38,69.7 38,73 C38,76.3 40.7,79 44,79 C47.3,79 50,76.3 50,73 C50,69.7 47.3,67 44,67 Z M44,76 C42.35,76 41,74.65 41,73 C41,71.35 42.35,70 44,70 C45.65,70 47,71.35 47,73 C47,74.65 45.65,76 44,76 Z M63,68 L63,71 L66,71 L66,68 L63,68 Z M63,75 L63,78 L66,78 L66,75 L63,75 Z M69,68 L69,71 L72,71 L72,68 L69,68 Z M69,75 L69,78 L72,78 L72,75 L69,75 Z M75,68 L75,71 L78,71 L78,68 L75,68 Z M75,75 L75,78 L78,78 L78,75 L75,75 Z" id="Path-7" fill-opacity="0.2" fill="#000000" fill-rule="nonzero"></path>
                <path d="M49,48 L49,40 C49,39.4477153 49.4477153,39 50,39 L52,39 C52.5522847,39 53,39.4477153 53,40 L53,48 L58.1683345,48 C58.3600861,48 58.5477948,48.0551304 58.7090921,48.1588215 C59.1736621,48.4574737 59.3081651,49.0761875 59.009513,49.5407576 L51.8411785,60.6915001 C51.7637125,60.8120028 51.6612602,60.914455 51.5407576,60.991921 C51.0761875,61.2905732 50.4574737,61.1560702 50.1588215,60.6915001 L42.990487,49.5407576 C42.8867959,49.3794603 42.8316655,49.1917516 42.8316655,49 C42.8316655,48.4477153 43.2793807,48 43.8316655,48 L49,48 Z" id="Triangle-2" fill="#FFFFFF"></path>
            </g>
        </g>
    </g>
</svg>