<?xml version="1.0" encoding="UTF-8"?>
<svg width="100px" height="100px" viewBox="0 0 100 100" version="1.1" xmlns="http://www.w3.org/2000/svg" xmlns:xlink="http://www.w3.org/1999/xlink">
    <!-- Generator: Sketch 55.2 (78181) - https://sketchapp.com -->
    <title>Price Segments</title>
    <desc>Created with Sketch.</desc>
    <g id="Page-1" stroke="none" stroke-width="1" fill="none" fill-rule="evenodd">
        <g id="Circlewise-Advertiser" transform="translate(-243.000000, -3368.000000)">
            <g id="Price-Segments" transform="translate(243.000000, 3368.000000)">
                <path d="M38.458278,-1.55376046e-15 L61.541722,1.55376046e-15 C74.9145031,-9.02779573e-16 79.7637967,1.39238417 84.6526856,4.00699056 C89.5415744,6.62159695 93.3784031,10.4584256 95.9930094,15.3473144 C98.6076158,20.2362033 100,25.0854969 100,38.458278 L100,61.541722 C100,74.9145031 98.6076158,79.7637967 95.9930094,84.6526856 C93.3784031,89.5415744 89.5415744,93.3784031 84.6526856,95.9930094 C79.7637967,98.6076158 74.9145031,100 61.541722,100 L38.458278,100 C25.0854969,100 20.2362033,98.6076158 15.3473144,95.9930094 C10.4584256,93.3784031 6.62159695,89.5415744 4.00699056,84.6526856 C1.39238417,79.7637967 6.01853049e-16,74.9145031 -1.03584031e-15,61.541722 L1.03584031e-15,38.458278 C-6.01853049e-16,25.0854969 1.39238417,20.2362033 4.00699056,15.3473144 C6.62159695,10.4584256 10.4584256,6.62159695 15.3473144,4.00699056 C20.2362033,1.39238417 25.0854969,9.02779573e-16 38.458278,-1.55376046e-15 Z" id="Rectangle" fill="#95CD46"></path>
                <path d="M56.6741326,68.0257336 C55.7653119,67.416404 54.7686007,66.9279945 53.7070279,66.5835339 L65.3333333,56.0989011 L65.3333333,46.7468738 L62,46.7468738 C59.1666667,46.7468738 60.8333333,42.5718616 60.3333333,35.0568397 C60.3333333,32.2178314 64.5,33.8878363 72,33.3868348 C73,33.3868348 73.6666667,34.0548368 73.6666667,34.8898392 L73.6666667,44.9098684 C73.6666667,45.9118714 73,46.5798733 72,46.5798733 L68.6666667,46.5798733 L68.6666667,56.5999025 C68.6666667,57.7942628 68.4002668,57.3870224 56.6741326,68.0257336 Z M51.5416322,89.901894 C51.1578254,89.9661689 50.7549021,90 50.3333333,90 C50.2837134,90 50.2343448,89.9995313 50.1852284,89.9985994 C50.6440671,89.9916564 51.0966621,89.9589608 51.5416322,89.901894 Z M48.6666667,66.0732384 L48.6666667,62.2779191 C32.3333333,47.4148757 32,47.9158772 32,46.5798733 C32,39.7328533 31.8333333,37.0608455 32,36.3928436 C29.1666667,35.5578411 27,33.0528338 27,29.8798246 C27,26.2058139 30,23.1998051 33.6666667,23.1998051 C41.5,23.1998051 43,34.3888377 35.3333333,36.3928436 C35.3333333,37.0608455 35.3333333,40.7348562 35.3333333,45.9118714 L48.6666667,57.9359064 L48.6666667,15.6847832 L44.8333333,19.5257944 C44.1666667,20.1937963 43.1666667,20.1937963 42.5,19.5257944 C40.5,17.5217885 44.6666667,15.6847832 49.1666667,10.507768 C49.6666667,10.0067666 50.3333333,9.8397661 51,10.1737671 C51.5,10.3407676 51,10.1737671 58.1666667,17.1877875 C59.1666667,18.1897905 58.5,20.0267958 57,20.0267958 C55.8333333,20.0267958 55.6666667,19.0247929 52,15.6847832 L52,66.1659169 C51.3495831,66.0567976 50.6814244,66 50,66 C49.5493212,66 49.1044451,66.0248444 48.6666667,66.0732384 Z" id="Shape" fill-opacity="0.2" fill="#000000" fill-rule="nonzero"></path>
                <path d="M50,90 C43.372583,90 38,84.627417 38,78 C38,71.372583 43.372583,66 50,66 C56.627417,66 62,71.372583 62,78 C62,84.627417 56.627417,90 50,90 Z M54.1808036,80.4743304 C54.1808036,80.1395073 54.1372772,79.8247783 54.0502232,79.5301339 C53.9631692,79.2354896 53.8577015,78.9793538 53.733817,78.7617188 C53.6099324,78.5440837 53.4324788,78.3314743 53.2014509,78.1238839 C52.970423,77.9162936 52.7628357,77.7488846 52.578683,77.6216518 C52.3945303,77.494419 52.1417427,77.3521213 51.8203125,77.1947545 C51.4988823,77.0373876 51.2444206,76.9202013 51.0569196,76.843192 C50.8694187,76.7661827 50.5982161,76.660715 50.2433036,76.5267857 C49.9285699,76.4062494 49.6941972,76.3141744 49.5401786,76.250558 C49.3861599,76.1869416 49.183595,76.0965408 48.9324777,75.9793527 C48.6813604,75.8621646 48.4938622,75.758371 48.3699777,75.6679688 C48.2460931,75.5775665 48.11384,75.4670765 47.9732143,75.3364955 C47.8325886,75.2059145 47.7338172,75.066965 47.6768973,74.9196429 C47.6199774,74.7723207 47.5915179,74.611608 47.5915179,74.4375 C47.5915179,73.9821406 47.7924087,73.6104925 48.1941964,73.3225446 C48.5959842,73.0345968 49.1149522,72.890625 49.7511161,72.890625 C50.0323675,72.890625 50.3186369,72.9291291 50.609933,73.0061384 C50.9012291,73.0831477 51.1506686,73.1702004 51.3582589,73.2672991 C51.5658493,73.3643978 51.7617178,73.4715396 51.9458705,73.5887277 C52.1300232,73.7059158 52.2606023,73.7946426 52.3376116,73.8549107 C52.4146209,73.9151789 52.4631695,73.955357 52.4832589,73.9754464 C52.5703129,74.042411 52.6607138,74.0658483 52.7544643,74.0457589 C52.8549112,74.0390625 52.9319194,73.9854916 52.9854911,73.8850446 L53.7991071,72.4185268 C53.8794647,72.2845975 53.8627238,72.1573667 53.7488839,72.0368304 C53.7087052,71.9966516 53.6584824,71.9497771 53.5982143,71.8962054 C53.5379461,71.8426337 53.4073671,71.7455364 53.2064732,71.6049107 C53.0055794,71.464285 52.7929699,71.3387282 52.5686384,71.2282366 C52.3443069,71.117745 52.0530152,71.0055809 51.6947545,70.8917411 C51.3364937,70.7779012 50.9665198,70.7008931 50.5848214,70.6607143 L50.5848214,68.8928571 C50.5848214,68.7991067 50.5546878,68.7220985 50.4944196,68.6618304 C50.4341515,68.6015622 50.3571433,68.5714286 50.2633929,68.5714286 L48.9073661,68.5714286 C48.8203121,68.5714286 48.744978,68.6032363 48.6813616,68.6668527 C48.6177452,68.7304691 48.5859375,68.8058031 48.5859375,68.8928571 L48.5859375,70.7008929 C47.534593,70.9017867 46.6808069,71.3504429 46.0245536,72.046875 C45.3683003,72.7433071 45.0401786,73.5535668 45.0401786,74.4776786 C45.0401786,74.7522335 45.0686381,75.0133916 45.125558,75.2611607 C45.182478,75.5089298 45.2527898,75.7315838 45.3364955,75.9291295 C45.4202013,76.1266751 45.5390617,76.3208696 45.6930804,76.5117188 C45.847099,76.7025679 45.9927448,76.8666288 46.1300223,77.0039062 C46.2672998,77.1411837 46.4464275,77.2834814 46.6674107,77.4308036 C46.888394,77.5781257 47.0775662,77.6969862 47.234933,77.7873884 C47.3922999,77.8777906 47.6015612,77.9815842 47.8627232,78.0987723 C48.1238852,78.2159604 48.3297984,78.3046872 48.4804688,78.3649554 C48.6311391,78.4252235 48.8370523,78.508928 49.0982143,78.6160714 C49.4598232,78.7566971 49.7276777,78.865513 49.9017857,78.9425223 C50.0758937,79.0195316 50.2968737,79.1266734 50.5647321,79.2639509 C50.8325906,79.4012284 51.0284592,79.5267851 51.1523438,79.640625 C51.2762283,79.7544649 51.3883924,79.8950884 51.4888393,80.0625 C51.5892862,80.2299116 51.6395089,80.4073651 51.6395089,80.5948661 C51.6395089,81.1238866 51.4335958,81.5323646 51.0217634,81.8203125 C50.609931,82.1082604 50.1328152,82.2522321 49.5904018,82.2522321 C49.3426327,82.2522321 49.0948673,82.2254467 48.8470982,82.171875 C47.9765581,81.997767 47.1629502,81.5792444 46.40625,80.9162946 L46.3861607,80.8962054 C46.3258926,80.8225443 46.2455362,80.7924106 46.1450893,80.8058036 C46.0379459,80.8191965 45.9609377,80.8593747 45.9140625,80.9263393 L44.8794643,82.2823661 C44.7790174,82.4162953 44.7857137,82.5535707 44.8995536,82.6941964 C44.9330359,82.7343752 44.991629,82.7946425 45.0753348,82.875 C45.1590406,82.9553575 45.314731,83.0809143 45.5424107,83.2516741 C45.7700904,83.4224339 46.0178558,83.5831466 46.2857143,83.733817 C46.5535728,83.8844874 46.8934131,84.0334814 47.3052455,84.1808036 C47.717078,84.3281257 48.143971,84.4319193 48.5859375,84.4921875 L48.5859375,86.25 C48.5859375,86.337054 48.6177452,86.4123881 48.6813616,86.4760045 C48.744978,86.5396209 48.8203121,86.5714286 48.9073661,86.5714286 L50.2633929,86.5714286 C50.3571433,86.5714286 50.4341515,86.5412949 50.4944196,86.4810268 C50.5546878,86.4207586 50.5848214,86.3437505 50.5848214,86.25 L50.5848214,84.4921875 C51.6495589,84.3180795 52.5150636,83.8610528 53.1813616,83.1210938 C53.8476596,82.3811347 54.1808036,81.4988891 54.1808036,80.4743304 Z" id="Oval-3" fill="#FFFFFF"></path>
            </g>
        </g>
    </g>
</svg>