<?xml version="1.0" encoding="UTF-8"?>
<svg width="100px" height="100px" viewBox="0 0 100 100" version="1.1" xmlns="http://www.w3.org/2000/svg" xmlns:xlink="http://www.w3.org/1999/xlink">
    <!-- Generator: Sketch 55.2 (78181) - https://sketchapp.com -->
    <title>Product Feeds</title>
    <desc>Created with Sketch.</desc>
    <g id="Page-1" stroke="none" stroke-width="1" fill="none" fill-rule="evenodd">
        <g id="Circlewise-Advertiser" transform="translate(-1098.000000, -3191.000000)">
            <g id="Product-Feeds" transform="translate(1098.000000, 3191.000000)">
                <path d="M38.458278,-1.55376046e-15 L61.541722,1.55376046e-15 C74.9145031,-9.02779573e-16 79.7637967,1.39238417 84.6526856,4.00699056 C89.5415744,6.62159695 93.3784031,10.4584256 95.9930094,15.3473144 C98.6076158,20.2362033 100,25.0854969 100,38.458278 L100,61.541722 C100,74.9145031 98.6076158,79.7637967 95.9930094,84.6526856 C93.3784031,89.5415744 89.5415744,93.3784031 84.6526856,95.9930094 C79.7637967,98.6076158 74.9145031,100 61.541722,100 L38.458278,100 C25.0854969,100 20.2362033,98.6076158 15.3473144,95.9930094 C10.4584256,93.3784031 6.62159695,89.5415744 4.00699056,84.6526856 C1.39238417,79.7637967 6.01853049e-16,74.9145031 -1.03584031e-15,61.541722 L1.03584031e-15,38.458278 C-6.01853049e-16,25.0854969 1.39238417,20.2362033 4.00699056,15.3473144 C6.62159695,10.4584256 10.4584256,6.62159695 15.3473144,4.00699056 C20.2362033,1.39238417 25.0854969,9.02779573e-16 38.458278,-1.55376046e-15 Z" id="Rectangle" fill="#A56EFF"></path>
                <path d="M79.1666667,15 L20.8333333,15 C17.625,15 15,17.625 15,20.8333333 L15,28.125 L15,79.1666667 C15,82.375 17.625,85 20.8333333,85 L79.1666667,85 C82.375,85 85,82.375 85,79.1666667 L85,28.125 L85,20.8333333 C85,17.625 82.375,15 79.1666667,15 Z M82.0833333,79.1666667 C82.0833333,80.7708333 80.7708333,82.0833333 79.1666667,82.0833333 L20.8333333,82.0833333 C19.2291667,82.0833333 17.9166667,80.7708333 17.9166667,79.1666667 L17.9166667,29.5833333 L82.0833333,29.5833333 L82.0833333,79.1666667 Z M23.75,20.8333333 L26.6666667,20.8333333 L26.6666667,23.75 L23.75,23.75 L23.75,20.8333333 Z M31.0416667,20.8333333 L33.9583333,20.8333333 L33.9583333,23.75 L31.0416667,23.75 L31.0416667,20.8333333 Z M38.3333333,20.8333333 L41.25,20.8333333 L41.25,23.75 L38.3333333,23.75 L38.3333333,20.8333333 Z" id="Shape" fill-opacity="0.2" fill="#000000" fill-rule="nonzero"></path>
                <path d="M50,64.5833333 C53.2083333,64.5833333 55.8333333,67.2083333 55.8333333,70.4166667 C55.8333333,73.625 53.2083333,76.25 50,76.25 C46.7916667,76.25 44.1666667,73.625 44.1666667,70.4166667 C44.1666667,67.2083333 46.7916667,64.5833333 50,64.5833333 Z M32.5,45.625 C31.0416667,46.9375 29,44.8958333 30.3125,43.5833333 C41.1041667,32.7916667 58.75,32.7916667 69.5416667,43.5833333 C70.8541667,44.8958333 68.8125,46.9375 67.5,45.625 C57.875,36 42.125,36 32.5,45.625 Z M50,44.1666667 C55.3958333,44.1666667 60.6458333,46.3541667 64.4375,50.1458333 C65.0208333,50.7291667 65.0208333,51.6041667 64.4375,52.1875 C62.1041667,54.5208333 60.5,47.0833333 50,47.0833333 C45.3333333,47.0833333 40.9583333,48.8333333 37.6041667,52.1875 C36.2916667,53.5 34.25,51.4583333 35.5625,50.1458333 C39.3541667,46.3541667 44.6041667,44.1666667 50,44.1666667 Z M40.6666667,58.8958333 C37.8958333,55.9791667 50.875,48.3958333 59.1875,56.8541667 C60.5,58.1666667 58.4583333,60.2083333 57.1458333,58.8958333 C53.2083333,54.9583333 46.6458333,54.9583333 42.7083333,58.8958333 C42.125,59.4791667 41.25,59.4791667 40.6666667,58.8958333 Z" id="Path-5" fill="#FFFFFF" fill-rule="nonzero"></path>
            </g>
        </g>
    </g>
</svg>