<?xml version="1.0" encoding="UTF-8"?>
<svg width="100px" height="100px" viewBox="0 0 100 100" version="1.1" xmlns="http://www.w3.org/2000/svg" xmlns:xlink="http://www.w3.org/1999/xlink">
    <!-- Generator: Sketch 55.2 (78181) - https://sketchapp.com -->
    <title>proptech</title>
    <desc>Created with Sketch.</desc>
    <g id="proptech" stroke="none" stroke-width="1" fill="none" fill-rule="evenodd">
        <rect id="Rectangle" fill-opacity="0" fill="#FFFFFF" x="0" y="0" width="100" height="100"></rect>
        <circle id="Oval" fill="#E4F2F8" cx="50" cy="50" r="40"></circle>
        <circle id="Oval" fill="#D02E7D" cx="44" cy="75" r="5"></circle>
        <circle id="Oval" fill="#46A7CD" cx="21" cy="22" r="4"></circle>
        <circle id="Oval" fill="#FFB900" cx="68" cy="23" r="7"></circle>
        <path d="M92.5316456,45.819285 C93.1434599,46.426163 94,47.5185435 94,49.5819285 L94,68.395145 C94,69.9730276 93.3881857,71.5509103 92.164557,72.7646662 L84.5780591,80.2899528 C84.2109705,80.7754552 83.9662447,81.2609575 83.9662447,81.8678355 L83.9662447,82.3533378 L86.2911392,82.3533378 L86.2911392,90 L84.4556962,90 L66.835443,90 L65,90 L65,82.3533378 L67.3248945,82.3533378 L67.3248945,77.1341875 C67.3248945,75.192178 68.0590717,73.4929198 69.4050633,72.1577883 L79.5611814,62.4477411 C81.1518987,60.991234 83.5991561,60.991234 85.1898734,62.5691167 C85.6765782,63.0921259 86.0019584,63.7084819 86.1615581,64.3563026 C86.3761592,65.2273755 86.3785652,65.2364793 86.1687764,64.383614 L86.1687764,49.7033041 C86.1687764,47.1544167 87.3924051,45.3337829 89.2278481,45.0910317 C90.5738397,44.8482805 91.6751055,45.0910315 92.5316456,45.819285 Z M8.46835443,45.819285 C9.32489451,45.0910315 10.4261603,44.8482805 11.7721519,45.0910317 C13.6075949,45.3337829 14.8312236,47.1544167 14.8312236,49.7033041 L14.8312236,64.383614 C14.6214348,65.2364793 14.6238408,65.2273755 14.8384419,64.3563026 C14.9980416,63.7084819 15.3234218,63.0921259 15.8101266,62.5691167 C17.4008439,60.991234 19.8481013,60.991234 21.4388186,62.4477411 L31.5949367,72.1577883 C32.9409283,73.4929198 33.6751055,75.192178 33.6751055,77.1341875 L33.6751055,82.3533378 L36,82.3533378 L36,90 L34.164557,90 L16.5443038,90 L14.7088608,90 L14.7088608,82.3533378 L17.0337553,82.3533378 L17.0337553,81.8678355 C17.0337553,81.2609575 16.7890295,80.7754552 16.4219409,80.2899528 L8.83544304,72.7646662 C7.61181435,71.5509103 7,69.9730276 7,68.395145 L7,49.5819285 C7,47.5185435 7.85654008,46.426163 8.46835443,45.819285 Z M23.2512195,34.0487805 L22,32.402439 L33.6780488,23.6219512 L33.6780488,16.7621951 L35.7634146,16.7621951 L35.7634146,22.1128049 L50.5,11 L79,32.402439 L77.7487805,34.0487805 L72.604878,30.2073171 L72.604878,53.9420732 L76.6365854,53.9420732 L76.6365854,56 L72.604878,56 L28.395122,56 L24.3634146,56 L24.3634146,53.9420732 L28.395122,53.9420732 L28.395122,30.2073171 L23.2512195,34.0487805 Z" id="Fill" fill="#FFFFFF" fill-rule="nonzero"></path>
        <path d="M92.5316456,45.8192852 C93.1434599,46.4261632 94,47.5185435 94,49.5819285 L94,68.395145 C94,69.9730276 93.3881857,71.5509103 92.164557,72.7646662 L84.5780591,80.2899528 C84.2109705,80.7754552 83.9662447,81.2609575 83.9662447,81.8678355 L83.9662447,82.3533378 L86.2911392,82.3533378 L86.2911392,90 L84.4556962,90 L84.4556962,84.1739717 L66.835443,84.1739717 L66.835443,90 L65,90 L65,82.3533378 L67.3248945,82.3533378 L67.3248945,77.1341875 C67.3248945,75.192178 68.0590717,73.4929198 69.4050633,72.1577883 L79.5611814,62.4477411 C81.1518987,60.991234 83.5991561,60.991234 85.1898734,62.5691167 C86.6582278,64.1469993 86.6582278,66.5745111 85.0675105,68.1523938 L80.2953586,72.7646662 L79.07173,71.4295347 L83.8438819,66.8172623 C84.7004219,65.9676332 84.7004219,64.6325017 83.8438819,63.7828726 C82.9873418,62.9332434 81.6413502,62.9332434 80.7848101,63.7828726 L70.628692,73.4929198 C69.649789,74.4639245 69.0379747,75.799056 69.0379747,77.1341875 L69.0379747,82.3533378 L82.0084388,82.3533378 L82.0084388,81.8678355 C82.0084388,80.7754552 82.4978903,79.8044504 83.2320675,79.0761969 L90.8185654,71.4295347 C91.6751055,70.5799056 92.164557,69.4875253 92.164557,68.2737694 L92.164557,49.5819285 C92.164557,48.4895482 91.7974684,47.6399191 91.3080169,47.1544167 C90.6962025,46.6689144 89.9620253,46.6689144 89.4725738,46.79029 C88.6160338,46.9116655 88.0042194,48.0040459 88.0042194,49.5819285 L88.0042194,62.0836143 L86.1687764,62.0836143 L86.1687764,49.7033041 C86.1687764,47.1544167 87.3924051,45.3337829 89.2278481,45.0910317 C90.5738397,44.8482805 91.6751055,45.0910317 92.5316456,45.8192852 Z M77,86 L79,86 L79,87 L77,87 L77,86 Z M33.7974684,77.2898453 L33.6751055,77.2898453 L33.6751055,82.3739072 L36,82.3739072 L36,90 L34.164557,90 L34.164557,84.1896436 L16.5443038,84.1896436 L16.5443038,90 L14.7088608,90 L14.7088608,82.2528581 L17.0337553,82.2528581 L17.0337553,81.7686617 C17.0337553,81.1634163 16.7890295,80.5581708 16.4219409,80.1950235 L8.83544304,72.6899798 C7.61181435,71.600538 7,70.0268998 7,68.3322125 L7,49.6906523 C7,47.6328178 7.85654008,46.5433759 8.46835443,45.8170814 C9.32489451,45.0907868 10.4261603,44.8486886 11.7721519,45.0907868 C13.6075949,45.4539341 14.8312236,47.2696705 14.8312236,49.6906523 L14.8312236,62.0376597 L12.9957806,62.0376597 L12.9957806,49.6906523 C12.9957806,48.1170141 12.3839662,47.0275723 11.5274262,46.9065232 C11.0379747,46.7854741 10.3037975,46.7854741 9.69198312,47.2696705 C9.08016878,47.7538668 8.83544304,48.6012105 8.83544304,49.6906523 L8.83544304,68.5743107 C8.83544304,69.7848016 9.32489451,70.8742434 10.1814346,71.7215871 L17.7679325,79.2266308 C18.6244726,79.9529254 18.9915612,80.9213181 18.9915612,82.0107599 L18.9915612,82.4949563 L32.0843882,82.4949563 L32.0843882,77.2898453 C32.0843882,75.9583053 31.4725738,74.6267653 30.4936709,73.6583726 L20.3375527,63.9744452 C19.4810127,63.1271015 18.1350211,63.1271015 17.278481,63.9744452 C16.4219409,64.8217888 16.4219409,66.1533289 17.278481,67.0006725 L21.92827,71.600538 L20.7046414,72.932078 L15.9324895,68.3322125 C14.3417722,66.7585743 14.3417722,64.3375925 15.9324895,62.7639543 C17.4008439,61.1903161 19.9704641,61.069267 21.5611814,62.6429052 L31.7172996,72.3268325 C33.0632911,73.6583726 33.7974684,75.4741089 33.7974684,77.2898453 Z M22,86 L24,86 L24,87 L22,87 L22,86 Z M23.2512195,34.0487805 L22,32.402439 L33.6780488,23.6219512 L33.6780488,16.7621951 L35.7634146,16.7621951 L35.7634146,22.1128049 L50.5,11 L79,32.402439 L77.7487805,34.0487805 L72.604878,30.2073171 L72.604878,53.9420732 L76.6365854,53.9420732 L76.6365854,56 L72.604878,56 L28.395122,56 L24.3634146,56 L24.3634146,53.9420732 L28.395122,53.9420732 L28.395122,30.2073171 L23.2512195,34.0487805 Z M70.5195122,28.5609756 L50.5,13.4695122 L30.4804878,28.5609756 L30.4804878,53.9420732 L70.5195122,53.9420732 L70.5195122,28.5609756 Z M50.5,50 C56.797619,50 62,44.9345238 62,38.5 C62,32.0654762 56.9345238,27 50.5,27 C44.0654762,27 39,32.0654762 39,38.5 C39,44.9345238 44.202381,50 50.5,50 Z M50.5,29.1904762 C55.702381,29.1904762 59.9464286,33.4345238 59.9464286,38.6369048 C59.9464286,43.8392857 55.702381,48.0833333 50.5,48.0833333 C45.297619,48.0833333 41.0535714,43.8392857 41.0535714,38.6369048 C41.0535714,33.4345238 45.297619,29.1904762 50.5,29.1904762 Z M49.3773585,41.8571429 C49.1132075,41.5714286 48.9811321,41.2857143 48.9811321,41 L47,41 C47,42 47.3962264,42.8571429 48.0566038,43.5714286 C48.4528302,44 48.9811321,44.2857143 49.509434,44.4285714 L49.509434,46 L51.490566,46 L51.490566,44.4285714 C52.0188679,44.2857143 52.5471698,44 52.9433962,43.5714286 C53.6037736,42.8571429 54,42 54,41 C54,40 53.6037736,39.1428571 52.9433962,38.4285714 C52.2830189,37.8571429 51.3584906,37.4285714 50.4339623,37.4285714 C50.0377358,37.4285714 49.509434,37.2857143 49.245283,37 C48.9811321,36.7142857 48.8490566,36.4285714 48.8490566,36.1428571 C48.8490566,35.8571429 48.9811321,35.4285714 49.245283,35.2857143 C49.9056604,34.7142857 50.9622642,34.7142857 51.6226415,35.2857143 C51.8867925,35.5714286 52.0188679,35.8571429 52.0188679,36.1428571 L54,36.1428571 C54,35.1428571 53.6037736,34.2857143 52.9433962,33.5714286 C52.5471698,33.1428571 52.0188679,32.8571429 51.490566,32.7142857 L51.490566,31 L49.509434,31 L49.509434,32.7142857 C48.9811321,32.8571429 48.4528302,33.1428571 48.0566038,33.5714286 C47.3962264,34.2857143 47,35.1428571 47,36.1428571 C47,37.1428571 47.3962264,38 48.0566038,38.7142857 C48.7169811,39.2857143 49.6415094,39.7142857 50.5660377,39.7142857 C50.9622642,39.7142857 51.490566,39.8571429 51.754717,40.1428571 C52.0188679,40.4285714 52.1509434,40.7142857 52.1509434,41 C52.1509434,41.2857143 52.0188679,41.7142857 51.754717,41.8571429 C51.0943396,42.4285714 50.0377358,42.4285714 49.3773585,41.8571429 Z" id="Stroke" fill="#000000" fill-rule="nonzero"></path>
    </g>
</svg>