<svg xmlns="http://www.w3.org/2000/svg" width="711" height="530" viewBox="0 0 711 530">
    <defs>
        <filter id="a" width="200.3%" height="211%" x="-50.2%" y="-55.5%" filterUnits="objectBoundingBox">
            <feGaussianBlur in="SourceGraphic" stdDeviation="18"/>
        </filter>
    </defs>
    <g fill="none" fill-rule="evenodd">
        <path fill="#D18915" d="M423.38 152.653l-11.944 7.191c-1.628.98-3.734 1.043-6.196.295-.97-.295-1.995-.714-3.078-1.245a32.88 32.88 0 0 1-3.198-1.86 46.105 46.105 0 0 1-2.387-1.671 59.75 59.75 0 0 1-2.715-2.15 73.066 73.066 0 0 1-2.096-1.836 83.524 83.524 0 0 1-2.458-2.306 130.111 130.111 0 0 1-1.939-1.93c-.75-.775-1.514-1.584-2.277-2.413a92.214 92.214 0 0 1-1.808-2.01 144.12 144.12 0 0 1-2.154-2.488c-.563-.676-1.14-1.375-1.71-2.08a154.122 154.122 0 0 1-3.673-4.67c-.643-.86-1.292-1.728-1.942-2.615-.514-.717-1.035-1.429-1.55-2.164-.62-.874-1.238-1.761-1.858-2.668-.49-.73-.987-1.456-1.48-2.206-.59-.892-1.184-1.794-1.772-2.718-.474-.74-.953-1.487-1.416-2.244-.292-.459-.576-.923-.86-1.386-.285-.464-.563-.92-.84-1.387a129.2 129.2 0 0 1-1.354-2.281 189.42 189.42 0 0 1-1.617-2.813c-.44-.771-.865-1.552-1.293-2.32a185.69 185.69 0 0 1-1.53-2.863c-.422-.793-.823-1.588-1.222-2.36-.496-.984-.973-1.954-1.445-2.916-.39-.812-.776-1.615-1.144-2.408a157.994 157.994 0 0 1-1.349-2.985c-.368-.825-.721-1.649-1.068-2.455a146.01 146.01 0 0 1-1.233-3.042 125.51 125.51 0 0 1-2.076-5.634c-.293-.88-.57-1.749-.833-2.596a78.233 78.233 0 0 1-.93-3.224 69.014 69.014 0 0 1-.677-2.69 52.854 52.854 0 0 1-.67-3.393 40.373 40.373 0 0 1-.398-2.858 31.674 31.674 0 0 1-.19-3.67c.023-1.198.121-2.293.305-3.28.465-2.512 1.493-4.336 3.122-5.315l11.943-7.192 1.74 2.388 1.565 2.155 1.92 2.629 1.566 2.155 1.864 2.558.084.065a72.855 72.855 0 0 1 2.095 1.837c.817.724 1.63 1.492 2.457 2.305a88.605 88.605 0 0 1 1.94 1.93c.751.774 1.51 1.576 2.286 2.41.595.657 1.206 1.323 1.807 2.008.718.806 1.432 1.644 2.145 2.493.572.672 1.144 1.364 1.715 2.066.683.837 1.363 1.686 2.048 2.562.541.69 1.082 1.4 1.622 2.122.65.855 1.299 1.724 1.942 2.614.521.714 1.042 1.424 1.558 2.16.62.875 1.243 1.77 1.85 2.673.497.726 1 1.46 1.487 2.202.59.892 1.184 1.792 1.773 2.717.473.74.947 1.48 1.416 2.245.287.452.572.914.856 1.378.282.463.567.927.844 1.395.468.764.91 1.523 1.354 2.281.557.945 1.09 1.883 1.616 2.813.444.779.865 1.55 1.285 2.323.533.958 1.042 1.91 1.537 2.86.416.796.82 1.579 1.216 2.366.503.976.98 1.948 1.445 2.914.399.808.78 1.604 1.153 2.404.463 1.001.913 1.998 1.35 2.972.365.838.719 1.66 1.056 2.473.433 1.019.853 2.034 1.242 3.037.336.843.653 1.69.966 2.516.39 1.055.756 2.103 1.103 3.122.293.88.577 1.745.84 2.59.337 1.11.65 2.179.93 3.225.245.921.467 1.824.67 2.695l.022.105 1.423 2.81 1.211 2.38 1.47 2.899 1.205 2.372 1.336 2.632"/>
        <path fill="#BE690B" d="M345 65.584c.023-1.198.121-2.293.305-3.28l11.94-7.19c-.185.99-.285 2.086-.3 3.278l-11.944 7.192zm.588 6.528a40.373 40.373 0 0 1-.398-2.858l11.94-7.187c.096.915.227 1.867.395 2.86l-11.937 7.185zm1.346 6.083a69.014 69.014 0 0 1-.676-2.69l11.943-7.19c.2.874.425 1.774.67 2.693l-11.937 7.187zm1.764 5.82c-.293-.88-.57-1.749-.833-2.596l11.94-7.188c.262.85.543 1.714.838 2.592l-11.945 7.192zm2.076 5.634c-.341-.852-.66-1.685-.966-2.516l11.941-7.19c.308.83.629 1.67.962 2.518l-11.937 7.188zm2.301 5.497c-.368-.825-.721-1.649-1.068-2.455L363.95 85.5c.343.813.696 1.633 1.06 2.46l-11.935 7.186zm2.493 5.393c-.39-.812-.776-1.615-1.144-2.408l11.94-7.19c.372.796.753 1.6 1.145 2.408l-11.941 7.19zm2.668 5.276c-.423-.793-.824-1.588-1.223-2.36l11.943-7.192c.397.784.803 1.573 1.219 2.364l-11.94 7.188zm2.822 5.183c-.44-.771-.865-1.552-1.293-2.32l11.942-7.19c.423.772.853 1.545 1.29 2.322l-11.939 7.188zm2.97 5.094a129.2 129.2 0 0 1-1.353-2.281l11.937-7.188c.445.76.895 1.519 1.354 2.281l-11.937 7.188zm3.117 5.017c-.474-.74-.953-1.487-1.416-2.244l11.937-7.188c.47.757.942 1.503 1.418 2.244l-11.94 7.188zm3.252 4.924c-.49-.73-.987-1.456-1.48-2.206l11.94-7.188c.492.743.987 1.478 1.483 2.204l-11.943 7.19zm3.408 4.832c-.514-.717-1.035-1.429-1.55-2.164l11.94-7.19a162.58 162.58 0 0 0 1.553 2.165l-11.943 7.19zm3.571 4.733c-.544-.699-1.082-1.4-1.629-2.119l11.941-7.188c.543.717 1.086 1.422 1.63 2.117l-11.942 7.19zm3.754 4.632c-.563-.676-1.14-1.375-1.71-2.08l11.935-7.184a152.2 152.2 0 0 0 1.718 2.074l-11.943 7.19zm3.962 4.498a92.214 92.214 0 0 1-1.808-2.01l11.937-7.187c.607.687 1.21 1.355 1.81 2.01l-11.94 7.187zm4.216 4.343a130.111 130.111 0 0 1-1.939-1.93l11.945-7.191c.649.666 1.294 1.311 1.932 1.935l-11.938 7.186zm4.554 4.142a73.066 73.066 0 0 1-2.096-1.836l11.936-7.186c.709.642 1.41 1.252 2.101 1.832l-11.941 7.19zm5.102 3.82a46.105 46.105 0 0 1-2.387-1.67l11.937-7.188a46.814 46.814 0 0 0 2.386 1.672l-11.936 7.186zm6.276 3.106c-.97-.295-1.995-.714-3.078-1.245l11.941-7.19c1.075.537 2.1.956 3.069 1.25l-11.932 7.185z"/>
        <path fill="#FCCB37" d="M406.938 92.155c17.402 28.408 24.76 55.494 16.44 60.503-8.32 5.011-29.164-13.956-46.568-42.363-17.397-28.4-24.763-55.481-16.442-60.492 8.32-5.01 29.174 13.953 46.57 42.352"/>
        <path fill="#D18915" d="M402 95.13c11.7 19.1 17.236 36.964 12.36 39.9-.444.268-.95.402-1.532.406-5.768.11-17.85-12.302-28.49-29.673C373.7 88.4 368.162 72.049 370.92 67.027c.272-.513.625-.894 1.068-1.162 4.878-2.937 18.315 10.17 30.012 29.265"/>
        <path fill="#FFF" fill-opacity=".15" d="M360.368 49.803c.898-.54 1.944-.803 3.116-.803 9.668 0 27.934 17.823 43.454 43.155 12.543 20.474 19.868 40.262 19.866 51.592 0 4.392-1.102 7.513-3.426 8.911l-63.01-102.855z"/>
        <path fill="#D18915" d="M721.403 291.144l-9.507 10.005c-1.295 1.364-3.29 1.973-5.838 1.895-1.003-.028-2.09-.163-3.264-.391a32.233 32.233 0 0 1-3.544-.952 46.3 46.3 0 0 1-2.72-.981 61.01 61.01 0 0 1-3.158-1.354 72.991 72.991 0 0 1-2.485-1.217 86.158 86.158 0 0 1-2.955-1.571c-.77-.43-1.562-.879-2.359-1.348a125.869 125.869 0 0 1-5.066-3.177 150.405 150.405 0 0 1-2.712-1.825 203.239 203.239 0 0 1-2.181-1.549 144.047 144.047 0 0 1-2.624-1.918c-.705-.526-1.403-1.06-2.114-1.606-.84-.657-1.688-1.32-2.543-2.003-.68-.553-1.365-1.1-2.05-1.672a163.055 163.055 0 0 1-2.477-2.073c-.662-.573-1.327-1.14-1.995-1.732a168.906 168.906 0 0 1-2.408-2.146 119.49 119.49 0 0 1-1.946-1.784c-.398-.363-.791-.735-1.185-1.105-.393-.37-.78-.734-1.166-1.112-.642-.605-1.272-1.223-1.896-1.835a194.353 194.353 0 0 1-2.283-2.276c-.624-.625-1.236-1.263-1.847-1.888a174.343 174.343 0 0 1-2.215-2.348c-.611-.65-1.205-1.308-1.79-1.947a297.55 297.55 0 0 1-2.149-2.42 148.815 148.815 0 0 1-3.8-4.523 182.517 182.517 0 0 1-1.667-2.076 142.386 142.386 0 0 1-1.98-2.596 128.503 128.503 0 0 1-3.466-4.863c-.513-.767-1.007-1.53-1.48-2.272a78.263 78.263 0 0 1-1.738-2.852 70.24 70.24 0 0 1-1.356-2.404 52.91 52.91 0 0 1-1.533-3.077 40.691 40.691 0 0 1-1.133-2.639 32.028 32.028 0 0 1-1.15-3.47c-.293-1.155-.49-2.231-.574-3.226-.217-2.531.281-4.547 1.578-5.91l9.507-10.006 2.29 1.836 2.062 1.66 2.526 2.023 2.064 1.658 2.453 1.967.097.04c.808.38 1.643.782 2.485 1.217a67.49 67.49 0 0 1 2.953 1.572c.777.424 1.563.878 2.36 1.345.922.548 1.857 1.12 2.818 1.716.741.476 1.5.957 2.254 1.456a112.51 112.51 0 0 1 2.707 1.833 169.687 169.687 0 0 1 4.812 3.46c.697.52 1.402 1.061 2.107 1.612.848.65 1.695 1.314 2.543 2.003.685.546 1.37 1.094 2.058 1.665.822.678 1.652 1.373 2.469 2.08.667.568 1.34 1.141 2 1.727.8.702 1.603 1.41 2.41 2.145.647.585 1.295 1.173 1.944 1.783.393.358.786.728 1.18 1.1.393.37.786.74 1.172 1.117.65.613 1.273 1.223 1.895 1.836.781.76 1.537 1.521 2.285 2.276.63.632 1.234 1.262 1.84 1.895.761.78 1.499 1.56 2.222 2.34.604.658 1.198 1.303 1.784 1.955.736.804 1.448 1.613 2.146 2.42.593.67 1.167 1.334 1.735 2.004.705.839 1.4 1.678 2.072 2.499.57.71 1.126 1.404 1.662 2.096.681.864 1.349 1.73 1.985 2.59.543.722 1.068 1.452 1.586 2.161a126.1 126.1 0 0 1 1.875 2.707c.513.767 1.012 1.523 1.486 2.267a92.582 92.582 0 0 1 1.737 2.85c.476.82.927 1.628 1.351 2.41l.047.095 2.101 2.324 1.784 1.967 2.166 2.4 1.777 1.96 1.97 2.177"/>
        <path fill="#BE690B" d="M623.622 228.042c-.292-1.155-.488-2.231-.573-3.226l9.503-10.004c.085.997.278 2.075.579 3.223l-9.509 10.007zm2.284 6.109a40.691 40.691 0 0 1-1.133-2.639l9.501-10.002c.334.854.71 1.732 1.131 2.641l-9.5 10zm2.89 5.48a70.24 70.24 0 0 1-1.357-2.403l9.506-10.005c.422.788.873 1.591 1.351 2.409l-9.5 10zm3.217 5.125c-.513-.767-1.007-1.53-1.48-2.272l9.502-10.002c.474.746.97 1.502 1.486 2.267l-9.508 10.007zm3.466 4.863c-.55-.73-1.073-1.446-1.585-2.163l9.505-10.003c.51.715 1.038 1.437 1.581 2.164l-9.5 10.002zm3.647 4.672a182.517 182.517 0 0 1-1.667-2.076l9.505-10.006c.541.692 1.095 1.385 1.661 2.082l-9.5 10zm3.8 4.523a244.32 244.32 0 0 1-1.728-2.012l9.505-10.003c.565.668 1.142 1.338 1.728 2.012l-9.505 10.003zm3.94 4.367c-.612-.65-1.206-1.308-1.792-1.947l9.507-10.004c.586.647 1.181 1.297 1.787 1.95l-9.503 10.001zm4.06 4.236c-.623-.625-1.235-1.263-1.846-1.888l9.506-10.006c.605.63 1.22 1.261 1.842 1.892l-9.501 10.002zm4.18 4.111c-.642-.605-1.272-1.223-1.896-1.835l9.501-10c.626.612 1.256 1.223 1.896 1.835l-9.501 10zm4.297 4a119.49 119.49 0 0 1-1.946-1.783l9.502-10c.649.604 1.296 1.196 1.946 1.784l-9.502 10zm4.403 3.879c-.662-.573-1.327-1.14-1.995-1.732l9.501-10.002c.668.584 1.333 1.16 1.999 1.729l-9.505 10.005zm4.527 3.745c-.68-.553-1.365-1.1-2.05-1.672l9.502-10.002a182.48 182.48 0 0 0 2.053 1.67l-9.505 10.004zm4.657 3.609c-.705-.526-1.403-1.06-2.114-1.606l9.505-10.004c.707.547 1.41 1.082 2.112 1.608l-9.503 10.002zm4.805 3.467a203.239 203.239 0 0 1-2.181-1.549l9.5-9.998c.732.527 1.462 1.04 2.185 1.541l-9.504 10.006zm4.967 3.282c-.747-.47-1.494-.95-2.255-1.457l9.501-10c.76.501 1.512.984 2.257 1.455l-9.503 10.002zm5.17 3.068c-.77-.43-1.562-.879-2.359-1.348l9.507-10.005c.794.47 1.58.922 2.354 1.353l-9.502 10zm5.44 2.788a72.991 72.991 0 0 1-2.485-1.217l9.499-9.998c.846.43 1.677.834 2.49 1.21l-9.504 10.005zm5.878 2.335a46.3 46.3 0 0 1-2.72-.981l9.501-10.002c.936.372 1.843.699 2.72.983l-9.501 10zm6.808 1.343c-1.003-.028-2.09-.163-3.264-.391l9.503-10.004c1.167.236 2.256.37 3.259.399l-9.498 9.996z"/>
        <path fill="#FCCB37" d="M689.758 237.402c24.103 22.714 38.268 46.778 31.645 53.747-6.623 6.972-31.521-5.793-55.624-28.507-24.097-22.709-38.268-46.765-31.645-53.736 6.622-6.972 31.526 5.788 55.624 28.496"/>
        <path fill="#D18915" d="M685.826 241.54c16.207 15.273 26.202 30.966 22.319 35.05-.352.372-.799.633-1.356.787-5.476 1.608-20.281-7.151-35.02-21.04-14.732-13.883-24.33-28.125-23.023-33.659.126-.562.363-1.02.714-1.392 3.883-4.087 20.166 4.986 36.366 20.253"/>
        <path fill="#FFF" fill-opacity=".15" d="M634.134 208.906c1.224-1.29 3.078-1.906 5.437-1.906 10.38 0 30.551 11.897 50.187 30.402 20.077 18.923 33.26 38.779 33.274 48.912.003 2.031-.523 3.671-1.629 4.835l-87.27-82.243z"/>
        <g>
            <path fill="#D18915" d="M638.354 411.843l-4.707 10.46c-1.27 2.822-3.227 5.201-5.74 7.125a22.936 22.936 0 0 1-3.206 2.064 27.736 27.736 0 0 1-3.49 1.571c-.863.328-1.753.61-2.667.867a40.443 40.443 0 0 1-3.11.724c-.799.152-1.62.28-2.453.387a49.98 49.98 0 0 1-2.906.277 52.83 52.83 0 0 1-7.321-.056 50.843 50.843 0 0 1-2.669-.254c-.712-.08-1.43-.177-2.147-.29a53.554 53.554 0 0 1-2.582-.448 68.708 68.708 0 0 1-2.086-.427 67.3 67.3 0 0 1-2.505-.617 83.043 83.043 0 0 1-2.025-.563c-.815-.242-1.625-.5-2.442-.772a48.81 48.81 0 0 1-1.972-.68 72.937 72.937 0 0 1-2.375-.907 95.713 95.713 0 0 1-1.92-.797c-.39-.168-.772-.34-1.16-.513-.388-.176-.77-.348-1.154-.529-.627-.298-1.253-.604-1.867-.912a72.995 72.995 0 0 1-4.068-2.207 70.977 70.977 0 0 1-2.192-1.316 93.05 93.05 0 0 1-1.768-1.147 69.6 69.6 0 0 1-2.123-1.47c-.57-.421-1.144-.843-1.7-1.28a53.373 53.373 0 0 1-2.047-1.64c-.56-.463-1.11-.936-1.64-1.415a54.55 54.55 0 0 1-1.96-1.833 58.574 58.574 0 0 1-1.563-1.585 60.946 60.946 0 0 1-1.856-2.06 58.805 58.805 0 0 1-1.474-1.807 49.024 49.024 0 0 1-1.719-2.364 39.092 39.092 0 0 1-2.854-4.903c-.421-.86-.79-1.72-1.119-2.575a27.941 27.941 0 0 1-1.139-3.657 23.554 23.554 0 0 1-.576-3.779c-.221-3.157.262-6.2 1.529-9.013l4.705-10.46 2.16.815 1.727.655.336-.175a25.78 25.78 0 0 1 3.493-1.578 27.91 27.91 0 0 1 2.67-.872 33.303 33.303 0 0 1 3.109-.724 36.36 36.36 0 0 1 2.455-.395 42.873 42.873 0 0 1 2.906-.276 39.101 39.101 0 0 1 2.329-.094c.91-.019 1.84-.011 2.774.02a72.83 72.83 0 0 1 2.226.117 60.803 60.803 0 0 1 4.815.545c.852.126 1.718.275 2.582.447.687.13 1.384.275 2.082.434.832.188 1.665.393 2.506.615.676.172 1.354.362 2.032.567.811.233 1.621.488 2.438.763.658.212 1.309.444 1.969.686a67.588 67.588 0 0 1 4.295 1.703c.387.159.775.335 1.162.508.389.176.77.348 1.152.536a68.7 68.7 0 0 1 1.87.905c.762.381 1.515.776 2.25 1.185.62.335 1.223.668 1.818 1.022.746.43 1.482.87 2.194 1.325.597.369 1.186.75 1.763 1.143.727.476 1.43.972 2.122 1.472.582.418 1.152.845 1.705 1.273.7.534 1.38 1.08 2.046 1.64.557.469 1.106.94 1.64 1.415a63.808 63.808 0 0 1 1.957 1.833c.54.53 1.056 1.059 1.562 1.59.651.683 1.271 1.376 1.859 2.076.511.588 1.003 1.19 1.467 1.799a43.76 43.76 0 0 1 1.721 2.363c.472.695.919 1.393 1.333 2.1.56.931 1.064 1.866 1.518 2.811a28.2 28.2 0 0 1 1.115 2.58c.48 1.22.86 2.449 1.136 3.665l.09.367 1.634.861 2.05 1.079"/>
            <path fill="#BE690B" d="M546.628 396.294a23.554 23.554 0 0 1-.576-3.779l4.217-9.373c.087 1.241.282 2.5.58 3.771l-4.22 9.38zm2.258 6.232c-.421-.86-.79-1.72-1.119-2.575l4.22-9.38c.33.855.704 1.715 1.12 2.572l-4.221 9.383zm2.854 4.903a39.092 39.092 0 0 1-1.336-2.095l4.223-9.384c.418.7.863 1.4 1.336 2.095l-4.223 9.384zm3.193 4.171a58.805 58.805 0 0 1-1.474-1.807l4.223-9.385c.472.607.962 1.21 1.472 1.808l-4.221 9.384zm3.42 3.645a58.574 58.574 0 0 1-1.564-1.585l4.221-9.38a58.505 58.505 0 0 0 1.562 1.586l-4.22 9.379zm3.599 3.248c-.56-.463-1.11-.936-1.64-1.415l4.22-9.379c.533.476 1.08.95 1.64 1.417l-4.22 9.377zm3.747 2.92c-.57-.421-1.144-.843-1.7-1.28l4.217-9.376a69.69 69.69 0 0 0 1.706 1.272l-4.223 9.384zm3.89 2.617a93.05 93.05 0 0 1-1.767-1.147l4.22-9.38c.58.388 1.17.77 1.77 1.146l-4.222 9.381zm4.008 2.343a52.162 52.162 0 0 1-1.815-1.027L576 415.97c.598.348 1.204.688 1.818 1.023l-4.22 9.38zm4.12 2.092c-.627-.298-1.253-.604-1.867-.912l4.22-9.38c.615.309 1.239.613 1.87.908l-4.223 9.384z"/>
            <path fill="#DAA144" d="M606.83 435.417c-.615 0-1.233-.01-1.853-.032l4.22-9.38a53.793 53.793 0 0 0 2.78.023l-4.222 9.38c-.307.006-.614.01-.925.01m3.245-.1l4.222-9.383a46.413 46.413 0 0 0 2.907-.276l-4.223 9.382a49.98 49.98 0 0 1-2.906.277m-7.322-.056a50.843 50.843 0 0 1-2.668-.254l4.22-9.378c.896.106 1.787.191 2.668.255l-4.22 9.377m-4.815-.545a53.554 53.554 0 0 1-2.582-.447l4.218-9.375a67.72 67.72 0 0 0 2.583.445l-4.22 9.377m17.497-.063l4.221-9.383c1.069-.2 2.105-.441 3.108-.72l-4.22 9.379a40.443 40.443 0 0 1-3.109.724m-22.164-.81a67.3 67.3 0 0 1-2.505-.618l4.22-9.379c.84.221 1.675.425 2.508.612l-4.223 9.384m27.942-.78l4.217-9.375a28.232 28.232 0 0 0 3.489-1.569l-4.217 9.373a27.736 27.736 0 0 1-3.49 1.571m-32.47-.4c-.816-.242-1.626-.5-2.443-.772l4.217-9.376c.82.272 1.633.527 2.446.766l-4.22 9.382m-4.415-1.453a72.937 72.937 0 0 1-2.375-.906l4.22-9.38a79.66 79.66 0 0 0 2.376.906l-4.221 9.38m-4.295-1.703c-.39-.168-.772-.34-1.16-.513l4.22-9.381a94.4 94.4 0 0 0 1.163.512l-4.223 9.382m47.876-.08l4.216-9.369c2.513-1.929 4.474-4.312 5.745-7.135.163-.362.313-.73.45-1.098l.036.018-4.707 10.46c-1.27 2.822-3.227 5.201-5.74 7.125"/>
            <path fill="#CB873C" d="M581.95 430.304a95.713 95.713 0 0 1-1.92-.797l4.224-9.382c.638.275 1.278.541 1.917.798l-4.22 9.38zm4.348 1.587a48.81 48.81 0 0 1-1.972-.68l4.22-9.381c.657.238 1.313.466 1.97.685l-4.218 9.376zm4.467 1.335a83.043 83.043 0 0 1-2.025-.563l4.221-9.382c.676.199 1.352.389 2.025.566l-4.221 9.379zm4.591 1.044a68.708 68.708 0 0 1-2.086-.427l4.223-9.384c.696.157 1.39.302 2.08.436l-4.217 9.375zm4.73.738c-.713-.08-1.43-.177-2.148-.29l4.219-9.378c.721.11 1.435.206 2.147.29l-4.219 9.378zm4.89.377a58.19 58.19 0 0 1-2.223-.123l4.22-9.377c.748.054 1.49.094 2.223.12l-4.22 9.38zm2.78.023l4.22-9.38a48.68 48.68 0 0 0 2.321-.093l-4.222 9.383c-.76.047-1.535.078-2.32.09zm5.225-.367l4.223-9.382a41.26 41.26 0 0 0 2.451-.388l-4.22 9.383c-.8.152-1.62.28-2.454.387zm5.563-1.111l4.219-9.379a32.597 32.597 0 0 0 2.666-.863l-4.217 9.375c-.864.328-1.754.61-2.668.867zm6.157-2.438l4.217-9.373a23.623 23.623 0 0 0 3.205-2.06l-4.216 9.369a22.936 22.936 0 0 1-3.206 2.064z"/>
            <path fill="#FCCB37" d="M637.868 412.923c-6.483 14.408-31.013 17.402-54.777 6.69-23.764-10.714-37.773-31.084-31.29-45.491 6.485-14.415 31.008-17.414 54.772-6.7 23.764 10.715 37.78 31.088 31.295 45.501"/>
            <path fill="#D18915" d="M626.432 405.7c-4.217 9.373-21.439 10.744-38.462 3.068-17.023-7.674-27.41-21.493-23.193-30.866 4.218-9.376 21.443-10.753 38.466-3.078 17.023 7.676 27.409 21.5 23.19 30.876"/>
            <path fill="#FFF" fill-opacity=".15" d="M609.196 426.004a58.745 58.745 0 0 1-4.892-.374 60.927 60.927 0 0 1-2.147-.29 67.72 67.72 0 0 1-7.171-1.493 74.305 74.305 0 0 1-8.814-2.924 82.667 82.667 0 0 1-3.08-1.31l23.481-52.19c19.843 8.946 32.887 24.625 32.878 37.947-.001 2.633-.513 5.175-1.583 7.553-1.27 2.823-3.232 5.206-5.745 7.135a23.623 23.623 0 0 1-3.205 2.061 28.232 28.232 0 0 1-3.489 1.569c-.859.32-1.748.608-2.666.863-1.003.279-2.04.52-3.108.72-.8.152-1.618.28-2.45.388-.95.12-1.92.213-2.908.276a48.68 48.68 0 0 1-2.32.093 51.451 51.451 0 0 1-2.78-.024z"/>
        </g>
        <g>
            <path fill="#D18915" d="M781.354 78.843l-4.707 10.46c-1.27 2.822-3.227 5.201-5.74 7.125a22.936 22.936 0 0 1-3.206 2.064 27.736 27.736 0 0 1-3.49 1.571c-.863.328-1.753.61-2.667.867a40.443 40.443 0 0 1-3.11.724c-.799.152-1.62.28-2.453.387a49.98 49.98 0 0 1-2.906.277 52.83 52.83 0 0 1-7.321-.056 50.843 50.843 0 0 1-2.669-.254c-.712-.08-1.43-.177-2.147-.29a53.554 53.554 0 0 1-2.582-.448 68.708 68.708 0 0 1-2.086-.427 67.3 67.3 0 0 1-2.505-.617 83.043 83.043 0 0 1-2.025-.563c-.815-.242-1.625-.5-2.442-.772a48.81 48.81 0 0 1-1.972-.68 72.937 72.937 0 0 1-2.375-.907 95.713 95.713 0 0 1-1.92-.797c-.39-.168-.772-.34-1.16-.513-.388-.176-.77-.348-1.154-.529-.627-.298-1.253-.604-1.867-.912a72.995 72.995 0 0 1-4.068-2.207 70.977 70.977 0 0 1-2.192-1.316 93.05 93.05 0 0 1-1.768-1.147 69.6 69.6 0 0 1-2.123-1.47c-.57-.421-1.144-.843-1.7-1.28a53.373 53.373 0 0 1-2.047-1.64c-.56-.463-1.11-.936-1.64-1.415a54.55 54.55 0 0 1-1.96-1.833 58.574 58.574 0 0 1-1.563-1.585 60.946 60.946 0 0 1-1.856-2.06 58.805 58.805 0 0 1-1.474-1.807 49.024 49.024 0 0 1-1.719-2.364 39.092 39.092 0 0 1-2.854-4.903c-.421-.86-.79-1.72-1.119-2.575a27.941 27.941 0 0 1-1.139-3.657 23.554 23.554 0 0 1-.576-3.779c-.221-3.157.262-6.2 1.529-9.013l4.705-10.46 2.16.815 1.727.655.336-.175a25.78 25.78 0 0 1 3.493-1.578 27.91 27.91 0 0 1 2.67-.872 33.303 33.303 0 0 1 3.109-.724 36.36 36.36 0 0 1 2.455-.395 42.873 42.873 0 0 1 2.906-.276 39.101 39.101 0 0 1 2.329-.094c.91-.019 1.84-.011 2.774.02a72.83 72.83 0 0 1 2.226.117 60.803 60.803 0 0 1 4.815.545c.852.126 1.718.275 2.582.447.687.13 1.384.275 2.082.434.832.188 1.665.393 2.506.615.676.172 1.354.362 2.032.567.811.233 1.621.488 2.438.763.658.212 1.309.444 1.969.686a67.588 67.588 0 0 1 4.295 1.703c.387.159.775.335 1.162.508.389.176.77.348 1.152.536a68.7 68.7 0 0 1 1.87.905c.762.381 1.515.776 2.25 1.185.62.335 1.223.668 1.818 1.022.746.43 1.482.87 2.194 1.325.597.369 1.186.75 1.763 1.143.727.476 1.43.972 2.122 1.472.582.418 1.152.845 1.705 1.273.7.534 1.38 1.08 2.046 1.64.557.469 1.106.94 1.64 1.415a63.808 63.808 0 0 1 1.957 1.833c.54.53 1.056 1.059 1.562 1.59.651.683 1.271 1.376 1.859 2.076.511.588 1.003 1.19 1.467 1.799a43.76 43.76 0 0 1 1.721 2.363c.472.695.919 1.393 1.333 2.1.56.931 1.064 1.866 1.518 2.811a28.2 28.2 0 0 1 1.115 2.58c.48 1.22.86 2.449 1.136 3.665l.09.367 1.634.861 2.05 1.079"/>
            <path fill="#BE690B" d="M689.628 63.294a23.554 23.554 0 0 1-.576-3.779l4.217-9.373c.087 1.241.282 2.5.58 3.771l-4.22 9.38zm2.258 6.232c-.421-.86-.79-1.72-1.119-2.575l4.22-9.38c.33.855.704 1.715 1.12 2.572l-4.221 9.383zm2.854 4.903a39.092 39.092 0 0 1-1.336-2.095l4.223-9.384c.418.7.863 1.4 1.336 2.095l-4.223 9.384zm3.193 4.171a58.805 58.805 0 0 1-1.474-1.807l4.223-9.385c.472.607.962 1.21 1.472 1.808l-4.221 9.384zm3.42 3.645a58.574 58.574 0 0 1-1.564-1.585l4.221-9.38a58.505 58.505 0 0 0 1.562 1.586l-4.22 9.379zm3.599 3.248c-.56-.463-1.11-.936-1.64-1.415l4.22-9.379c.533.476 1.08.95 1.64 1.417l-4.22 9.377zm3.747 2.92c-.57-.421-1.144-.843-1.7-1.28l4.217-9.376a69.69 69.69 0 0 0 1.706 1.272l-4.223 9.384zm3.89 2.617a93.05 93.05 0 0 1-1.767-1.147l4.22-9.38c.58.388 1.17.77 1.77 1.146l-4.222 9.381zm4.008 2.343a52.162 52.162 0 0 1-1.815-1.027L719 82.97c.598.348 1.204.688 1.818 1.023l-4.22 9.38zm4.12 2.092c-.627-.298-1.253-.604-1.867-.912l4.22-9.38c.615.309 1.239.613 1.87.908l-4.223 9.384z"/>
            <path fill="#FCCB37" d="M780.868 79.923c-6.483 14.408-31.013 17.402-54.777 6.69-23.764-10.714-37.773-31.084-31.29-45.491 6.485-14.415 31.008-17.414 54.772-6.7 23.764 10.715 37.78 31.088 31.295 45.501"/>
            <path fill="#D18915" d="M769.432 72.7c-4.217 9.373-21.439 10.744-38.462 3.068-17.023-7.674-27.41-21.493-23.193-30.866 4.218-9.376 21.443-10.753 38.466-3.078 17.023 7.676 27.409 21.5 23.19 30.876"/>
        </g>
        <g>
            <path fill="#D18915" d="M482.356 419.789l9.37 8.363c1.278 1.141 1.887 2.936 1.889 5.255 0 .912-.093 1.906-.269 2.978-.18 1.017-.43 2.1-.769 3.248a42.935 42.935 0 0 1-.817 2.5c-.34.938-.718 1.908-1.148 2.908a62.04 62.04 0 0 1-1.037 2.292 73.735 73.735 0 0 1-1.35 2.729c-.37.713-.756 1.444-1.16 2.182a110.821 110.821 0 0 1-2.754 4.694c-.507.832-1.04 1.665-1.588 2.517-.437.664-.888 1.347-1.349 2.024a139.178 139.178 0 0 1-3.078 4.405 295.08 295.08 0 0 1-1.752 2.369c-.486.632-.964 1.27-1.466 1.91a159.5 159.5 0 0 1-1.82 2.308c-.504.618-1 1.24-1.521 1.86-.618.746-1.24 1.497-1.887 2.25-.516.605-1.037 1.218-1.57 1.817-.32.374-.646.742-.974 1.109-.326.368-.647.73-.98 1.092-.532.6-1.079 1.19-1.618 1.773-.666.726-1.344 1.439-2.01 2.14-.552.585-1.115 1.158-1.668 1.73-.694.709-1.385 1.4-2.075 2.08-.577.574-1.16 1.13-1.724 1.68a173.305 173.305 0 0 1-3.927 3.646 181.225 181.225 0 0 1-4.074 3.526c-.78.644-1.543 1.271-2.308 1.873a109.83 109.83 0 0 1-4.332 3.285c-.684.489-1.365.958-2.028 1.409a69.163 69.163 0 0 1-2.548 1.66c-.726.461-1.45.892-2.15 1.298a47.936 47.936 0 0 1-2.76 1.48c-.818.413-1.6.78-2.371 1.103-1.097.47-2.143.846-3.129 1.14-1.042.3-2.015.507-2.92.613-2.297.268-4.146-.13-5.423-1.271l-9.37-8.364 1.608-2.132 1.453-1.922 1.772-2.352 1.453-1.922 1.724-2.284.034-.09c.322-.746.666-1.515 1.039-2.292.412-.895.864-1.8 1.35-2.729.363-.718.755-1.444 1.158-2.182.473-.854.968-1.72 1.486-2.61.412-.687.83-1.39 1.263-2.09.509-.831 1.046-1.67 1.594-2.51.43-.67.878-1.348 1.337-2.025.545-.81 1.1-1.622 1.679-2.445.455-.648.928-1.304 1.412-1.96.567-.788 1.148-1.577 1.752-2.369.478-.638.958-1.275 1.46-1.915.593-.767 1.202-1.541 1.826-2.303a165.842 165.842 0 0 1 3.402-4.115c.514-.605 1.03-1.21 1.57-1.818a113.33 113.33 0 0 1 1.953-2.2c.539-.606 1.078-1.19 1.62-1.773.67-.731 1.341-1.44 2.008-2.14.557-.59 1.116-1.158 1.673-1.724.69-.715 1.38-1.407 2.071-2.086a211.06 211.06 0 0 1 1.73-1.676c.712-.691 1.427-1.361 2.142-2.019.595-.556 1.184-1.097 1.78-1.63.743-.667 1.488-1.32 2.215-1.955.631-.537 1.25-1.062 1.864-1.568a98.85 98.85 0 0 1 2.302-1.877c.643-.514 1.292-1.012 1.924-1.502.812-.616 1.624-1.209 2.414-1.778.684-.487 1.358-.963 2.02-1.414.871-.586 1.715-1.14 2.548-1.66a89.818 89.818 0 0 1 2.158-1.293l.084-.045 2.058-1.974 1.742-1.676 2.125-2.037 1.736-1.67 1.926-1.85"/>
            <path fill="#BE690B" d="M424.684 511.035l-9.369-8.361c.905-.105 1.88-.311 2.917-.616l9.372 8.365c-1.042.3-2.015.506-2.92.612zm6.049-1.753l-9.369-8.362a42.44 42.44 0 0 0 2.372-1.1l9.367 8.36c-.817.412-1.6.779-2.37 1.102zm5.131-2.583l-9.372-8.365a68.4 68.4 0 0 0 2.155-1.295l9.367 8.361c-.726.462-1.45.893-2.15 1.3zm4.698-2.958l-9.369-8.362c.667-.453 1.34-.923 2.023-1.414l9.374 8.367c-.684.489-1.365.958-2.028 1.409zm4.434-3.192l-9.37-8.366c.638-.485 1.279-.984 1.926-1.498l9.37 8.362a87.11 87.11 0 0 1-1.926 1.502zm4.234-3.374l-9.372-8.365a136.7 136.7 0 0 0 1.849-1.568l9.368 8.361c-.618.536-1.238 1.06-1.845 1.572zm4.074-3.526l-9.372-8.365c.593-.532 1.188-1.075 1.784-1.626l9.37 8.364c-.598.551-1.192 1.099-1.782 1.627zm3.927-3.646l-9.372-8.366c.574-.551 1.149-1.112 1.724-1.68l9.372 8.364c-.577.575-1.16 1.132-1.724 1.682zm3.799-3.76l-9.372-8.367a192.53 192.53 0 0 0 1.671-1.726l9.369 8.361c-.552.586-1.115 1.159-1.668 1.732zm3.678-3.871l-9.37-8.362c.54-.584 1.082-1.176 1.62-1.773l9.368 8.362c-.532.6-1.079 1.19-1.618 1.773z"/>
            <path fill="#DAA144" d="M467.306 479.507l-9.37-8.364c.327-.368.654-.738.976-1.106l9.369 8.361c-.321.374-.647.742-.975 1.109m2.544-2.926l-9.37-8.362c.641-.753 1.268-1.5 1.886-2.25l9.37 8.363c-.617.745-1.24 1.496-1.886 2.249m3.408-4.11l-9.372-8.366c.618-.77 1.225-1.54 1.822-2.306l9.37 8.363a159.5 159.5 0 0 1-1.82 2.309m3.286-4.218l-9.372-8.365c.596-.794 1.182-1.583 1.752-2.37l9.372 8.366a295.08 295.08 0 0 1-1.752 2.369m3.157-4.334l-9.372-8.364c.576-.82 1.134-1.63 1.678-2.436l9.367 8.36c-.54.805-1.1 1.622-1.673 2.44m3.022-4.464l-9.372-8.366c.548-.846 1.08-1.685 1.591-2.513l9.369 8.362c-.507.832-1.04 1.665-1.588 2.517m2.853-4.606l-9.373-8.365c.52-.88 1.014-1.75 1.487-2.605l9.374 8.365c-.47.854-.97 1.725-1.488 2.605m2.65-4.787l-9.37-8.362c.481-.929.93-1.837 1.35-2.728l9.369 8.361a73.735 73.735 0 0 1-1.35 2.729m2.387-5.02l-9.372-8.366c.426-.999.81-1.97 1.148-2.906l9.372 8.363c-.34.938-.718 1.908-1.148 2.908m1.965-5.408l-9.368-8.362a29.47 29.47 0 0 0 .763-3.251l9.374 8.365c-.18 1.017-.43 2.1-.769 3.248m1.038-6.226l-9.369-8.362c-.003-2.32-.613-4.117-1.89-5.256l9.37 8.363c1.278 1.141 1.887 2.936 1.889 5.255"/>
            <path fill="#CB873C" d="M468.28 478.398l-9.368-8.361c.529-.606 1.052-1.213 1.568-1.818l9.37 8.362c-.516.605-1.037 1.218-1.57 1.817zm3.457-4.066l-9.37-8.362c.512-.622 1.02-1.245 1.519-1.865l9.372 8.366c-.504.618-1 1.24-1.521 1.86zm3.341-4.17l-9.37-8.363c.496-.64.983-1.277 1.464-1.911l9.372 8.365c-.486.632-.964 1.27-1.466 1.91zm3.218-4.278l-9.372-8.366c.478-.657.946-1.311 1.405-1.963l9.372 8.364c-.46.655-.927 1.304-1.405 1.965zm3.078-4.405l-9.367-8.36a152.3 152.3 0 0 0 1.344-2.03l9.372 8.366c-.437.664-.888 1.347-1.349 2.024zm2.937-4.54l-9.369-8.363c.434-.704.855-1.4 1.261-2.092l9.373 8.365a91.714 91.714 0 0 1-1.265 2.09zm2.753-4.695l-9.374-8.365a95.05 95.05 0 0 0 1.167-2.179l9.368 8.362c-.37.713-.756 1.444-1.16 2.182zm2.51-4.91l-9.368-8.362c.37-.78.713-1.547 1.034-2.296l9.372 8.365a62.04 62.04 0 0 1-1.037 2.292zm2.186-5.2l-9.372-8.365a41.71 41.71 0 0 0 .82-2.498l9.37 8.362a42.935 42.935 0 0 1-.818 2.5zm1.586-5.75l-9.374-8.364c.181-1.058.272-2.045.274-2.95v-.025l9.369 8.362c0 .912-.093 1.906-.269 2.978z"/>
            <path fill="#FCCB37" d="M482.356 419.789c6.529 5.825-4.406 28.814-24.42 51.354-20.01 22.535-41.519 36.084-48.046 30.257-6.529-5.825 4.399-28.82 24.408-51.354 20.015-22.54 41.53-36.084 48.058-30.257"/>
            <path fill="#D18915" d="M469.467 432.243c3.827 3.416-3.978 18.475-17.435 33.63-13.454 15.15-27.468 24.665-31.295 21.25-3.827-3.415 3.985-18.468 17.436-33.618 13.458-15.155 27.469-24.677 31.294-21.262"/>
            <path fill="#FFF" fill-opacity=".15" d="M434.298 450.046c16.872-19 34.81-31.61 43.939-31.61 1.7 0 3.094.437 4.119 1.353 1.281 1.142 1.89 2.948 1.89 5.281a17.804 17.804 0 0 1-.274 2.95 29.47 29.47 0 0 1-.763 3.25 41.71 41.71 0 0 1-.82 2.5 55.59 55.59 0 0 1-1.15 2.906 66.92 66.92 0 0 1-1.033 2.296c-.42.89-.869 1.8-1.35 2.728a95.05 95.05 0 0 1-1.166 2.18c-.473.854-.967 1.724-1.487 2.604a120.416 120.416 0 0 1-2.852 4.605 150.22 150.22 0 0 1-4.427 6.429 166.978 166.978 0 0 1-3.216 4.28c-.597.768-1.204 1.537-1.822 2.307a193.276 193.276 0 0 1-4.974 5.932c-.322.368-.649.738-.976 1.106l-23.638-21.097z"/>
            <path fill="#000" fill-opacity=".15" d="M441.443 318.898v91.51a.896.896 0 1 0 1.792 0v-91.51a.896.896 0 0 0-1.792 0M453.956 345.661v57.013c0 .496.402.898.896.898a.897.897 0 0 0 .896-.898V345.66a.897.897 0 0 0-.896-.898.897.897 0 0 0-.896.898"/>
        </g>
        <g>
            <path fill="#D18915" d="M630.7 97.246l3.45 12.1c.471 1.648.02 3.492-1.23 5.448-.49.77-1.105 1.559-1.832 2.369-.7.762-1.496 1.541-2.402 2.326a42.634 42.634 0 0 1-2.043 1.669 54.522 54.522 0 0 1-2.54 1.838c-.675.454-1.382.92-2.118 1.374a76.024 76.024 0 0 1-2.616 1.577c-.698.402-1.421.812-2.162 1.218-.86.463-1.755.93-2.667 1.394-.718.364-1.446.724-2.2 1.083-.88.427-1.78.844-2.703 1.268a196.178 196.178 0 0 1-4.974 2.14c-.743.305-1.49.601-2.252.901-.909.352-1.829.706-2.765 1.056-.752.272-1.502.554-2.273.821-.918.329-1.845.65-2.79.969-.76.25-1.517.506-2.294.752-.927.297-1.86.595-2.815.882-.764.232-1.536.469-2.312.688-.474.142-.948.277-1.424.411-.476.135-.943.266-1.421.394-.776.219-1.556.424-2.33.625-.956.253-1.915.49-2.86.724-.783.196-1.57.375-2.348.562-.972.223-1.931.435-2.883.636-.8.176-1.593.332-2.37.492-.98.192-1.95.372-2.909.55a142.615 142.615 0 0 1-5.338.862c-.813.119-1.62.228-2.412.332-1.01.124-1.996.241-2.97.338-.831.09-1.64.165-2.443.23-1.021.084-2.027.156-3.005.21-.845.043-1.675.074-2.481.097-1.053.033-2.07.04-3.058.029a63.456 63.456 0 0 1-2.527-.061 48.668 48.668 0 0 1-3.141-.237 37.52 37.52 0 0 1-2.608-.345 29.583 29.583 0 0 1-3.27-.722c-1.049-.31-1.986-.658-2.81-1.056-2.096-1.01-3.452-2.341-3.92-3.99l-3.452-12.1 2.517-.934 2.27-.839 2.772-1.03 2.269-.84 2.696-1 .077-.056a60.85 60.85 0 0 1 2.117-1.376 60.77 60.77 0 0 1 2.615-1.577c.698-.41 1.423-.81 2.162-1.216.862-.465 1.747-.929 2.667-1.403.72-.358 1.454-.726 2.2-1.083a99.672 99.672 0 0 1 2.705-1.26 148.106 148.106 0 0 1 4.97-2.148 111 111 0 0 1 2.254-.894c.909-.36 1.827-.714 2.766-1.055.75-.28 1.5-.562 2.272-.832.916-.326 1.852-.65 2.792-.959.757-.257 1.522-.517 2.292-.76.925-.296 1.859-.594 2.813-.882.765-.233 1.53-.465 2.314-.688.465-.14.94-.274 1.415-.41.476-.134.95-.269 1.428-.394a107.8 107.8 0 0 1 2.332-.625c.963-.255 1.915-.49 2.858-.724.792-.198 1.57-.376 2.352-.555.97-.232 1.927-.442 2.881-.643.8-.168 1.585-.33 2.372-.484.979-.2 1.945-.38 2.908-.551.805-.151 1.596-.29 2.39-.42.99-.16 1.974-.311 2.934-.455.824-.113 1.633-.223 2.427-.32a101.2 101.2 0 0 1 2.968-.345c.822-.088 1.64-.156 2.442-.23a113.084 113.084 0 0 1 5.487-.307 88.26 88.26 0 0 1 3.057-.028c.869.01 1.714.034 2.53.068l.095.007 2.813-.557 2.38-.478 2.902-.573 2.373-.476 2.635-.522"/>
            <path fill="#BE690B" d="M535.363 144.246c-1.048-.31-1.985-.658-2.81-1.056l-3.449-12.097c.824.399 1.765.75 2.81 1.05l3.45 12.103zm5.879 1.067a37.52 37.52 0 0 1-2.608-.345l-3.45-12.098a41.65 41.65 0 0 0 2.61.346l3.448 12.097zm5.668.298a63.456 63.456 0 0 1-2.527-.061l-3.45-12.104c.817.038 1.661.061 2.529.069l3.448 12.096zm3.058-.029l-3.45-12.098c.81-.023 1.636-.057 2.48-.102l3.451 12.103c-.845.043-1.675.074-2.481.097zm5.486-.307l-3.45-12.1c.802-.066 1.617-.144 2.443-.228l3.45 12.098c-.831.09-1.64.165-2.443.23zm5.413-.568l-3.452-12.101c.796-.1 1.604-.21 2.417-.327l3.448 12.096c-.814.119-1.621.228-2.413.332zm5.36-.783l-3.45-12.1c.79-.13 1.587-.267 2.39-.413l3.45 12.102c-.806.144-1.604.284-2.39.411zm5.3-.96l-3.452-12.104c.784-.157 1.576-.318 2.371-.489l3.45 12.1c-.8.176-1.593.332-2.37.492zm5.252-1.129l-3.451-12.103c.779-.18 1.563-.365 2.35-.559l3.449 12.1c-.783.196-1.57.375-2.348.562zm5.208-1.286l-3.45-12.098c.774-.201 1.551-.411 2.332-.625l3.448 12.098c-.776.219-1.556.424-2.33.625z"/>
            <path fill="#DAA144" d="M585.738 139.53l-3.45-12.1c.476-.134.952-.27 1.425-.409l3.45 12.098c-.475.142-.95.277-1.425.411m3.736-1.099l-3.45-12.1c.949-.289 1.885-.582 2.815-.882l3.45 12.1c-.927.297-1.86.595-2.815.882m5.109-1.635l-3.45-12.101c.94-.318 1.872-.64 2.79-.967l3.45 12.1c-.918.329-1.845.65-2.79.969m5.063-1.79l-3.45-12.103c.935-.347 1.856-.699 2.765-1.054l3.45 12.101c-.909.352-1.829.706-2.765 1.056m5.017-1.958l-3.45-12.101c.93-.38 1.84-.764 2.736-1.152l3.45 12.097c-.891.388-1.809.776-2.736 1.156m4.974-2.139l-3.452-12.103c.922-.417 1.825-.84 2.705-1.263l3.45 12.098c-.88.427-1.78.844-2.703 1.268m4.903-2.351l-3.45-12.102c.914-.463 1.803-.93 2.667-1.397l3.45 12.105c-.86.463-1.755.93-2.667 1.394m4.829-2.612l-3.45-12.098a80.364 80.364 0 0 0 2.619-1.576l3.447 12.097a76.024 76.024 0 0 1-2.616 1.577m4.734-2.951l-3.452-12.104c.9-.612 1.751-1.225 2.543-1.834l3.45 12.1a54.522 54.522 0 0 1-2.541 1.838m4.583-3.507l-3.45-12.098a28.904 28.904 0 0 0 2.401-2.331l3.451 12.103c-.7.762-1.496 1.541-2.402 2.326m4.235-4.695l-3.448-12.097c.923-1.451 1.41-2.838 1.41-4.13 0-.452-.06-.894-.182-1.321l3.45 12.1c.12.425.182.864.182 1.313.003 1.293-.486 2.683-1.412 4.135"/>
            <path fill="#CB873C" d="M587.162 139.12l-3.45-12.099c.776-.226 1.548-.456 2.312-.69l3.45 12.1c-.764.232-1.536.469-2.312.688zm5.127-1.57l-3.45-12.1c.772-.249 1.535-.5 2.294-.755l3.45 12.102c-.76.25-1.517.506-2.294.752zm5.084-1.722l-3.45-12.1a158.71 158.71 0 0 0 2.274-.824l3.45 12.103c-.753.272-1.503.554-2.274.821zm5.038-1.877l-3.45-12.101c.761-.299 1.511-.599 2.253-.902l3.45 12.101c-.744.306-1.49.602-2.253.902zm4.988-2.058l-3.45-12.097c.757-.327 1.504-.657 2.236-.99l3.452 12.104c-.73.325-1.483.657-2.238.983zm4.94-2.251l-3.449-12.098a119.47 119.47 0 0 0 2.2-1.087l3.45 12.102c-.718.364-1.446.724-2.2 1.083zm4.868-2.477l-3.45-12.105c.74-.403 1.463-.807 2.162-1.211l3.45 12.098c-.698.402-1.421.812-2.162 1.218zm4.778-2.795l-3.447-12.097c.732-.46 1.439-.921 2.113-1.38l3.452 12.103c-.675.454-1.382.92-2.118 1.374zm4.658-3.212l-3.45-12.1a41.2 41.2 0 0 0 2.044-1.667l3.45 12.098a42.634 42.634 0 0 1-2.044 1.669zm4.445-3.995l-3.451-12.103a17.745 17.745 0 0 0 1.836-2.363l3.448 12.097c-.49.77-1.106 1.559-1.833 2.369z"/>
            <path fill="#FCCB37" d="M630.7 97.246c2.404 8.43-19.27 21.94-48.412 30.185-29.135 8.243-54.702 8.097-57.106-.33-2.402-8.43 19.268-21.95 48.403-30.193 29.143-8.245 54.712-8.092 57.116.338"/>
            <path fill="#E1B469" d="M582.288 127.43"/>
            <path fill="#D18915" d="M613.043 100.817c1.41 4.941-13.333 13.445-32.93 18.988-19.587 5.544-36.615 6.029-38.025 1.087-1.409-4.942 13.337-13.438 32.924-18.98 19.594-5.543 36.623-6.035 38.031-1.095"/>
            <path fill="#FFF" fill-opacity=".15" d="M573.585 96.908c14.356-4.061 27.849-6.086 38.129-6.086 10.587 0 17.768 2.147 18.987 6.424.122.427.182.87.182 1.322 0 1.291-.487 2.678-1.41 4.13-.493.77-1.106 1.559-1.836 2.362a28.904 28.904 0 0 1-2.4 2.331 41.2 41.2 0 0 1-2.043 1.667 54.244 54.244 0 0 1-2.543 1.834c-.674.46-1.381.922-2.113 1.381-.837.527-1.71 1.051-2.619 1.576a97.701 97.701 0 0 1-4.829 2.608 119.47 119.47 0 0 1-4.905 2.35 140.697 140.697 0 0 1-4.972 2.141 158.547 158.547 0 0 1-5.016 1.956 186.607 186.607 0 0 1-5.064 1.79 180.47 180.47 0 0 1-5.109 1.637 194.444 194.444 0 0 1-3.736 1.1l-8.703-30.523z"/>
            <path fill="#000" fill-opacity=".15" d="M577.564 21.205v49.838c0 .32.403.581.901.581s.902-.26.902-.581V21.205c0-.322-.404-.581-.902-.581s-.901.26-.901.581M565.45 1.213v87.822c0 .325.405.589.903.589.497 0 .901-.264.901-.59V1.215c0-.326-.404-.59-.901-.59-.498 0-.902.264-.902.59"/>
        </g>
        <g>
            <path d="M102.571 149.298c12.593 21.753.976 52.155-25.943 67.911-26.926 15.758-58.956 10.902-71.548-10.85-12.589-21.743-.976-52.154 25.95-67.912 26.92-15.757 58.952-10.893 71.541 10.851" filter="url(#a)" transform="translate(-16 317)"/>
            <path fill="#D18915" d="M102.571 442.298l5.58 9.635c2.461 4.255 3.996 8.837 4.673 13.576a40.02 40.02 0 0 1 .406 5.664 42.315 42.315 0 0 1-.336 5.48 46.669 46.669 0 0 1-.645 3.846 52.1 52.1 0 0 1-1.074 4.206 46.55 46.55 0 0 1-1.066 3.119 46.23 46.23 0 0 1-1.473 3.532 44.796 44.796 0 0 1-1.316 2.692 57.227 57.227 0 0 1-3.234 5.431 58.682 58.682 0 0 1-1.932 2.726 49.316 49.316 0 0 1-1.655 2.103 60.157 60.157 0 0 1-3.87 4.335 83.826 83.826 0 0 1-2.253 2.186 70.02 70.02 0 0 1-1.894 1.69c-.77.668-1.56 1.318-2.383 1.947a59.12 59.12 0 0 1-4.496 3.252c-.684.46-1.385.909-2.095 1.344-.435.264-.862.524-1.3.782-.441.257-.876.503-1.32.752-.726.405-1.46.795-2.197 1.167a58.761 58.761 0 0 1-5.04 2.33c-.951.407-1.903.778-2.861 1.123-.802.29-1.596.56-2.395.82-1.001.32-1.997.616-2.998.887-.839.224-1.672.426-2.51.622-1.047.238-2.1.451-3.146.628-.877.16-1.761.293-2.634.409-1.11.148-2.22.263-3.323.34-.936.073-1.86.122-2.785.15a52.9 52.9 0 0 1-3.511-.004 45.186 45.186 0 0 1-2.976-.181 49.065 49.065 0 0 1-3.771-.453 45.409 45.409 0 0 1-3.227-.615 46.444 46.444 0 0 1-4.164-1.129 43.174 43.174 0 0 1-3.646-1.337 41.933 41.933 0 0 1-4.916-2.414 39.407 39.407 0 0 1-4.697-3.154 37.275 37.275 0 0 1-9.432-10.79l-5.58-9.635 1.48-.866a40.878 40.878 0 0 1-.566-3.058 40.832 40.832 0 0 1-.412-5.672 43.545 43.545 0 0 1 .34-5.492c.158-1.285.37-2.562.645-3.847.295-1.404.65-2.804 1.078-4.199.313-1.05.669-2.095 1.064-3.123a51.68 51.68 0 0 1 2.78-6.22 55.224 55.224 0 0 1 1.73-3.074 63.5 63.5 0 0 1 1.504-2.36c.61-.927 1.26-1.839 1.935-2.737a56.47 56.47 0 0 1 1.655-2.101 57.575 57.575 0 0 1 3.88-4.322c.722-.748 1.47-1.47 2.244-2.18a47.239 47.239 0 0 1 1.894-1.692 50.606 50.606 0 0 1 2.373-1.96 75.22 75.22 0 0 1 1.997-1.512c.82-.6 1.653-1.174 2.508-1.745.69-.452 1.39-.902 2.099-1.337.435-.264.862-.524 1.3-.78.441-.26.878-.503 1.32-.754.726-.405 1.46-.795 2.192-1.175.91-.462 1.826-.91 2.74-1.328.76-.345 1.53-.677 2.295-.997a57.07 57.07 0 0 1 2.864-1.115 57.74 57.74 0 0 1 2.4-.813 50.782 50.782 0 0 1 3.003-.89c.836-.233 1.67-.436 2.507-.631a62.093 62.093 0 0 1 3.146-.629 72.78 72.78 0 0 1 2.634-.408 66.213 66.213 0 0 1 6.1-.486 55.457 55.457 0 0 1 3.512.005 52.767 52.767 0 0 1 9.99 1.257 46.96 46.96 0 0 1 7.804 2.46 42.916 42.916 0 0 1 4.911 2.419 40.26 40.26 0 0 1 4.694 3.146 39.408 39.408 0 0 1 2.38 2.016l1.472-.862"/>
            <path fill="#BE690B" d="M24.788 522.94a39.407 39.407 0 0 1-4.697-3.155l-5.576-9.628a40.144 40.144 0 0 0 4.696 3.147l5.577 9.635zm8.562 3.75a43.174 43.174 0 0 1-3.646-1.337l-5.575-9.632c1.187.495 2.404.94 3.645 1.337l5.576 9.632zm7.39 1.744a45.409 45.409 0 0 1-3.226-.615l-5.578-9.633c1.062.238 2.138.444 3.229.616l5.576 9.632zm6.748.634a45.186 45.186 0 0 1-2.976-.181l-5.574-9.626c.983.083 1.975.14 2.972.173l5.578 9.634zm3.511.003l-5.577-9.633a60.49 60.49 0 0 0 2.787-.146l5.575 9.63c-.936.073-1.86.122-2.785.15zm6.108-.49l-5.58-9.635a64.243 64.243 0 0 0 2.638-.404l5.576 9.631c-.877.16-1.761.293-2.634.409zm5.78-1.036l-5.58-9.636c.838-.191 1.674-.399 2.511-.625l5.58 9.64c-.84.223-1.673.425-2.51.62zm5.508-1.509l-5.58-9.637c.8-.257 1.6-.53 2.397-.818l5.578 9.635c-.802.29-1.596.56-2.395.82zm5.255-1.942l-5.573-9.628a68.847 68.847 0 0 0 2.292-1.001l5.58 9.637c-.768.35-1.53.68-2.299.992zm5.04-2.33l-5.573-9.63a69.625 69.625 0 0 0 2.194-1.173l5.577 9.635c-.726.405-1.46.795-2.197 1.167z"/>
            <path fill="#DAA144" d="M82.207 519.844l-5.58-9.635c.44-.258.874-.517 1.304-.782l5.577 9.635c-.435.264-.862.524-1.3.782m3.395-2.126l-5.575-9.63a67.667 67.667 0 0 0 2.5-1.74l5.58 9.637a59.237 59.237 0 0 1-2.505 1.733m4.496-3.252l-5.572-9.628a66.533 66.533 0 0 0 2.377-1.953l5.578 9.633c-.77.669-1.56 1.319-2.383 1.948m4.277-3.637l-5.578-9.635a68.166 68.166 0 0 0 2.252-2.19l5.579 9.639a83.826 83.826 0 0 1-2.253 2.186m4.032-4.074l-5.58-9.637a66.16 66.16 0 0 0 2.1-2.436l5.571 9.626a60.157 60.157 0 0 1-2.091 2.447m3.746-4.55l-5.575-9.63a61.05 61.05 0 0 0 1.931-2.724l5.576 9.628a58.682 58.682 0 0 1-1.932 2.726m3.438-5.086l-5.578-9.631c.611-1.014 1.19-2.04 1.73-3.073l5.576 9.633a54.062 54.062 0 0 1-1.728 3.071m3.044-5.763l-5.574-9.626a54.244 54.244 0 0 0 1.471-3.536l5.576 9.63a46.23 46.23 0 0 1-1.473 3.532m2.539-6.65l-5.58-9.64a49.989 49.989 0 0 0 1.078-4.198l5.576 9.631a52.1 52.1 0 0 1-1.074 4.206m1.72-8.052l-5.578-9.634c.224-1.81.338-3.618.336-5.413v-.066l5.577 9.633v.087a42.24 42.24 0 0 1-.336 5.393m-.07-11.144l-5.576-9.63c-.677-4.74-2.213-9.326-4.677-13.581l5.58 9.635c2.461 4.255 3.996 8.837 4.673 13.576"/>
            <path fill="#CB873C" d="M83.508 519.062l-5.577-9.635c.71-.436 1.41-.882 2.097-1.339l5.575 9.63c-.684.46-1.385.909-2.095 1.344zm4.6-3.077l-5.58-9.637c.68-.493 1.345-.997 1.999-1.51l5.572 9.628a59.12 59.12 0 0 1-1.99 1.52zm4.374-3.467l-5.578-9.633a68.378 68.378 0 0 0 1.894-1.691l5.578 9.635a70.02 70.02 0 0 1-1.894 1.69zm4.147-3.875l-5.58-9.64c.608-.619 1.2-1.248 1.78-1.885l5.579 9.637a72.258 72.258 0 0 1-1.78 1.888zm3.87-4.335l-5.572-9.626a64.206 64.206 0 0 0 1.652-2.106l5.575 9.63a49.316 49.316 0 0 1-1.655 2.102zm3.587-4.829l-5.576-9.628a59.26 59.26 0 0 0 1.504-2.363l5.578 9.631c-.482.795-.98 1.58-1.506 2.36zm3.234-5.431l-5.575-9.633c.465-.888.905-1.784 1.317-2.685l5.574 9.626a44.796 44.796 0 0 1-1.316 2.692zm2.79-6.224l-5.577-9.63c.39-1.039.742-2.08 1.062-3.127l5.58 9.638a46.55 46.55 0 0 1-1.066 3.119zm2.14-7.325l-5.577-9.631c.27-1.281.486-2.566.644-3.849l5.577 9.634a46.669 46.669 0 0 1-.645 3.846zm.98-9.326l-5.577-9.633a40.38 40.38 0 0 0-.405-5.66l5.576 9.629c.27 1.872.404 3.763.406 5.664z"/>
            <path fill="#FCCB37" d="M102.571 442.298c12.593 21.753.976 52.155-25.943 67.911-26.926 15.758-58.956 10.902-71.548-10.85-12.589-21.743-.976-52.154 25.95-67.912 26.92-15.757 58.952-10.893 71.541 10.851"/>
            <path fill="#D18915" d="M89.276 448.148c8.907 15.384-.115 37.37-20.152 49.098-20.037 11.727-43.506 8.759-52.411-6.625-8.913-15.392.11-37.378 20.146-49.105 20.04-11.728 43.506-8.76 52.417 6.632"/>
            <path fill="#FFF" fill-opacity=".15" d="M31.03 431.447c10.667-6.244 22.14-9.25 32.885-9.25 16.371 0 31.055 6.973 38.656 20.101 3.445 5.948 5.076 12.542 5.082 19.308a43.635 43.635 0 0 1-.336 5.413 46.076 46.076 0 0 1-.644 3.849 49.989 49.989 0 0 1-2.14 7.326 54.244 54.244 0 0 1-1.471 3.536 54.445 54.445 0 0 1-1.317 2.685 58.565 58.565 0 0 1-3.235 5.436 61.05 61.05 0 0 1-1.931 2.725 64.206 64.206 0 0 1-3.75 4.542 67.272 67.272 0 0 1-4.03 4.076 68.378 68.378 0 0 1-6.27 5.154 67.667 67.667 0 0 1-2.501 1.74 71.138 71.138 0 0 1-3.4 2.121L31.03 431.447z"/>
            <path fill="#000" fill-opacity=".15" d="M51.429 317.903v92.042a.899.899 0 1 0 1.796 0v-92.042a.901.901 0 0 0-.898-.903.9.9 0 0 0-.898.903M39.593 352.403v57.343c0 .499.402.904.898.904a.901.901 0 0 0 .898-.904v-57.343a.901.901 0 0 0-.898-.904.901.901 0 0 0-.898.904"/>
        </g>
    </g>
</svg>
