<svg xmlns="http://www.w3.org/2000/svg" width="445" height="584" viewBox="0 0 445 584">
    <g fill="none" fill-rule="evenodd">
        <path fill="#FCCB37" d="M152.724 144.877l-6.122-17.53c-1.65-4.726-4.477-8.84-8.272-12.301-1.48-1.37-3.127-2.625-4.9-3.785a45.203 45.203 0 0 0-5.426-3.03 51.18 51.18 0 0 0-4.197-1.78 65.13 65.13 0 0 0-8.849-2.587 83.9 83.9 0 0 0-4.67-.863 82.696 82.696 0 0 0-3.744-.478 91.221 91.221 0 0 0-4.506-.36 99.453 99.453 0 0 0-3.618-.12 88.124 88.124 0 0 0-4.36.026 77.704 77.704 0 0 0-3.52.162c-1.4.083-2.824.198-4.246.352-1.147.104-2.294.247-3.44.388-1.376.185-2.754.395-4.148.635-1.117.19-2.23.395-3.36.615-1.357.276-2.705.572-4.07.898a82.584 82.584 0 0 0-3.292.812c-1.319.348-2.641.72-3.976 1.122-1.073.321-2.151.658-3.225 1.006-.658.215-1.3.439-1.954.664-.652.226-1.295.45-1.945.686a181.25 181.25 0 0 0-3.156 1.201c-1.298.51-2.568 1.036-3.818 1.577a80.923 80.923 0 0 0-3.089 1.398 119.15 119.15 0 0 0-3.74 1.806 140.17 140.17 0 0 0-3.029 1.594c-1.243.673-2.455 1.36-3.649 2.066a110.79 110.79 0 0 0-2.94 1.82c-1.212.76-2.4 1.548-3.55 2.347a75.186 75.186 0 0 0-2.86 2.047 85.285 85.285 0 0 0-3.437 2.672 97.651 97.651 0 0 0-2.763 2.329 105.43 105.43 0 0 0-3.303 3.052c-.907.897-1.799 1.8-2.645 2.702a81.728 81.728 0 0 0-3.125 3.561 64.281 64.281 0 0 0-5.329 7.494 51.53 51.53 0 0 0-2.183 3.988 45.112 45.112 0 0 0-2.37 5.73 37.945 37.945 0 0 0-1.478 6.005c-.81 5.056-.466 10.028 1.181 14.743l6.122 17.53 3.615-1.008 2.891-.806c.172.11.335.224.518.332a42.053 42.053 0 0 0 5.432 3.04 45.374 45.374 0 0 0 4.202 1.79 54.293 54.293 0 0 0 4.93 1.61c1.277.373 2.587.698 3.922.988 1.52.338 3.084.623 4.669.863 1.228.194 2.48.357 3.757.485 1.472.159 2.979.281 4.497.364 1.194.062 2.404.103 3.622.132 1.437.025 2.884.01 4.36-.027 1.159-.036 2.336-.092 3.52-.16 1.398-.084 2.822-.2 4.246-.352a98.578 98.578 0 0 0 3.437-.4c1.375-.185 2.754-.396 4.147-.634a81.018 81.018 0 0 0 3.372-.62 94.738 94.738 0 0 0 4.06-.885 78.26 78.26 0 0 0 3.29-.822 95.15 95.15 0 0 0 3.98-1.111c1.071-.321 2.14-.655 3.222-1.018.649-.2 1.303-.425 1.957-.653.652-.225 1.295-.447 1.94-.696 1.064-.379 2.12-.781 3.16-1.19a98.767 98.767 0 0 0 3.815-1.588c1.051-.45 2.077-.902 3.091-1.387a97.214 97.214 0 0 0 3.747-1.819 81.344 81.344 0 0 0 3.02-1.593 95.9 95.9 0 0 0 3.649-2.063c1.002-.592 1.986-1.2 2.944-1.81 1.21-.759 2.39-1.546 3.55-2.346.97-.677 1.929-1.36 2.86-2.048a103.984 103.984 0 0 0 3.437-2.673c.948-.778 1.86-1.555 2.758-2.34a71.13 71.13 0 0 0 3.308-3.078 62.43 62.43 0 0 0 2.638-2.686 71.75 71.75 0 0 0 3.125-3.56 58.548 58.548 0 0 0 2.459-3.197 54.18 54.18 0 0 0 2.864-4.31c.8-1.31 1.531-2.644 2.18-3.999a41.758 41.758 0 0 0 2.366-5.74c.078-.197.132-.386.2-.58l6.244-2.599"/>
        <path fill="#F9A20C" d="M5.906 178.506L.42 162.798c.317-1.994.812-4 1.478-6.006l5.49 15.72a37.886 37.886 0 0 0-1.482 5.994zm3.85-11.723l-5.488-15.72a51.53 51.53 0 0 1 2.183-3.988l5.49 15.723a54.003 54.003 0 0 0-2.185 3.985zm5.051-8.291l-5.491-15.725a64.281 64.281 0 0 1 2.464-3.186l5.491 15.727a67.425 67.425 0 0 0-2.464 3.184zm5.59-6.745l-5.492-15.727a99.707 99.707 0 0 1 2.645-2.702l5.492 15.727a80.482 80.482 0 0 0-2.645 2.702zm5.946-5.76l-5.49-15.721a97.651 97.651 0 0 1 2.763-2.33l5.488 15.717a93.246 93.246 0 0 0-2.761 2.334zm6.198-5.006l-5.488-15.716a75.186 75.186 0 0 1 2.86-2.047l5.487 15.714c-.971.67-1.928 1.356-2.86 2.049zm6.408-4.4l-5.486-15.71a110.79 110.79 0 0 1 2.94-1.82l5.492 15.725c-.998.59-1.982 1.192-2.946 1.805zm6.591-3.876l-5.488-15.72a140.17 140.17 0 0 1 3.03-1.594l5.49 15.72c-1.026.52-2.035 1.05-3.032 1.594zm6.767-3.41l-5.486-15.71a80.923 80.923 0 0 1 3.09-1.398l5.487 15.721c-1.042.451-2.073.913-3.09 1.387zm6.91-2.965l-5.49-15.72a181.25 181.25 0 0 1 3.157-1.201l5.491 15.725c-1.062.386-2.118.786-3.158 1.196z"/>
        <path fill="#FDD55F" d="M152.664 144.903c-.17-.615-.36-1.229-.572-1.837-1.65-4.728-4.486-8.85-8.28-12.319l-5.482-15.701c3.795 3.462 6.622 7.575 8.272 12.301l6.122 17.53-.06.026m-13.747-17.933a46.164 46.164 0 0 0-5.426-3.029l-5.487-15.71a45.203 45.203 0 0 1 5.427 3.03l5.486 15.709m-74.598-2.527l-5.49-15.72c.655-.225 1.296-.449 1.954-.664l5.491 15.725c-.652.213-1.303.433-1.955.659m5.176-1.67l-5.487-15.72c1.335-.402 2.657-.774 3.976-1.122l5.49 15.721c-1.323.348-2.65.723-3.979 1.12m59.8-.604a61.042 61.042 0 0 0-4.93-1.606l-5.49-15.72a65.13 65.13 0 0 1 4.932 1.608l5.487 15.718m-52.532-1.339l-5.486-15.71c1.365-.326 2.713-.622 4.07-.898l5.49 15.723c-1.354.27-2.71.564-4.074.885m43.687-1.24a75.648 75.648 0 0 0-4.67-.863l-5.492-15.725a83.9 83.9 0 0 1 4.671.863l5.491 15.724m-36.255-.265l-5.488-15.717c1.394-.24 2.772-.45 4.147-.635l5.492 15.724c-1.375.183-2.76.392-4.15.628m7.585-1.03l-5.486-15.71a88.611 88.611 0 0 1 4.247-.352l5.486 15.712c-1.406.089-2.82.204-4.247.35m20.254-.05a87.996 87.996 0 0 0-4.508-.36l-5.488-15.72c1.517.082 3.024.205 4.506.36l5.49 15.72m-12.487-.459L94.06 102.07a82.457 82.457 0 0 1 4.361-.026l5.486 15.714a99.184 99.184 0 0 0-4.36.027"/>
        <path fill="#FAB53D" d="M66.274 123.784l-5.491-15.725c1.074-.348 2.152-.685 3.225-1.006l5.487 15.72c-1.07.32-2.147.658-3.221 1.011zm7.2-2.132l-5.49-15.721a82.584 82.584 0 0 1 3.292-.812l5.486 15.71c-1.092.258-2.19.533-3.288.823zm7.361-1.708l-5.49-15.723c1.131-.22 2.244-.424 3.361-.615l5.488 15.717c-1.114.19-2.236.397-3.359.62zm7.51-1.249l-5.492-15.724c1.147-.141 2.294-.284 3.441-.388l5.486 15.71c-1.14.116-2.285.249-3.435.402zm7.682-.752l-5.486-15.712a77.704 77.704 0 0 1 3.518-.162l5.488 15.715c-1.163.033-2.339.087-3.52.16zm11.5-.06a91.458 91.458 0 0 0-3.62-.126l-5.487-15.714c1.214.017 2.424.06 3.618.12l5.488 15.72zm8.252.843a81.19 81.19 0 0 0-3.745-.483l-5.49-15.72c1.267.132 2.52.294 3.743.478l5.492 15.725zm8.586 1.836a67.399 67.399 0 0 0-3.916-.974l-5.491-15.724c1.333.292 2.643.615 3.917.977l5.49 15.721zm9.126 3.38a53.946 53.946 0 0 0-4.197-1.774l-5.487-15.718a51.18 51.18 0 0 1 4.197 1.78l5.487 15.711zm10.321 6.805a38.463 38.463 0 0 0-4.895-3.777l-5.486-15.709c1.772 1.16 3.419 2.414 4.899 3.785l5.482 15.701z"/>
        <path fill="#D18915" d="M152.092 143.066c-8.43-24.143-47.736-32.483-87.773-18.623-40.036 13.86-65.658 44.676-57.228 68.817 8.434 24.155 47.73 32.498 87.765 18.64 40.037-13.86 65.67-44.68 57.236-68.834"/>
        <path fill="#995F13" d="M132.53 153.07c-5.486-15.708-33.186-20.385-61.866-10.456-28.68 9.927-47.494 30.706-42.01 46.414 5.487 15.709 33.192 20.397 61.872 10.469 28.68-9.927 47.49-30.718 42.004-46.426"/>
        <path fill="#FFF" fill-opacity=".15" d="M64.32 124.443c13.116-4.54 26.154-6.698 38.053-6.698 24.423 0 44.05 9.09 49.719 25.321a28.951 28.951 0 0 1 1.605 9.624c-.018 22.196-23.964 47.137-58.84 59.21l-30.538-87.457z"/>
        <path fill="#000" fill-opacity=".15" d="M81.802 19.792v50.815c0 .328.406.593.906.593s.906-.265.906-.593V19.792c0-.327-.406-.592-.906-.592s-.906.265-.906.592M69.633.782v86.835c0 .322.404.583.905.583.5 0 .906-.261.906-.583V.782c0-.321-.405-.582-.906-.582s-.905.26-.905.582"/>
        <g>
            <path fill="#D18915" d="M68.171 438.867l-15.832 9.612c-4.27 2.593-7.695 6.2-10.284 10.614-1.031 1.726-1.911 3.587-2.676 5.552a45.337 45.337 0 0 0-1.83 5.91 50.585 50.585 0 0 0-.863 4.454 63.742 63.742 0 0 0-.686 9.144 82.678 82.678 0 0 0 .128 4.721c.075 1.227.178 2.479.311 3.738.157 1.474.351 2.965.585 4.459.19 1.172.4 2.358.636 3.543.273 1.402.58 2.812.932 4.233.266 1.125.563 2.258.887 3.389a90.93 90.93 0 0 0 1.226 4.055c.342 1.093.718 2.178 1.095 3.262.466 1.3.957 2.598 1.48 3.902.42 1.045.849 2.084 1.3 3.138.55 1.261 1.12 2.511 1.721 3.769a82.438 82.438 0 0 0 1.476 3.032 116.262 116.262 0 0 0 1.921 3.631c.536.975 1.09 1.953 1.652 2.926.348.594.697 1.172 1.053 1.76.357.589.708 1.167 1.075 1.749.601.947 1.213 1.89 1.827 2.817a122.49 122.49 0 0 0 2.333 3.383 83.623 83.623 0 0 0 2.005 2.712c.83 1.104 1.681 2.197 2.538 3.258.725.887 1.454 1.758 2.187 2.612a108.643 108.643 0 0 0 2.774 3.117 107.05 107.05 0 0 0 2.385 2.479c.993 1.02 2.01 2.01 3.027 2.961.854.81 1.72 1.598 2.594 2.355a86.828 86.828 0 0 0 3.321 2.783c.94.756 1.896 1.49 2.846 2.2 1.215.896 2.44 1.748 3.665 2.574a97.34 97.34 0 0 0 3.186 2.006 82.013 82.013 0 0 0 4.124 2.297c1.207.62 2.415 1.2 3.62 1.73a61.009 61.009 0 0 0 4.8 1.884c1.46.508 2.907.93 4.345 1.291a45.3 45.3 0 0 0 6.082 1.106c2.096.23 4.157.292 6.167.184 5.101-.268 9.882-1.643 14.141-4.228l15.833-9.614-3.121-5.946c.072-.191.15-.373.214-.573a41.71 41.71 0 0 0 1.84-5.916 44.97 44.97 0 0 0 .872-4.459c.26-1.671.445-3.38.548-5.132.097-1.319.142-2.659.15-4.017.012-1.55-.035-3.13-.13-4.722a66.827 66.827 0 0 0-.307-3.754 85.633 85.633 0 0 0-.58-4.45c-.188-1.17-.399-2.357-.624-3.548a99.831 99.831 0 0 0-.932-4.233 127.794 127.794 0 0 0-.888-3.389 93.374 93.374 0 0 0-1.225-4.055 96.543 96.543 0 0 0-1.106-3.257 116.988 116.988 0 0 0-1.48-3.902c-.41-1.05-.845-2.1-1.306-3.147a93.851 93.851 0 0 0-1.705-3.765 76.916 76.916 0 0 0-1.486-3.024 99.223 99.223 0 0 0-1.91-3.64 115.295 115.295 0 0 0-1.663-2.92 62.024 62.024 0 0 0-1.044-1.765 61.225 61.225 0 0 0-1.082-1.742 109.71 109.71 0 0 0-1.82-2.824 95.81 95.81 0 0 0-2.342-3.378 81.8 81.8 0 0 0-1.994-2.716 95.972 95.972 0 0 0-2.554-3.263 79.788 79.788 0 0 0-2.182-2.603 91.018 91.018 0 0 0-2.772-3.116 95.136 95.136 0 0 0-2.378-2.484 91.782 91.782 0 0 0-3.027-2.962 128.216 128.216 0 0 0-2.592-2.354 102.59 102.59 0 0 0-3.321-2.784c-.956-.76-1.905-1.484-2.857-2.194a70.267 70.267 0 0 0-3.69-2.572 61.633 61.633 0 0 0-3.17-2.003 71.718 71.718 0 0 0-4.124-2.295 58.169 58.169 0 0 0-3.63-1.724 54.31 54.31 0 0 0-4.8-1.885 44.522 44.522 0 0 0-4.355-1.284 41.364 41.364 0 0 0-6.093-1.1c-.207-.035-.405-.05-.607-.075l-3.834-5.528"/>
            <path fill="#BE690B" d="M115.375 583.261c-1.394 0-2.808-.079-4.238-.236l14.199-8.62c1.44.16 2.865.238 4.268.238.633 0 1.265-.016 1.89-.048l-14.19 8.614a36.05 36.05 0 0 1-1.93.052zm-10.32-1.342a51.247 51.247 0 0 1-4.345-1.291l14.198-8.62c1.457.5 2.904.931 4.342 1.292l-14.195 8.62zm-9.146-3.176a67.303 67.303 0 0 1-3.62-1.729l14.203-8.623c1.206.621 2.413 1.2 3.618 1.73l-14.2 8.622zm-7.743-4.026a97.34 97.34 0 0 1-3.186-2.006l14.2-8.622a77.738 77.738 0 0 0 3.186 2.007l-14.2 8.621zm-6.85-4.58a98.767 98.767 0 0 1-2.847-2.2l14.19-8.615c.945.757 1.897 1.49 2.85 2.196l-14.194 8.618zm-6.168-4.983a75.015 75.015 0 0 1-2.594-2.355l14.19-8.614a97.742 97.742 0 0 0 2.594 2.352l-14.19 8.617zm-5.621-5.316a107.05 107.05 0 0 1-2.385-2.48l14.196-8.619c.785.847 1.577 1.677 2.375 2.488l-14.186 8.61zm-5.159-5.596a146.895 146.895 0 0 1-2.187-2.612l14.195-8.618c.72.888 1.449 1.759 2.185 2.614l-14.193 8.616zm-4.725-5.87a83.623 83.623 0 0 1-2.005-2.712l14.195-8.618c.655.921 1.32 1.825 1.994 2.717l-14.184 8.613zm-4.338-6.095c-.614-.927-1.226-1.87-1.827-2.817l14.197-8.62a123.98 123.98 0 0 0 1.825 2.82l-14.195 8.617zm-3.955-6.326c-.561-.973-1.116-1.951-1.652-2.926l14.193-8.616c.536.975 1.09 1.951 1.658 2.922l-14.199 8.62zm-3.573-6.557a82.438 82.438 0 0 1-1.476-3.032l14.184-8.613c.48 1.01.974 2.02 1.485 3.027l-14.193 8.618zm-3.196-6.8c-.452-1.055-.88-2.094-1.302-3.139l14.193-8.618a124.58 124.58 0 0 0 1.303 3.138l-14.194 8.618zm-2.781-7.04c-.377-1.085-.753-2.17-1.095-3.263l14.186-8.613c.35 1.083.718 2.17 1.107 3.256l-14.198 8.62zm-2.32-7.318a75.891 75.891 0 0 1-.888-3.389l14.19-8.616c.273 1.126.568 2.254.885 3.39l-14.188 8.615zm-1.82-7.622a98.543 98.543 0 0 1-.636-3.543l14.195-8.618c.184 1.174.394 2.356.628 3.547l-14.187 8.614zm-1.22-8.002a85.727 85.727 0 0 1-.312-3.738l14.198-8.621a80.01 80.01 0 0 0 .308 3.743l-14.195 8.616zm-.44-8.46a65.22 65.22 0 0 1 .139-4.013l14.196-8.618a68.146 68.146 0 0 0-.137 4.012L36 484.153zm.686-9.143c.23-1.52.51-3.005.864-4.453l14.187-8.615a53.343 53.343 0 0 0-.858 4.452l-14.193 8.616zm2.693-10.364c.765-1.965 1.645-3.826 2.676-5.552l14.18-8.609a38.129 38.129 0 0 0-2.669 5.549l-14.187 8.612z"/>
            <path fill="#FCCB37" d="M145.588 481.135c21.295 35.132 21.853 73.994 1.65 88.176-.515.366-1.042.714-1.59 1.047-21.815 13.244-57.209-5.231-79.05-41.263-21.843-36.034-21.873-75.993-.057-89.24.549-.332 1.1-.639 1.661-.927 21.902-11.38 56.09 7.076 77.386 42.207"/>
            <path fill="#D18915" d="M134.386 487.936c15.648 25.812 16.83 53.73 2.64 62.345-.321.196-.65.382-.99.548-14.298 7.42-37.727-6.48-53.018-31.705-15.29-25.224-16.785-52.441-3.606-61.704.305-.225.623-.43.945-.627 14.188-8.615 38.384 5.332 54.03 31.143"/>
            <path fill="#FFF" fill-opacity=".15" d="M68.202 438.928c4.369-2.27 9.229-3.352 14.375-3.352 20.655 0 45.963 17.436 63.01 45.56 10.941 18.046 16.408 37.076 16.399 53.24-.008 15.303-4.923 28.038-14.748 34.935L68.202 438.928z"/>
            <path fill="#000" fill-opacity=".15" d="M77.776 330.9v91.772a.9.9 0 1 0 1.8 0v-91.771a.9.9 0 1 0-1.8 0M90.59 360.593v57.176a.9.9 0 1 0 1.8 0v-57.176a.9.9 0 1 0-1.8 0"/>
        </g>
        <g>
            <path fill="#FCCB37" d="M436.792 301.194l6.803-16.343c.927-2.229.61-4.879-.793-7.825-.554-1.159-1.273-2.363-2.146-3.62a41.553 41.553 0 0 0-2.94-3.654 59.334 59.334 0 0 0-2.552-2.676c-1-.984-2.066-1.985-3.217-2.993a87.176 87.176 0 0 0-2.703-2.278 104.133 104.133 0 0 0-3.364-2.64c-.9-.682-1.834-1.374-2.792-2.066a161.421 161.421 0 0 0-6.332-4.279 186.627 186.627 0 0 0-3.537-2.225 253.31 253.31 0 0 0-2.937-1.75 196.06 196.06 0 0 0-3.598-2.075c-.98-.55-1.964-1.088-2.971-1.637a352.537 352.537 0 0 0-3.654-1.938c-.998-.508-1.992-1.026-3.015-1.53a221.142 221.142 0 0 0-3.705-1.82c-1.012-.477-2.018-.963-3.056-1.436a229.054 229.054 0 0 0-3.751-1.703c-1.021-.455-2.052-.914-3.09-1.35-.633-.28-1.27-.547-1.906-.814-.638-.267-1.263-.53-1.904-.788-1.04-.438-2.088-.852-3.125-1.264a240.198 240.198 0 0 0-3.842-1.49c-1.054-.405-2.115-.79-3.161-1.178-1.31-.476-2.604-.932-3.891-1.373-1.077-.378-2.152-.73-3.202-1.083a356.575 356.575 0 0 0-3.94-1.257 194.292 194.292 0 0 0-7.252-2.098 242.92 242.92 0 0 0-3.292-.87 181.658 181.658 0 0 0-4.059-.966 122.047 122.047 0 0 0-3.348-.732c-1.401-.289-2.784-.558-4.13-.797-1.164-.2-2.31-.382-3.423-.55a102.075 102.075 0 0 0-4.232-.553c-1.2-.14-2.379-.247-3.514-.336a68.183 68.183 0 0 0-4.393-.194 52.877 52.877 0 0 0-3.672.047 40.916 40.916 0 0 0-4.654.461c-1.504.258-2.863.589-4.072 1.007-3.072 1.064-5.174 2.699-6.1 4.925l-6.803 16.346 3.33 1.725 3.008 1.553 3.668 1.905 3.006 1.551 3.567 1.851.1.093a94.53 94.53 0 0 0 2.703 2.278 86.677 86.677 0 0 0 3.364 2.64c.896.69 1.834 1.374 2.792 2.064 1.117.795 2.268 1.593 3.46 2.407.94.62 1.895 1.26 2.869 1.883 1.15.747 2.336 1.484 3.54 2.216.952.587 1.93 1.173 2.922 1.753 1.18.697 2.377 1.387 3.61 2.081.968.547 1.964 1.09 2.974 1.628 1.198.654 2.413 1.302 3.656 1.938a160.72 160.72 0 0 0 3.01 1.542c1.215.61 2.459 1.22 3.71 1.809 1.006.487 2.023.977 3.05 1.446 1.232.568 2.478 1.142 3.752 1.703 1.02.454 2.04.908 3.09 1.35.622.272 1.258.541 1.896.808.636.267 1.272.536 1.914.792 1.05.441 2.087.854 3.124 1.264 1.293.52 2.574 1.006 3.843 1.491 1.064.41 2.114.789 3.166 1.168 1.305.487 2.599.943 3.887 1.384 1.081.367 2.14.725 3.204 1.072 1.325.443 2.635.857 3.94 1.255 1.09.347 2.163.672 3.242.988 1.345.39 2.686.765 3.993 1.126 1.122.298 2.224.585 3.309.854 1.364.349 2.721.681 4.055.979 1.126.26 2.25.494 3.349.73 1.4.289 2.788.547 4.133.787 1.164.201 2.306.392 3.42.56 1.458.213 2.862.402 4.232.553 1.205.13 2.382.236 3.517.325l.133.007 3.806 1.25 3.22 1.066 3.928 1.286 3.21 1.063 3.563 1.171"/>
            <path fill="#F9A20C" d="M301.63 236.867l6.8-16.34c1.21-.417 2.568-.748 4.072-1.006l-6.806 16.349c-1.498.245-2.857.578-4.066.997zm8.725-1.466l6.8-16.341c.801-.04 1.62-.06 2.47-.06.393 0 .795.005 1.203.013l-6.8 16.338a55.406 55.406 0 0 0-3.672.05zm11.577.482a96.37 96.37 0 0 0-3.515-.329l6.804-16.347c1.135.09 2.314.196 3.514.336l-6.803 16.34zm7.652 1.113c-1.16-.205-2.302-.392-3.42-.56l6.803-16.34c1.113.168 2.26.35 3.423.55l-6.806 16.35zm7.482 1.519c-1.131-.258-2.248-.5-3.349-.727l6.803-16.345c1.104.225 2.212.467 3.348.732l-6.802 16.34zm7.35 1.836c-1.108-.3-2.208-.589-3.293-.863l6.804-16.347c1.081.28 2.184.567 3.291.87l-6.802 16.34zm7.25 2.105c-1.09-.338-2.172-.663-3.245-.977l6.804-16.345c1.068.31 2.152.64 3.246.975l-6.804 16.347zm7.143 2.336c-1.074-.37-2.142-.73-3.203-1.08l6.805-16.346c1.05.352 2.125.705 3.202 1.083l-6.804 16.343zm7.053 2.55c-1.059-.4-2.114-.792-3.164-1.173l6.806-16.347c1.046.388 2.107.773 3.16 1.178l-6.802 16.342zm6.969 2.754c-1.045-.431-2.09-.852-3.126-1.265l6.802-16.341c1.037.412 2.085.826 3.125 1.264l-6.801 16.342z"/>
            <path fill="#FDD55F" d="M436.792 301.194c.351-.844.525-1.75.526-2.712.004-1.569-.448-3.285-1.319-5.116l6.803-16.34c.865 1.818 1.319 3.524 1.32 5.088 0 .97-.171 1.885-.527 2.737l-6.803 16.343m-2.942-11.439a40.554 40.554 0 0 0-2.936-3.662l6.802-16.341a41.553 41.553 0 0 1 2.94 3.654l-6.806 16.349m-5.49-6.335a76.891 76.891 0 0 0-3.217-2.99l6.804-16.347a74.708 74.708 0 0 1 3.217 2.993l-6.804 16.344m-5.917-5.277a115.522 115.522 0 0 0-3.365-2.637l6.802-16.342c1.168.88 2.296 1.766 3.364 2.641l-6.8 16.338m-6.162-4.693a154.89 154.89 0 0 0-3.462-2.401l6.804-16.345c1.187.799 2.35 1.602 3.464 2.395l-6.806 16.35m-6.329-4.288c-1.15-.739-2.331-1.48-3.538-2.22l6.804-16.346c1.21.747 2.387 1.48 3.537 2.225l-6.803 16.341m-6.471-3.977a204.468 204.468 0 0 0-3.602-2.067l6.804-16.347a196.06 196.06 0 0 1 3.598 2.076l-6.8 16.338m-6.573-3.706a227.946 227.946 0 0 0-3.656-1.936l6.806-16.347c1.24.647 2.452 1.294 3.654 1.938l-6.804 16.345m-6.669-3.47a272.542 272.542 0 0 0-3.707-1.817l6.806-16.347c1.256.603 2.489 1.208 3.705 1.82l-6.804 16.343m-6.759-3.256a267.828 267.828 0 0 0-3.752-1.704l6.803-16.341c1.274.56 2.517 1.133 3.751 1.703l-6.802 16.342m-6.842-3.055c-.633-.27-1.269-.542-1.907-.81l6.804-16.344c.637.267 1.273.534 1.905.814l-6.802 16.34"/>
            <path fill="#FAB53D" d="M379.73 253.047a287.868 287.868 0 0 0-3.091-1.351l6.802-16.34c1.04.436 2.07.895 3.09 1.35l-6.802 16.341zm6.803 3.144a267.74 267.74 0 0 0-3.052-1.44l6.802-16.342c1.038.473 2.044.96 3.056 1.435l-6.806 16.347zm6.72 3.351a245.524 245.524 0 0 0-3.013-1.535l6.804-16.343c1.023.505 2.017 1.023 3.015 1.531l-6.806 16.347zm6.627 3.575a223.823 223.823 0 0 0-2.971-1.639l6.804-16.345c1.007.549 1.992 1.086 2.971 1.637l-6.804 16.347zm6.535 3.825c-.96-.587-1.94-1.173-2.933-1.758l6.8-16.338c.992.581 1.981 1.171 2.937 1.749l-6.804 16.347zm6.405 4.107c-.935-.629-1.89-1.26-2.867-1.888l6.803-16.341c.985.628 1.933 1.253 2.868 1.884l-6.804 16.345zm6.258 4.457c-.902-.683-1.836-1.37-2.796-2.056l6.806-16.35c.958.691 1.892 1.383 2.792 2.064l-6.802 16.342zm6.065 4.924a96.865 96.865 0 0 0-2.7-2.287l6.8-16.338c.944.76 1.846 1.528 2.704 2.278l-6.804 16.347zm5.77 5.663a58.562 58.562 0 0 0-2.553-2.673l6.804-16.344c.916.91 1.771 1.797 2.552 2.676l-6.802 16.341zm5.086 7.273c-.551-1.16-1.27-2.367-2.149-3.611l6.806-16.349c.873 1.257 1.592 2.461 2.146 3.62l-6.803 16.34z"/>
            <path fill="#D18915" d="M436.792 301.194c4.739-11.385-23.044-33.903-62.06-50.308-39.005-16.4-74.467-20.474-79.205-9.087-4.74 11.384 23.038 33.914 62.044 50.314 39.016 16.405 74.481 20.468 79.221 9.081"/>
            <path fill="#995F13" d="M412.915 293.248c2.778-6.675-16.236-21.033-42.47-32.064-26.222-11.025-49.745-14.552-52.525-7.877-2.778 6.673 16.242 21.022 42.465 32.047 26.233 11.03 49.75 14.567 52.53 7.894"/>
            <path fill="#FFF" fill-opacity=".15" d="M357.57 292.113l17.162-41.227c36.12 15.188 62.613 35.614 62.586 47.596a7.045 7.045 0 0 1-.526 2.712c-1.818 4.365-8.147 6.46-17.461 6.46-14.987 0-37.699-5.424-61.76-15.541z"/>
        </g>
        <g>
            <path fill="#FCCB37" d="M257.552 360.99l7.565-11.297c3.34-4.987 5.571-10.446 6.764-16.164.475-2.259.786-4.553.937-6.866a51.84 51.84 0 0 0 .013-6.7 56.247 56.247 0 0 0-.491-4.733 63.548 63.548 0 0 0-.986-5.204 56.734 56.734 0 0 0-1.063-3.88 55.817 55.817 0 0 0-1.527-4.418 54.535 54.535 0 0 0-1.397-3.378 65.887 65.887 0 0 0-1.878-3.877 66.921 66.921 0 0 0-1.657-2.99 71.722 71.722 0 0 0-2.148-3.47 60.45 60.45 0 0 0-1.86-2.69 71.165 71.165 0 0 0-2.368-3.142 85.712 85.712 0 0 0-2.027-2.438 104.569 104.569 0 0 0-2.585-2.838 92.719 92.719 0 0 0-2.183-2.205 61.162 61.162 0 0 0-2.762-2.556 72.374 72.374 0 0 0-5.244-4.31 74.51 74.51 0 0 0-2.455-1.802c-.512-.355-1.014-.705-1.53-1.053-.519-.347-1.031-.68-1.555-1.02a74.519 74.519 0 0 0-2.594-1.593 71.803 71.803 0 0 0-5.982-3.23 60.97 60.97 0 0 0-3.409-1.588 83.556 83.556 0 0 0-6.457-2.499 92.465 92.465 0 0 0-3.022-.955 71.762 71.762 0 0 0-3.794-1.01 70.531 70.531 0 0 0-3.19-.704 62.955 62.955 0 0 0-4.035-.671 69.22 69.22 0 0 0-3.391-.402 65.03 65.03 0 0 0-4.293-.269 54.666 54.666 0 0 0-3.652-.013c-1.556.031-3.11.112-4.645.257a57 57 0 0 0-3.991.497c-1.757.272-3.48.628-5.178 1.05a54.063 54.063 0 0 0-4.558 1.343 51.821 51.821 0 0 0-6.197 2.556 48.764 48.764 0 0 0-5.986 3.474c-4.829 3.277-9.024 7.414-12.364 12.403l-7.565 11.297 1.74 1.168a49.446 49.446 0 0 0-.928 3.682 49.386 49.386 0 0 0-.942 6.875 52.692 52.692 0 0 0-.011 6.712c.094 1.577.253 3.148.491 4.734.25 1.734.576 3.466.991 5.197a52.673 52.673 0 0 0 1.058 3.887 63.27 63.27 0 0 0 1.513 4.421 61.525 61.525 0 0 0 1.402 3.371 68.054 68.054 0 0 0 1.878 3.875 73.572 73.572 0 0 0 1.657 2.99 63.722 63.722 0 0 0 2.152 3.485 69.313 69.313 0 0 0 1.859 2.69 73.473 73.473 0 0 0 4.406 5.564 63.227 63.227 0 0 0 2.576 2.83c.71.753 1.43 1.487 2.185 2.207.882.88 1.798 1.734 2.75 2.573.76.672 1.526 1.338 2.32 1.998.957.792 1.93 1.559 2.932 2.32a99.714 99.714 0 0 0 2.46 1.79c.513.356 1.015.707 1.531 1.054a100.014 100.014 0 0 0 4.143 2.62 84.098 84.098 0 0 0 5.972 3.224 71.378 71.378 0 0 0 3.415 1.58c.957.418 1.908.807 2.87 1.18 1.194.475 2.396.92 3.602 1.318a74.897 74.897 0 0 0 6.813 1.975c1.065.253 2.13.491 3.188.701a80.525 80.525 0 0 0 7.417 1.069 68.26 68.26 0 0 0 4.293.267c1.22.045 2.44.05 3.647.022 1.57-.033 3.13-.123 4.664-.27a57.215 57.215 0 0 0 3.999-.504 57.112 57.112 0 0 0 5.17-1.043 55.567 55.567 0 0 0 4.558-1.342 52.246 52.246 0 0 0 6.188-2.562 48.66 48.66 0 0 0 5.98-3.465 47.603 47.603 0 0 0 3.07-2.267l1.73 1.162"/>
            <path fill="#F9A20C" d="M155.183 271.49l7.558-11.288a48.764 48.764 0 0 1 5.986-3.474l-7.564 11.296a49.378 49.378 0 0 0-5.98 3.467zm12.18-6.024l7.561-11.294a54.063 54.063 0 0 1 4.558-1.342l-7.56 11.292c-1.55.387-3.07.836-4.56 1.344zm9.733-2.393l7.564-11.294a57 57 0 0 1 3.991-.497l-7.562 11.294c-1.345.125-2.677.29-3.993.497zm12.288-.74a68.86 68.86 0 0 0-3.647-.02l7.559-11.288a52.682 52.682 0 0 1 3.652.013l-7.564 11.294zm7.688.666a71.062 71.062 0 0 0-3.395-.397l7.564-11.295a69.22 69.22 0 0 1 3.391.402l-7.56 11.29zm7.221 1.378a78.158 78.158 0 0 0-3.191-.7l7.565-11.297c1.058.21 2.128.44 3.19.703l-7.564 11.294zm6.813 1.971a83.238 83.238 0 0 0-3.02-.956l7.565-11.298c1.01.302 2.013.615 3.022.955l-7.567 11.3zm6.46 2.497a82.632 82.632 0 0 0-2.866-1.186l7.566-11.298c.956.38 1.908.769 2.864 1.187l-7.563 11.297zm6.14 2.977a86.18 86.18 0 0 0-2.726-1.398l7.559-11.287c.917.441 1.823.899 2.733 1.385l-7.566 11.3zm5.845 3.435a81.276 81.276 0 0 0-2.59-1.598l7.56-11.293c.87.51 1.738 1.044 2.594 1.594l-7.564 11.297z"/>
            <path fill="#FDD55F" d="M257.552 360.99c3.34-4.987 5.572-10.451 6.77-16.17l7.56-11.291c-1.194 5.718-3.425 11.177-6.765 16.164l-7.565 11.297m7.7-23.03a52.199 52.199 0 0 0 .015-6.7l7.564-11.296a51.855 51.855 0 0 1-.013 6.7l-7.565 11.295m-.473-11.435a60.527 60.527 0 0 0-.995-5.197l7.57-11.301c.4 1.732.734 3.471.985 5.204l-7.56 11.294m-2.05-9.088a65.284 65.284 0 0 0-1.525-4.42l7.559-11.288a55.817 55.817 0 0 1 1.527 4.417l-7.56 11.29m-2.926-7.79a71.387 71.387 0 0 0-1.878-3.878l7.562-11.294c.67 1.277 1.3 2.575 1.878 3.877l-7.562 11.294m-3.531-6.873a76.246 76.246 0 0 0-2.15-3.468l7.56-11.29a71.722 71.722 0 0 1 2.148 3.47l-7.558 11.288m-4.008-6.16a78.846 78.846 0 0 0-2.375-3.13l7.565-11.3a71.165 71.165 0 0 1 2.368 3.143l-7.558 11.287m-4.405-5.568a84.22 84.22 0 0 0-2.581-2.84l7.564-11.298c.886.934 1.747 1.887 2.585 2.838l-7.568 11.3m-4.763-5.047a86.715 86.715 0 0 0-2.755-2.566l7.556-11.286c.957.83 1.872 1.683 2.762 2.556l-7.563 11.296m-5.08-4.56a86.508 86.508 0 0 0-2.923-2.313l7.56-11.29c.999.745 1.98 1.517 2.928 2.303l-7.565 11.3m-5.383-4.107a84.742 84.742 0 0 0-1.531-1.054l7.565-11.296c.517.348 1.019.698 1.531 1.053l-7.565 11.297"/>
            <path fill="#FAB53D" d="M264.321 344.82a49.4 49.4 0 0 0 .932-6.86l7.565-11.297a48.934 48.934 0 0 1-.937 6.866l-7.56 11.29zm-29.226-65.697a85.83 85.83 0 0 0-2.46-1.794l7.565-11.297a74.51 74.51 0 0 1 2.455 1.8l-7.56 11.291zm5.248 4.307a89.178 89.178 0 0 0-2.325-1.994l7.565-11.3a74.95 74.95 0 0 1 2.316 2.008l-7.556 11.286zm4.937 4.772a86.554 86.554 0 0 0-2.182-2.206l7.563-11.296a92.719 92.719 0 0 1 2.183 2.205l-7.564 11.297zm4.61 5.278a82.377 82.377 0 0 0-2.029-2.437l7.568-11.3a85.712 85.712 0 0 1 2.027 2.438l-7.565 11.3zm4.234 5.823a76.892 76.892 0 0 0-1.858-2.692l7.558-11.287a60.45 60.45 0 0 1 1.86 2.688l-7.56 11.291zm3.803 6.464a73.913 73.913 0 0 0-1.653-2.996l7.558-11.289a66.921 66.921 0 0 1 1.657 2.991l-7.562 11.294zm3.278 7.25c-.433-1.13-.9-2.255-1.4-3.373l7.562-11.294a54.535 54.535 0 0 1 1.397 3.378l-7.559 11.288zm2.58 8.31a62.778 62.778 0 0 0-1.054-3.891l7.56-11.29a56.734 56.734 0 0 1 1.063 3.88l-7.569 11.301zm1.482 9.933a57.276 57.276 0 0 0-.487-4.736l7.56-11.294c.23 1.58.397 3.157.49 4.734l-7.563 11.296z"/>
            <path fill="#D18915" d="M257.552 360.99c17.077-25.503 5.233-63.428-26.448-84.715-31.69-21.29-71.215-17.876-88.292 7.627-17.072 25.494-5.233 63.43 26.457 84.72 31.68 21.285 71.211 17.862 88.283-7.632"/>
            <path fill="#995F13" d="M241.754 352.83c12.08-18.039 2.755-45.511-20.826-61.355-23.583-15.845-52.497-14.06-64.575 3.976-12.084 18.046-2.76 45.52 20.82 61.364 23.584 15.844 52.498 14.06 64.581-3.985"/>
            <path fill="#FFF" fill-opacity=".15" d="M169.269 368.623l61.835-92.348c21.843 14.676 34.255 37.262 34.262 58.232.002 9.446-2.51 18.563-7.814 26.483-9.54 14.25-26.096 21.603-44.377 21.603-14.43 0-29.932-4.582-43.906-13.97z"/>
        </g>
    </g>
</svg>
