<?xml version="1.0" encoding="UTF-8"?>
<svg width="473px" height="265px" viewBox="0 0 473 265" version="1.1" xmlns="http://www.w3.org/2000/svg" xmlns:xlink="http://www.w3.org/1999/xlink">
    <!-- Generator: Sketch 55.2 (78181) - https://sketchapp.com -->
    <title>Background</title>
    <desc>Created with Sketch.</desc>
    <g id="Page-1" stroke="none" stroke-width="1" fill="none" fill-rule="evenodd">
        <g id="Circlewise-Advertiser" transform="translate(-190.000000, -2550.000000)">
            <g id="Reports" transform="translate(165.000000, 2381.000000)">
                <g id="Background" transform="translate(25.000000, 169.000000)">
                    <path d="M57.5,238 C56.1192881,238 55,236.880712 55,235.5 C55,234.119288 56.1192881,233 57.5,233 C58.8807119,233 60,234.119288 60,235.5 C60,236.880712 58.8807119,238 57.5,238 Z M70.5,238 C69.1192881,238 68,236.880712 68,235.5 C68,234.119288 69.1192881,233 70.5,233 C71.8807119,233 73,234.119288 73,235.5 C73,236.880712 71.8807119,238 70.5,238 Z M2.5,197 C1.11928813,197 0,195.880712 0,194.5 C0,193.119288 1.11928813,192 2.5,192 C3.88071187,192 5,193.119288 5,194.5 C5,195.880712 3.88071187,197 2.5,197 Z M15.5,197 C14.1192881,197 13,195.880712 13,194.5 C13,193.119288 14.1192881,192 15.5,192 C16.8807119,192 18,193.119288 18,194.5 C18,195.880712 16.8807119,197 15.5,197 Z M29.5,197 C28.1192881,197 27,195.880712 27,194.5 C27,193.119288 28.1192881,192 29.5,192 C30.8807119,192 32,193.119288 32,194.5 C32,195.880712 30.8807119,197 29.5,197 Z M43.5,197 C42.1192881,197 41,195.880712 41,194.5 C41,193.119288 42.1192881,192 43.5,192 C44.8807119,192 46,193.119288 46,194.5 C46,195.880712 44.8807119,197 43.5,197 Z M57.5,197 C56.1192881,197 55,195.880712 55,194.5 C55,193.119288 56.1192881,192 57.5,192 C58.8807119,192 60,193.119288 60,194.5 C60,195.880712 58.8807119,197 57.5,197 Z M70.5,197 C69.1192881,197 68,195.880712 68,194.5 C68,193.119288 69.1192881,192 70.5,192 C71.8807119,192 73,193.119288 73,194.5 C73,195.880712 71.8807119,197 70.5,197 Z M2.5,211 C1.11928813,211 0,209.880712 0,208.5 C0,207.119288 1.11928813,206 2.5,206 C3.88071187,206 5,207.119288 5,208.5 C5,209.880712 3.88071187,211 2.5,211 Z M15.5,211 C14.1192881,211 13,209.880712 13,208.5 C13,207.119288 14.1192881,206 15.5,206 C16.8807119,206 18,207.119288 18,208.5 C18,209.880712 16.8807119,211 15.5,211 Z M29.5,211 C28.1192881,211 27,209.880712 27,208.5 C27,207.119288 28.1192881,206 29.5,206 C30.8807119,206 32,207.119288 32,208.5 C32,209.880712 30.8807119,211 29.5,211 Z M43.5,211 C42.1192881,211 41,209.880712 41,208.5 C41,207.119288 42.1192881,206 43.5,206 C44.8807119,206 46,207.119288 46,208.5 C46,209.880712 44.8807119,211 43.5,211 Z M57.5,211 C56.1192881,211 55,209.880712 55,208.5 C55,207.119288 56.1192881,206 57.5,206 C58.8807119,206 60,207.119288 60,208.5 C60,209.880712 58.8807119,211 57.5,211 Z M70.5,211 C69.1192881,211 68,209.880712 68,208.5 C68,207.119288 69.1192881,206 70.5,206 C71.8807119,206 73,207.119288 73,208.5 C73,209.880712 71.8807119,211 70.5,211 Z M2.5,225 C1.11928813,225 0,223.880712 0,222.5 C0,221.119288 1.11928813,220 2.5,220 C3.88071187,220 5,221.119288 5,222.5 C5,223.880712 3.88071187,225 2.5,225 Z M15.5,225 C14.1192881,225 13,223.880712 13,222.5 C13,221.119288 14.1192881,220 15.5,220 C16.8807119,220 18,221.119288 18,222.5 C18,223.880712 16.8807119,225 15.5,225 Z M29.5,225 C28.1192881,225 27,223.880712 27,222.5 C27,221.119288 28.1192881,220 29.5,220 C30.8807119,220 32,221.119288 32,222.5 C32,223.880712 30.8807119,225 29.5,225 Z M43.5,225 C42.1192881,225 41,223.880712 41,222.5 C41,221.119288 42.1192881,220 43.5,220 C44.8807119,220 46,221.119288 46,222.5 C46,223.880712 44.8807119,225 43.5,225 Z M57.5,225 C56.1192881,225 55,223.880712 55,222.5 C55,221.119288 56.1192881,220 57.5,220 C58.8807119,220 60,221.119288 60,222.5 C60,223.880712 58.8807119,225 57.5,225 Z M70.5,225 C69.1192881,225 68,223.880712 68,222.5 C68,221.119288 69.1192881,220 70.5,220 C71.8807119,220 73,221.119288 73,222.5 C73,223.880712 71.8807119,225 70.5,225 Z M2.5,238 C1.11928813,238 0,236.880712 0,235.5 C0,234.119288 1.11928813,233 2.5,233 C3.88071187,233 5,234.119288 5,235.5 C5,236.880712 3.88071187,238 2.5,238 Z M15.5,238 C14.1192881,238 13,236.880712 13,235.5 C13,234.119288 14.1192881,233 15.5,233 C16.8807119,233 18,234.119288 18,235.5 C18,236.880712 16.8807119,238 15.5,238 Z M29.5,238 C28.1192881,238 27,236.880712 27,235.5 C27,234.119288 28.1192881,233 29.5,233 C30.8807119,233 32,234.119288 32,235.5 C32,236.880712 30.8807119,238 29.5,238 Z M43.5,238 C42.1192881,238 41,236.880712 41,235.5 C41,234.119288 42.1192881,233 43.5,233 C44.8807119,233 46,234.119288 46,235.5 C46,236.880712 44.8807119,238 43.5,238 Z M2.5,184 C1.11928813,184 0,182.880712 0,181.5 C0,180.119288 1.11928813,179 2.5,179 C3.88071187,179 5,180.119288 5,181.5 C5,182.880712 3.88071187,184 2.5,184 Z M15.5,184 C14.1192881,184 13,182.880712 13,181.5 C13,180.119288 14.1192881,179 15.5,179 C16.8807119,179 18,180.119288 18,181.5 C18,182.880712 16.8807119,184 15.5,184 Z M29.5,184 C28.1192881,184 27,182.880712 27,181.5 C27,180.119288 28.1192881,179 29.5,179 C30.8807119,179 32,180.119288 32,181.5 C32,182.880712 30.8807119,184 29.5,184 Z M43.5,184 C42.1192881,184 41,182.880712 41,181.5 C41,180.119288 42.1192881,179 43.5,179 C44.8807119,179 46,180.119288 46,181.5 C46,182.880712 44.8807119,184 43.5,184 Z M57.5,184 C56.1192881,184 55,182.880712 55,181.5 C55,180.119288 56.1192881,179 57.5,179 C58.8807119,179 60,180.119288 60,181.5 C60,182.880712 58.8807119,184 57.5,184 Z M70.5,184 C69.1192881,184 68,182.880712 68,181.5 C68,180.119288 69.1192881,179 70.5,179 C71.8807119,179 73,180.119288 73,181.5 C73,182.880712 71.8807119,184 70.5,184 Z" id="Oval-2" fill="#FFB900"></path>
                    <circle id="Oval" fill="#E4F2F8" cx="340.5" cy="132.5" r="132.5"></circle>
                </g>
            </g>
        </g>
    </g>
</svg>