<svg xmlns="http://www.w3.org/2000/svg" width="100" height="100" viewBox="0 0 100 100">
    <g fill="none" fill-rule="evenodd">
        <path fill="#F34F9F" d="M38.458 0h23.084c13.373 0 18.222 1.392 23.11 4.007 4.89 2.615 8.726 6.451 11.341 11.34 2.615 4.89 4.007 9.738 4.007 23.111v23.084c0 13.373-1.392 18.222-4.007 23.11-2.615 4.89-6.451 8.726-11.34 11.341-4.89 2.615-9.738 4.007-23.111 4.007H38.458c-13.373 0-18.222-1.392-23.11-4.007-4.89-2.615-8.726-6.451-11.341-11.34C1.392 79.763 0 74.915 0 61.542V38.458c0-13.373 1.392-18.222 4.007-23.11 2.615-4.89 6.451-8.726 11.34-11.341C20.237 1.392 25.085 0 38.458 0z"/>
        <g fill-rule="nonzero">
            <path fill="#000" fill-opacity=".2" d="M84.947 17.914c0-1.603-1.292-2.914-2.87-2.914H18.923c-1.579 0-2.87 1.311-2.87 2.914v2.914c0 1.603 1.291 2.915 2.87 2.915v32.056c-3.875 0-2.727 4.954-2.87 5.828 0 1.603 1.291 2.914 2.87 2.914h20.524c-8.898 16.902-12.056 18.942-9.76 20.254.718.437 1.58.145 2.01-.583l4.45-8.014H64.852c4.45 7.43 4.306 8.742 5.74 8.742 1.15 0 1.867-1.165 1.293-2.185L61.552 64.54h20.524c3.875 0 2.727-4.954 2.87-5.828 0-1.603-1.291-2.914-2.87-2.914V23.743c3.875 0 2.727-4.955 2.87-5.829zM63.13 73.284H37.87l4.88-8.743h15.5l4.88 8.743zm18.946-11.657H18.924v-2.914h63.152v2.914zm-60.282-5.828V23.743h57.412v32.056H21.794zm-2.87-37.885h63.152v2.914H18.924v-2.914z"/>
            <path fill="#FFF" d="M69.676 29c-2.45 0-4.323 1.869-4.323 4.313 0 .862.288 1.58.72 2.3l-6.485 8.05c-1.153-.432-2.45-.288-3.603.287l-11.097-9.2c.144-.431.288-1.006.288-1.438 0-2.443-1.873-4.312-4.323-4.312s-4.324 1.869-4.324 4.312c0 .863.289 1.582.721 2.3l-6.485 8.05C27.882 42.656 25 44.812 25 47.687c0 5.75 8.647 5.75 8.647 0 0-.862-.288-1.58-.72-2.3l6.485-8.05c1.153.432 2.45.288 3.603-.43l11.097 9.2c-1.01 2.73 1.009 5.75 4.035 5.75 2.45 0 4.324-1.87 4.324-4.313 0-.863-.289-1.582-.721-2.3l6.485-8.05c.433.143.865.287 1.441.287 2.45 0 4.324-1.869 4.324-4.312C74 30.725 72.126 29 69.676 29zM27.882 47.688c0-1.87 2.883-1.87 2.883 0 0 .862-2.883 1.868-2.883 0zm11.53-14.376c0-1.868 2.882-1.868 2.882 0 0 .288-.144.72-.288.863-.865 1.006-2.594.431-2.594-.863zm17.294 14.376c0-.72.72-1.438 1.441-1.438.72 0 1.441.575 1.441 1.438 0 .862-2.882 1.868-2.882 0zm12.97-12.938c-.864 0-1.44-.575-1.44-1.438 0-.862.576-1.437 1.44-1.437.865 0 1.442.575 1.442 1.438 0 .862-.577 1.437-1.442 1.437z"/>
        </g>
    </g>
</svg>
