<?xml version="1.0" encoding="UTF-8"?>
<svg width="100px" height="100px" viewBox="0 0 100 100" version="1.1" xmlns="http://www.w3.org/2000/svg" xmlns:xlink="http://www.w3.org/1999/xlink">
    <!-- Generator: Sketch 55.2 (78181) - https://sketchapp.com -->
    <title>Rich Media</title>
    <desc>Created with Sketch.</desc>
    <g id="Page-1" stroke="none" stroke-width="1" fill="none" fill-rule="evenodd">
        <g id="Circlewise-Advertiser" transform="translate(-813.000000, -3191.000000)">
            <g id="Rich-Media" transform="translate(813.000000, 3191.000000)">
                <path d="M38.458278,-1.55376046e-15 L61.541722,1.55376046e-15 C74.9145031,-9.02779573e-16 79.7637967,1.39238417 84.6526856,4.00699056 C89.5415744,6.62159695 93.3784031,10.4584256 95.9930094,15.3473144 C98.6076158,20.2362033 100,25.0854969 100,38.458278 L100,61.541722 C100,74.9145031 98.6076158,79.7637967 95.9930094,84.6526856 C93.3784031,89.5415744 89.5415744,93.3784031 84.6526856,95.9930094 C79.7637967,98.6076158 74.9145031,100 61.541722,100 L38.458278,100 C25.0854969,100 20.2362033,98.6076158 15.3473144,95.9930094 C10.4584256,93.3784031 6.62159695,89.5415744 4.00699056,84.6526856 C1.39238417,79.7637967 6.01853049e-16,74.9145031 -1.03584031e-15,61.541722 L1.03584031e-15,38.458278 C-6.01853049e-16,25.0854969 1.39238417,20.2362033 4.00699056,15.3473144 C6.62159695,10.4584256 10.4584256,6.62159695 15.3473144,4.00699056 C20.2362033,1.39238417 25.0854969,9.02779573e-16 38.458278,-1.55376046e-15 Z" id="Rectangle" fill="#F34F9F"></path>
                <path d="M79.1666667,15 L70.4166667,15 L70.4166667,19.375 L29.5833333,19.375 L29.5833333,15 L20.8333333,15 C17.625,15 15,17.625 15,20.8333333 L15,79.1666667 C15,82.375 17.625,85 20.8333333,85 L29.5833333,85 L29.5833333,80.625 L70.4166667,80.625 L70.4166667,85 L79.1666667,85 C82.375,85 85,82.375 85,79.1666667 L85,20.8333333 C85,17.625 82.375,15 79.1666667,15 Z M29.5833333,77.7083333 L29.5833333,22.2916667 L70.4166667,22.2916667 L70.4166667,77.7083333 L29.5833333,77.7083333 Z M20.8333333,22.2916667 L23.75,22.2916667 L23.75,25.2083333 L20.8333333,25.2083333 L20.8333333,22.2916667 Z M20.8333333,31.0416667 L23.75,31.0416667 L23.75,33.9583333 L20.8333333,33.9583333 L20.8333333,31.0416667 Z M20.8333333,39.7916667 L23.75,39.7916667 L23.75,42.7083333 L20.8333333,42.7083333 L20.8333333,39.7916667 Z M20.8333333,48.5416667 L23.75,48.5416667 L23.75,51.4583333 L20.8333333,51.4583333 L20.8333333,48.5416667 Z M20.8333333,57.2916667 L23.75,57.2916667 L23.75,60.2083333 L20.8333333,60.2083333 L20.8333333,57.2916667 Z M20.8333333,66.0416667 L23.75,66.0416667 L23.75,68.9583333 L20.8333333,68.9583333 L20.8333333,66.0416667 Z M20.8333333,74.7916667 L23.75,74.7916667 L23.75,77.7083333 L20.8333333,77.7083333 L20.8333333,74.7916667 Z M76.25,22.2916667 L79.1666667,22.2916667 L79.1666667,25.2083333 L76.25,25.2083333 L76.25,22.2916667 Z M76.25,31.0416667 L79.1666667,31.0416667 L79.1666667,33.9583333 L76.25,33.9583333 L76.25,31.0416667 Z M76.25,39.7916667 L79.1666667,39.7916667 L79.1666667,42.7083333 L76.25,42.7083333 L76.25,39.7916667 Z M76.25,48.5416667 L79.1666667,48.5416667 L79.1666667,51.4583333 L76.25,51.4583333 L76.25,48.5416667 Z M76.25,57.2916667 L79.1666667,57.2916667 L79.1666667,60.2083333 L76.25,60.2083333 L76.25,57.2916667 Z M76.25,66.0416667 L79.1666667,66.0416667 L79.1666667,68.9583333 L76.25,68.9583333 L76.25,66.0416667 Z M76.25,74.7916667 L79.1666667,74.7916667 L79.1666667,77.7083333 L76.25,77.7083333 L76.25,74.7916667 Z M50,33.9583333 C41.1041667,33.9583333 33.9583333,41.1041667 33.9583333,50 C33.9583333,58.8958333 41.1041667,66.0416667 50,66.0416667 C58.8958333,66.0416667 66.0416667,58.8958333 66.0416667,50 C66.0416667,41.1041667 58.8958333,33.9583333 50,33.9583333 Z" id="Shape" fill-opacity="0.2" fill="#000000" fill-rule="nonzero"></path>
                <path d="M57.875,48.6875 C46.2083333,43.1458333 46.0625,42.125 44.75,42.8541667 C43.5833333,43.5833333 44.3125,44.3125 44.0208333,55.8333333 C44.0208333,56.8541667 45.1875,57.5833333 46.0625,57.1458333 C57.4375,51.1666667 58.6041667,51.6041667 58.6041667,50 C58.75,49.4166667 58.4583333,48.9791667 57.875,48.6875 Z" id="Path" fill="#FFFFFF" fill-rule="nonzero"></path>
            </g>
        </g>
    </g>
</svg>