<?xml version="1.0" encoding="UTF-8"?>
<svg width="100px" height="100px" viewBox="0 0 100 100" version="1.1" xmlns="http://www.w3.org/2000/svg" xmlns:xlink="http://www.w3.org/1999/xlink">
    <!-- Generator: Sketch 55.2 (78181) - https://sketchapp.com -->
    <title>robo_advisors</title>
    <desc>Created with Sketch.</desc>
    <g id="robo_advisors" stroke="none" stroke-width="1" fill="none" fill-rule="evenodd">
        <rect id="Rectangle" fill-opacity="0" fill="#FFFFFF" x="0" y="0" width="100" height="100"></rect>
        <circle id="Oval" fill="#E4F2F8" cx="50" cy="50" r="40"></circle>
        <circle id="Oval" fill="#FFB900" cx="85" cy="32" r="7"></circle>
        <circle id="Oval" fill="#D02E7D" cx="59" cy="50" r="5"></circle>
        <circle id="Oval" fill="#46A7CD" cx="18" cy="36" r="4"></circle>
        <path d="M27,66 C21.9545455,66 18,62.0454545 18,57 C18,52.0909091 22.0909091,48 27,48 C31.9090909,48 36,52.0909091 36,57 C36,61.9090909 31.9090909,66 27,66 Z M46.0369128,77.8342857 C46.0369128,77.8342857 46.7248322,83.8685714 47,89.9028571 L47,91 L6,91 L6,89.9028571 C6.27516779,83.8685714 6.96308725,77.6971429 6.96308725,77.6971429 C6.96308725,76.3257143 7.37583893,74.68 8.33892617,73.0342857 C9.16442953,71.3885714 10.8154362,70.1542857 12.6040268,69.4685714 L19.3456376,67 L25.3993289,78.1085714 L27.4630872,78.1085714 L33.5167785,67 L40.3959732,69.4685714 C42.1845638,70.1542857 43.6979866,71.3885714 44.6610738,73.0342857 C45.6241611,74.68 46.0369128,76.3257143 46.0369128,77.8342857 Z M95,89.9028571 L95,91 L55,91 L55,89.9028571 C55.2693603,83.8685714 55.9427609,77.6971429 55.9427609,77.6971429 C55.9427609,76.3257143 56.3468013,74.68 57.2895623,73.0342857 C58.0976431,71.3885714 59.7138047,70.1542857 61.4646465,69.4685714 L68.0639731,67 L73.989899,78.1085714 L76.010101,78.1085714 L81.9360269,67 L88.5353535,69.4685714 C90.2861953,70.1542857 91.7676768,71.3885714 92.7104377,73.0342857 C93.6531987,74.68 94.0572391,76.3257143 94.0572391,77.8342857 C94.0572391,77.8342857 94.7306397,84.0057143 95,89.9028571 Z M83.3392556,53.176039 C85.3851395,53.34953 87,55.1362462 87,57.3117161 C87,59.4871861 85.3851401,61.2740381 83.3392562,61.4475303 L83.3392562,63.8152062 C83.3392562,65.0199126 82.3984192,66 81.2421174,66 L68.7577203,66 C67.6014185,66 66.6605809,65.0199126 66.6605809,63.8152062 L66.6605809,61.4475303 C64.6147287,61.2740381 63,59.4871861 63,57.3117161 C63,55.1362462 64.6147287,53.34953 66.6605809,53.1760391 L66.6605809,50.8083619 C66.6605809,49.6036555 67.6014185,48.6234336 68.7577203,48.6234336 L71.0536301,48.6234336 L69.1586446,45.5778978 C69.093435,45.6059715 69.0272805,45.6300504 68.9604846,45.6500265 C68.8027748,45.6971914 68.6414891,45.7214848 68.4806207,45.7214848 C67.8948873,45.7214848 67.320316,45.4223426 66.978522,44.8732199 C66.7188988,44.4558518 66.6308699,43.958366 66.7304823,43.4721368 C66.8301276,42.9859075 67.1055042,42.5692171 67.5059065,42.2987243 C68.3325198,41.7409797 69.4409836,41.9868238 69.9769598,42.8480165 L69.9771225,42.8480165 C70.4521801,43.6119604 70.3174851,44.6046937 69.7048388,45.2093866 L71.8291189,48.6234336 L78.2127949,48.6234336 L80.2944447,45.2776705 C80.0333225,45.0209773 79.8512799,44.6900662 79.774837,44.3164689 C79.6752246,43.8302396 79.7634148,43.3325844 80.0230399,42.9153854 C80.2825335,42.4982203 80.6826441,42.2111482 81.1493048,42.1075114 C81.6159966,42.0037116 82.0938188,42.0957566 82.4940933,42.366263 C82.8944993,42.6366199 83.170033,43.0533103 83.2696801,43.5395396 C83.369295,44.0257349 83.2811035,44.52339 83.0213157,44.9405887 C82.761821,45.3577881 82.3617104,45.6448263 81.8950161,45.7484734 C81.7698284,45.776275 81.6436575,45.7901761 81.5185989,45.7901761 C81.2856254,45.7901761 81.0569484,45.7388443 80.8413892,45.6455383 L78.9885766,48.6234336 L81.2421168,48.6234336 C82.3984186,48.6234336 83.3392556,49.6036555 83.3392556,50.8083619 L83.3392556,53.176039 Z M36.345679,43 L36.345679,36.695122 L32,36.695122 L32,16.4390244 L40.4197531,16.4390244 L40.4197531,10 L76,10 L76,30.2560976 L71.2469136,30.2560976 L71.2469136,37.2317073 L63.3703704,30.2560976 L62.8271605,30.2560976 L62.8271605,36.4268293 L43.6790123,36.4268293 L36.345679,43 Z" id="Fill" fill="#FFFFFF" fill-rule="nonzero"></path>
        <path d="M46.0369128,77.8342857 C46.0369128,76.3257143 45.6241611,74.68 44.6610738,73.0342857 C43.6979866,71.3885714 42.1845638,70.1542857 40.3959732,69.4685714 L33.5167785,67 L27.4630872,78.1085714 L25.3993289,78.1085714 L19.3456376,67 L12.6040268,69.4685714 C10.8154362,70.1542857 9.16442953,71.3885714 8.33892617,73.0342857 C7.37583893,74.68 6.96308725,76.3257143 6.96308725,77.6971429 C6.96308725,77.6971429 6.27516779,83.8685714 6,89.9028571 L6,91 L47,91 L47,89.9028571 C46.7248322,83.8685714 46.0369128,77.8342857 46.0369128,77.8342857 Z M39.7080537,88.9428571 L39.295302,82.2228571 L37.2315436,82.36 L37.6442953,88.9428571 L15.3557047,88.9428571 L15.7684564,82.36 L13.704698,82.2228571 L13.2919463,88.9428571 L8.20134228,88.9428571 C8.47651007,83.4571429 9.02684564,77.9714286 9.02684564,77.8342857 C9.02684564,76.3257143 9.57718121,74.9542857 10.1275168,73.9942857 C10.8154362,72.76 11.9161074,71.8 13.4295302,71.3885714 L18.5201342,69.6057143 L24.2986577,80.3028571 L28.7013423,80.3028571 L34.4798658,69.6057143 L39.5704698,71.3885714 C40.9463087,71.9371429 42.1845638,72.8971429 42.8724832,73.9942857 C43.4228188,74.9542857 43.9731544,76.3257143 43.9731544,77.8342857 C43.9731544,77.8342857 44.5234899,83.1828571 44.7986577,88.8057143 L39.7080537,88.8057143 L39.7080537,88.9428571 Z M95,89.9028571 C94.7306397,84.0057143 94.0572391,77.8342857 94.0572391,77.8342857 C94.0572391,76.3257143 93.6531987,74.68 92.7104377,73.0342857 C91.7676768,71.3885714 90.2861953,70.1542857 88.5353535,69.4685714 L81.9360269,67 L76.010101,78.1085714 L73.989899,78.1085714 L68.0639731,67 L61.4646465,69.4685714 C59.7138047,70.1542857 58.0976431,71.3885714 57.2895623,73.0342857 C56.3468013,74.68 55.9427609,76.3257143 55.9427609,77.6971429 C55.9427609,77.6971429 55.2693603,83.8685714 55,89.9028571 L55,91 L95,91 L95,89.9028571 Z M87.8619529,88.9428571 L87.4579125,82.2228571 L85.4377104,82.36 L85.8417508,88.9428571 L64.023569,88.9428571 L64.4276094,82.36 L62.4074074,82.2228571 L62.003367,88.9428571 L57.020202,88.9428571 C57.2895623,83.4571429 57.8282828,77.9714286 57.8282828,77.8342857 C57.8282828,76.3257143 58.3670034,74.9542857 58.9057239,73.9942857 C59.5791246,72.76 60.6565657,71.8 62.1380471,71.3885714 L67.1212121,69.6057143 L72.7777778,80.3028571 L77.0875421,80.3028571 L82.7441077,69.6057143 L87.7272727,71.3885714 C89.0740741,71.9371429 90.2861953,72.8971429 90.959596,73.9942857 C91.4983165,74.9542857 92.037037,76.3257143 92.037037,77.8342857 C92.037037,77.8342857 92.5757576,83.1828571 92.8451178,88.8057143 L87.8619529,88.8057143 L87.8619529,88.9428571 Z M27,66 C31.9090909,66 36,61.9090909 36,57 C36,52.0909091 31.9090909,48 27,48 C22.0909091,48 18,52.0909091 18,57 C18,62.0454545 21.9545455,66 27,66 Z M27,50.0454545 C30.8181818,50.0454545 33.9545455,53.1818182 33.9545455,57 C33.9545455,60.8181818 30.8181818,63.9545455 27,63.9545455 C23.1818182,63.9545455 20.0454545,60.8181818 20.0454545,57 C20.0454545,53.1818182 23.1818182,50.0454545 27,50.0454545 Z M83.3392556,53.176039 L83.3392556,50.8083619 C83.3392556,49.6036555 82.3984186,48.6234336 81.2421168,48.6234336 L78.9885766,48.6234336 L80.8413892,45.6455383 C81.0569484,45.7388443 81.2856254,45.7901761 81.5185989,45.7901761 C81.6436575,45.7901761 81.7698284,45.776275 81.8950161,45.7484734 C82.3617104,45.6448263 82.761821,45.3577881 83.0213157,44.9405887 C83.2811035,44.52339 83.369295,44.0257349 83.2696801,43.5395396 C83.170033,43.0533103 82.8944993,42.6366199 82.4940933,42.366263 C82.0938188,42.0957566 81.6159966,42.0037116 81.1493048,42.1075114 C80.6826441,42.2111482 80.2825335,42.4982203 80.0230399,42.9153854 C79.7634148,43.3325844 79.6752246,43.8302396 79.774837,44.3164689 C79.8512799,44.6900662 80.0333225,45.0209773 80.2944447,45.2776705 L78.2127949,48.6234336 L71.8291189,48.6234336 L69.7048388,45.2093866 C70.3174851,44.6046937 70.4521801,43.6119604 69.9771225,42.8480165 L69.9769598,42.8480165 C69.4409836,41.9868238 68.3325198,41.7409797 67.5059065,42.2987243 C67.1055042,42.5692171 66.8301276,42.9859075 66.7304823,43.4721368 C66.6308699,43.958366 66.7188988,44.4558518 66.978522,44.8732199 C67.320316,45.4223426 67.8948873,45.7214848 68.4806207,45.7214848 C68.6414891,45.7214848 68.8027748,45.6971914 68.9604846,45.6500265 C69.0272805,45.6300504 69.093435,45.6059715 69.1586446,45.5778978 L71.0536301,48.6234336 L68.7577203,48.6234336 C67.6014185,48.6234336 66.6605809,49.6036555 66.6605809,50.8083619 L66.6605809,53.1760391 C64.6147287,53.34953 63,55.1362462 63,57.3117161 C63,59.4871861 64.6147287,61.2740381 66.6605809,61.4475303 L66.6605809,63.8152062 C66.6605809,65.0199126 67.6014185,66 68.7577203,66 L81.2421174,66 C82.3984192,66 83.3392562,65.0199126 83.3392562,63.8152062 L83.3392562,61.4475303 C85.3851401,61.2740381 87,59.4871861 87,57.3117161 C87,55.1362462 85.3851395,53.34953 83.3392556,53.176039 Z M81.5,62.9950333 C81.5,63.7210017 80.9515182,64.3117168 80.2772789,64.3117168 L69.7227211,64.3117168 C69.0484818,64.3117168 68.5,63.7210017 68.5,62.9950333 L68.5,51.6285178 C68.5,50.9024002 69.0484818,50.3117168 69.7227211,50.3117168 L80.2772794,50.3117168 C80.9515187,50.3117168 81.5,50.9024002 81.5,51.6285178 L81.5,62.9950333 L81.5,62.9950333 Z M36.345679,43 L36.345679,36.695122 L32,36.695122 L32,16.4390244 L40.4197531,16.4390244 L40.4197531,10 L76,10 L76,30.2560976 L71.2469136,30.2560976 L71.2469136,37.2317073 L63.3703704,30.2560976 L62.8271605,30.2560976 L62.8271605,36.4268293 L43.6790123,36.4268293 L36.345679,43 Z M42.4567901,11.8780488 L42.4567901,28.2439024 L64.1851852,28.2439024 L69.345679,32.804878 L69.345679,28.2439024 L74.0987654,28.2439024 L74.0987654,11.8780488 L42.4567901,11.8780488 Z M34.037037,18.3170732 L34.037037,34.5487805 L38.382716,34.5487805 L38.382716,38.5731707 L43,34.5487805 L60.7901235,34.5487805 L60.7901235,30.3902439 L40.4197531,30.3902439 L40.4197531,18.3170732 L34.037037,18.3170732 Z M48.5,17 C50.46,17 52,18.54 52,20.5 C52,22.46 50.46,24 48.5,24 C46.54,24 45,22.46 45,20.5 C45,18.54 46.54,17 48.5,17 Z M48.5,21.9 C49.34,21.9 49.9,21.34 49.9,20.5 C49.9,19.8 49.34,19.1 48.5,19.1 C47.8,19.1 47.1,19.66 47.1,20.5 C47.1,21.2 47.66,21.9 48.5,21.9 Z M58.5,17 C60.46,17 62,18.54 62,20.5 C62,22.46 60.46,24 58.5,24 C56.54,24 55,22.46 55,20.5 C55,18.54 56.54,17 58.5,17 Z M58.5,21.9 C59.34,21.9 59.9,21.34 59.9,20.5 C59.9,19.8 59.34,19.1 58.5,19.1 C57.8,19.1 57.1,19.66 57.1,20.5 C57.1,21.2 57.66,21.9 58.5,21.9 Z M67.5,24 C65.54,24 64,22.46 64,20.5 C64,18.54 65.54,17 67.5,17 C69.46,17 71,18.54 71,20.5 C71,22.46 69.46,24 67.5,24 Z M67.5,19.1 C66.8,19.1 66.1,19.66 66.1,20.5 C66.1,21.2 66.66,21.9 67.5,21.9 C68.2,21.9 68.9,21.34 68.9,20.5 C68.9,19.8 68.34,19.1 67.5,19.1 Z" id="Stroke" fill="#000000" fill-rule="nonzero"></path>
    </g>
</svg>