<svg xmlns="http://www.w3.org/2000/svg" width="100" height="100" viewBox="0 0 100 100">
    <g fill="none" fill-rule="evenodd">
        <path fill="#A56EFF" d="M38.458 0h23.084c13.373 0 18.222 1.392 23.11 4.007 4.89 2.615 8.726 6.451 11.341 11.34 2.615 4.89 4.007 9.738 4.007 23.111v23.084c0 13.373-1.392 18.222-4.007 23.11-2.615 4.89-6.451 8.726-11.34 11.341-4.89 2.615-9.738 4.007-23.111 4.007H38.458c-13.373 0-18.222-1.392-23.11-4.007-4.89-2.615-8.726-6.451-11.341-11.34C1.392 79.763 0 74.915 0 61.542V38.458c0-13.373 1.392-18.222 4.007-23.11 2.615-4.89 6.451-8.726 11.34-11.341C20.237 1.392 25.085 0 38.458 0z"/>
        <g fill-rule="nonzero">
            <path fill="#000" fill-opacity=".2" d="M85 45.625c0-.438-.146-.73-.438-1.167L71.876 33.521V19.375c0-2.48-1.896-4.375-4.375-4.375-29.167.146-28.583-.292-29.313.438-9.77 9.77-10.062 9.77-10.062 10.645v7.584L15.437 44.604c-.291.292-.437.73-.437 1.021v37.917c0 .583.583 1.166.438 1.02.291.292.583.438 1.02.438h67.084c.875 0 1.458-.73 1.458-1.458V45.625zm-67.083 2.48l10.937 6.124 18.23 10.354-3.355 1.896-25.812 14.583V48.105zm53.229 6.27l10.937-6.125v32.958L52.917 64.583l18.229-10.208zm-2.188-35v32.813L51.167 62.25 50 62.98 31.042 52.332V27.542h8.166c.875 0 1.459-.584 1.459-1.459v-8.166H67.5c.875 0 1.458.729 1.458 1.458zm-31.208.583v4.521h-4.52l4.52-4.52zM22 82.083l28-15.75 28 15.75H22z"/>
            <path fill="#FFF" d="M61.556 41.143c.866 0 1.444.571 1.444 1.428C63 43.43 62.422 44 61.556 44H38.444C37.578 44 37 43.429 37 42.571c0-.857.578-1.428 1.444-1.428h23.112zM47.11 26.857c-.722 0-1.444-.571-1.444-1.428 0-.858.577-1.429 1.444-1.429h14.445c.866 0 1.444.571 1.444 1.429 0 .857-.578 1.428-1.444 1.428H47.11zm14.445 5.714c.866 0 1.444.572 1.444 1.429 0 .857-.578 1.429-1.444 1.429H38.444C37.578 35.429 37 34.857 37 34c0-.857.578-1.429 1.444-1.429h23.112z"/>
        </g>
    </g>
</svg>
