<?xml version="1.0" encoding="UTF-8"?>
<svg width="100px" height="100px" viewBox="0 0 100 100" version="1.1" xmlns="http://www.w3.org/2000/svg" xmlns:xlink="http://www.w3.org/1999/xlink">
    <!-- Generator: Sketch 55.2 (78181) - https://sketchapp.com -->
    <title>Targeting</title>
    <desc>Created with Sketch.</desc>
    <g id="Page-1" stroke="none" stroke-width="1" fill="none" fill-rule="evenodd">
        <g id="Circlewise-Advertiser" transform="translate(-528.000000, -3191.000000)">
            <g id="Targeting" transform="translate(528.000000, 3191.000000)">
                <path d="M38.458278,-1.55376046e-15 L61.541722,1.55376046e-15 C74.9145031,-9.02779573e-16 79.7637967,1.39238417 84.6526856,4.00699056 C89.5415744,6.62159695 93.3784031,10.4584256 95.9930094,15.3473144 C98.6076158,20.2362033 100,25.0854969 100,38.458278 L100,61.541722 C100,74.9145031 98.6076158,79.7637967 95.9930094,84.6526856 C93.3784031,89.5415744 89.5415744,93.3784031 84.6526856,95.9930094 C79.7637967,98.6076158 74.9145031,100 61.541722,100 L38.458278,100 C25.0854969,100 20.2362033,98.6076158 15.3473144,95.9930094 C10.4584256,93.3784031 6.62159695,89.5415744 4.00699056,84.6526856 C1.39238417,79.7637967 6.01853049e-16,74.9145031 -1.03584031e-15,61.541722 L1.03584031e-15,38.458278 C-6.01853049e-16,25.0854969 1.39238417,20.2362033 4.00699056,15.3473144 C6.62159695,10.4584256 10.4584256,6.62159695 15.3473144,4.00699056 C20.2362033,1.39238417 25.0854969,9.02779573e-16 38.458278,-1.55376046e-15 Z" id="Rectangle" fill="#46CDA1"></path>
                <path d="M88.3333333,48.3333333 L84.8333333,48.3333333 C84,30.3333333 69.6666667,16 51.6666667,15.1666667 L51.6666667,11.6666667 C51.6666667,10.6666667 51,10 50,10 C49,10 48.3333333,10.6666667 48.3333333,11.6666667 L48.3333333,15.1666667 C30.3333333,16 16,30.3333333 15.1666667,48.3333333 L11.6666667,48.3333333 C10.6666667,48.3333333 10,49 10,50 C10,51 10.6666667,51.6666667 11.6666667,51.6666667 L15.1666667,51.6666667 C16,69.6666667 30.3333333,84 48.3333333,84.8333333 L48.3333333,88.3333333 C48.3333333,89.3333333 49,90 50,90 C51,90 51.6666667,89.3333333 51.6666667,88.3333333 L51.6666667,84.8333333 C69.6666667,84 84,69.5 84.8333333,51.6666667 L88.3333333,51.6666667 C89.3333333,51.6666667 90,51 90,50 C90,49 89.3333333,48.3333333 88.3333333,48.3333333 Z M51.6666667,81.5 L51.6666667,78.3333333 C51.6666667,77.3333333 51,76.6666667 50,76.6666667 C49,76.6666667 48.3333333,77.3333333 48.3333333,78.3333333 L48.3333333,81.5 C32.1666667,80.6666667 19.3333333,67.8333333 18.5,51.6666667 L21.6666667,51.6666667 C22.6666667,51.6666667 23.3333333,51 23.3333333,50 C23.3333333,49 22.6666667,48.3333333 21.6666667,48.3333333 L18.5,48.3333333 C19.3333333,32.1666667 32.1666667,19.3333333 48.3333333,18.5 L48.3333333,21.6666667 C48.3333333,22.6666667 49,23.3333333 50,23.3333333 C51,23.3333333 51.6666667,22.6666667 51.6666667,21.6666667 L51.6666667,18.5 C67.8333333,19.3333333 80.6666667,32.3333333 81.5,48.3333333 L78.3333333,48.3333333 C77.3333333,48.3333333 76.6666667,49 76.6666667,50 C76.6666667,51 77.3333333,51.6666667 78.3333333,51.6666667 L81.5,51.6666667 C80.6666667,67.8333333 67.8333333,80.6666667 51.6666667,81.5 Z M50,30 C39,30 30,39 30,50 C30,61 39,70 50,70 C61,70 70,61 70,50 C70,39 61,30 50,30 Z M50,66.6666667 C40.8333333,66.6666667 33.3333333,59.1666667 33.3333333,50 C33.3333333,40.8333333 40.8333333,33.3333333 50,33.3333333 C59.1666667,33.3333333 66.6666667,40.8333333 66.6666667,50 C66.6666667,59.1666667 59.1666667,66.6666667 50,66.6666667 Z" id="Shape" fill-opacity="0.2" fill="#000000" fill-rule="nonzero"></path>
            </g>
        </g>
    </g>
</svg>