<?xml version="1.0" encoding="utf-8"?>
<!-- Generator: Adobe Illustrator 16.0.0, SVG Export Plug-In . SVG Version: 6.00 Build 0)  -->
<!DOCTYPE svg PUBLIC "-//W3C//DTD SVG 1.1//EN" "http://www.w3.org/Graphics/SVG/1.1/DTD/svg11.dtd">
<svg version="1.1" xmlns="http://www.w3.org/2000/svg" xmlns:xlink="http://www.w3.org/1999/xlink" x="0px" y="0px"
	 width="1850.907px" height="547.473px" viewBox="-33.219 -32.208 1850.907 547.473"
	 enable-background="new -33.219 -32.208 1850.907 547.473" xml:space="preserve">
<g id="Layer_2_1_" display="none">
	<rect x="-33.219" y="-32.208" display="inline" fill="#313131" width="1850.907" height="547.473"/>
</g>
<g id="Layer_1">
	<g id="Layer_2" display="none">
		<rect display="inline" width="1971.197" height="647.791"/>
	</g>
	<g id="Layer_1_1_">
		<g>
			<path fill="#00B4FF" d="M246.611,376.148c-11.92,0-23.263-1.115-33.056-3.242v-24.008l0.054-0.008V69.52l-5.505,1.262
				c-46.286,10.61-86.662,40.043-111.167,80.934H21.654c17.35-43.56,46.717-80.903,85.244-108.294
				C148.09,14.135,196.603-1.345,247.192-1.345c50.586,0,99.099,15.479,140.287,44.766c38.525,27.391,67.895,64.734,85.241,108.294
				h-75.276c-24.726-41.276-65.508-70.802-112.286-81.193l-5.476-1.216v278.389l0.007,0.004v25.219
				C269.912,375.035,258.561,376.148,246.611,376.148z"/>
			<path fill="#00B4FF" d="M247.191,3.155c49.646,0,97.255,15.192,137.68,43.933c19.472,13.843,36.727,30.473,51.286,49.427
				c12.041,15.672,22.04,32.68,29.82,50.699h-66.006c-25.478-41.186-66.688-70.612-113.839-81.086l-10.951-2.433v11.219v270.037
				v5.477l0.007,0.004v18.789c-8.629,1.576-18.526,2.426-28.577,2.426c-10.187,0-19.918-0.834-28.556-2.43v-16.381l0.054-0.006
				v-7.902V75.168V63.873l-11.011,2.524c-46.648,10.693-87.44,40.021-112.69,80.82H28.395c7.781-18.019,17.78-35.027,29.821-50.699
				c14.562-18.955,31.818-35.584,51.288-49.427C149.93,18.347,197.541,3.155,247.191,3.155 M247.191-5.845
				c-106.399,0-197.312,67.575-232.08,162.06h84.396c23.389-40.38,62.867-70.334,109.602-81.047V344.93
				c-0.022,0.002-0.039,0.01-0.054,0.016v31.527c10.394,2.609,23.394,4.176,37.556,4.176c14.156,0,27.187-1.555,37.577-4.16v-31.533
				c-0.002-0.002-0.005-0.002-0.007-0.002V74.916c47.215,10.488,87.123,40.6,110.689,81.3h84.391
				C444.494,61.731,353.583-5.845,247.191-5.845L247.191-5.845z"/>
		</g>
		<g>
			<path fill="#ABC32D" d="M247.191,484.029c-133.819,0-242.689-108.869-242.689-242.688c0-16.868,1.75-33.702,5.204-50.097
				l69.778-0.002c-4.856,16.205-7.314,33.027-7.314,50.099c0,96.506,78.515,175.022,175.022,175.022
				c96.502,0,175.013-78.518,175.013-175.022c0-17.063-2.459-33.888-7.313-50.097h69.777c3.453,16.396,5.203,33.229,5.203,50.097
				C489.871,375.16,381.005,484.029,247.191,484.029z"/>
			<path fill="#ABC32D" d="M73.543,195.744c-3.902,14.827-5.875,30.114-5.875,45.599c0,98.988,80.533,179.521,179.522,179.521
				c98.983,0,179.513-80.533,179.513-179.521c0-15.479-1.973-30.766-5.875-45.597h60.158c2.911,14.96,4.386,30.265,4.386,45.597
				c0,131.337-106.849,238.189-238.182,238.189c-131.338,0-238.189-106.854-238.189-238.189c0-15.334,1.473-30.638,4.383-45.597
				L73.543,195.744 M85.643,186.743l-79.561,0.003c-3.978,17.569-6.081,35.842-6.081,54.597
				c0,136.298,110.89,247.189,247.189,247.189c136.291,0,247.181-110.891,247.181-247.189c0-18.755-2.104-37.027-6.08-54.597
				h-79.563c5.815,17.147,8.975,35.509,8.975,54.597c0,94.023-76.492,170.521-170.513,170.521
				c-94.021,0-170.522-76.498-170.522-170.521C76.668,222.251,79.826,203.889,85.643,186.743L85.643,186.743z"/>
		</g>
		<g>
			<path fill="#313131" d="M571.023,192.399h134.074v28.526h-49.446v86.213H620.47v-86.213h-49.447V192.399L571.023,192.399z"/>
			<path fill="#313131" d="M691.369,278.771c0-22.029,15.217-23.297,44.692-23.297c16.64,0,25.834,0.479,31.695,6.496v-7.131
				c0-7.922-2.376-10.775-14.263-10.775h-17.908c-8.875,0-11.411,0.791-11.729,6.496h-29.478c0-21.869,10.774-25.514,36.446-25.514
				h35.344c20.92,0,32.015,9.983,32.015,29.002v53.09h-28.845v-9.191c-8.399,8.719-11.567,10.461-26.783,10.461h-20.761
				c-18.541,0.156-30.431-3.963-30.431-22.98v-6.656H691.369L691.369,278.771z M745.569,289.391c20.92,0,22.822-3.172,22.822-8.561
				c0-6.021-1.743-8.24-18.542-8.24h-13.472c-12.835,0-15.531,2.854-15.531,9.508c0,5.23,4.121,7.293,16.006,7.293H745.569z"/>
			<path fill="#313131" d="M811.259,226.313h28.525v15.373h0.316c3.486-12.837,15.85-16.64,29.637-16.64
				c22.188,0,30.903,9.508,30.903,31.854c0,2.061-0.158,4.279-0.318,7.131h-26.307c0-10.301-2.375-15.213-14.58-15.213
				c-10.459,0-17.748,3.961-17.748,13.629v44.689h-30.428V226.313L811.259,226.313z"/>
			<path fill="#313131" d="M911.695,256.74c0-25.038,12.836-31.694,37.084-31.694h17.75c15.373,0,19.02,1.901,26.625,12.36h0.316
				v-11.096h28.525v75.755c0,16.801-5.391,33.281-43.582,33.281h-33.6c-20.441,0-32.012-4.914-32.012-25.197h31.377
				c0,3.803,2.537,6.18,7.449,6.18h22.029c13.313,0,19.811-4.277,19.811-17.908v-5.387c-6.021,6.02-11.094,8.396-27.258,8.396
				h-16.008c-29.479,0-38.512-11.727-38.512-33.598v-11.096h0.004V256.74z M974.611,279.563c15.059,0,18.543-3.961,18.543-16.164
				c0-12.359-3.484-16.479-18.543-16.479h-14.896c-15.057,0-18.543,4.12-18.543,16.479c0,12.203,3.486,16.164,18.543,16.164H974.611
				z"/>
			<path fill="#313131" d="M1035.9,262.289c0-30.586,15.215-37.243,37.402-37.243h21.234c32.328,0,45.645,6.813,45.645,34.864
				v13.631h-73.854v4.912c0,8.559,6.021,10.938,18.701,10.938h9.352c16.48,0,17.273-4.438,17.273-9.193h28.527v3.486
				c0,20.285-18.068,24.723-40.096,24.723h-22.824c-20.125,0-41.363-3.803-41.363-38.354L1035.9,262.289L1035.9,262.289z
				 M1110.703,255.475c0-9.667-4.438-11.41-22.188-11.41c-19.809,0-22.188,1.742-22.188,11.41H1110.703z"/>
			<path fill="#313131" d="M1166.187,248.184h-15.213v-21.871h15.213v-19.017h30.428v19.017h47.23v21.871h-47.23v31.064
				c0,6.02,4.439,7.289,11.729,7.289c9.826,0,12.52-2.221,12.52-9.668v-5.391h26.623v9.828c0,15.371-10.143,27.1-34.391,27.1
				h-12.041c-18.701,0-34.867-5.863-34.867-28.209V248.184L1166.187,248.184z"/>
			<path fill="#313131" d="M1269.595,235.686c0-7.289,0.658-13.604,1.979-18.938c1.318-5.333,3.566-9.798,6.736-13.392
				c3.17-3.59,7.367-6.259,12.598-8.002c5.23-1.744,11.754-2.615,19.574-2.615h59.426c7.08,0,12.916,0.769,17.516,2.299
				c4.596,1.533,8.266,3.593,11.014,6.181c2.748,2.591,4.676,5.626,5.785,9.113c1.107,3.485,1.662,7.131,1.662,10.934v9.826h-13.627
				v-5.229c0-4.856-0.715-8.66-2.141-11.409c-1.428-2.747-3.326-4.779-5.705-6.103c-2.381-1.32-5.15-2.139-8.318-2.457
				c-3.172-0.315-6.551-0.475-10.145-0.475h-53.883c-3.699,0-7.188,0.345-10.461,1.029c-3.275,0.689-6.127,1.931-8.559,3.726
				c-2.432,1.797-4.357,4.279-5.783,7.448c-1.426,3.17-2.143,7.236-2.143,12.203v43.103c0,4.969,0.717,9.035,2.143,12.203
				c1.426,3.17,3.354,5.654,5.783,7.449c2.432,1.799,5.281,3.039,8.559,3.723c3.273,0.691,6.762,1.031,10.461,1.031h54.357
				c5.174,0,9.508-0.316,12.994-0.951c3.484-0.635,6.262-1.715,8.318-3.248c2.064-1.531,3.516-3.564,4.359-6.102
				s1.27-5.758,1.27-9.668v-7.133h14.578V278c0,5.178-0.504,9.771-1.506,13.787c-1.006,4.018-2.934,7.369-5.785,10.063
				c-2.852,2.691-6.813,4.73-11.885,6.102c-5.072,1.373-11.625,2.061-19.652,2.061h-58.635c-7.82,0-14.344-0.871-19.574-2.615
				c-5.229-1.74-9.428-4.408-12.598-8.002c-3.17-3.59-5.418-8.057-6.736-13.393c-1.32-5.332-1.979-11.648-1.979-18.938
				L1269.595,235.686L1269.595,235.686z"/>
			<path fill="#313131" d="M1423,194.004h13.631v14.896H1423V194.004z M1423,227.919h13.631v80.823H1423V227.919z"/>
			<path fill="#313131" d="M1450.99,227.919h12.68v11.728h0.316c1.27-2.641,2.826-4.807,4.676-6.498
				c1.85-1.688,3.883-3.012,6.104-3.963c2.219-0.949,4.516-1.607,6.893-1.979c2.379-0.369,4.729-0.557,7.055-0.557h12.836
				c6.338,0,11.674,0.529,16.006,1.584c4.332,1.059,7.816,2.723,10.461,4.992c2.639,2.273,4.541,5.18,5.705,8.717
				c1.16,3.541,1.744,7.792,1.744,12.757v9.668h-12.682v-3.486c0-4.965-0.344-8.979-1.027-12.043
				c-0.689-3.064-2.037-5.415-4.041-7.054c-2.012-1.637-4.891-2.717-8.639-3.248c-3.752-0.526-8.639-0.792-14.66-0.792h-8.396
				c-3.594,0-6.736,0.53-9.432,1.585c-2.693,1.058-4.912,2.484-6.654,4.277c-1.742,1.8-3.064,3.884-3.963,6.261
				c-0.898,2.377-1.348,4.889-1.348,7.527v51.348h-13.631L1450.99,227.919L1450.99,227.919z"/>
			<path fill="#313131" d="M1544.888,259.299c0-7.291,1.188-13.099,3.564-17.433c2.377-4.332,5.469-7.635,9.271-9.904
				c3.801-2.271,8.133-3.727,12.996-4.359c4.854-0.634,9.77-0.949,14.734-0.949h22.822c12.678,0,21.736,2.433,27.178,7.289
				c5.441,4.86,8.162,11.567,8.162,20.128v2.219h-12.68v-1.902c0-3.381-0.529-6.152-1.584-8.32c-1.059-2.164-2.563-3.854-4.518-5.07
				c-1.953-1.213-4.334-2.063-7.131-2.535c-2.803-0.479-5.891-0.713-9.271-0.713h-25.037c-3.17,0-6.262,0.214-9.273,0.634
				c-3.012,0.424-5.678,1.374-8.002,2.853c-2.322,1.48-4.174,3.674-5.547,6.578c-1.375,2.908-2.059,6.895-2.059,11.965v16.957
				c0,4.543,0.656,8.24,1.979,11.096c1.32,2.852,3.193,5.098,5.625,6.732c2.432,1.643,5.334,2.773,8.719,3.406
				c3.379,0.635,7.131,0.951,11.25,0.951h22.979c3.17,0,6.154-0.262,8.953-0.791c2.799-0.527,5.283-1.453,7.449-2.775
				c2.166-1.316,3.855-3.063,5.07-5.229c1.215-2.164,1.822-4.887,1.822-8.16v-2.695h12.682v2.379c0,5.068-0.662,9.402-1.982,12.994
				c-1.322,3.592-3.408,6.525-6.26,8.795c-2.855,2.273-6.525,3.938-11.016,4.992s-9.904,1.584-16.246,1.584h-30.742
				c-3.064,0-6.553-0.314-10.459-0.951c-3.91-0.633-7.607-2.084-11.096-4.354c-3.484-2.271-6.418-5.572-8.795-9.908
				c-2.377-4.328-3.563-10.143-3.563-17.432v-18.068h0.004V259.299z"/>
			<path fill="#313131" d="M1656.753,194.004h13.629v114.738h-13.629V194.004z"/>
			<path fill="#313131" d="M1684.802,259.299c0-7.291,1.16-13.099,3.486-17.433c2.322-4.332,5.359-7.635,9.113-9.904
				c3.748-2.271,7.975-3.727,12.678-4.359c4.699-0.634,9.48-0.949,14.342-0.949h21.871c6.125,0,11.752,0.476,16.875,1.426
				c5.123,0.951,9.535,2.722,13.234,5.31c3.695,2.591,6.6,6.156,8.715,10.698c2.111,4.542,3.172,10.406,3.172,17.591v9.033h-89.857
				v5.068c0,4.65,0.578,8.455,1.744,11.41c1.162,2.959,3.033,5.313,5.625,7.055c2.588,1.742,5.969,2.959,10.141,3.645
				c4.174,0.688,9.219,1.029,15.137,1.029h18.701c4.227,0,7.869-0.186,10.934-0.555s5.6-1.082,7.607-2.141
				c2.006-1.055,3.51-2.535,4.518-4.438c1.004-1.898,1.607-4.383,1.82-7.447h13.631v1.586c0,4.648-0.928,8.504-2.771,11.568
				c-1.854,3.064-4.543,5.521-8.082,7.369c-3.541,1.85-7.82,3.17-12.838,3.961c-5.021,0.793-10.697,1.189-17.037,1.189h-24.721
				c-4.439,0-8.932-0.314-13.475-0.953c-4.543-0.631-8.635-2.109-12.281-4.436c-3.645-2.324-6.604-5.65-8.875-9.984
				c-2.27-4.33-3.404-10.246-3.404-17.75L1684.802,259.299L1684.802,259.299z M1774.658,254.227c0-2.006-0.449-4.014-1.346-6.02
				c-0.898-2.005-2.404-3.777-4.518-5.31c-2.113-1.531-5.02-2.773-8.717-3.727c-3.699-0.951-8.297-1.426-13.785-1.426h-19.971
				c-5.389,0-9.826,0.292-13.313,0.871c-3.486,0.582-6.26,1.664-8.32,3.25c-2.059,1.584-3.541,3.802-4.439,6.654
				c-0.896,2.854-1.506,6.553-1.82,11.094h76.227L1774.658,254.227L1774.658,254.227z"/>
		</g>
	</g>
</g>
</svg>
