<?xml version="1.0" encoding="UTF-8"?>
<svg width="1785px" height="487px" viewBox="0 0 1785 487" version="1.1" xmlns="http://www.w3.org/2000/svg" xmlns:xlink="http://www.w3.org/1999/xlink">
    <!-- Generator: Sketch 43.2 (39069) - http://www.bohemiancoding.com/sketch -->
    <title>tc-logo-black-payoff</title>
    <desc>Created with Sketch.</desc>
    <defs></defs>
    <g id="Page-1" stroke="none" stroke-width="1" fill="none" fill-rule="evenodd">
        <g id="tc-logo-black-payoff" transform="translate(-4.000000, -4.000000)" fill-rule="nonzero" fill="#FFFFFF">
            <polygon id="Shape" points="571.023 198.399 705.097 198.399 705.097 226.925 655.651 226.925 655.651 313.138 620.47 313.138 620.47 226.925 571.023 226.925 571.023 198.399"></polygon>
            <path d="M691.369,284.771 C691.369,262.742 706.586,261.474 736.061,261.474 C752.701,261.474 761.895,261.953 767.756,267.97 L767.756,260.839 C767.756,252.917 765.38,250.064 753.493,250.064 L735.585,250.064 C726.71,250.064 724.174,250.855 723.856,256.56 L694.378,256.56 C694.378,234.691 705.152,231.046 730.824,231.046 L766.168,231.046 C787.088,231.046 798.183,241.029 798.183,260.048 L798.183,313.138 L769.338,313.138 L769.338,303.947 C760.939,312.666 757.771,314.408 742.555,314.408 L721.794,314.408 C703.253,314.564 691.363,310.445 691.363,291.428 L691.363,284.772 L691.369,284.772 L691.369,284.771 L691.369,284.771 Z M745.569,295.391 C766.489,295.391 768.391,292.219 768.391,286.83 C768.391,280.809 766.648,278.59 749.849,278.59 L736.377,278.59 C723.542,278.59 720.846,281.444 720.846,288.098 C720.846,293.328 724.967,295.391 736.852,295.391 L745.569,295.391 L745.569,295.391 Z" id="Shape"></path>
            <path d="M811.259,232.313 L839.784,232.313 L839.784,247.686 L840.1,247.686 C843.586,234.849 855.95,231.046 869.737,231.046 C891.925,231.046 900.64,240.554 900.64,262.9 C900.64,264.961 900.482,267.179 900.322,270.031 L874.015,270.031 C874.015,259.73 871.64,254.818 859.435,254.818 C848.976,254.818 841.687,258.779 841.687,268.447 L841.687,313.136 L811.259,313.136 L811.259,232.313 L811.259,232.313 L811.259,232.313 Z" id="Shape"></path>
            <path d="M911.695,262.74 C911.695,237.702 924.531,231.046 948.779,231.046 L966.529,231.046 C981.902,231.046 985.549,232.947 993.154,243.406 L993.47,243.406 L993.47,232.31 L1021.995,232.31 L1021.995,308.065 C1021.995,324.866 1016.604,341.346 978.413,341.346 L944.813,341.346 C924.372,341.346 912.801,336.432 912.801,316.149 L944.178,316.149 C944.178,319.952 946.715,322.329 951.627,322.329 L973.656,322.329 C986.969,322.329 993.467,318.052 993.467,304.421 L993.467,299.034 C987.446,305.054 982.373,307.43 966.209,307.43 L950.201,307.43 C920.722,307.43 911.689,295.703 911.689,273.832 L911.689,262.736 L911.693,262.736 L911.693,262.74 L911.695,262.74 Z M974.611,285.563 C989.67,285.563 993.154,281.602 993.154,269.399 C993.154,257.04 989.67,252.92 974.611,252.92 L959.715,252.92 C944.658,252.92 941.172,257.04 941.172,269.399 C941.172,281.602 944.658,285.563 959.715,285.563 L974.611,285.563 L974.611,285.563 Z" id="Shape"></path>
            <path d="M1035.9,268.289 C1035.9,237.703 1051.115,231.046 1073.302,231.046 L1094.536,231.046 C1126.864,231.046 1140.181,237.859 1140.181,265.91 L1140.181,279.541 L1066.327,279.541 L1066.327,284.453 C1066.327,293.012 1072.348,295.391 1085.028,295.391 L1094.38,295.391 C1110.86,295.391 1111.653,290.953 1111.653,286.198 L1140.18,286.198 L1140.18,289.684 C1140.18,309.969 1122.112,314.407 1100.084,314.407 L1077.26,314.407 C1057.135,314.407 1035.897,310.604 1035.897,276.053 L1035.9,268.289 L1035.9,268.289 L1035.9,268.289 Z M1110.703,261.475 C1110.703,251.808 1106.265,250.065 1088.515,250.065 C1068.706,250.065 1066.327,251.807 1066.327,261.475 L1110.703,261.475 L1110.703,261.475 Z" id="Shape"></path>
            <path d="M1166.187,254.184 L1150.974,254.184 L1150.974,232.313 L1166.187,232.313 L1166.187,213.296 L1196.615,213.296 L1196.615,232.313 L1243.845,232.313 L1243.845,254.184 L1196.615,254.184 L1196.615,285.248 C1196.615,291.268 1201.054,292.537 1208.344,292.537 C1218.17,292.537 1220.864,290.316 1220.864,282.869 L1220.864,277.478 L1247.487,277.478 L1247.487,287.306 C1247.487,302.677 1237.344,314.406 1213.096,314.406 L1201.055,314.406 C1182.354,314.406 1166.188,308.543 1166.188,286.197 L1166.188,254.184 L1166.187,254.184 L1166.187,254.184 Z" id="Shape"></path>
            <path d="M1269.595,241.686 C1269.595,234.397 1270.253,228.082 1271.574,222.748 C1272.892,217.415 1275.14,212.95 1278.31,209.356 C1281.48,205.766 1285.677,203.097 1290.908,201.354 C1296.138,199.61 1302.662,198.739 1310.482,198.739 L1369.908,198.739 C1376.988,198.739 1382.824,199.508 1387.424,201.038 C1392.02,202.571 1395.69,204.631 1398.438,207.219 C1401.186,209.81 1403.114,212.845 1404.223,216.332 C1405.33,219.817 1405.885,223.463 1405.885,227.266 L1405.885,237.092 L1392.258,237.092 L1392.258,231.863 C1392.258,227.007 1391.543,223.203 1390.117,220.454 C1388.689,217.707 1386.791,215.675 1384.412,214.351 C1382.031,213.031 1379.262,212.212 1376.094,211.894 C1372.922,211.579 1369.543,211.419 1365.949,211.419 L1312.066,211.419 C1308.367,211.419 1304.878,211.764 1301.605,212.448 C1298.33,213.137 1295.478,214.379 1293.046,216.174 C1290.614,217.971 1288.689,220.453 1287.263,223.622 C1285.837,226.792 1285.12,230.858 1285.12,235.825 L1285.12,278.928 C1285.12,283.897 1285.837,287.963 1287.263,291.131 C1288.689,294.301 1290.617,296.785 1293.046,298.58 C1295.478,300.379 1298.327,301.619 1301.605,302.303 C1304.878,302.994 1308.367,303.334 1312.066,303.334 L1366.423,303.334 C1371.597,303.334 1375.931,303.018 1379.417,302.383 C1382.901,301.748 1385.679,300.668 1387.735,299.135 C1389.799,297.604 1391.251,295.571 1392.094,293.033 C1392.937,290.495 1393.364,287.275 1393.364,283.365 L1393.364,276.232 L1407.942,276.232 L1407.942,284 C1407.942,289.178 1407.438,293.771 1406.436,297.787 C1405.43,301.805 1403.502,305.156 1400.651,307.85 C1397.799,310.541 1393.838,312.58 1388.766,313.952 C1383.694,315.325 1377.141,316.013 1369.114,316.013 L1310.479,316.013 C1302.659,316.013 1296.135,315.142 1290.905,313.398 C1285.676,311.658 1281.477,308.99 1278.307,305.396 C1275.137,301.806 1272.889,297.339 1271.571,292.003 C1270.251,286.671 1269.592,280.355 1269.592,273.065 L1269.595,241.686 L1269.595,241.686 L1269.595,241.686 Z" id="Shape"></path>
            <path d="M1423,200.004 L1436.631,200.004 L1436.631,214.9 L1423,214.9 L1423,200.004 L1423,200.004 Z M1423,233.919 L1436.631,233.919 L1436.631,314.742 L1423,314.742 L1423,233.919 L1423,233.919 Z" id="Shape"></path>
            <path d="M1450.99,233.919 L1463.67,233.919 L1463.67,245.647 L1463.986,245.647 C1465.256,243.006 1466.812,240.84 1468.662,239.149 C1470.512,237.461 1472.545,236.137 1474.766,235.186 C1476.985,234.237 1479.282,233.579 1481.659,233.207 C1484.038,232.838 1486.388,232.65 1488.714,232.65 L1501.55,232.65 C1507.888,232.65 1513.224,233.179 1517.556,234.234 C1521.888,235.293 1525.372,236.957 1528.017,239.226 C1530.656,241.499 1532.558,244.406 1533.722,247.943 C1534.882,251.484 1535.466,255.735 1535.466,260.7 L1535.466,270.368 L1522.784,270.368 L1522.784,266.882 C1522.784,261.917 1522.44,257.903 1521.757,254.839 C1521.068,251.775 1519.72,249.424 1517.716,247.785 C1515.704,246.148 1512.825,245.068 1509.077,244.537 C1505.325,244.011 1500.438,243.745 1494.417,243.745 L1486.021,243.745 C1482.427,243.745 1479.285,244.275 1476.589,245.33 C1473.896,246.388 1471.677,247.814 1469.935,249.607 C1468.193,251.407 1466.871,253.491 1465.972,255.868 C1465.074,258.245 1464.624,260.757 1464.624,263.395 L1464.624,314.743 L1450.993,314.743 L1450.99,233.919 L1450.99,233.919 L1450.99,233.919 Z" id="Shape"></path>
            <path d="M1544.888,265.299 C1544.888,258.008 1546.076,252.2 1548.452,247.866 C1550.829,243.534 1553.921,240.231 1557.723,237.962 C1561.524,235.691 1565.856,234.235 1570.719,233.603 C1575.573,232.969 1580.489,232.654 1585.453,232.654 L1608.275,232.654 C1620.953,232.654 1630.011,235.087 1635.453,239.943 C1640.894,244.803 1643.615,251.51 1643.615,260.071 L1643.615,262.29 L1630.935,262.29 L1630.935,260.388 C1630.935,257.007 1630.406,254.236 1629.351,252.068 C1628.292,249.904 1626.788,248.214 1624.833,246.998 C1622.88,245.785 1620.499,244.935 1617.702,244.463 C1614.899,243.984 1611.811,243.75 1608.431,243.75 L1583.394,243.75 C1580.224,243.75 1577.132,243.964 1574.121,244.384 C1571.109,244.808 1568.443,245.758 1566.119,247.237 C1563.797,248.717 1561.945,250.911 1560.572,253.815 C1559.197,256.723 1558.513,260.71 1558.513,265.78 L1558.513,282.737 C1558.513,287.28 1559.169,290.977 1560.492,293.833 C1561.812,296.685 1563.685,298.931 1566.117,300.565 C1568.549,302.208 1571.451,303.338 1574.836,303.971 C1578.215,304.606 1581.967,304.922 1586.086,304.922 L1609.065,304.922 C1612.235,304.922 1615.219,304.66 1618.018,304.131 C1620.817,303.604 1623.301,302.678 1625.467,301.356 C1627.633,300.04 1629.322,298.293 1630.537,296.127 C1631.752,293.963 1632.359,291.24 1632.359,287.967 L1632.359,285.272 L1645.041,285.272 L1645.041,287.651 C1645.041,292.719 1644.379,297.053 1643.059,300.645 C1641.737,304.237 1639.651,307.17 1636.799,309.44 C1633.944,311.713 1630.274,313.378 1625.783,314.432 C1621.292,315.486 1615.879,316.016 1609.537,316.016 L1578.795,316.016 C1575.731,316.016 1572.242,315.702 1568.336,315.065 C1564.426,314.432 1560.729,312.981 1557.24,310.711 C1553.756,308.44 1550.822,305.139 1548.445,300.803 C1546.068,296.475 1544.882,290.66 1544.882,283.371 L1544.882,265.303 L1544.886,265.303 L1544.886,265.299 L1544.888,265.299 Z" id="Shape"></path>
            <polygon id="Shape" points="1656.753 200.004 1670.382 200.004 1670.382 314.742 1656.753 314.742"></polygon>
            <path d="M1684.802,265.299 C1684.802,258.008 1685.962,252.2 1688.288,247.866 C1690.61,243.534 1693.647,240.231 1697.401,237.962 C1701.149,235.691 1705.376,234.235 1710.079,233.603 C1714.778,232.969 1719.559,232.654 1724.421,232.654 L1746.292,232.654 C1752.417,232.654 1758.044,233.13 1763.167,234.08 C1768.29,235.031 1772.702,236.802 1776.401,239.39 C1780.096,241.981 1783.001,245.546 1785.116,250.088 C1787.227,254.63 1788.288,260.494 1788.288,267.679 L1788.288,276.712 L1698.431,276.712 L1698.431,281.78 C1698.431,286.43 1699.009,290.235 1700.175,293.19 C1701.337,296.149 1703.208,298.503 1705.8,300.245 C1708.388,301.987 1711.769,303.204 1715.941,303.89 C1720.115,304.578 1725.16,304.919 1731.078,304.919 L1749.779,304.919 C1754.006,304.919 1757.648,304.733 1760.713,304.364 C1763.778,303.995 1766.313,303.282 1768.32,302.223 C1770.326,301.168 1771.83,299.688 1772.838,297.785 C1773.842,295.887 1774.445,293.402 1774.658,290.338 L1788.289,290.338 L1788.289,291.924 C1788.289,296.572 1787.361,300.428 1785.518,303.492 C1783.664,306.556 1780.975,309.013 1777.436,310.861 C1773.895,312.711 1769.616,314.031 1764.598,314.822 C1759.577,315.615 1753.901,316.011 1747.561,316.011 L1722.84,316.011 C1718.401,316.011 1713.908,315.697 1709.365,315.058 C1704.822,314.427 1700.73,312.949 1697.084,310.622 C1693.439,308.298 1690.48,304.972 1688.209,300.638 C1685.939,296.308 1684.805,290.392 1684.805,282.888 L1684.802,265.299 L1684.802,265.299 L1684.802,265.299 Z M1774.658,260.227 C1774.658,258.221 1774.209,256.213 1773.312,254.207 C1772.414,252.202 1770.908,250.43 1768.794,248.897 C1766.681,247.366 1763.774,246.124 1760.077,245.17 C1756.378,244.219 1751.78,243.744 1746.292,243.744 L1726.321,243.744 C1720.932,243.744 1716.495,244.036 1713.008,244.615 C1709.522,245.197 1706.748,246.279 1704.688,247.865 C1702.629,249.449 1701.147,251.667 1700.249,254.519 C1699.353,257.373 1698.743,261.072 1698.429,265.613 L1774.656,265.613 L1774.658,260.227 L1774.658,260.227 L1774.658,260.227 Z" id="Shape"></path>
            <path d="M246.611,382.148 C234.691,382.148 223.348,381.033 213.555,378.906 L213.555,354.898 L213.609,354.89 L213.609,75.52 L208.104,76.782 C161.818,87.392 121.442,116.825 96.937,157.716 L21.654,157.716 C39.004,114.156 68.371,76.813 106.898,49.422 C148.09,20.135 196.603,4.655 247.192,4.655 C297.778,4.655 346.291,20.134 387.479,49.421 C426.004,76.812 455.374,114.155 472.72,157.715 L397.444,157.715 C372.718,116.439 331.936,86.913 285.158,76.522 L279.682,75.306 L279.682,353.695 L279.689,353.699 L279.689,378.918 C269.912,381.035 258.561,382.148 246.611,382.148 L246.611,382.148 Z" id="Shape"></path>
            <path d="M247.191,490.029 C113.372,490.029 4.502,381.16 4.502,247.341 C4.502,230.473 6.252,213.639 9.706,197.244 L79.484,197.242 C74.628,213.447 72.17,230.269 72.17,247.341 C72.17,343.847 150.685,422.363 247.192,422.363 C343.694,422.363 422.205,343.845 422.205,247.341 C422.205,230.278 419.746,213.453 414.892,197.244 L484.669,197.244 C488.122,213.64 489.872,230.473 489.872,247.341 C489.871,381.16 381.005,490.029 247.191,490.029 L247.191,490.029 Z" id="Shape"></path>
        </g>
    </g>
</svg>