<?xml version="1.0" encoding="UTF-8"?>
<svg width="100px" height="100px" viewBox="0 0 100 100" version="1.1" xmlns="http://www.w3.org/2000/svg" xmlns:xlink="http://www.w3.org/1999/xlink">
    <!-- Generator: Sketch 55.2 (78181) - https://sketchapp.com -->
    <title>Tracking</title>
    <desc>Created with Sketch.</desc>
    <g id="Page-1" stroke="none" stroke-width="1" fill="none" fill-rule="evenodd">
        <g id="Circlewise-Advertiser" transform="translate(-243.000000, -3191.000000)">
            <g id="Tracking" transform="translate(243.000000, 3191.000000)">
                <path d="M38.458278,-1.55376046e-15 L61.541722,1.55376046e-15 C74.9145031,-9.02779573e-16 79.7637967,1.39238417 84.6526856,4.00699056 C89.5415744,6.62159695 93.3784031,10.4584256 95.9930094,15.3473144 C98.6076158,20.2362033 100,25.0854969 100,38.458278 L100,61.541722 C100,74.9145031 98.6076158,79.7637967 95.9930094,84.6526856 C93.3784031,89.5415744 89.5415744,93.3784031 84.6526856,95.9930094 C79.7637967,98.6076158 74.9145031,100 61.541722,100 L38.458278,100 C25.0854969,100 20.2362033,98.6076158 15.3473144,95.9930094 C10.4584256,93.3784031 6.62159695,89.5415744 4.00699056,84.6526856 C1.39238417,79.7637967 6.01853049e-16,74.9145031 -1.03584031e-15,61.541722 L1.03584031e-15,38.458278 C-6.01853049e-16,25.0854969 1.39238417,20.2362033 4.00699056,15.3473144 C6.62159695,10.4584256 10.4584256,6.62159695 15.3473144,4.00699056 C20.2362033,1.39238417 25.0854969,9.02779573e-16 38.458278,-1.55376046e-15 Z" id="Rectangle" fill="#FFB900"></path>
                <path d="M73.8333333,65.2960541 C72,64.6303551 69.8333333,65.1296293 68.3333333,65.7953283 C68.1666667,65.6289035 65.1666667,62.6332582 65.3333333,62.799683 C67.8333333,59.8040377 69.6666667,55.809844 70,51.6492255 C70.1666667,51.6492255 78.5,51.6492255 78.3333333,51.6492255 C78,56.8083924 76.5,61.1354356 73.8333333,65.2960541 Z M51.6666667,78.1107589 L51.6666667,69.789522 C55.6666667,69.4566725 59.8333333,67.7924251 62.8333333,65.1296293 L65.8333333,68.1252746 C64.8333333,69.6230972 64.6666667,71.7866188 65.3333333,73.617291 C61.3333333,76.2800868 56.6666667,77.9443342 51.6666667,78.1107589 Z M21.6666667,51.6492255 L30,51.6492255 C30.3333333,55.6434192 31.8333333,59.637613 34.6666667,62.799683 L28.8333333,68.6245488 C24.6666667,63.9646562 22.1666667,58.1397903 21.6666667,51.6492255 Z M43.8333333,22.3584716 C44.6666667,24.3555685 46.3333333,25.8533911 48.3333333,26.3526653 L48.3333333,30.0140096 C44.3333333,30.3468591 40.1666667,32.0111064 37,34.6739022 L31.1666667,28.8490364 C34.6666667,25.6869664 39,23.3570201 43.8333333,22.3584716 Z M68.8333333,28.8490364 L63,34.6739022 C59.6666667,31.8446817 55.8333333,30.3468591 51.8333333,30.0140096 L51.8333333,26.3526653 C54,25.8533911 55.6666667,24.1891437 56.3333333,22.3584716 C60.8333333,23.3570201 65,25.5205416 68.8333333,28.8490364 Z M78.3333333,48.3207308 C76.6666667,48.3207308 69.8333333,48.3207308 70,48.3207308 C69.6666667,44.4929618 68,40.3323433 65.3333333,37.1702733 L71.1666667,31.3454075 C75.3333333,36.0053002 77.8333333,41.6637412 78.3333333,48.3207308 Z M62.8333333,60.4697367 L55.6666667,53.3134729 C56,52.8141987 56.1666667,52.1484997 56.3333333,51.6492255 L66.5,51.6492255 C66.5,51.8156503 66.8333333,55.3105698 62.8333333,60.4697367 Z M51.6666667,66.4610272 L51.6666667,56.3091182 C52.5,56.1426935 53.1666667,55.6434192 53.3333333,55.6434192 L60.5,62.799683 C58.1666667,64.7967798 55,66.1281777 51.6666667,66.4610272 Z M39.5,37.0038486 C41.8333333,35.0067517 45,33.6753538 48.3333333,33.3425043 L48.3333333,43.4944134 C47.6666667,43.6608381 47.1666667,43.8272628 46.6666667,44.1601123 L39.5,37.0038486 Z M60.5,37.0038486 L53.3333333,44.1601123 C53,43.9936876 52.3333333,43.6608381 51.6666667,43.4944134 L51.6666667,33.3425043 C54.6666667,33.6753538 57.8333333,34.840327 60.5,37.0038486 Z M66.5,48.3207308 L56.3333333,48.3207308 C56.1666667,47.6550318 56,47.1557576 55.6666667,46.6564834 L62.8333333,39.5002197 C64.8333333,41.830166 66.1666667,44.992236 66.5,48.3207308 Z M46.6666667,55.6434192 C47.1666667,55.9762687 47.8333333,56.1426935 48.3333333,56.3091182 L48.3333333,66.4610272 C44.8333333,66.1281777 42,64.7967798 39.5,62.799683 L46.6666667,55.6434192 Z M37.1666667,65.1296293 C40.1666667,67.6260004 44.1666667,69.4566725 48.3333333,69.789522 L48.3333333,78.1107589 C42,77.7779094 36,75.2815383 31.1666667,70.9544952 L37.1666667,65.1296293 Z M43.5,51.6492255 C43.6666667,51.982075 44,52.8141987 44.1666667,53.3134729 L37,60.4697367 C34.8333333,57.6405161 33.6666667,54.6448708 33.3333333,51.6492255 L43.5,51.6492255 L43.5,51.6492255 Z M28.8333333,73.4508662 C34.1666667,78.2771836 41,81.1064042 48.3333333,81.6056784 L48.3333333,86.5984205 C39.6666667,86.2655711 31.6666667,82.9370763 25.3333333,77.1122105 L28.8333333,73.4508662 Z M81.6666667,48.3207308 C81.3333333,41.3308918 78.6666667,34.5074775 73.5,28.8490364 L77,25.3541169 C82.8333333,31.678257 86.1666667,39.6666444 86.6666667,48.3207308 C86.1666667,48.3207308 81.5,48.3207308 81.6666667,48.3207308 Z M74.6666667,23.0241706 L71.1666667,26.5190901 C66.8333333,22.5248964 61.6666667,20.0285253 56.6666667,19.0299769 C55.5,11.5408636 44.5,11.5408636 43.5,19.0299769 C38.1666667,20.19495 33,22.6913211 28.8333333,26.5190901 L25.3333333,23.0241706 C39.1666667,10.2094657 60.5,10.043041 74.6666667,23.0241706 Z M13.3333333,51.6492255 L18.3333333,51.6492255 C18.6666667,58.4726398 21.3333333,65.4624788 26.5,71.1209199 L23,74.6158394 C17.1666667,68.2916993 13.8333333,60.1368872 13.3333333,51.6492255 Z M51.6666667,86.4319958 L51.6666667,81.4392537 C57.3333333,81.1064042 62.8333333,79.2757321 67.1666667,76.4465115 C68.8333333,77.9443342 71.3333333,78.6100331 73.5,77.9443342 C67.3333333,83.103501 59.8333333,86.0991463 51.6666667,86.4319958 Z M78,73.4508662 C78.6666667,71.2873446 78.1666667,68.7909736 76.5,67.1267262 C79.5,62.6332582 81.3333333,56.9748172 81.5,51.6492255 C81.8333333,51.6492255 86.6666667,51.6492255 86.5,51.6492255 C86.3333333,59.9704624 83,67.6260004 78,73.4508662 Z" id="Shape" fill-opacity="0.2" fill="#000000" fill-rule="nonzero"></path>
                <path d="M68.3333333,70.9544952 C69.1666667,67.1267262 75,67.7924251 75,71.6201941 C75,72.4523178 74.6666667,73.2844415 74,73.9501404 C71.6666667,76.2800868 67.6666667,74.1165652 68.3333333,70.9544952 Z M53.3333333,20.0285253 L53.3333333,20.19495 C53.1666667,20.3613748 53,23.3570201 50,23.3570201 C47,23.3570201 46.8333333,20.3613748 46.6666667,20.19495 L46.6666667,20.0285253 C46.6666667,18.1978532 48.1666667,16.7000305 50,16.7000305 C51.8333333,16.7000305 53.3333333,18.1978532 53.3333333,20.0285253 Z M53.3333333,49.9849782 C53.3333333,54.3120213 46.6666667,54.3120213 46.6666667,49.9849782 C46.6666667,45.657935 53.3333333,45.657935 53.3333333,49.9849782 Z" id="Path-4" fill="#FFFFFF" fill-rule="nonzero"></path>
            </g>
        </g>
    </g>
</svg>