<svg xmlns="http://www.w3.org/2000/svg" width="86" height="80" viewBox="0 0 86 80">
    <g fill="none" fill-rule="evenodd" transform="translate(-8 -10)">
        <path fill="#FFF" fill-opacity="0" d="M0 0h100v100H0z"/>
        <circle cx="50" cy="50" r="40" fill="#E4F2F8"/>
        <circle cx="27" cy="40" r="5" fill="#D02E7D"/>
        <circle cx="90" cy="54" r="4" fill="#46A7CD"/>
        <circle cx="15" cy="72" r="7" fill="#FFB900"/>
        <g fill-rule="nonzero">
            <path fill="#FFF" d="M72.381 66.056v-46.98V15h-1.609v3.218H51.036a.846.846 0 0 0-.858.858v3.647H37.95c-.321 0-.536.107-.643.429a.916.916 0 0 0 0 .75l4.29 8.045-4.29 8.045a.916.916 0 0 0 0 .75c.107.215.429.43.643.43h20.595c.107 0 .214 0 .321-.108 0 0 .108 0 .108-.107l.214-.214v-.108-3.754h11.477v29.39H60.153v4.076H39.13v4.397H18v10.083h65v-18.77H72.381z"/>
            <path fill="#000" d="M72.381 66.056v-46.98V15h-1.609v3.218H51.036a.846.846 0 0 0-.858.858v3.647H37.95c-.321 0-.536.107-.643.429a.916.916 0 0 0 0 .75l4.29 8.045-4.29 8.045a.916.916 0 0 0 0 .75c.107.215.429.43.643.43h20.595c.107 0 .214 0 .321-.108 0 0 .108 0 .108-.107l.214-.214v-.108-3.754h11.477v29.39H60.153v4.076H39.13v4.397H18v10.083h65v-18.77H72.381zm-33.25 16.84H19.608v-6.865H39.13v6.865zm21.13 0H40.739V71.634h19.522v11.262zm-20.916-43.44l3.861-7.187a.916.916 0 0 0 0-.75l-3.861-7.187h10.94v11.584c-.107.322 0 .75.322.965l4.72 2.574H39.345zm18.341-.537l-4.29-2.36h4.29v2.36zm-5.792-3.861V19.827h18.878V34.95H51.894v.108zm29.497 47.838H61.87V67.665H81.39v15.231z"/>
        </g>
    </g>
</svg>
