<?xml version="1.0" encoding="UTF-8"?>
<svg transform="rotate(90)"  width="100px" height="100px" viewBox="0 0 100 100" version="1.1" xmlns="http://www.w3.org/2000/svg" xmlns:xlink="http://www.w3.org/1999/xlink">
    <!-- Generator: Sketch 55.2 (78181) - https://sketchapp.com -->
    <title>transition</title>
    <desc>Created with Sketch.</desc>
    <g id="transition" stroke="none" stroke-width="1" fill="none" fill-rule="evenodd">
        <rect id="Rectangle" fill="#D02E7D" x="0" y="0" width="50" height="100"></rect>
        <rect id="Rectangle-Copy" fill="#FFB900" x="50" y="0" width="50" height="100"></rect>
        <path d="M94,31 C90.6862915,31 88,28.3137085 88,25 C88,21.6862915 90.6862915,19 94,19 C97.3137085,19 100,21.6862915 100,25 C100,28.3137085 97.3137085,31 94,31 Z M81,81 C77.6862915,81 75,78.3137085 75,75 C75,71.6862915 77.6862915,69 81,69 C84.3137085,69 87,71.6862915 87,75 C87,78.3137085 84.3137085,81 81,81 Z M50,50 C36.1928813,50 25,38.8071187 25,25 C25,11.1928813 36.1928813,0 50,0 C63.8071187,0 75,11.1928813 75,25 C75,38.8071187 63.8071187,50 50,50 Z" id="Oval-Copy-13" fill="#D02E7D"></path>
        <path d="M19,31 C15.6862915,31 13,28.3137085 13,25 C13,21.6862915 15.6862915,19 19,19 C22.3137085,19 25,21.6862915 25,25 C25,28.3137085 22.3137085,31 19,31 Z M6,81 C2.6862915,81 0,78.3137085 0,75 C0,71.6862915 2.6862915,69 6,69 C9.3137085,69 12,71.6862915 12,75 C12,78.3137085 9.3137085,81 6,81 Z M50,100 C36.1928813,100 25,88.8071187 25,75 C25,61.1928813 36.1928813,50 50,50 C63.8071187,50 75,61.1928813 75,75 C75,88.8071187 63.8071187,100 50,100 Z" id="Oval-Copy-14" fill="#FFB900"></path>
        <circle id="Oval" fill="#D02E7D" cx="50" cy="75" r="12"></circle>
        <circle id="Oval-Copy-8" fill="#FFB900" cx="50" cy="25" r="12"></circle>
    </g>
</svg>