<?xml version="1.0" encoding="UTF-8"?>
<svg width="966px" height="239px" viewBox="0 0 966 239" version="1.1" xmlns="http://www.w3.org/2000/svg" xmlns:xlink="http://www.w3.org/1999/xlink">
    <title>Group</title>
    <g id="Page-1" stroke="none" stroke-width="1" fill="none" fill-rule="evenodd">
        <g id="Group" transform="translate(12, 0)">
            <path d="M156,115.794914 L156,144.005086 C156,163.406317 154.121334,171.307284 150.577521,178.452916 L150.346579,178.912983 L150.11103,179.371596 C149.992106,179.600645 149.871458,179.829389 149.749095,180.058189 C145.670309,187.684856 139.684856,193.670309 132.058189,197.749095 C131.829389,197.871458 131.600645,197.992106 131.371596,198.11103 L130.912983,198.346579 L130.452916,198.577521 C123.307284,202.121334 115.406317,204 96.0050863,204 L59.9949137,204 C40.5936829,204 32.6927165,202.121334 25.5470845,198.577521 L25.0870171,198.346579 L24.6284044,198.11103 C24.3993549,197.992106 24.1706105,197.871458 23.9418105,197.749095 C16.3151439,193.670309 10.3296912,187.684856 6.25090527,180.058189 C6.12854169,179.829389 6.00789411,179.600645 5.8889697,179.371596 L5.65342055,178.912983 L5.42247927,178.452916 C1.9167715,171.384118 0.0405939438,163.576143 0,144.626957 L0,107.994914 C0,88.5936829 1.87866598,80.6927165 5.42247927,73.5470845 L5.65342055,73.0870171 L5.8889697,72.6284044 C6.00789411,72.3993549 6.12854169,72.1706105 6.25090527,71.9418105 C10.3296912,64.3151439 16.3151439,58.3296912 23.9418105,54.2509053 C24.1706105,54.1285417 24.3993549,54.0078941 24.6284044,53.8889697 L25.0870171,53.6534206 L25.5470845,53.4224793 C32.6158817,49.9167715 40.4238569,48.0405939 59.3730432,48 L88.2050863,48" id="Path" stroke="#1A1A1A" stroke-width="24" stroke-linecap="round" fill-rule="nonzero"></path>
            <circle id="Oval" stroke="#DD5642" stroke-width="24" cx="148" cy="56" r="27"></circle>
            <text id="HelloPush" font-family="Open Sans" font-size="160" font-weight="400" fill="#1A1A1A">
                <tspan x="216" y="176">HelloPush</tspan>
            </text>
        </g>
    </g>
</svg>